<?xml version="1.0" encoding="UTF-8"?>
<svg id="b" data-animate="true" xmlns="http://www.w3.org/2000/svg" width="335.184" height="419.478" viewBox="0 0 335.184 419.478"><defs><style>.j{fill:#f4b467;}.k{fill:#fff;}.l{fill:#7cc67a;}.m{fill:#f4b3b3;}.n{fill:#211715;}.o{fill:#79c6e0;}.p{fill:#645d5c;}</style></defs><g id="c"><g id="d"><path class="o" d="M198.684,19.048c4.706,19.524,9.413,39.049,14.119,58.573.603,2.501,4.461,1.442,3.857-1.063-4.706-19.524-9.413-39.049-14.119-58.573-.603-2.501-4.461-1.442-3.857,1.063h0Z"/><path class="o" d="M86.02,6.604c2.469,10.244,4.939,20.489,7.408,30.733.603,2.501,4.461,1.442,3.857-1.063-2.469-10.244-4.939-20.489-7.408-30.733-.603-2.501-4.461-1.442-3.857,1.063h0Z"/><path class="o" d="M35.628,29.13c1.145,4.75,2.29,9.499,3.435,14.249.253,1.05,1.443,1.676,2.46,1.397,1.072-.295,1.651-1.407,1.397-2.46-1.145-4.75-2.29-9.499-3.435-14.249-.253-1.05-1.443-1.676-2.46-1.397-1.072.295-1.651,1.407-1.397,2.46h0Z"/><path class="o" d="M206.925,181.416c1.83,7.593,3.66,15.185,5.49,22.778.603,2.501,4.461,1.442,3.857-1.063-1.83-7.593-3.66-15.185-5.49-22.778-.603-2.501-4.461-1.442-3.857,1.063h0Z"/><path class="o" d="M288.029,196.793c1.938,8.038,3.875,16.076,5.813,24.114.603,2.501,4.461,1.442,3.857-1.063-1.938-8.038-3.875-16.076-5.813-24.114-.603-2.501-4.461-1.442-3.857,1.063h0Z"/><path class="o" d="M275.566,145.089c3.138,13.017,6.276,26.035,9.413,39.052.603,2.501,4.461,1.442,3.857-1.063-3.138-13.017-6.276-26.035-9.413-39.052-.603-2.501-4.461-1.442-3.857,1.063h0Z"/><path class="o" d="M311.381,76.974c1.702,7.062,3.404,14.123,5.107,21.185.603,2.501,4.461,1.442,3.857-1.063-1.702-7.062-3.404-14.123-5.107-21.185-.603-2.501-4.461-1.442-3.857,1.063h0Z"/><path class="o" d="M319.603,111.196c3.886,16.123,7.773,32.247,11.659,48.37.603,2.501,4.461,1.442,3.857-1.063-3.886-16.123-7.773-32.247-11.659-48.37-.603-2.501-4.461-1.442-3.857,1.063h0Z"/><path class="o" d="M22.842,136.948c-1.702-7.062-3.404-14.123-5.107-21.185-.603-2.501-4.461-1.442-3.857,1.063,1.702,7.062,3.404,14.123,5.107,21.185.603,2.501,4.461,1.442,3.857-1.063h0Z"/><path class="o" d="M14.62,102.725c-3.526-14.627-7.17-29.226-10.699-43.852-.603-2.501-4.462-1.442-3.857,1.063,3.529,14.626,7.173,29.225,10.699,43.852.603,2.501,4.461,1.442,3.857-1.063h0Z"/><path class="o" d="M251.541,45.418c5.471,22.696,10.942,45.392,16.412,68.089,1.545,6.41,3.09,12.82,4.635,19.23.603,2.501,4.461,1.442,3.857-1.063-5.464-22.667-10.927-45.334-16.391-68-1.552-6.439-3.104-12.879-4.656-19.318-.603-2.501-4.461-1.442-3.857,1.063h0Z"/><path class="o" d="M136.894,2.491c3.262,13.534,6.525,27.069,9.787,40.603.603,2.501,4.461,1.442,3.857-1.063-3.262-13.534-6.525-27.069-9.787-40.603-.603-2.501-4.461-1.442-3.857,1.063h0Z"/><path class="o" d="M56.506,131.631c2.846,11.806,5.691,23.612,8.537,35.417.603,2.501,4.461,1.442,3.857-1.063-2.846-11.806-5.691-23.612-8.537-35.417-.603-2.501-4.461-1.442-3.857,1.063h0Z"/><path class="o" d="M305.466,366.022c.068.022.134.046.2.074l-.478-.202c.173.077.332.174.482.289l-.405-.313c.178.142.334.303.473.482l-.313-.405c.162.216.294.45.4.698l-.202-.478c.113.277.189.565.23.861l-.071-.532c.036.292.036.584,0,.876l.071-.532-.007.052c-.083.266-.095.532-.036.798.012.266.091.514.237.744.243.415.718.811,1.195.919.512.117,1.087.091,1.541-.202l.405-.313c.248-.25.419-.544.514-.883.05-.357.113-.716.107-1.078-.006-.356-.061-.714-.122-1.064-.092-.52-.304-1.032-.554-1.493-.157-.288-.365-.542-.567-.799-.112-.143-.233-.278-.37-.398-.511-.446-1.018-.753-1.667-.962-.481-.155-1.112-.05-1.541.202-.415.243-.811.718-.919,1.195-.117.512-.091,1.087.202,1.541.289.449.682.754,1.195.919h0Z"/><path class="o" d="M301.59,360.808c3.089,0,3.094-4.8,0-4.8s-3.094,4.8,0,4.8h0Z"/><g id="e"><path class="l" d="M275.458,409.474c-1.575.435-3.292.468-4.558.338-2.375-.418-4.856-2.306-4.18-5.646,0,0-1.54-.282-3.268-.598-.15.904-.317,1.809-.536,2.714-2.367,2.027-6.276,1.304-7.797.548-1.918-.801-2.585-2.315-2.841-3.588-.142-1.804.923-3.873,2.588-4.741,1.509-5.282,1.187-8.687,3.254-13.342-1.006-.338-2.001-.726-2.89-1.301-2.934-1.898-5.834-5.046-6.517-8.576-.4-2.065-.471-3.833.651-7.076.652-1.883,2.121-4.437,5.382-5.957-.398-1.922-.735-3.872-.397-5.957.642-3.96,4.491-6.839,8.487-6.473s7.371,4.15,7.281,8.161c1.015.024,2.084.161,2.931.319-.127-4.07,3.671-7.932,7.681-7.979.357-.004.715.022,1.072.08,4.425.727,8.699,5.254,6.051,12.055,7.238,1.877,9.068,7.284,9.176,10.544.085,2.583-.822,5.161-2.416,7.198,2.016,2.787,4.431,5.47,5.757,8.703,1,2.439,1.324,5.271.292,7.697-.636,1.496-1.736,2.739-2.838,3.934-1.585,1.719-3.239,3.419-5.249,4.614s-4.44,1.846-6.716,1.307c-.287-.068-.599-.178-.735-.439-.122-.236-.062-.522.015-.776.212-.697.538-1.359.955-1.957-.289.158-1.476.792-1.476.792-.59.315-2.874.29-3.444-.061,0,0-.37-.228-1.003-.618-.242.948-.52,1.904-.838,2.922-.615,1.732-2.161,2.681-3.875,3.154Z"/><path class="n" d="M253.73,360.527c-4.842,2.361-7.715,7.961-7.235,13.302.56,6.232,5.323,11.281,11.106,13.264,2.44.837,3.488-3.025,1.063-3.857-4.101-1.407-7.859-5.22-8.191-9.672-.298-3.996,1.641-7.811,5.276-9.583,2.313-1.128.288-4.579-2.019-3.454h0Z"/><path class="n" d="M288.473,364.237c1.693.624,3.196,1.591,4.385,2.945.834.95,1.469,2.222,1.8,3.365.092.318.171.64.235.964.028.141.051.282.075.423.045.257-.03-.351.005.041.069.78.096,1.57-.015,2.348-.299,2.083-1.315,3.99-2.772,5.488-1.796,1.847,1.03,4.678,2.828,2.828,3.361-3.457,4.855-8.478,3.5-13.156-1.289-4.447-4.713-7.533-8.979-9.104-1.014-.373-2.191.418-2.46,1.397-.307,1.116.379,2.086,1.397,2.46h0Z"/><path class="n" d="M292.056,390.283c-3.051-1.075-6.657.603-8.015,3.497-1.485,3.163-.318,7.048,2.349,9.198l.405-3.141c-1.572,1.166-2.848,2.65-3.472,4.534-.379,1.143-.362,2.395.574,3.275.742.698,1.802.849,2.771.952,4.355.46,8.228-2.21,11.147-5.149,3.022-3.044,5.793-6.338,5.449-10.9-.33-4.38-2.805-7.934-5.389-11.315-.655-.857-1.722-1.311-2.736-.718-.844.493-1.377,1.873-.718,2.736,2.866,3.75,6.873,9.005,3.74,13.757-1.321,2.004-3.278,3.932-5.153,5.421-.963.765-2.054,1.436-3.226,1.821-.614.202-1.244.353-1.891.385-.27.014-.548.016-.817-.005-.266-.022-.722-.244-.537-.031l.514.883-.067-.381v1.063c.237-1.134.891-2.181,1.829-2.876.921-.683,1.509-2.251.405-3.141-1.299-1.047-2.356-2.834-1.639-4.534.563-1.334,2.098-1.939,3.413-1.476,2.433.857,3.479-3.006,1.063-3.857h0Z"/><path class="n" d="M255.946,385.189c-1.645,4.097-1.825,8.554-3.008,12.781l.919-1.195c-2.541,1.448-4.254,4.758-3.341,7.652.799,2.53,2.849,4.145,5.371,4.795,2.466.637,5.387.564,7.578-.864.963-.628,1.324-1.222,1.561-2.343.168-.794.304-1.595.434-2.397.301-1.862.574-3.722,1.072-5.544.679-2.487-3.178-3.548-3.857-1.063-.784,2.87-1.01,5.847-1.686,8.74l.514-.883c-1.416,1.139-3.71.827-5.27.277-.141-.053-.125-.043.046.029-.1-.048-.202-.095-.304-.141-.261-.129-.537-.247-.768-.429-.346-.274-.607-.648-.777-1.053-.264-.629-.155-1.409.266-2.154.235-.416.542-.739.922-1.022.804-.598,1.131-1.134,1.387-2.108.359-1.369.63-2.757.87-4.15.462-2.682.908-5.325,1.928-7.864.403-1.003-.439-2.197-1.397-2.46-1.141-.313-2.056.39-2.46,1.397h0Z"/><path class="n" d="M269.149,395.647c-.211,1.634-.693,3.639-1.12,5.389l1.929-1.468c-1.449.012-2.729.801-3.685,1.848-.426.467-.843.987-1.16,1.536-.397.689-.507,1.506-.505,2.296.006,2.531,1.551,4.806,3.841,5.85,2.044.932,4.238.9,6.418.547,2.228-.36,4.418-1.417,5.696-3.335.842-1.264,1.162-2.915,1.534-4.367.442-1.726.741-3.472.973-5.238.141-1.073-1.02-2-2-2-1.198,0-1.859.924-2,2-.292,2.227-.85,4.415-1.503,6.56-.039.127-.096.262-.121.392-.077.415.121-.213-.005.054-.072.153-.159.295-.242.442-.04.072-.091.139-.137.207.215-.316.074-.088.006-.022-.136.133-.267.268-.406.398-.163.152.066-.042.088-.058-.087.065-.178.127-.269.186-.138.09-.281.174-.426.252-.078.042-.567.268-.365.184.181-.075-.3.104-.395.135-.352.114-.711.204-1.074.277-.195.039-.391.072-.588.102.402-.061-.071.002-.22.015-.701.06-1.402.059-2.104.018-.092-.005-.185-.014-.277-.022.047.004.356.099.155.01-.145-.064-.332-.08-.485-.127-.129-.039-.585-.219-.237-.064-.182-.081-.36-.172-.532-.272s-.342-.207-.501-.326c.273.204-.022-.036-.117-.128-.084-.082-.393-.45-.295-.314.133.184-.031-.057-.043-.079-.052-.102-.115-.204-.174-.302-.187-.31-.044-.099-.013-.009-.04-.115-.078-.23-.109-.347-.024-.09-.043-.181-.062-.273-.061-.297-.016.428-.009-.143.002-.155.005-.581.005-.575,0,.071-.064.106-.092.165.06-.126.153-.244.229-.361.051-.077.104-.153.159-.227-.129.173-.021.024.054-.057.185-.2.369-.397.568-.583.003-.003.259-.202.111-.095-.127.09.176-.098.204-.116.276-.172-.247.115.032-.021.224-.109-.381-.009.076-.013.857-.007,1.72-.614,1.929-1.468.521-2.135.981-4.272,1.263-6.452.139-1.073-1.018-2-2-2-1.196,0-1.861.924-2,2h0Z"/><path class="n" d="M280.164,405.742c.352.209.76.339,1.164.402.518.081,1.036.143,1.56.151.929.014,1.901-.062,2.739-.492.432-.222.793-.737.919-1.195.132-.479.072-1.116-.202-1.541-.275-.427-.685-.803-1.195-.919-.541-.123-1.044-.054-1.541.202-.019.01-.038.019-.057.027l.478-.202c-.181.075-.377.108-.569.135l.532-.071c-.666.088-1.356.08-2.021-.007l.532.071c-.229-.032-.461-.071-.677-.157l.478.202c-.041-.017-.081-.036-.119-.059-.445-.264-1.044-.339-1.541-.202-.464.128-.967.486-1.195.919-.245.464-.368,1.026-.202,1.541.161.498.461.924.919,1.195h0Z"/><path class="n" d="M256.676,361.722c-.438-2.151-.905-4.666.178-6.709.842-1.588,2.346-2.696,4.091-3.096,3.685-.845,7.162,2.443,7.172,6.065.003,1.112.915,1.958,2,2,.809.032,1.601.107,2.399.248,1.256.221,2.537-.531,2.532-1.929-.015-3.849,4.034-7.005,7.71-5.578,3.815,1.481,4.486,5.464,3.252,8.977-.855,2.433,3.008,3.48,3.857,1.063,1.057-3.007,1.125-6.303-.398-9.166-1.232-2.314-3.444-4.017-5.914-4.824-6.096-1.991-12.53,3.292-12.506,9.527l2.532-1.929c-1.146-.202-2.299-.345-3.462-.391l2,2c-.018-6.181-5.787-11.14-11.898-9.992-2.735.513-5.235,2.324-6.651,4.707-1.839,3.093-1.436,6.72-.75,10.089.513,2.521,4.37,1.454,3.857-1.063h0Z"/><path class="n" d="M257.535,375.234c4.288,2.582,9.521,2.997,14.421,2.96,4.691-.035,9.651-.842,13.579-3.566,2.101-1.457.104-4.926-2.019-3.454-3.383,2.346-7.521,2.989-11.56,3.02-4.196.032-8.721-.198-12.402-2.414-2.211-1.331-4.224,2.126-2.019,3.454h0Z"/><path class="n" d="M283.371,357.698c.214,1.38-.495,4.379-3.034,4.272-3.304-.503-2.944-4.201-1.578-5.765,1.118-1.281,3.883-1.477,4.612,1.493Z"/><path class="n" d="M264.635,356.557c.572,1.274.686,4.353-1.79,4.925-3.319.393-3.954-3.268-3.053-5.139.737-1.532,3.351-2.456,4.843.214Z"/></g><g id="f"><path class="k" d="M192.453,157.195c5.333,0,12.731.931,21.519,3.035,4.841,1.159,10.067,3.228,13.477,7.229.857-2.133,1.702-4.381,3.326-6.007,2.444-2.448,5.179-4.318,9.846-3.855-13.812-13.759-28.763-29.059-40.917-43.967-22.265-2.328-66.043-21.143-77.624-31.172-21.71-1.239-43.164-6.824-62.72-16.334,4.452,9.523,5.797,20.473,3.801,30.806,8.8,2.226,16.602,6.559,22.648,11.854,6.569,5.753,14.53,15.12,17.92,22.761,2.291.342,3.858.721,5.723,1.873l83,23.778Z"/><path class="j" d="M184.509,389.453c-.218-1.668-.59-11.56-.515-12.084.047-5.03-.193-8.754.091-13.58.111-1.894.197-4.788-.381-5.784-.955-1.646-1.385-2.078-3.288-2.121-1.903-.044-10.191.728-12.094.788-6.593.209-14.308.014-16.955.264-1.038.098-1.8,1.25-2.055,2.374l-1.047-.046c-5.828.337-10.81.73-14.712.881-3.742.145-7.878.072-13.671.326-1.028.045-1.571,1.259-1.487,2.284.182,2.212.834,5.512,1.414,10.625.249,2.198.706,5.066-.707,7.057-3.529,4.093-8.203,7.638-14.168,13.575-2.309,2.299-4.28,5.374-4.006,8.621.193,2.284,1.629,4.344,3.504,5.662,1.875,1.318,4.149,1.964,6.422,2.261,5.197.678,10.583-.491,15.112-3.101,1.359-.783,2.554-1.802,3.701-2.888,2.838-2.688,4.844-5.192,8.732-6.38l1.954.452c-.421.415-.851.839-1.291,1.278-2.415,2.404-4.477,5.621-4.19,9.017.202,2.389,1.704,4.543,3.665,5.922s4.34,2.055,6.717,2.364c5.435.709,11.068-.513,15.805-3.243,1.421-.819,2.672-1.885,3.87-3.02,2.968-2.811,5.066-5.43,9.132-6.673,2.489-.761,6.569-2.834,8.473-4.608,2.649-2.47,2.101-6.881,1.975-10.221Z"/><path class="m" d="M111.042,148.604c-2.219,2.371-4.117,4.71-4.548,6.025-.327.998-.548,2.081-.269,3.094.405,1.471,1.793,2.412,3.321,2.707l1.188.345c-4.227,2.898-7.854,6.853-10.674,11.955-4.867,8.807-11.907,21.421-10.04,31.361.776,4.134-.95,8.442-.057,12.552.893,4.11,3.259,8.087,7.008,9.995,4.886,2.486,10.149,1.472,14.642-1.627.801,10.278-2.574,20.72-4.89,30.93-.21.927-.403,1.938.012,2.793.325.669.966,1.118,1.59,1.521,10.346,6.694,23.033,9.061,35.351,8.707,12.318-.354,22.572-1.037,33.353-5.657l1.41-2.934c4.682,1.466,10.872,3.159,13.142,4.442,3.595-.326,2.522-7.111,2.522-19.768-.147-7.48-.587-30.287-1.173-34.541-1.369-9.925-2.308-18.668-5.72-28.087-2.487-6.866-6.299-13.21-11.385-18.451-.279-.288-.564-.568-.854-.841.399-.202.637-.323.637-.323,1.356.788,3.121.932,4.605.377s2.648-1.798,3.037-3.24c.412-1.524-.023-3.162-.845-4.534-.823-1.372-2.008-2.522-3.2-3.636-2.151-2.011-4.369-3.96-6.649-5.844-1.577-1.304-3.101-6.094-3.029-8.055l-50.748,3.52c-1.463,1.03-4.867,4.148-7.735,7.212Z"/><path class="k" d="M120.807,356.242l-.413-2.759c-4.783-31.497-7.39-59.003-8.334-90.102,0,0-.001-.374-.006-.946,9.585,5.034,20.747,6.842,31.621,6.529,12.318-.354,22.572-1.037,33.353-5.657l1.868-1.128c.446,7.239.925,15.029.925,15.029,1.24,26.19,1.77,54.64,1.72,78.69,0,0,0,.032.001.093-.311-.064-.677-.096-1.125-.106-1.903-.044-10.191.728-12.094.788-6.593.209-14.308.014-16.955.264-1.005.095-1.759,1.177-2.037,2.267l-1.065.062c-5.828.337-10.81.73-14.712.881-3.4.132-7.125.084-12.122.265l-.624-4.168Z"/><path class="k" d="M180.198,260.883c-.251-.076-.5-.152-.745-.228l-2.322,2.652c-3.414,1.463-6.776,2.532-10.167,3.32.444,3.173,1.59,6.33,1.59,6.33,1.891,3.436,4.47,4.862,6.959,5.708.778-.119,1.699-.255,1.699-.255,1.401-.207,4.537-2.226,5.505-3.26,3.567-3.812,5.048-6.687,8.646-10.51-2.194-1.107-6.993-2.486-11.164-3.756Z"/><path class="k" d="M126.823,104.499c3.994-2.027,7.939-4.133,11.502-5.76-1.185,2.03-3.665,6.414-2.47,6.401,4.452.503,10.816-1.924,15.656-6.074.681,4.497,3.761,9.737,7.892,13.771.272.27.554.533.837.795.332.304.669.596,1.012.879,1.163,1.159,4.507,4.069,5.874,5.158l.558.445c.175-.083.351-.167.351-.167,1.624-.771,3.597-.765,5.216.016s2.852,2.321,3.259,4.072c.389,1.671.046,3.444-.618,5.026-1.909,4.549-6.625,7.781-11.562,7.895-2.341,3.326-9.245,8.182-14.049,9.878-4.864,1.717-8.369,2.036-13.349,1.629-7.009-.572-12.67-3.11-17.116-8.543-3.67-4.485-5.298-9.656-5.762-15.526-.338-4.277-.434-10.673.317-14.386,3.942-1.307,8.224-3.364,12.452-5.51Z"/><path class="p" d="M116.136,94.069c-.728,1.944-1.3,4.067-1.67,6.384-.469,2.935-.412,7.436-.335,8.98l.032.645c7.71-2.511,16.76-7.959,24.163-11.338-1.185,2.03-3.665,6.414-2.47,6.401,4.452.503,10.816-1.924,15.656-6.074.681,4.497,3.761,9.737,7.892,13.771.272.27.554.533.837.795.332.304.669.596,1.012.879,1.163,1.159,4.507,4.069,5.874,5.158l.558.445c.175-.083.351-.167.351-.167,1.624-.771,3.597-.765,5.216.016.828.4,1.556.998,2.123,1.722,2.752-4.409,3.637-10.19,3.891-13.772.382-5.377-.467-10.809-2.76-15.672-.961-2.038-2.157-3.956-3.541-5.72-.558-.71-1.409-1.753-1.996-2.395-.937-1.025-3.072-2.852-5.037-4.245-1.432-1.015-2.943-1.916-4.517-2.684-3.48-1.697-7.246-2.711-11.078-3.152-7.565-.871-14.242.589-19.807,3.685-5.243,2.916-11.26,7.974-14.391,16.339Z"/><path class="k" d="M127.249,158.279c-.687-.899-1.203-1.9-1.482-2.991,2.434-1.911,4.274-4.543,5.194-7.482l.09-.398c1.843.544,3.803.886,5.881,1.056,4.98.407,8.485.088,13.349-1.629.684-.241,1.411-.547,2.16-.903.25.781.439,1.37.439,1.37,1.198,2.744,3.031,5.2,5.29,7.161-2.783,2.809-5.771,5.399-9.336,7.066-4.208,1.96-9.069,2.505-13.603,1.505-3.054-.67-6.137-2.342-7.982-4.754Z"/><path class="p" d="M190.155,127.816c1.364-3.454,2.976-6.73,2.819-10.555-.15-3.49-1.65-6.78-3.99-9.35-1.95-2.16-5.28-4.05-8.16-4.55-.482-.08-1.004-.171-1.55-.231.109,1.588.104,3.188-.009,4.783-.241,3.392-1.047,8.754-3.467,13.057l-.413.734c.537.685.928,1.484,1.125,2.331.389,1.671.046,3.444-.618,5.026-.046.109-.093.218-.151.321,1.189,5.106,6.574,9.334,8.814,10.418,2.18,1.06,4.24,1.6,6.18,1.69-2.19-3.86-2.29-9.3-.66-13.47.027-.069.054-.137.081-.205Z"/><path class="n" d="M152.193,368.473c10.084.495,20.623.566,30.479-1.894,2.496-.623,1.439-4.482-1.063-3.857-9.507,2.373-19.692,2.229-29.416,1.752-2.573-.126-2.566,3.874,0,4h0Z"/><path class="n" d="M120.676,371.278c9.484,1.037,19.252.082,28.635-1.434,1.067-.172,1.661-1.5,1.397-2.46-.312-1.135-1.39-1.57-2.46-1.397-9.031,1.459-18.449,2.289-27.572,1.291-1.075-.118-2,1.003-2,2,0,1.179.922,1.882,2,2h0Z"/><path class="n" d="M127.178,156.705c2.693-2.13,4.675-5.102,5.712-8.367.317-.997-.372-2.227-1.397-2.46-1.091-.249-2.121.329-2.46,1.397-.115.362-.241.721-.382,1.073-.049.124-.201.402.04-.09-.035.072-.064.147-.097.219-.074.164-.151.326-.231.488-.337.681-.725,1.336-1.159,1.96-.103.148-.21.292-.316.438-.156.215.038-.056.093-.119-.066.074-.125.157-.188.234-.241.295-.492.581-.754.857-.525.554-1.091,1.067-1.689,1.54-.375.296-.586.961-.586,1.414,0,.491.218,1.076.586,1.414.381.35.882.61,1.414.586.564-.025.975-.238,1.414-.586h0Z"/><path class="n" d="M151.153,148.311c1.27,2.882,3.229,5.492,5.599,7.563.787.688,2.064.833,2.828,0,.692-.754.841-2.093,0-2.828-.556-.485-1.087-.997-1.589-1.538-.244-.263-.481-.532-.711-.808-.115-.138-.227-.278-.34-.418-.261-.325.203.273.056.074-.059-.08-.12-.159-.179-.239-.875-1.189-1.615-2.473-2.211-3.824-.189-.428-.765-.801-1.195-.919-.479-.132-1.116-.072-1.541.202-.427.275-.803.685-.919,1.195-.127.557-.027,1.022.202,1.541h0Z"/><path class="n" d="M169.044,121.676c1.74-.774,3.855-.048,4.854,1.365,1.201,1.698.833,3.963-.097,5.795-1.776,3.5-5.422,5.907-9.227,6.114-1.079.059-2,.877-2,2,0,1.038.916,2.059,2,2,4.633-.252,8.837-2.596,11.582-6.32,2.919-3.959,3.777-10.034-.453-13.435-2.52-2.026-5.768-2.267-8.678-.972-.987.439-1.22,1.877-.718,2.736.595,1.017,1.746,1.158,2.736.718h0Z"/><path class="n" d="M177.524,121.98c4.162-7.587,4.909-17.633,2.551-25.885-2.499-8.749-8.859-16.036-16.872-20.23-8.161-4.272-18.324-5.301-27.155-2.627-6.706,2.031-12.826,6.228-17.115,11.769-5.456,7.05-7.206,15.665-6.804,24.425.118,2.563,4.118,2.578,4,0-.318-6.929.643-13.74,4.371-19.719,3.158-5.066,7.999-9.042,13.437-11.458,15.06-6.691,34.498.416,41.117,15.608,1.938,4.448,2.556,9.382,2.198,14.195-.304,4.092-1.198,8.285-3.183,11.904-1.239,2.258,2.214,4.279,3.454,2.019h0Z"/><path class="n" d="M168.564,160.796c8.075,4.984,13.636,13.572,16.795,22.378,1.74,4.85,2.912,9.873,3.777,14.948.736,4.315,1.429,8.69,1.868,13.047.566,5.62.567,11.33.719,16.972.168,6.246.339,12.496.386,18.744.033,4.34.358,8.731.056,13.066-.055.793-.065.961-.19,1.557-.059.281-.141.553-.217.829-.141.511.036-.088-.117.266-.035.08-.087.157-.139.227-.107.146.311-.186.039-.063-.022.01-.384.271-.068.076s-.082-.01-.097.029c.12-.311.388-.069.142-.072-.084-.001-.606.04.026.018-.143.005-.861-.043-.357.027-1.068-.149-2.148.26-2.46,1.397-.257.936.32,2.31,1.397,2.46,6.989.977,6.177-8.101,6.101-12.628-.121-7.232-.219-14.464-.394-21.695-.159-6.585-.255-13.192-.709-19.765-.262-3.797-.914-7.584-1.466-11.347-.782-5.337-1.755-10.654-3.333-15.82-3.379-11.064-9.693-21.903-19.739-28.104-2.197-1.356-4.208,2.103-2.019,3.454h0Z"/><path class="n" d="M176.018,261.58c-6.321,2.682-13.092,4.088-19.908,4.723-7.059.657-14.308,1.023-21.381.419-6.669-.569-13.379-2.103-19.466-4.928-1.535-.712-3.034-1.501-4.487-2.368-.614-.366-1.443-.729-1.944-1.245-.597-.615-.25-1.398-.076-2.164.839-3.687,1.806-7.343,2.654-11.028,1.926-8.368,3.238-16.985,1.391-25.492-.546-2.514-4.403-1.45-3.857,1.063,1.705,7.855.341,15.885-1.444,23.596-.9,3.886-2.031,7.74-2.792,11.655-.374,1.925-.221,3.795,1.296,5.197,1.307,1.208,3.039,2.076,4.595,2.914,13.374,7.202,28.569,7.671,43.375,6.558,8.309-.624,16.371-2.184,24.064-5.448.995-.422,1.213-1.889.718-2.736-.602-1.03-1.738-1.141-2.736-.718h0Z"/><path class="n" d="M110.603,223.281c-2.57,1.739-5.445,2.914-8.596,2.735-2.798-.159-5.387-1.519-7.191-3.639-1.72-2.021-2.915-4.848-3.09-7.501-.219-3.311.766-6.584.425-9.898-.278-2.706-.601-5.207-.153-7.932.47-2.858,1.334-5.642,2.372-8.341,2.046-5.321,4.816-10.386,7.625-15.336,3.179-5.602,7.735-10.125,13.467-13.084,2.288-1.181.267-4.634-2.019-3.454-5.674,2.93-10.397,7.365-13.831,12.738-3.451,5.401-6.427,11.368-8.802,17.315-1.219,3.053-2.23,6.215-2.728,9.472-.213,1.393-.364,2.798-.368,4.208-.004,1.649.343,3.228.477,4.86.298,3.641-.846,7.225-.309,10.872.471,3.198,1.912,6.3,3.986,8.769,2.387,2.842,5.857,4.537,9.53,4.902,3.998.398,7.948-1.015,11.224-3.233,2.12-1.435.121-4.902-2.019-3.454h0Z"/><path class="n" d="M123.679,155.021c1.223,7.363,9.718,10.567,16.304,10.501,3.97-.04,7.898-1.097,11.359-3.038s6.417-4.709,9.163-7.551c1.79-1.852-1.035-4.684-2.828-2.828-4.632,4.793-9.877,9.035-16.823,9.391-5.118.262-12.332-1.608-13.317-7.538-.177-1.066-1.497-1.662-2.46-1.397-1.131.311-1.574,1.391-1.397,2.46h0Z"/><path class="n" d="M135.684,179.763c.002,17.915.003,35.831.005,53.746v15.249c.002,2.574,4.002,2.578,4.001,0-.002-17.915-.003-35.831-.005-53.746,0-5.083,0-10.166-.001-15.249,0-2.574-4-2.578-4,0h0Z"/><path class="n" d="M166.826,273.965c1.893,3.544,5.467,6.222,9.419,6.987,1.024.198,2.208-.288,2.46-1.397.225-.989-.299-2.248-1.397-2.46-.422-.082-.84-.183-1.251-.311-.195-.061-.389-.126-.581-.197-.096-.035-.191-.074-.287-.11-.412-.156.425.196.026.01-.764-.355-1.492-.766-2.174-1.263-.033-.024-.066-.048-.099-.073-.12-.09-.066-.048.161.126-.053-.075-.169-.135-.239-.193-.158-.131-.312-.265-.463-.404-.317-.291-.618-.598-.902-.921-.112-.128-.25-.385-.393-.472.174.228.216.281.126.161-.025-.033-.049-.066-.073-.099-.06-.083-.12-.166-.178-.25-.256-.371-.488-.757-.701-1.154-.494-.924-1.853-1.287-2.736-.718-.939.605-1.246,1.748-.718,2.736h0Z"/><path class="n" d="M189.767,263.303c-2.575,2.769-4.661,5.897-7.003,8.671-.566.67-1.134,1.364-1.772,1.966-.191.181-.396.349-.603.511.356-.279-.057.035-.137.092-.147.106-.296.209-.447.31-.619.418-1.261.807-1.925,1.149-.154.079-.312.151-.467.229-.38.191.306-.09-.103.044-.245.08-.479.162-.735.206-1.065.186-1.663,1.491-1.397,2.46.309,1.125,1.392,1.583,2.46,1.397,1.398-.244,2.78-1.108,3.952-1.875,1.423-.932,2.568-1.995,3.675-3.279,2.621-3.04,4.629-6.15,7.329-9.053.735-.791.783-2.045,0-2.828-.744-.744-2.09-.794-2.828,0h0Z"/><path class="n" d="M110.059,263.38c.72,23.467,2.544,46.874,5.533,70.161.877,6.835,1.84,13.659,2.873,20.473.162,1.069,1.507,1.659,2.46,1.397,1.143-.314,1.559-1.388,1.397-2.46-3.499-23.081-6.075-46.287-7.399-69.598-.378-6.653-.66-13.312-.864-19.972-.079-2.568-4.079-2.579-4,0h0Z"/><path class="n" d="M177.82,277.208c.975,20.678,1.494,41.378,1.666,62.078.046,5.537.065,11.075.054,16.612-.005,2.574,3.995,2.578,4,0,.039-20.326-.293-40.655-.997-60.968-.205-5.909-.444-11.816-.723-17.722-.121-2.563-4.122-2.578-4,0h0Z"/><path class="n" d="M140.819,292.229c.95,17.403,2.536,34.77,4.772,52.056.635,4.906,1.318,9.806,2.051,14.698.16,1.069,1.508,1.658,2.46,1.397,1.144-.315,1.558-1.388,1.397-2.46-2.543-16.979-4.457-34.05-5.742-51.17-.363-4.837-.674-9.677-.938-14.521-.14-2.56-4.141-2.576-4,0h0Z"/><path class="n" d="M142.857,290.305c-1.333-.4-2.667-.8-4-1.201-.49-.147-1.103-.055-1.541.202-.415.243-.811.718-.919,1.195-.117.512-.091,1.087.202,1.541.286.444.682.765,1.195.919l4,1.201c.49.147,1.103.055,1.541-.202.415-.243.811-.718.919-1.195.117-.512.091-1.087-.202-1.541-.286-.444-.682-.765-1.195-.919h0Z"/><path class="n" d="M117.767,139.665c-2.732,1.946-5.161,4.411-7.475,6.824-1.319,1.375-2.593,2.793-3.758,4.302-1.019,1.32-1.907,2.664-2.246,4.327-.336,1.647-.213,3.378.8,4.772.945,1.3,2.367,2.127,3.926,2.468,2.509.549,3.581-3.306,1.063-3.857-.825-.18-1.805-.533-1.969-1.462-.123-.696.211-1.318.347-1.975.055-.264-.236.41.037-.052.069-.116.129-.238.198-.355.186-.316.391-.621.603-.921.138-.195.279-.387.424-.576-.225.295.116-.145.162-.202.653-.814,1.343-1.6,2.047-2.37,1.453-1.587,2.975-3.113,4.543-4.586.67-.629,1.349-1.249,2.044-1.85.281-.243.568-.479.853-.717.1-.083.537-.405.064-.057.119-.087.235-.176.355-.262.879-.626,1.298-1.745.718-2.736-.508-.868-1.852-1.347-2.736-.718h0Z"/><path class="n" d="M148.265,357.264c-6.867.4-13.708.904-20.588,1-1.804.025-3.607.058-5.41.116-1.929.062-4.023-.129-5.188,1.733-1.438,2.297-.291,5.781.074,8.27.286,1.953.536,3.909.758,5.87.203,1.795.464,3.738-.626,5.299-1.477,2.115,1.989,4.116,3.454,2.019,1.227-1.756,1.447-3.94,1.299-6.026-.16-2.242-.499-4.483-.81-6.708-.229-1.641-.506-3.283-.71-4.923-.069-.554-.027-1.131-.069-1.659-.419.169-.444.234-.074.195.32-.013.641-.026.961-.038.611-.022,1.222-.042,1.833-.059,3.908-.11,7.819-.078,11.725-.268,4.46-.216,8.914-.562,13.372-.822,2.559-.149,2.576-4.15,0-4h0Z"/><path class="k" d="M85.24,205.713c1.051-3.146,2.647-4.499,5.227-3.938,2.581.562,3.465,3.191,2.945,4.959-.913,3.103-.365,3.925,0,4.618.435.826,1.864,2.45,3.875,2.338,1.962-.109,3.303-1.512,3.724-2.208,1.699-2.805,1.766-4.39,3.665-5.546,1.047-.637,2.527-.364,3.546.273,1.891,1.183,1.861,2.934,1.629,3.693-.52,1.694-3.99,9.986-9.069,11.667-5.078,1.681-9.871.229-13.534-3.617-1.468-1.541-2.415-4.538-2.488-6.54-.122-3.36.249-5.004.481-5.7Z"/><path class="n" d="M87.168,206.245c.304-.872.786-2.145,1.641-2.495.73-.299,1.839-.003,2.345.677.706.948.278,1.822.054,2.833-.27,1.215-.447,2.535-.105,3.757.649,2.323,2.816,4.262,5.191,4.603,3.379.486,5.845-1.826,7.26-4.604.509-1,.901-2.424,1.823-3.142.821-.639,2.16-.081,2.525.853.134.342.033.598.019.644-.08.265-.179.525-.278.784-.264.686-.57,1.35-1.014,2.221-1.125,2.21-2.481,4.408-4.375,6.045-1.991,1.721-5.001,2.19-7.529,1.657-3.141-.663-6.307-2.8-7.377-5.924-.845-2.467-.933-5.566-.179-7.909.79-2.456-3.071-3.508-3.857-1.063-.901,2.8-.846,6.371-.083,9.178,1.029,3.788,3.659,6.718,7.185,8.422s7.737,1.996,11.411.524c2.985-1.196,5.161-3.778,6.848-6.428,1.231-1.935,2.429-4.138,3.078-6.351,1.062-3.624-2.235-7.08-5.853-6.942-1.889.072-3.428,1.253-4.439,2.783-.862,1.304-1.361,3.096-2.247,4.221-.697.885-2.164,1.521-3.279.681-.408-.308-.608-.616-.85-1.031-.045-.078-.231-.488-.124-.239.117.273-.014-.057-.019-.128-.022-.321.013.54-.023-.138-.046-.859.232-1.643.423-2.468.221-.953.261-1.87.076-2.834-.34-1.772-1.545-3.341-3.161-4.128-1.697-.827-3.895-.923-5.56.044-1.799,1.045-2.724,2.942-3.384,4.834-.85,2.435,3.013,3.482,3.857,1.063Z"/><path class="n" d="M172.424,260.267c2.935,1.52,6.318,2.297,9.464,3.248,1.79.541,3.582,1.082,5.354,1.683.765.259,1.517.545,2.272.83.509.192-.366-.168.102.042.131.059.262.116.391.178.256.122.507.253.75.399,2.212,1.328,4.226-2.129,2.019-3.454-1.233-.74-2.643-1.219-3.995-1.689-1.778-.618-3.581-1.165-5.382-1.711s-3.59-1.075-5.373-1.649c-.77-.248-1.539-.503-2.299-.784-.289-.107-.575-.22-.861-.335.515.207-.275-.135-.423-.212-.959-.496-2.172-.248-2.736.718-.525.897-.245,2.238.718,2.736h0Z"/><path class="n" d="M172.9,201.485c.722,8.163,2.103,16.323,1.537,24.54-.29,4.218-1.1,8.378-1.468,12.59-.339,3.878-.569,7.759-1.098,11.619-.146,1.069.258,2.147,1.397,2.46.933.256,2.313-.32,2.46-1.397.546-3.986.85-7.979,1.181-11.986.356-4.312,1.173-8.568,1.498-12.881.629-8.354-.773-16.646-1.508-24.946-.095-1.076-.851-2-2-2-1.008,0-2.096.918-2,2h0Z"/><path class="n" d="M151.442,390.46c4.744-5.449,2.733-14.181,1.592-20.539-.374-2.086-.757-4.171-1.151-6.254-.2-1.059-.438-2.116-.609-3.18-.078-.484-.073-1.126.326-1.503.147-.139-.211.035.036-.071.18-.077.55-.034.739-.043.687-.032,1.375-.045,2.063-.055,1.778-.027,3.556-.025,5.334-.03,3.371-.01,6.758.03,10.123-.206,2.783-.195,5.563-.448,8.348-.614.879-.053,1.963-.229,2.823-.034.222.05.219.047.302.123-.004-.003.206.303.271.399.388.571.451.929.497,1.751.105,1.875-.084,3.752-.145,5.625-.067,2.049-.05,4.098-.026,6.148.065,5.438-.196,11.006.463,16.418.13,1.072.826,2,2,2,.98,0,2.131-.92,2-2-.59-4.851-.392-9.822-.442-14.698-.023-2.187-.066-4.375-.027-6.563.037-2.068.242-4.138.202-6.207-.066-3.489-1.536-6.793-5.406-7.029-2.604-.159-5.31.258-7.903.459-3.093.239-6.161.377-9.265.407-3.734.037-7.481-.067-11.212.107-1.747.081-3.172.493-4.191,2.036-1.181,1.79-.971,3.581-.588,5.576.489,2.542.963,5.087,1.423,7.634.426,2.361.999,4.743,1.182,7.138.245,3.209.698,7.751-1.589,10.378-1.684,1.934,1.134,4.774,2.828,2.828h0Z"/><path class="n" d="M167.524,137.872c-.023,2.265.784,4.607,1.712,6.642,1.199,2.631,3.512,4.141,5.625,6.01,1.265,1.119,2.525,2.249,3.734,3.429,1.101,1.075,2.232,2.258,2.658,3.778.792,2.821-2.237,4.616-4.638,3.346-2.274-1.203-4.298,2.249-2.019,3.454,3.288,1.739,7.391,1.059,9.611-2.033,2.464-3.433.693-7.632-1.853-10.419-1.33-1.456-2.844-2.764-4.315-4.074-1.383-1.232-3.05-2.346-4.299-3.707-1.31-1.428-2.235-4.507-2.215-6.426.027-2.575-3.973-2.577-4,0h0Z"/><path class="k" d="M131.092,150.748c.458-1.031.917-2.063,1.375-3.094-2.136-.488-4.16-1.232-6.053-2.223-5.273,11.867-10.548,23.738-15.823,35.608,1.54.075,3.102.373,4.622.804.535.174,1.636.527,1.636.527.056.018.111.036.167.055,4.692-10.558,9.384-21.118,14.077-31.676Z"/><path class="n" d="M119.477,181.779c4.808-10.819,9.616-21.638,14.424-32.457.438-.986.287-2.149-.718-2.736-.852-.498-2.296-.275-2.736.718-4.808,10.819-9.616,21.638-14.424,32.457-.438.986-.287,2.149.718,2.736.852.498,2.296.275,2.736-.718h0Z"/><path class="n" d="M112.437,181.779c5.127-11.538,10.255-23.076,15.382-34.614.438-.986.287-2.149-.718-2.736-.852-.498-2.296-.275-2.736.718-5.127,11.538-10.255,23.076-15.382,34.614-.438.986-.287,2.149.718,2.736.852.498,2.296.275,2.736-.718h0Z"/><path class="n" d="M112.151,111.342c-.716,5.618-.563,11.688.441,17.262,1.021,5.664,3.686,10.966,7.865,14.958,8.104,7.742,21.428,8.943,31.521,4.746,5.173-2.151,10.52-5.661,13.938-10.16.654-.861.135-2.238-.718-2.736-1.027-.601-2.081-.145-2.736.718-2.56,3.369-6.762,5.952-10.488,7.81-4.764,2.377-9.989,2.969-15.237,2.507-4.518-.398-9.013-1.878-12.501-4.855-3.925-3.35-6.45-7.852-7.552-12.868-.603-2.744-.762-5.556-.846-8.357-.09-3.006-.069-6.038.312-9.025.137-1.073-1.017-2-2-2-1.194,0-1.863.924-2,2h0Z"/><path class="n" d="M182.509,389.453c.098,2.389.539,5.169-.429,7.441-.899,2.109-3.658,3.312-5.587,4.255-2.403,1.174-5.039,1.722-7.26,3.27-2.301,1.604-4.154,3.699-6.212,5.582-4.57,4.179-11.231,6.004-17.338,5.27-2.772-.333-5.796-1.257-7.589-3.539-1.777-2.262-1.416-5.012-.029-7.366,1.741-2.955,4.651-5.261,7.068-7.648,2.108-2.081,4.225-4.153,6.31-6.257,1.814-1.83-1.013-4.66-2.828-2.828-2.085,2.104-4.202,4.176-6.31,6.257-2.588,2.556-5.535,5.011-7.486,8.116-1.793,2.855-2.617,6.418-1.322,9.635,1.276,3.169,3.977,5.321,7.113,6.512,6.738,2.558,14.912,1.197,21.082-2.237,2.987-1.663,5.226-4.212,7.705-6.502,1.055-.974,2.165-1.843,3.447-2.503,1.373-.706,2.914-1.075,4.332-1.693,2.908-1.266,6.497-2.999,8.132-5.868,1.705-2.992,1.336-6.6,1.201-9.896-.105-2.565-4.106-2.578-4,0h0Z"/><path class="n" d="M137.866,396.258c-4.46,1.438-7.161,4.789-10.565,7.765-3.602,3.148-8.666,4.703-13.402,4.722-3.973.016-10.107-1.117-10.933-5.891-.815-4.711,4.526-8.618,7.512-11.381,3.371-3.12,6.937-6.077,9.966-9.543,1.687-1.931-1.131-4.771-2.828-2.828-2.982,3.413-6.488,6.33-9.81,9.399-3.885,3.59-8.734,7.578-8.9,13.325-.165,5.708,5.05,9.46,10.141,10.453,5.552,1.082,11.319.18,16.389-2.281,2.727-1.324,4.909-3.279,7.053-5.385,1.922-1.888,3.825-3.654,6.441-4.498,2.44-.787,1.396-4.65-1.063-3.857h0Z"/><path class="n" d="M114.528,112.06c8.705-2.84,16.523-7.789,24.807-11.593l-2.736-2.736c-1.053,1.809-2.258,3.721-2.847,5.746-.294,1.009-.339,2.153.442,2.966.786.818,2.117.787,3.178.761,5.735-.137,11.264-3.1,15.555-6.722,1.97-1.662-.872-4.48-2.828-2.828-3.799,3.206-9.212,6.079-14.347,5.476l1.009.273c.627.43.876.936.747,1.518l.043-.183c.095-.156.143-.463.209-.635.176-.456.401-.894.622-1.329.521-1.027,1.09-2.029,1.67-3.024,1.078-1.851-1.007-3.531-2.736-2.736-7.964,3.657-15.484,8.461-23.851,11.19-2.437.795-1.394,4.659,1.063,3.857h0Z"/><path class="n" d="M149.583,99.599c.805,4.975,3.724,9.573,7.057,13.252,1.464,1.616,3.121,3.055,4.74,4.513,1.414,1.272,2.847,2.531,4.331,3.722.842.675,2.006.822,2.828,0,.7-.7.847-2.149,0-2.828-2.968-2.382-5.973-4.951-8.591-7.715-3.131-3.306-5.772-7.449-6.509-12.006-.173-1.067-1.5-1.661-2.46-1.397-1.135.312-1.57,1.39-1.397,2.46h0Z"/><path class="n" d="M179.274,105.132c7.39.909,13.136,8.004,11.365,15.475-.906,3.823-3.015,7.187-3.515,11.123-.468,3.685.093,7.495,1.883,10.772l1.727-3.009c-5.559-.343-11.306-4.801-12.941-10.162-.749-2.455-4.611-1.408-3.857,1.063,2.179,7.143,9.422,12.644,16.799,13.098,1.574.097,2.413-1.754,1.727-3.009-1.787-3.272-1.912-7.34-.83-10.862,1.276-4.15,3.527-7.858,3.343-12.359-.168-4.11-1.974-8.086-4.827-11.033-2.912-3.009-6.783-4.594-10.873-5.097-1.074-.132-2,1.014-2,2,0,1.191.923,1.868,2,2h0Z"/><g id="g"><path class="k" d="M114.579,181.494c.461.103.919.22,1.374.349.535.174,1.636.527,1.636.527,1.897.607,3.262,1.554,3.645,3.248.383,1.694-.408,3.233-1.887,4.143,1.804.519,2.785,1.725,2.525,3.39-.26,1.664-1.467,3.246-3.023,3.256.928.652,1.149,2.343.716,3.341-.432.998-1.735,2.514-3.032,2.367,1.157.741.667,2.796-.51,3.842-1.177,1.046-2.934.89-4.478.583s-4.23-1.159-5.42-1.028l-.615.068c-2.5,1.585-5.51,1.256-8.263.088-1.996-.847-.015-11.431.66-13.42,1.451-4.279,2.746-7.042,6.488-9.505,3.011-1.982,6.659-2.034,10.185-1.247Z"/><path class="n" d="M104.688,203.735c-1.87,1.185-3.898,1.069-5.938.373-.777-.265-.428-.366-.337-.03.143.528.231.198.111.12.15.097.114.355.043.093-.188-.69-.148-.482-.177-1.23-.105-2.681.35-5.416.89-8.033.555-2.691,1.471-5.474,3.085-7.723,2.347-3.272,6.067-4.657,10-4.184,1.78.214,3.728.687,5.379,1.421,1.573.699,2.236,2.395.595,3.491-1.446.965-1.203,3.113.478,3.655.618.199,1.135.428,1.092,1.135-.03.501-.472,1.537-1.059,1.582-1.561.122-2.85,2.2-1.414,3.414.755.639.049,2.311-.902,2.294-1.598-.029-2.819,2.309-1.414,3.414.319.251.047.141.076-.048-.013.089.03.071-.039.205-.157.309-.235.645-.547.857-.71.481-1.897.2-2.666.04-1.886-.392-3.866-1.191-5.818-1.071-2.557.157-2.575,4.158,0,4,1.349-.083,2.736.455,4.033.765,1.628.388,3.34.691,4.998.303,3.045-.711,5.827-5.489,2.792-7.879l-1.414,3.414c4.268.077,7.174-6.21,3.73-9.123l-1.414,3.414c2.799-.218,4.744-2.519,5.023-5.256.274-2.682-1.588-4.543-3.993-5.318l.478,3.655c2.32-1.548,3.644-4.253,2.618-7.003-.871-2.333-2.988-3.439-5.23-4.164-5.376-1.739-11.02-1.981-15.674,1.647-3.385,2.638-5.389,6.698-6.386,10.816-.817,3.376-1.515,7.12-1.279,10.603.138,2.034.683,3.59,2.696,4.365,3.151,1.214,6.686,1.288,9.606-.563,2.168-1.375.164-4.838-2.019-3.454h0Z"/><path class="n" d="M119.879,187.831c-1.21-.436-2.451-.795-3.7-1.1-1.357-.331-2.81-.666-4.213-.619-1.044.035-2.05.895-2,2,.047,1.053.88,2.038,2,2,.255-.009.509,0,.764.022.049.004.421.011.435.046-.007-.017-.592-.087-.21-.028.079.012.158.024.237.037.682.111,1.357.259,2.027.424,1.214.299,2.42.65,3.596,1.074.986.355,2.233-.4,2.46-1.397.256-1.125-.342-2.08-1.397-2.46h0Z"/><path class="n" d="M119.296,194.658c-1.429-.622-2.889-1.157-4.395-1.559-1.403-.375-2.889-.687-4.347-.672-1.046.011-2.049.912-2,2,.048,1.075.879,2.011,2,2,.272-.003.543.009.814.032.139.012.278.029.416.044.234.025-.552-.084-.153-.019.074.012.148.023.222.035.669.111,1.33.263,1.985.438s1.308.375,1.952.597c.318.109.634.224.948.344.158.061.316.123.473.187.066.027.32.134.013.004-.333-.141.002.002.054.024.512.223.98.356,1.541.202.464-.128.967-.486,1.195-.919.457-.864.307-2.29-.718-2.736h0Z"/><path class="n" d="M116.447,199.692c-2.128-.628-4.344-1.396-6.588-1.384-1.046.006-2.049.916-2,2,.048,1.079.879,2.006,2,2,.372-.002.741.028,1.11.074l-.532-.071c1.688.227,3.318.758,4.947,1.238,1.003.296,2.223-.357,2.46-1.397.244-1.073-.323-2.143-1.397-2.46h0Z"/></g><g id="h"><path class="n" d="M135.562,122.811c-.314.66-.58,1.356-.819,2.047-.102.294-.201.592-.268.895-.06.272-.11.556-.117.832-.013.504.15.963.454,1.357.22.285.491.514.806.694.19.109.404.188.607.266.053.02.106.04.162.053.36.086.709.086,1.07.106.495.027,1.071-.243,1.414-.586.347-.347.608-.916.586-1.414-.023-.517-.193-1.054-.586-1.414-.403-.37-.863-.555-1.414-.586-.142-.008-.283.002-.425-.014l.532.071c-.096-.014-.185-.038-.275-.073l.478.202c-.114-.051-.216-.115-.315-.191l.405.313c-.022-.018-.043-.031-.059-.052l.313.405s-.006-.01-.009-.016l.202.478c-.007-.018-.011-.036-.014-.055l.071.532c-.006-.056,0-.112.006-.168l-.071.532c.054-.4.197-.792.33-1.171.144-.412.301-.82.471-1.222l-.202.478c.04-.094.08-.188.123-.28.146-.23.225-.477.237-.744.06-.266.048-.532-.036-.798-.128-.464-.486-.967-.919-1.195-.464-.245-1.026-.368-1.541-.202-.472.153-.974.454-1.195.919h0Z"/><path class="n" d="M123.918,116.097c-.52,1.404-.466,4.716,2.123,5.166,3.449.203,3.901-3.768,2.867-5.715-.847-1.595-3.598-2.414-4.99.55Z"/><path class="n" d="M152.521,117.988c.346,1.461-.159,4.736-2.891,4.837-3.584-.259-3.511-4.254-2.18-6.047,1.09-1.468,4.038-1.913,5.071,1.21Z"/><path class="n" d="M132.5,137.263c3.35,1.62,7.561,1.442,10.59-.831.433-.325.77-.653.919-1.195.132-.479.072-1.116-.202-1.541-.532-.825-1.841-1.389-2.736-.718-.28.21-.57.405-.875.578-.152.086-.307.167-.464.243-.074.036-.17.063-.238.11.082-.057.366-.143.114-.051-.329.12-.66.231-1,.315-.17.042-.341.079-.513.11-.083.015-.178.018-.259.043.177-.055.393-.046.075-.015-.349.034-.699.046-1.049.037-.175-.005-.35-.015-.524-.03-.066-.006-.373-.048-.06,0s.005,0-.059-.012c-.345-.058-.686-.138-1.02-.241-.167-.051-.333-.108-.496-.17-.057-.022-.345-.134-.065-.023.308.121-.086-.047-.119-.063-.94-.455-2.205-.288-2.736.718-.473.896-.288,2.25.718,2.736h0Z"/></g><g id="i"><path class="k" d="M71.468,62.426c-5.192,1.235-9.94,2.585-12.217,3.638,19.585,9.549,41.078,15.152,62.829,16.393,11.581,10.029,55.359,28.844,77.624,31.172,12.285,15.069,27.429,30.539,41.364,44.413-.37-13.481-10.225-40.936-12.074-44.815-2.25-4.719-14.471-19.804-23.656-27.508-5.669-4.755-24.886-15.191-31.33-17.636,0,0-.823-.312-1.909-.726-8.811-3.947-31.465-8.619-40.983-8.972-18-.667-38.015.425-41.455.693-3.751.292-11.357,1.72-18.193,3.347Z"/><path class="n" d="M192.453,159.195c5.802.018,11.579.923,17.243,2.119,5.95,1.256,12.172,2.792,16.339,7.559,1.092,1.249,2.832.392,3.343-.883.937-2.339,1.906-4.388,3.822-6.081,1.658-1.466,3.575-2.303,5.795-2.386,2.566-.096,2.579-4.096,0-4-3.196.119-5.936,1.273-8.363,3.331-2.591,2.197-3.873,4.982-5.111,8.072l3.343-.883c-4.502-5.152-11.193-7.105-17.646-8.49-6.147-1.319-12.462-2.339-18.764-2.359-2.574-.008-2.578,3.992,0,4h0Z"/><path class="n" d="M58.008,67.921c3.895,8.881,5.021,18.952,3.225,28.476-.198,1.048.28,2.173,1.397,2.46,7.865,2.024,15.309,5.769,21.471,11.084,5.85,5.045,11.149,11.063,15.224,17.632.562.906,1.098,1.828,1.598,2.769.423.797.753,1.976,1.393,2.615.766.766,2.201.7,3.209.954,1.055.266,1.986.674,2.919,1.232,2.215,1.324,4.229-2.133,2.019-3.454-1.933-1.155-3.991-1.735-6.201-2.075l1.195.919c-2.934-6.513-7.599-12.324-12.441-17.517-4.912-5.268-10.45-9.89-16.858-13.234-3.954-2.064-8.146-3.672-12.465-4.783l1.397,2.46c2.013-10.679.733-21.614-3.629-31.558-.434-.989-1.881-1.218-2.736-.718-1.021.597-1.153,1.743-.718,2.736h0Z"/><path class="n" d="M242.483,156.628c-12.023-11.971-23.94-24.082-35.053-36.912-1.401-1.617-2.787-3.246-4.157-4.889-.625-.749-1.218-1.539-1.87-2.264-.713-.792-1.391-.893-2.406-1.012-2.112-.248-4.48-.685-6.691-1.156-5.539-1.18-10.991-2.766-16.372-4.527-11.536-3.776-22.843-8.365-33.741-13.71-4.501-2.208-8.957-4.547-13.207-7.211-.846-.53-1.682-1.074-2.505-1.64-.361-.248-.72-.501-1.075-.758-.182-.132-.362-.266-.542-.399-.075-.056-.149-.112-.224-.169-.254-.193.216.17-.028-.021-.294-.23-.581-.468-.869-.705-.836-.689-1.515-.786-2.575-.852-2.13-.134-4.257-.309-6.38-.526-16.376-1.672-32.589-5.879-47.705-12.402-1.89-.815-3.762-1.669-5.621-2.552-2.313-1.1-4.345,2.348-2.019,3.454,15.243,7.247,31.518,12.233,48.232,14.623,4.781.684,9.584,1.176,14.406,1.458l-1.414-.586c3.161,2.72,6.774,4.911,10.392,6.959,4.939,2.797,10.043,5.304,15.206,7.66,11.584,5.287,23.541,9.938,35.79,13.442,5.78,1.654,11.663,3.057,17.65,3.696l-1.414-.586c9.975,12.216,20.84,23.683,31.903,34.912,3.137,3.184,6.294,6.347,9.461,9.501,1.826,1.819,4.656-1.009,2.828-2.828h0Z"/><path class="n" d="M60.341,67.748c3.176-1.301,6.562-2.139,9.886-2.964,4.152-1.03,8.339-1.935,12.549-2.7,5.812-1.056,11.6-1.324,17.644-1.552,10.48-.395,21.073-.711,31.55-.105,8.059.466,16.14,2.2,23.972,4.065,3.936.938,7.862,1.971,11.693,3.279,2.832.967,5.595,2.065,8.017,3.162,7.102,3.219,13.991,7.041,20.653,11.085,1.554.943,3.096,1.909,4.605,2.923.584.393,1.164.793,1.734,1.206.659.478.737.535,1.279.986,3.482,2.894,6.66,6.173,9.715,9.507,3.031,3.307,5.952,6.728,8.691,10.28,1.771,2.297,3.675,4.686,4.937,7.316.061.128.116.258.177.387.166.354.075.171.035.074.181.438.359.877.532,1.318.469,1.193.915,2.396,1.352,3.601,1.207,3.332,2.336,6.693,3.404,10.072,2.454,7.766,4.779,15.72,5.906,23.804.21,1.508.349,3.028.397,4.551.08,2.568,4.081,2.579,4,0-.248-7.92-2.444-15.853-4.63-23.421-1.938-6.708-4.088-13.397-6.659-19.892-2.276-5.75-6.434-10.585-10.37-15.278-5.365-6.396-11.13-12.953-18.07-17.686-6.648-4.534-13.812-8.419-20.993-12.033-6.054-3.047-12.35-5.592-18.879-7.428-8.491-2.388-17.208-4.174-25.953-5.319-9.775-1.279-19.817-.909-29.649-.68-6.788.158-13.733.137-20.479,1.023-8.045,1.056-16.125,2.818-23.901,5.13-1.42.422-2.836.871-4.208,1.433-.999.409-1.708,1.329-1.397,2.46.26.946,1.455,1.809,2.46,1.397h0Z"/><path class="n" d="M174.362,60.76c-1.558,1.793-2.715,3.837-3.485,6.083-.162.473-.045,1.12.202,1.541.243.415.718.811,1.195.919,1.112.253,2.096-.336,2.46-1.397.125-.364.262-.723.412-1.078l-.202.478c.526-1.234,1.199-2.4,2.018-3.464l-.313.405c.175-.224.355-.443.542-.658.352-.405.586-.864.586-1.414,0-.491-.218-1.076-.586-1.414-.381-.35-.882-.61-1.414-.586-.509.023-1.068.188-1.414.586h0Z"/></g></g></g></g></svg>