<svg xmlns="http://www.w3.org/2000/svg" viewBox="0 0 370 370">
<defs>
		<clipPath  id="1">

			<path  clip-rule="evenodd"  d="M0 0L280 0L280 280L0 280z" />		</clipPath>
					<clipPath  id="2">

						<path  clip-rule="evenodd"  d="M0 280L0 0L280 0L280 280z" />					</clipPath>
</defs>

<g transform="matrix(1.3321428 0 0 1.3321428 0 0)">
	<path  d="M0 0L280 0L280 280L0 280z" stroke="none"  fill="#FFFFFF" fill-rule="evenodd" />
	<g transform="matrix(1 0 0 -1 -0 280)" clip-path="url(#1)" >
		<g>
		</g>
		<g>
		</g>
		<g>
		</g>
		<g>
		</g>
		<g>
			<g>
				<g clip-path="url(#2)" >
					<path  d="M88.2129 85.52901C 88.4551 86.125 88.6841 86.729004 88.9184 87.328L88.9184 87.328L85.4668 85.847C 86.3784 85.770996 87.2993 85.681 88.2129 85.52901z" stroke="none"  fill="#FFFFFF" fill-rule="nonzero" />
					<path  d="M45.8247 83.028C 45.8184 82.78 45.811 82.531006 45.8032 82.282C 45.7881 81.82001 45.7729 81.349 45.772 80.938995C 46.2607 80.602005 46.9648 80.395996 47.6865 80.395996C 48.5029 80.395996 48.6777 80.477005 49.3271 80.772995C 49.4146 80.813 49.5068 80.854996 49.6055 80.899C 49.6313 81.573 49.6377 82.354996 49.6274 83.065994C 48.9199 83.019 48.2109 82.979004 47.5054 82.979004C 46.9419 82.979004 46.3813 82.996994 45.8247 83.028z" stroke="none"  fill="#FFFFFF" fill-rule="nonzero" />
					<path  d="M95.2905 97.593994C 93.8867 92.812 92.2051 88.059006 90.2925 83.466C 90.0791 82.951996 89.5796 82.632 89.043 82.632C 88.9419 82.632 88.8398 82.644 88.7378 82.66701C 87.3359 82.990005 85.8574 83.104004 84.2925 83.225006L84.2925 83.225006L83.1675 83.313C 82.7363 83.351 82.3481 83.591 82.1235 83.961C 81.8994 84.33099 81.8652 84.785995 82.0322 85.186005C 83.9233 89.703995 86.0083 94.205 88.229 98.563C 88.9741 100.02699 89.9136 101.645996 91.6401 102.31799C 92.4365 102.631 93.249 102.64 93.9277 102.349C 95.4614 101.690994 95.9717 99.912994 95.2905 97.593994zM97.2139 102.37399C 97.0351 103.828995 96.0674 105.49899 94.6265 105.729996C 92.9126 105.998 91.2163 104.252 90.0889 102.735C 84.7993 95.625 82.1074 86.905 79.5039 78.47301C 79.4238 78.214005 79.272 77.99899 79.0786 77.837006C 79.0259 77.48599 78.8408 77.155 78.5288 76.934006C 77.5854 76.263 76.6103 75.569 75.9346 74.71001C 75.2988 73.899994 75.001 72.968 75.1387 72.213C 75.1821 71.976 75.2676 71.778 75.3672 71.687C 75.5059 71.562 75.9346 71.416 77.2451 71.856995C 81.8838 73.42 86.3848 75.459 90.6406 77.899994C 90.5776 78.13901 90.5752 78.395996 90.6533 78.647L90.6533 78.647L96.2656 96.741C 96.8433 98.604004 97.4409 100.53 97.2139 102.37399z" stroke="none"  fill="#FFFFFF" fill-rule="nonzero" />
					<path  d="M53.2671 87.784C 51.3589 87.632996 49.4336 87.55701 47.5093 87.55701C 46.0674 87.55701 44.6265 87.600006 43.1929 87.685C 42.4463 87.729004 41.877 88.369995 41.9209 89.116C 41.9658 89.86301 42.6177 90.438 43.353 90.388C 46.5762 90.199005 49.8398 90.229004 53.0532 90.483C 53.8071 90.535 54.4512 89.98599 54.5103 89.241C 54.5693 88.494995 54.0127 87.843 53.2671 87.784zM53.8442 92.192C 53.5645 92.142 53.2852 92.091995 53.0073 92.048004C 51.6216 91.83 50.2168 91.765 48.8584 91.701004C 46.3618 91.58501 44.0034 91.475006 41.9673 90.468994C 41.4404 90.20799 41.1182 89.951004 41.0098 89.703995C 40.9204 89.5 40.9087 89.157 40.9102 88.815994C 40.9121 88.343 40.9131 88.026 40.9224 87.75C 40.9468 87.01601 41.4565 86.378006 42.1343 86.231995C 42.1343 86.231995 42.1343 86.231995 42.1348 86.231995C 45.2563 85.559006 48.834 85.506 52.2065 86.078995C 53.3262 86.270996 54.4175 86.53999 54.8149 87.215C 55.0283 87.576996 55.0977 88.145996 55.1709 88.75C 55.2905 89.73399 55.4395 90.961 56.3516 91.90401C 56.5 92.059006 56.6704 92.201996 56.8433 92.343C 56.5537 92.41901 56.2471 92.45 55.9272 92.45C 55.2783 92.45 54.5747 92.323 53.8442 92.192z" stroke="none"  fill="#FFFFFF" fill-rule="nonzero" />
					<path  d="M42.5083 78.618C 42.4121 78.15401 42.3643 77.83099 42.3428 77.502C 42.3022 76.882 42.6606 76.297 43.2349 76.046005C 45.4639 75.07201 49.6406 74.782 52.4976 76.01199C 52.8721 76.173004 53.1313 76.593 53.1426 77.05701L53.1426 77.05701L53.146 77.192C 53.1602 77.795 53.1846 78.804 53.1431 79.06C 53.1069 79.198 52.9395 79.401 52.7021 79.56799C 52.5688 79.662994 52.4102 79.742004 52.2485 79.82001C 52.1895 79.328 51.8716 78.903 51.4067 78.72099C 51.0068 78.563 50.708 78.427 50.4541 78.311005C 49.585 77.912994 49.0278 77.687 47.6865 77.687C 45.9932 77.687 44.3999 78.334 43.4243 79.41701C 43.3291 79.522 43.2578 79.644 43.2002 79.770996C 42.8867 79.559006 42.6133 79.12399 42.5083 78.618z" stroke="none"  fill="#FFFFFF" fill-rule="nonzero" />
					<path  d="M76.9189 35.985C 81.4311 34.190002 88.8721 33.634995 94.3247 35.658005C 94.3467 36.158997 94.3716 36.649002 94.396 37.128998C 94.4702 38.582993 94.5356 39.888 94.4951 41.104996C 92.1831 40.039993 89.4736 39.501007 86.6396 39.501007C 83.2705 39.5 79.7393 40.248993 76.5337 41.727005C 76.5049 40.354004 76.5903 38.091995 76.7012 36.505997C 76.7451 36.376007 76.8374 36.155 76.9189 35.985z" stroke="none"  fill="#FFFFFF" fill-rule="nonzero" />
					<path  d="M39.7959 76.27699C 34.0664 71.591 35.063 59.461 35.854 54.005005C 38.2705 46.959 48.436 45.057007 54.4219 46.852005C 59.4097 48.507004 61.501 53.514008 61.167 63.074997C 60.6631 69.19299 59.5806 72.946 55.4468 75.339005C 55.0542 74.535 54.3989 73.882 53.5693 73.524C 51.9595 72.83099 49.9434 72.485 47.9233 72.485C 45.8618 72.485 43.7959 72.845 42.1509 73.563C 40.978 74.076004 40.1318 75.09 39.7959 76.27699z" stroke="none"  fill="#FFFFFF" fill-rule="nonzero" />
					<path  d="M91.7505 73.95C 91.7417 74.425995 91.7017 74.90199 91.6748 75.379C 87.3569 72.929 82.8032 70.871994 78.1103 69.291C 77.6582 69.13901 76.7964 68.84801 75.855 68.84801C 75.8237 68.84801 75.791 68.854004 75.7593 68.854004L75.7593 68.854004L77.1728 63.418C 77.2485 63.127 77.352 62.729004 77.479 62.595C 77.5942 62.474 77.9868 62.382996 78.7432 62.498993C 80.7827 62.811996 82.7832 63.679993 84.7178 64.520004C 87.439 65.7 89.7827 66.84801 90.9058 68.937C 91.7065 70.42799 91.7822 72.308 91.7505 73.95z" stroke="none"  fill="#FFFFFF" fill-rule="nonzero" />
					<path  d="M78.353 43.882996C 83.1269 41.893997 88.7324 41.677002 92.8125 43.311996C 92.8364 44.345 92.8779 45.572006 92.9228 46.880997C 93.0088 49.399002 93.1465 53.423996 93.0825 56.014008C 93.0195 55.998 92.9604 55.985992 92.9067 55.977005C 87.9219 55.123993 82.9853 55.072006 78.2065 55.820007C 78.2471 53.904007 78.2593 52.039993 78.271 50.225006C 78.2847 48.171005 78.2983 46.056 78.353 43.882996z" stroke="none"  fill="#FFFFFF" fill-rule="nonzero" />
					<path  d="M118.719 87.713C 118.497 88.47 118.266 88.96001 117.967 89.304C 117.464 89.884995 116.554 90.207 115.544 90.18201C 114.45 90.147995 112.053 90.076004 111.191 89.642C 106.955 87.506 103.525 85.442 99.894 83.257C 98.0215 82.130005 96.0806 80.965 93.9282 79.725006C 93.9477 79.660995 93.9678 79.599 93.978 79.532C 94.1924 78.15401 94.3135 76.757 94.3862 75.36099L94.3862 75.36099L114.382 87.11301C 115.026 87.490005 115.856 87.274994 116.235 86.632C 116.614 85.98599 116.399 85.157 115.754 84.77699L115.754 84.77699L94.4331 72.246C 94.3603 70.856995 94.1157 69.408005 93.48 68.054C 93.4805 68.037994 93.4893 68.024 93.4893 68.007996L93.4893 68.007996L93.4927 67.75101C 97.5493 70.173996 101.611 72.562 105.558 74.880005C 109.969 77.47099 114.524 80.145996 119.049 82.858C 119.32 84.34599 119.207 86.047 118.719 87.713z" stroke="none"  fill="#FFFFFF" fill-rule="nonzero" />
					<path  d="M120.944 80.837006C 120.564 80.608 120.183 80.382996 119.802 80.155L119.802 80.155L119.442 42.015L168.098 25.557007C 173.85 23.609009 180.169 24.227005 185.436 27.248001L185.436 27.248001L247.274 62.716003C 248.177 63.233 248.631 64.157 248.489 65.187C 248.348 66.218 247.661 66.985 246.652 67.239L246.652 67.239L187.799 82.046005C 187.706 82.069 187.618 82.102005 187.536 82.143005C 184.523 80.013 181.671 77.686005 178.722 75.272995C 176.601 73.537994 174.409 71.746 172.117 70.004L172.117 70.004L167.516 61.455C 163.504 54.003006 158.775 47.720993 153.464 42.781998C 152.714 42.085007 151.599 41.679 150.601 41.679C 150.229 41.679 149.875 41.733994 149.561 41.852997C 148.951 42.082 148.512 42.535004 148.306 43.104004C 147.714 42.753998 147.097 42.429 146.422 42.190994C 145.792 41.972 145.214 41.860992 144.678 41.860992C 144.275 41.860992 143.897 41.923004 143.539 42.046005C 142.709 42.332993 142.084 42.957993 141.786 43.692993C 141.459 43.61 141.161 43.570007 140.894 43.570007C 140.128 43.570007 139.597 43.865005 139.246 44.186996C 138.958 44.451004 138.749 44.785995 138.622 45.156006C 138.249 44.901993 137.812 44.770004 137.363 44.770004C 136.785 44.770004 136.193 44.977997 135.708 45.386C 135.23 45.787994 134.93 46.470993 134.246 48.703003C 134.189 48.886993 134.145 49.031998 134.118 49.113007C 134.013 49.42 133.923 49.729004 133.842 50.041C 133.634 49.921005 133.428 49.839996 133.24 49.794006C 133.062 49.751007 132.884 49.729004 132.706 49.729004C 131.82 49.729004 130.95 50.252 130.346 51.177994C 129.875 51.897003 129.559 52.748993 129.35 53.854004C 129.007 55.677002 129.063 57.479996 129.118 59.225006C 129.193 61.619995 129.27 64.097 129.616 66.548004C 130.208 70.744 131.574 74.772995 132.895 78.671005C 133.418 80.215 133.959 81.811005 134.44 83.384C 135.045 88.162994 135.17 90.291 135.303 92.54201C 135.354 93.41 135.408 94.300995 135.487 95.34599C 135.475 95.34801 135.463 95.34801 135.451 95.351L135.451 95.351L124.252 98.18201C 120.169 99.212006 115.789 98.867004 111.919 97.205L111.919 97.205L97.2983 90.92799L94.9883 83.479004C 96.2007 84.19701 97.3633 84.895996 98.4976 85.578C 102.173 87.78999 105.645 89.879 109.972 92.06C 111.262 92.71001 113.446 92.828 115.392 92.88699C 117.312 92.933 118.967 92.285995 120.013 91.078995C 120.738 90.243 121.091 89.248 121.318 88.475006C 122.009 86.116 122.092 83.76199 121.559 81.664C 121.471 81.31799 121.25 81.020996 120.944 80.837006z" stroke="none"  fill="#FFFFFF" fill-rule="nonzero" />
					<path  d="M212.815 106.772C 212.237 103.73599 211.582 100.295 209.906 97.287994C 208.835 95.366 207.424 93.737 205.907 92.23801L205.907 92.23801L218.616 89.12601C 217.723 93.261 216.839 97.84801 216.221 103.32201C 215.663 108.256 215.596 114.59801 215.608 121.436005L215.608 121.436005L212.815 106.772z" stroke="none"  fill="#FFFFFF" fill-rule="nonzero" />
					<path  d="M206.714 110.475006C 206.395 110.04401 205.903 109.815994 205.406 109.815994C 205.07 109.815994 204.731 109.92 204.44 110.134995C 202.772 111.369 200.711 112.097 198.636 112.183C 197.739 112.22 197.042 112.978 197.079 113.87399C 197.116 114.770996 197.841 115.465 198.77 115.431C 201.488 115.317 204.188 114.365005 206.374 112.748C 207.096 112.214005 207.247 111.196 206.714 110.475006zM202.178 96.459C 202.137 96.45599 202.097 96.455 202.056 96.455C 201.213 96.455 200.501 97.104996 200.437 97.96001C 200.158 101.701004 198.234 105.323 195.289 107.649C 194.585 108.20599 194.465 109.228 195.021 109.933C 195.578 110.63699 196.6 110.756 197.305 110.2C 200.951 107.319 203.334 102.834 203.679 98.2C 203.745 97.306 203.073 96.526 202.178 96.459zM152.817 120.03999C 153.645 119.694 154.037 118.742004 153.691 117.914C 153.431 117.28999 152.827 116.914 152.19 116.914C 151.982 116.914 151.77 116.955 151.565 117.03999C 148.979 118.119995 146.123 118.675 143.32 118.621994C 143.312 118.621994 143.303 118.621994 143.293 118.621994C 142.408 118.621994 141.684 119.332 141.669 120.22099C 141.654 121.118 142.37 121.856995 143.268 121.871994C 146.523 121.925 149.819 121.291 152.817 120.03999zM154.554 115.022C 154.778 114.153 154.256 113.267 153.387 113.043C 149.387 112.009995 145.58 110.382 142.073 108.203C 141.807 108.037 141.51 107.95799 141.218 107.95799C 140.674 107.95799 140.143 108.229004 139.835 108.726C 139.362 109.487 139.596 110.489 140.358 110.963C 144.145 113.315994 148.255 115.075 152.574 116.188995C 153.444 116.412994 154.33 115.89101 154.554 115.022zM217.348 168.989C 213.923 177.507 204.709 182.2939 195.46 186.42331C 195.028 185.5898 194.58 184.77539 194.138 183.9756C 193.689 183.16501 193.24 182.35449 192.816 181.53171C 191.846 179.64801 190.71 177.149 190.54 174.528C 190.392 172.25 191.066 170.142 192.344 168.77301C 192.355 168.768 192.368 168.756 192.381 168.751C 193.2 168.383 193.565 167.42099 193.197 166.60199C 192.927 166 192.334 165.643 191.714 165.643C 191.685 165.643 191.654 165.651 191.625 165.65201C 191.596 165.651 191.566 165.644 191.537 165.644C 191.145 165.644 190.752 165.784 190.44 166.07C 190.417 166.091 190.397 166.117 190.375 166.138C 187.244 167.987 185.127 172.358 184.412 174.54599C 184.088 175.539 183.83 176.571 183.607 177.625C 180.521 176.108 177.612 175.344 174.921 175.344C 174.14 175.344 173.377 175.40799 172.634 175.537C 167.102 176.495 162.76 180.88379 159.271 184.4106C 159.239 184.4429 159.228 184.4854 159.199 184.51999C 159.074 184.5747 158.949 184.62741 158.827 184.6855C 158.704 184.5791 158.568 184.4839 158.41 184.4165C 155.501 183.1729 151.881 181.626 149.978 178.84799C 148.732 177.031 148.222 174.8 147.684 172.07199C 144.713 157.038 142.333 141.696 140.61 126.472C 140.292 123.656006 139.931 120.464005 137.99 117.892C 137.853 117.71001 137.708 117.533005 137.564 117.356C 137.274 117.003006 137 116.66901 136.882 116.37601C 136.632 115.752 136.872 114.815 137.125 113.823C 137.487 112.409 137.937 110.649994 137.069 108.968C 136.808 108.463 136.481 108.073 136.192 107.729996C 136.066 107.58099 135.938 107.433 135.826 107.272995C 135.224 106.41901 136.104 104.16901 136.797 102.451004C 136.917 102.5 137.043 102.539 137.178 102.559006C 142.888 103.36301 148.532 101.192 153.145 99.328995C 153.3 99.67799 153.399 100.050995 153.427 100.433C 153.442 100.651 153.439 100.873 153.438 101.093994C 153.435 101.649994 153.43 102.282 153.612 102.96001C 154 104.40199 155.005 105.32201 155.892 106.134995C 156.48 106.675 157.037 107.185 157.224 107.7C 157.372 108.11099 157.348 108.67 157.319 109.315994C 157.291 109.938 157.261 110.645004 157.389 111.378006C 157.49 111.964005 157.68 112.48801 157.847 112.95C 157.968 113.287 158.082 113.604004 158.143 113.888C 158.369 114.95799 157.976 116.198 157.56 117.51199C 157.406 117.994 157.254 118.477005 157.127 118.957C 155.688 124.381 157.344 130.044 158.675 134.595C 158.745 134.835 158.87 135.043 159.027 135.219C 157.413 138.385 156.047 141.676 155.121 145.221C 154.899 146.07 154.968 147.41 155.117 149.903C 155.3 152.92401 155.549 157.061 154.844 159.20999C 154.25 161.01599 153.5 161.696 152.363 162.726C 151.619 163.4 150.775 164.16501 149.871 165.34201C 149.324 166.054 149.459 167.075 150.171 167.621C 150.882 168.16699 151.901 168.034 152.449 167.32199C 153.175 166.376 153.871 165.745 154.545 165.13501C 155.786 164.01001 157.07 162.84799 157.932 160.224C 158.83 157.485 158.57 153.172 158.362 149.708C 158.275 148.27 158.168 146.48 158.268 146.037C 160.235 138.502 164.36 131.981 168.772 125.412994C 168.823 125.338 168.867 125.259 168.905 125.175995C 171.788 118.795 171.736 111.80701 171.691 105.64C 171.678 103.854996 171.673 102.177 171.733 100.606L171.733 100.606L180.521 98.455C 180.512 98.588 180.516 98.724 180.539 98.858C 181.063 101.823 183.313 103.854004 185.3 105.645004C 187.092 107.26199 188.785 108.78999 189.011 110.705C 189.042 110.97099 189.049 111.244 189.057 111.517C 189.081 112.345 189.112 113.37601 189.652 114.353C 190.216 115.368 191.118 115.94701 191.843 116.412C 192.145 116.604996 192.431 116.789 192.649 116.975006C 193.674 117.841 194.071 119.45599 194.419 121.175995C 197.104 134.441 199.121 147.996 200.418 161.461C 200.503 162.354 201.293 163.007 202.19 162.923C 203.084 162.837 203.739 162.043 203.652 161.15C 202.346 147.573 200.312 133.907 197.604 120.531006C 197.157 118.32001 196.568 116.033005 194.749 114.493C 194.365 114.168 193.957 113.906006 193.598 113.675995C 193.115 113.367004 192.661 113.075 192.495 112.77699C 192.337 112.491 192.321 111.97099 192.306 111.42C 192.294 111.052 192.281 110.685 192.239 110.325C 191.87 107.19501 189.536 105.09 187.477 103.231C 186.344 102.21001 185.253 101.225006 184.533 100.15199C 186.515 99.87399 188.47 99.033005 190.138 97.70799C 192.818 95.578995 195.061 91.18201 196.646 87.882996C 197.996 89.401 199.488 90.755005 200.949 92.069C 203.351 94.229004 205.618 96.270996 207.066 98.869995C 208.487 101.41901 209.064 104.449005 209.622 107.380005L209.622 107.380005L217.29 147.635C 218.528 154.133 220.069 162.22 217.348 168.989z" stroke="none"  fill="#FFFFFF" fill-rule="nonzero" />
					<path  d="M90.8247 64.791C 89.2183 63.520996 87.3306 62.701004 85.7959 62.035004C 83.8032 61.17 81.7397 60.292007 79.4878 59.893005L79.4878 59.893005L79.5527 58.375C 83.29 57.884995 87.2036 57.906006 91.0649 58.440994C 90.9717 58.621994 90.9062 58.817993 90.9033 59.035004L90.9033 59.035004L90.8247 64.791z" stroke="none"  fill="#FFFFFF" fill-rule="nonzero" />
					<path  d="M116.743 42.927994L117.079 78.52901C 115.832 77.787994 114.588 77.052 113.347 76.319L113.347 76.319L112.781 44.268005L116.743 42.927994z" stroke="none"  fill="#FFFFFF" fill-rule="nonzero" />
					<path  d="M76.8242 58.789993L76.7744 59.951996C 76.2803 60.117004 75.8525 60.371994 75.5083 60.735992C 74.9053 61.377 74.7012 62.162003 74.5518 62.735992L74.5518 62.735992L72.3291 71.285C 72.2466 71.603 72.2891 71.92 72.418 72.196C 72.3052 73.597 72.7939 75.09801 73.8052 76.384C 74.6992 77.520996 75.8491 78.351 76.8779 79.082C 76.8877 79.145996 76.8965 79.209 76.916 79.270996C 77.2554 80.371 77.602 81.491 77.959 82.623L77.959 82.623L60.1245 74.965C 62.8843 71.767 63.5117 67.593994 63.8701 63.233C 63.8975 62.451004 63.9111 61.634003 63.9058 60.800003L63.9058 60.800003L75.4678 56.89C 75.4629 57.061996 75.4624 57.229004 75.457 57.401C 75.4443 57.813004 75.6201 58.209 75.9346 58.475998C 76.1851 58.686996 76.5015 58.792007 76.8242 58.789993z" stroke="none"  fill="#FFFFFF" fill-rule="nonzero" />
					<path  d="M110.088 45.179L110.609 74.707C 109.375 73.979996 108.146 73.259 106.93 72.54401C 102.55 69.972 98.0283 67.313995 93.5356 64.621L93.5356 64.621L93.5928 60.442993C 93.6001 60.444 93.6064 60.449005 93.6138 60.449997C 94.061 60.529007 94.5215 60.395996 94.8711 60.091995C 95.7368 59.336 95.9365 57.492004 95.7309 50.035004L95.7309 50.035004L110.088 45.179z" stroke="none"  fill="#FFFFFF" fill-rule="nonzero" />
					<path  d="M138.585 99.44299C 138.225 96.071 138.114 94.199005 138.007 92.382996C 137.871 90.065994 137.741 87.879 137.112 82.929C 137.103 82.854004 137.087 82.778 137.065 82.70599C 136.563 81.056 136.003 79.401 135.46 77.802C 134.179 74.022 132.855 70.114 132.298 66.16901C 131.973 63.864 131.897 61.462997 131.825 59.141006C 131.775 57.541 131.723 55.888 132.012 54.354996C 132.145 53.647003 132.325 53.125 132.574 52.720993C 132.581 52.742004 132.586 52.765 132.593 52.789C 132.925 54.082993 133.009 55.446 133.098 56.89C 133.134 57.475998 133.17 58.061005 133.223 58.643997C 133.483 61.533997 134.155 64.368 135.205 67.075C 134.825 67.86099 134.467 68.66901 134.175 69.51199C 133.93 70.218 134.304 70.989 135.01 71.23399C 135.72 71.478 136.489 71.104996 136.733 70.397995C 137.182 69.106 137.814 67.879 138.484 66.578C 139.064 65.453 139.663 64.28999 140.153 63.048996C 140.009 64.52699 139.461 66.83501 139.092 68.395004C 138.212 72.102005 137.382 75.603 138.069 77.709C 138.301 78.42 139.065 78.808 139.776 78.576996C 140.487 78.345 140.876 77.58 140.644 76.869C 140.193 75.48599 141.044 71.901 141.727 69.020004C 141.97 67.994 142.181 67.078995 142.359 66.235C 142.52 66.43201 142.71 66.628006 142.972 66.824005C 144.109 67.675 145.285 68.55499 146.518 69.36301C 146.55 69.384995 146.584 69.403 146.615 69.423996C 146.303 71.095 146.143 73.621 145.991 76.08099C 145.88 77.869 145.775 79.559006 145.625 80.617004C 145.597 80.813 145.612 81.015 145.671 81.205C 146.409 83.60899 147.004 85.45 147.536 87.093994C 148.562 90.26601 149.332 92.651 150.427 96.91499C 146.676 98.39 142.608 99.744995 138.585 99.44299z" stroke="none"  fill="#FFFFFF" fill-rule="nonzero" />
					<path  d="M45.0522 179.35501C 43.0825 155.039 42.2769 135.198 42.585 118.746994C 51.8394 120.481 67.3013 125.67999 86.5127 133.535C 86.5586 143.176 87.1885 156.496 87.5693 163.744C 87.7036 166.293 87.8559 168.843 88.0083 171.394C 88.5649 180.7119 89.1406 190.3477 88.7617 199.7822C 88.7153 200.9409 88.5151 202.6836 87.8296 203.7896C 87.7739 203.8633 87.7256 203.9385 87.6826 204.022C 87.4263 204.3633 87.1138 204.6255 86.7246 204.7495C 86.3628 204.8652 86.0376 205.02829 85.751 205.1719C 85.5581 205.269 85.2661 205.41501 85.1567 205.4331C 84.6777 205.3936 84.2017 205.3594 83.7314 205.3276C 83.4512 205.2319 83.1611 205.2144 82.8857 205.2715C 82.7993 205.2661 82.709 205.2598 82.623 205.2544C 78.6289 204.9966 75.7436 204.8105 70.8945 203.2178C 69.4253 202.7349 67.1582 201.9395 64.9048 201.1489C 58.7969 199.0063 57.6265 198.6235 57.0781 198.5898C 56.6113 198.561 56.0557 198.29831 55.4668 198.01999C 55.2134 197.90039 54.96 197.78079 54.7041 197.6724C 54.1943 197.4556 53.6699 197.2065 53.1357 196.9531C 51.4131 196.1362 49.4604 195.2104 47.4443 195.07129C 46.1074 194.9785 44.5869 194.5903 43.1689 194.0103C 43.3237 193.875 43.4561 193.709 43.5532 193.5137C 43.7505 193.1182 43.9214 192.7227 44.0806 192.3271C 44.186 192.1841 44.2754 192.02539 44.3311 191.84619C 44.3696 191.7227 44.3882 191.5981 44.3965 191.47409C 45.7134 187.582 45.4014 183.65619 45.0669 179.53601L45.0669 179.53601L45.0522 179.35501z" stroke="none"  fill="#FFFFFF" fill-rule="nonzero" />
					<path  d="M84.9741 208.67331C 85.8843 208.7354 86.6489 208.35791 87.208 208.0771C 87.3804 207.99069 87.5469 207.8989 87.7124 207.84619C 88.2007 207.6904 88.7163 207.4414 89.2153 207.0625L89.2153 207.0625L89.8447 207.2583C 90.0254 207.4834 90.1997 207.7578 90.3574 208.0635C 89.8892 208.20511 89.3789 208.3374 88.6426 208.4624C 87.7573 208.6128 87.1621 209.45169 87.3125 210.3364C 87.4629 211.22171 88.3042 211.81839 89.1865 211.6665C 89.8247 211.5581 90.3301 211.4424 90.7725 211.3247C 90.4966 212.7007 89.7236 213.9644 88.6714 214.5596C 88.0664 214.9014 87.4248 214.9897 86.8203 214.812C 86.0947 214.6006 85.4643 214.02591 84.9971 213.1499C 84.2734 211.79199 84.0561 210.09671 84.3579 208.6294C 84.5635 208.644 84.7617 208.6572 84.9741 208.67331z" stroke="none"  fill="#FFFFFF" fill-rule="nonzero" />
					<path  d="M183.644 193.26709C 180.907 189.9595 177.912 187.6631 173.576 185.34369C 171.958 184.479 169.325 183.07129 165.954 183.07129C 165.71 183.07129 165.462 183.0786 165.21 183.09421C 164.96 183.1099 164.694 183.1377 164.429 183.1665C 166.974 180.856 169.874 178.763 173.096 178.206C 176.011 177.70099 179.39 178.45801 183.13 180.43161C 182.7 183.9678 182.79 187.79489 183.407 191.8755C 183.478 192.34131 183.562 192.80371 183.644 193.26709z" stroke="none"  fill="#FFFFFF" fill-rule="nonzero" />
					<path  d="M148.985 206.0845C 149.661 206.5391 150.565 206.501 151.232 205.98239C 151.57 205.7207 151.822 205.3618 151.983 204.9155C 152.108 204.5737 152.17 204.2104 152.166 203.8398C 152.149 202.85501 151.482 202.0723 150.579 201.9702C 150.521 201.96289 150.456 201.9585 150.384 201.9585C 150.136 201.9585 149.81 202.0132 149.464 202.2139C 148.795 202.5947 148.335 203.2964 148.219 204.0781C 148.007 204.8081 148.309 205.6323 148.985 206.0845zM156.971 197.1875L157.449 197.1133C 158.04 197.0195 158.443 196.4644 158.35 195.873C 158.265 195.3398 157.804 194.95999 157.28 194.95999C 157.224 194.95999 157.167 194.9644 157.109 194.9736L157.109 194.9736L156.646 195.04489C 156.055 195.1348 155.647 195.687 155.737 196.27829C 155.826 196.8696 156.376 197.28119 156.971 197.1875zM164.303 193.0742C 164.955 193.4385 165.78 193.2056 166.145 192.5518C 166.51 191.8989 166.276 191.0737 165.623 190.709C 164.57 190.1211 163.473 189.8936 162.361 189.8936C 160.835 189.8936 159.281 190.3232 157.778 190.8398C 157.071 191.08301 156.695 191.8535 156.938 192.5605C 157.181 193.26761 157.947 193.64499 158.659 193.4014C 160.973 192.606 162.82 192.2461 164.303 193.0742zM163.782 204.8906C 164.471 205.34619 165.369 205.3062 166.03 204.7974C 166.374 204.53079 166.626 204.1719 166.787 203.7256C 166.913 203.3804 166.975 203.0132 166.969 202.6401C 166.961 201.6724 166.295 200.88379 165.385 200.7798C 165.318 200.77249 165.252 200.769 165.186 200.769C 164.873 200.769 164.571 200.8516 164.283 201.0146C 163.602 201.4028 163.139 202.106 163.022 202.8877C 162.812 203.6147 163.11 204.437 163.782 204.8906zM149.796 199.6753C 150.252 198.8672 150.711 198.05319 151.197 197.2197C 152.024 195.7998 153.118 194.33841 154.175 192.9258L154.175 192.9258L154.426 192.5898C 155.673 190.9185 157.437 189.5645 159.143 188.2549C 160.549 187.1748 163.421 186.4614 165.41 186.33841C 168.207 186.1655 170.52 187.396 172.043 188.20999C 177.134 190.9331 180.196 193.6348 183.356 198.34671C 183.158 198.4248 182.972 198.54199 182.811 198.7012C 182.171 199.3311 182.164 200.3599 182.794 200.999C 183.842 202.0625 184.926 203.16211 185.494 204.5972C 185.854 205.50241 186.042 206.6436 186.056 207.9897C 186.07 209.4932 185.791 210.0811 185.623 210.2974C 185.319 210.6895 184.712 210.3291 184.645 210.28711C 184.201 210.0107 183.789 209.52539 183.417 208.998C 183.337 208.6128 183.121 208.2617 182.787 208.019C 182.759 207.9697 182.726 207.918 182.697 207.8696C 182.294 207.1743 181.455 206.89261 180.726 207.1655C 179.367 206.7847 178.002 206.6709 176.941 206.6709C 175.983 206.6709 175.274 206.7583 175.049 206.8105C 168.586 208.291 157.964 211.5835 152.959 217.9219C 151.262 213.6709 148.832 210.7988 145.284 208.7344C 145.983 206.5273 146.797 204.77881 147.519 203.5986C 148.336 202.2627 149.078 200.9473 149.796 199.6753z" stroke="none"  fill="#FFFFFF" fill-rule="nonzero" />
					<path  d="M28.1528 187.2632C 29.2173 187.3896 30.2139 188.1982 30.834 189.2993C 29.9302 189.5928 29.0669 189.9644 28.2593 190.4194C 27.4775 190.8599 27.2007 191.8511 27.6416 192.6328C 28.0825 193.4155 29.0742 193.69339 29.855 193.2505C 30.3379 192.9785 30.8613 192.7568 31.4014 192.5596C 31.165 194.0127 30.3608 195.3711 29.2568 195.9946C 28.0264 196.68991 26.4658 196.0698 25.5454 194.5195L25.5454 194.5195L25.5454 194.51999C 24.5791 192.8931 24.479 190.7617 25.2837 188.95749C 25.7832 187.8369 26.9834 187.125 28.1528 187.2632z" stroke="none"  fill="#FFFFFF" fill-rule="nonzero" />
					<path  d="M37.4902 120.462006C 37.6226 120.366 37.9297 120.3 38.2861 120.22301C 38.5845 120.158005 38.9316 120.08 39.3125 119.961C 39.0659 136.268 39.8853 155.819 41.813 179.618L41.813 179.618L41.8276 179.798C 42.1094 183.2715 42.355 186.3833 41.6362 189.32669C 41.2993 189.2305 40.9624 189.1299 40.626 189.0513C 39.1191 176.534 38.3804 163.817 38.4468 151.223C 38.4731 146.199 38.4116 133.357 37.2827 122.631C 37.1196 121.08 37.3057 120.595 37.4902 120.462006z" stroke="none"  fill="#FFFFFF" fill-rule="nonzero" />
					<path  d="M190.696 207.1553C 189.083 202.0303 187.427 196.73581 186.62 191.3901C 185.739 185.5615 186.013 180.3403 187.415 175.85501C 187.812 178.626 188.943 181.1094 189.928 183.02051C 190.366 183.8716 190.829 184.7104 191.293 185.54831C 192.146 187.0903 192.951 188.5469 193.606 190.0835C 194.975 193.2935 195.635 196.83499 195.518 200.3247C 195.449 202.33789 195.117 203.8115 194.47 204.9614C 193.754 206.2334 192.544 207.0972 191.387 207.1631C 191.218 207.1729 191.06 207.2148 190.909 207.2715C 190.838 207.2314 190.765 207.1909 190.696 207.1553z" stroke="none"  fill="#FFFFFF" fill-rule="nonzero" />
					<path  d="M143.303 62.940994C 143.182 62.996994 143.058 63.046997 142.941 63.112C 142.913 63.128998 142.879 63.151 142.849 63.17C 142.948 61.858 142.806 60.877 142.28 60.173996C 141.874 59.630005 141.268 59.311005 140.572 59.272003C 140.547 59.270996 140.523 59.270996 140.499 59.270996C 140.475 59.270996 140.45 59.270996 140.427 59.272003C 140.19 57.565002 140.002 55.849 139.864 54.128006C 140.718 54.850006 141.654 55.462997 142.554 56.035004C 142.493 56.205 142.463 56.39 142.476 56.582C 142.613 58.703003 142.889 60.834 143.294 62.912994C 143.296 62.923004 143.301 62.932007 143.303 62.940994z" stroke="none"  fill="#FFFFFF" fill-rule="nonzero" />
					<path  d="M148.345 62.938004C 147.52 62.649994 146.719 62.490005 145.958 62.455994C 145.955 62.436005 145.956 62.416 145.952 62.395996C 145.665 60.923996 145.472 59.423996 145.325 57.921005C 146.487 58.789993 147.596 59.737 148.64 60.753006C 148.632 60.789 148.611 60.819 148.606 60.856003L148.606 60.856003L148.345 62.938004z" stroke="none"  fill="#FFFFFF" fill-rule="nonzero" />
					<path  d="M192.718 88.493C 191.41 91.048996 189.774 93.84599 188.116 95.162994C 187.192 95.897 186.153 96.418 185.089 96.715C 185.08 96.705 185.078 96.69299 185.069 96.684006L185.069 96.684006L161.965 72.575C 161.959 72.569 161.951 72.56799 161.946 72.562C 161.83 72.44501 161.692 72.351 161.538 72.281006C 161.521 72.274 161.508 72.26601 161.491 72.259C 161.397 72.222 161.3 72.190994 161.195 72.175C 156.52 71.44701 151.958 69.690994 148.003 67.09801C 147.082 66.494 146.175 65.832 145.288 65.173004C 146.328 65.071 147.425 65.46001 147.938 65.67799C 148.53 65.92999 149.108 66.23801 149.722 66.563995C 150.621 67.045 151.552 67.541 152.589 67.884995C 153.513 68.190994 154.287 68.118 154.895 67.666C 155.917 66.903 155.975 65.481995 155.041 64.131C 152.397 60.304 148.937 56.940994 145.036 54.408005C 144.77 54.233994 144.498 54.061996 144.225 53.889008C 142.563 52.834 140.984 51.832 140.153 50.416C 141.418 50.436996 142.752 51.160004 144.019 51.957C 147.019 53.847 149.862 56.018005 152.469 58.410995C 153.02 58.916 153.876 58.880997 154.383 58.328995C 154.889 57.776993 154.852 56.921005 154.301 56.414993C 151.573 53.912003 148.6 51.642 145.462 49.666C 144.843 49.276 144.205 48.901 143.547 48.585007L143.547 48.585007L141.79 46.796997C 141.667 46.671997 141.542 46.545 141.437 46.423004C 141.483 46.442 141.533 46.464005 141.588 46.488007C 146.208 48.612 150.465 51.718002 153.896 55.468994C 154.402 56.020996 155.26 56.059006 155.81 55.554C 156.361 55.048996 156.399 54.192 155.895 53.641006C 152.619 50.061005 148.639 47.035004 144.31 44.809006C 144.307 44.767 144.32 44.727005 144.313 44.684006C 144.34 44.654007 144.381 44.621002 144.42 44.606995C 144.582 44.550995 144.907 44.53 145.526 44.748C 146.953 45.248993 148.249 46.283997 149.351 47.214996C 151.445 48.983 153.446 50.897003 155.304 52.901993C 155.321 52.921005 155.348 52.947998 155.363 52.964996C 155.428 53.031006 155.51 53.065994 155.583 53.117004C 155.654 53.166 155.717 53.229004 155.795 53.264008C 155.873 53.298004 155.957 53.302002 156.039 53.320007C 156.126 53.341003 156.211 53.373993 156.3 53.377C 156.386 53.378998 156.468 53.352005 156.553 53.337997C 156.64 53.322998 156.727 53.322998 156.81 53.293C 156.898 53.259995 156.973 53.195007 157.054 53.143997C 157.121 53.100998 157.197 53.076004 157.258 53.020004C 157.261 53.017 157.262 53.013 157.266 53.009995C 157.27 53.005997 157.274 53.005005 157.278 53.001007C 157.347 52.936005 157.382 52.852005 157.434 52.776C 157.48 52.707 157.543 52.645996 157.576 52.570007C 157.613 52.485992 157.619 52.395996 157.638 52.308C 157.655 52.227005 157.687 52.147995 157.689 52.065002C 157.692 51.975998 157.664 51.889008 157.648 51.798996C 157.635 51.716995 157.636 51.634003 157.605 51.554993C 157.573 51.464996 157.508 51.389008 157.455 51.307007C 157.412 51.240005 157.389 51.166 157.333 51.106003C 157.327 51.100998 157.322 51.095 157.316 51.089005C 157.315 51.087997 157.315 51.087006 157.314 51.086C 156.262 49.992004 153.947 47.392 152.377 45.483C 157.165 50.106995 161.452 55.906998 165.131 62.738007L165.131 62.738007L169.872 71.547C 169.964 71.718994 170.092 71.868 170.247 71.985C 172.584 73.753006 174.833 75.591995 177.007 77.369995C 181.977 81.435 186.671 85.272995 192.397 88.395004C 192.5 88.45 192.609 88.466 192.718 88.493z" stroke="none"  fill="#FFFFFF" fill-rule="nonzero" />
					<path  d="M135.92 58.399002C 135.87 57.843002 135.835 57.283005 135.801 56.724C 135.792 56.58 135.782 56.434998 135.772 56.289993C 135.82 56.162994 135.855 56.029007 135.862 55.886C 135.956 53.891006 136.053 51.826996 136.681 49.987C 136.714 49.891006 136.768 49.716995 136.835 49.496002C 136.854 49.436005 136.872 49.376007 136.89 49.317C 136.895 49.686996 136.906 50.043 136.918 50.376007C 137.055 53.987 137.407 57.627 137.964 61.197006C 137.812 61.53 137.71 61.832993 137.649 62.020996C 137.438 62.563995 137.19 63.11 136.921 63.664993C 136.428 61.945007 136.081 60.186005 135.92 58.399002z" stroke="none"  fill="#FFFFFF" fill-rule="nonzero" />
					<path  d="M150.113 86.261C 149.605 84.69299 149.04 82.944 148.348 80.692C 148.49 79.53999 148.59 77.937 148.694 76.248C 148.808 74.416 148.932 72.399994 149.123 70.90199C 152.607 72.785 156.415 74.104004 160.312 74.765L160.312 74.765L171.107 86.03L151.665 91.2C 151.161 89.502 150.675 87.998 150.113 86.261z" stroke="none"  fill="#FFFFFF" fill-rule="nonzero" />
					<path  d="M164.137 241.8174C 163.025 241.1079 162.027 240.2412 161.169 239.2412C 160.853 238.8735 160.399 238.6748 159.936 238.6748C 159.723 238.6748 159.508 238.71631 159.304 238.8027C 158.514 239.1362 157.644 239.2896 156.787 239.2451C 155.867 239.2007 155.128 239.8896 155.081 240.7847C 155.035 241.6812 155.725 242.4448 156.621 242.4912C 157.575 242.5425 158.536 242.4336 159.458 242.1812C 160.341 243.08011 161.323 243.8765 162.389 244.5566C 163.146 245.0405 164.15 244.8169 164.633 244.0615C 165.115 243.3047 164.894 242.3003 164.137 241.8174zM174.742 246.6553C 173.125 246.9687 172.075 247.0078 171.447 247.03079C 171.141 247.0425 170.907 247.0547 170.739 247.07669C 170.548 247.1021 170.268 247.1548 169.891 247.228C 169.222 247.3579 168.211 247.5547 166.781 247.7427C 155.792 249.1938 146.754 235.9839 144.484 228.7939C 144.479 228.7578 144.48 228.7222 144.473 228.686C 143.121 222.2588 143.467 216.5215 144.429 212.0107C 147.675 214.144 149.581 217.1743 150.97 222.2368C 151.154 222.9092 151.747 223.3887 152.443 223.4292C 153.139 223.457 153.784 223.061 154.044 222.4141C 156.148 217.1934 164.069 212.6606 175.776 209.978C 176.258 209.9014 178.609 209.76999 180.516 210.5215C 181.151 211.4839 181.924 212.4224 182.927 213.0464C 184.752 214.1821 186.965 213.86621 188.189 212.2915C 188.65 211.6982 188.948 210.93161 189.123 210.0166C 189.283 210.0742 189.447 210.1743 189.717 210.3418C 189.78 210.38089 189.852 210.4248 189.922 210.46829C 193.365 218.9248 193.101 227.95801 189.168 235.3052C 185.921 241.3726 180.663 245.5098 174.742 246.6553z" stroke="none"  fill="#FFFFFF" fill-rule="nonzero" />
					<path  d="M150.995 64.175C 150.972 64.162 150.947 64.149 150.924 64.138L150.924 64.138L151.025 63.328003C 151.424 63.806 151.812 64.28999 152.182 64.787994C 151.791 64.599 151.398 64.39 150.995 64.175z" stroke="none"  fill="#FFFFFF" fill-rule="nonzero" />
					<path  d="M209.906 97.287994C 211.582 100.295 212.237 103.73599 212.815 106.772L212.815 106.772L215.608 121.436005C 215.596 114.59801 215.663 108.256 216.221 103.32201C 216.839 97.84801 217.723 93.261 218.616 89.12601L218.616 89.12601L205.907 92.23801C 207.424 93.737 208.835 95.366 209.906 97.287994zM196.646 87.882996C 195.061 91.18201 192.818 95.578995 190.138 97.70799C 188.47 99.033005 186.515 99.87399 184.533 100.15199C 185.253 101.225006 186.344 102.21001 187.477 103.231C 189.536 105.09 191.87 107.19501 192.239 110.325C 192.281 110.685 192.294 111.052 192.306 111.42C 192.321 111.97099 192.337 112.491 192.495 112.77699C 192.661 113.075 193.115 113.367004 193.598 113.675995C 193.957 113.906006 194.365 114.168 194.749 114.493C 196.568 116.033005 197.157 118.32001 197.604 120.531006C 200.312 133.907 202.346 147.573 203.652 161.15C 203.739 162.043 203.084 162.837 202.19 162.923C 201.293 163.007 200.503 162.354 200.418 161.461C 199.121 147.996 197.104 134.441 194.419 121.175995C 194.071 119.45599 193.674 117.841 192.649 116.975006C 192.431 116.789 192.145 116.604996 191.843 116.412C 191.118 115.94701 190.216 115.368 189.652 114.353C 189.112 113.37601 189.081 112.345 189.057 111.517C 189.049 111.244 189.042 110.97099 189.011 110.705C 188.785 108.78999 187.092 107.26199 185.3 105.645004C 183.313 103.854004 181.063 101.823 180.539 98.858C 180.516 98.724 180.512 98.588 180.521 98.455L180.521 98.455L171.733 100.606C 171.673 102.177 171.678 103.854996 171.691 105.64C 171.736 111.80701 171.788 118.795 168.905 125.175995C 168.867 125.259 168.823 125.338 168.772 125.412994C 164.36 131.981 160.235 138.502 158.268 146.037C 158.168 146.48 158.275 148.27 158.362 149.708C 158.57 153.172 158.83 157.485 157.932 160.224C 157.07 162.84799 155.786 164.01001 154.545 165.13501C 153.871 165.745 153.175 166.376 152.449 167.32199C 151.901 168.034 150.882 168.16699 150.171 167.621C 149.459 167.075 149.324 166.054 149.871 165.34201C 150.775 164.16501 151.619 163.4 152.363 162.726C 153.5 161.696 154.25 161.01599 154.844 159.20999C 155.549 157.061 155.3 152.92401 155.117 149.903C 154.968 147.41 154.899 146.07 155.121 145.221C 156.047 141.676 157.413 138.385 159.027 135.219C 158.87 135.043 158.745 134.835 158.675 134.595C 157.344 130.044 155.688 124.381 157.127 118.957C 157.254 118.477005 157.406 117.994 157.56 117.51199C 157.976 116.198 158.369 114.95799 158.143 113.888C 158.082 113.604004 157.968 113.287 157.847 112.95C 157.68 112.48801 157.49 111.964005 157.389 111.378006C 157.261 110.645004 157.291 109.938 157.319 109.315994C 157.348 108.67 157.372 108.11099 157.224 107.7C 157.037 107.185 156.48 106.675 155.892 106.134995C 155.005 105.32201 154 104.40199 153.612 102.96001C 153.43 102.282 153.435 101.649994 153.438 101.093994C 153.439 100.873 153.442 100.651 153.427 100.433C 153.399 100.050995 153.3 99.67799 153.145 99.328995C 148.532 101.192 142.888 103.36301 137.178 102.559006C 137.043 102.539 136.917 102.5 136.797 102.451004C 136.104 104.16901 135.224 106.41901 135.826 107.272995C 135.938 107.433 136.066 107.58099 136.192 107.729996C 136.481 108.073 136.808 108.463 137.069 108.968C 137.937 110.649994 137.487 112.409 137.125 113.823C 136.872 114.815 136.632 115.752 136.882 116.37601C 137 116.66901 137.274 117.003006 137.564 117.356C 137.708 117.533005 137.853 117.71001 137.99 117.892C 139.931 120.464005 140.292 123.656006 140.61 126.472C 142.333 141.696 144.713 157.038 147.684 172.07199C 148.222 174.8 148.732 177.031 149.978 178.84799C 151.881 181.626 155.501 183.1729 158.41 184.4165C 158.568 184.4839 158.704 184.5791 158.827 184.6855C 158.949 184.62741 159.074 184.5747 159.199 184.51999C 159.228 184.4854 159.239 184.4429 159.271 184.4106C 162.76 180.88379 167.102 176.495 172.634 175.537C 173.377 175.40799 174.14 175.344 174.921 175.344C 177.612 175.344 180.521 176.108 183.607 177.625C 183.83 176.571 184.088 175.539 184.412 174.54599C 185.127 172.358 187.244 167.987 190.375 166.138C 190.397 166.117 190.417 166.091 190.44 166.07C 190.752 165.784 191.145 165.644 191.537 165.644C 191.566 165.644 191.596 165.651 191.625 165.65201C 191.654 165.651 191.685 165.643 191.714 165.643C 192.334 165.643 192.927 166 193.197 166.60199C 193.565 167.42099 193.2 168.383 192.381 168.751C 192.368 168.756 192.355 168.768 192.344 168.77301C 191.066 170.142 190.392 172.25 190.54 174.528C 190.71 177.149 191.846 179.64801 192.816 181.53171C 193.24 182.35449 193.689 183.16501 194.138 183.9756C 194.58 184.77539 195.028 185.5898 195.46 186.42331C 204.709 182.2939 213.923 177.507 217.348 168.989C 220.069 162.22 218.528 154.133 217.29 147.635L217.29 147.635L209.622 107.380005C 209.064 104.449005 208.487 101.41901 207.066 98.869995C 205.618 96.270996 203.351 94.229004 200.949 92.069C 199.488 90.755005 197.996 89.401 196.646 87.882996zM187.799 82.046005L246.652 67.239C 247.661 66.985 248.348 66.218 248.489 65.187C 248.631 64.157 248.177 63.233 247.274 62.716003L247.274 62.716003L185.436 27.248001C 180.169 24.227005 173.85 23.609009 168.098 25.557007L168.098 25.557007L119.442 42.015L119.802 80.155C 120.183 80.382996 120.563 80.608 120.944 80.837006C 121.25 81.020996 121.471 81.31799 121.559 81.664C 122.092 83.76199 122.009 86.116 121.318 88.475006C 121.091 89.248 120.738 90.243 120.013 91.078995C 118.967 92.285995 117.312 92.933 115.392 92.88699C 113.446 92.828 111.262 92.71001 109.972 92.06C 105.645 89.879 102.173 87.78999 98.4976 85.578C 97.3633 84.895996 96.2007 84.19701 94.9883 83.479004L94.9883 83.479004L97.2983 90.92799L111.919 97.205C 115.789 98.867004 120.169 99.212006 124.252 98.18201L124.252 98.18201L135.451 95.351C 135.463 95.34801 135.475 95.34801 135.486 95.34599C 135.408 94.300995 135.354 93.41 135.303 92.54201C 135.17 90.291 135.045 88.162994 134.44 83.384C 133.959 81.811005 133.418 80.215 132.895 78.671005C 131.574 74.772995 130.208 70.744 129.616 66.548004C 129.27 64.097 129.193 61.619995 129.118 59.225006C 129.063 57.479996 129.007 55.677002 129.35 53.854004C 129.559 52.748993 129.875 51.897003 130.346 51.177994C 130.95 50.252 131.82 49.729004 132.706 49.729004C 132.884 49.729004 133.062 49.751007 133.24 49.794006C 133.428 49.839996 133.634 49.921005 133.842 50.041C 133.923 49.729004 134.013 49.42 134.118 49.113007C 134.145 49.031998 134.189 48.886993 134.246 48.703003C 134.93 46.470993 135.23 45.787994 135.708 45.386C 136.193 44.977997 136.785 44.770004 137.363 44.770004C 137.812 44.770004 138.249 44.901993 138.622 45.156006C 138.749 44.785995 138.958 44.451004 139.246 44.186996C 139.597 43.865005 140.128 43.570007 140.894 43.570007C 141.161 43.570007 141.459 43.61 141.786 43.692993C 142.084 42.957993 142.709 42.332993 143.539 42.046005C 143.897 41.923004 144.275 41.860992 144.678 41.860992C 145.214 41.860992 145.792 41.972 146.422 42.190994C 147.097 42.429 147.714 42.753998 148.306 43.104004C 148.512 42.535004 148.951 42.082 149.561 41.852997C 149.875 41.733994 150.229 41.679 150.601 41.679C 151.599 41.679 152.714 42.085007 153.464 42.781998C 158.775 47.720993 163.504 54.003006 167.516 61.455L167.516 61.455L172.117 70.004C 174.409 71.746 176.601 73.537994 178.722 75.272995C 181.671 77.686005 184.523 80.013 187.536 82.143005C 187.618 82.102005 187.706 82.069 187.799 82.046005zM94.8711 60.091995C 94.5215 60.395996 94.061 60.529007 93.6138 60.449997C 93.6064 60.449005 93.6001 60.444 93.5928 60.442993L93.5928 60.442993L93.5356 64.621C 98.0283 67.313995 102.55 69.972 106.93 72.54401C 108.146 73.259 109.375 73.979996 110.609 74.707L110.609 74.707L110.088 45.179L95.7309 50.035004C 95.9365 57.492004 95.7368 59.336 94.8711 60.091995zM94.396 37.128998C 94.3716 36.649002 94.3467 36.158997 94.3247 35.658005C 88.8721 33.634995 81.4311 34.190002 76.9189 35.985C 76.8374 36.155 76.7451 36.376007 76.7012 36.505997C 76.5903 38.091995 76.5049 40.354004 76.5337 41.727005C 79.7393 40.248993 83.2705 39.5 86.6396 39.501007C 89.4736 39.501007 92.1831 40.039993 94.4951 41.104996C 94.5356 39.888 94.4702 38.582993 94.396 37.128998zM63.9058 60.800003C 63.9111 61.634003 63.8975 62.451004 63.8701 63.233C 63.5117 67.593994 62.8843 71.767 60.1245 74.965L60.1245 74.965L77.959 82.623C 77.602 81.491 77.2554 80.371 76.916 79.270996C 76.8965 79.209 76.8877 79.145996 76.8779 79.082C 75.8491 78.351 74.6992 77.520996 73.8052 76.384C 72.7939 75.09801 72.3052 73.597 72.418 72.196C 72.2891 71.92 72.2466 71.603 72.3291 71.285L72.3291 71.285L74.5518 62.735992C 74.7012 62.162003 74.9053 61.377 75.5083 60.735992C 75.8525 60.371994 76.2803 60.117004 76.7744 59.951996L76.7744 59.951996L76.8242 58.789993C 76.5015 58.792007 76.1851 58.686996 75.9346 58.475998C 75.6201 58.209 75.4443 57.813004 75.457 57.401C 75.4624 57.229004 75.4629 57.061996 75.4678 56.89L75.4678 56.89L63.9058 60.800003zM54.4219 46.852005C 48.436 45.057007 38.2705 46.959 35.854 54.005005C 35.063 59.461 34.0664 71.591 39.7959 76.27699C 40.1318 75.09 40.978 74.076004 42.1509 73.563C 43.7959 72.845 45.8618 72.485 47.9233 72.485C 49.9434 72.485 51.9595 72.83099 53.5693 73.524C 54.3984 73.882 55.0542 74.535 55.4463 75.339005C 59.5806 72.946 60.6631 69.19299 61.167 63.074997C 61.501 53.514008 59.4097 48.507004 54.4219 46.852005zM42.5083 78.618C 42.6133 79.12399 42.8867 79.559006 43.2002 79.770996C 43.2578 79.644 43.3291 79.522 43.4243 79.41701C 44.3999 78.334 45.9932 77.687 47.6865 77.687C 49.0278 77.687 49.585 77.912994 50.4541 78.311005C 50.708 78.427 51.0068 78.563 51.4067 78.72099C 51.8716 78.903 52.1895 79.328 52.2485 79.82001C 52.4102 79.742004 52.5688 79.662994 52.7021 79.56799C 52.9395 79.401 53.1069 79.198 53.1431 79.06C 53.1846 78.804 53.1602 77.795 53.146 77.192L53.146 77.192L53.1426 77.05701C 53.1313 76.593 52.8721 76.173004 52.4976 76.01199C 49.6406 74.782 45.4639 75.07201 43.2349 76.046005C 42.6606 76.297 42.3022 76.882 42.3428 77.502C 42.3643 77.83099 42.4121 78.15401 42.5083 78.618zM47.5054 82.979004C 48.2109 82.979004 48.9199 83.019 49.6274 83.065994C 49.6377 82.354996 49.6313 81.573 49.6055 80.899C 49.5068 80.854996 49.4146 80.813 49.3271 80.772995C 48.6777 80.477005 48.5029 80.395996 47.6865 80.395996C 46.9648 80.395996 46.2607 80.602005 45.772 80.938995C 45.7729 81.349 45.7881 81.82001 45.8032 82.282C 45.811 82.531006 45.8184 82.78 45.8247 83.028C 46.3813 82.996994 46.9419 82.979004 47.5054 82.979004zM41.0098 89.703995C 41.1182 89.951004 41.4404 90.20799 41.9673 90.468994C 44.0034 91.475006 46.3618 91.58501 48.8584 91.701004C 50.2168 91.765 51.6216 91.83 53.0073 92.048004C 53.2852 92.091995 53.5645 92.142 53.8442 92.192C 54.5747 92.323 55.2783 92.45 55.9272 92.45C 56.2471 92.45 56.5537 92.41901 56.8433 92.343C 56.6704 92.201996 56.5 92.059006 56.3516 91.90401C 55.4395 90.961 55.2905 89.73399 55.1709 88.75C 55.0977 88.145996 55.0283 87.576996 54.8149 87.215C 54.4175 86.53999 53.3262 86.270996 52.2065 86.078995C 48.834 85.506 45.2563 85.559006 42.1348 86.231995C 42.1343 86.231995 42.1343 86.231995 42.1343 86.231995C 41.4565 86.378006 40.9468 87.01601 40.9224 87.75C 40.9131 88.026 40.9121 88.343 40.9102 88.815994C 40.9087 89.157 40.9204 89.5 41.0098 89.703995zM79.0703 86.043C 79.0596 86.039 79.0488 86.037994 79.0386 86.033005L79.0386 86.033005L57.9146 76.964005C 57.3037 77.397995 56.6226 77.802 55.873 78.175C 55.8799 78.921005 55.8589 79.36301 55.7773 79.686005C 55.5747 80.491 55.0376 81.235 54.2651 81.78C 53.6719 82.2 53.042 82.448 52.4868 82.666C 52.439 82.685 52.3901 82.694 52.3413 82.707C 52.3403 82.934006 52.3374 83.153 52.333 83.368C 52.4414 83.384995 52.5527 83.39101 52.6611 83.409C 53.7642 83.59801 56.0581 83.98801 57.1489 85.84C 57.6489 86.688995 57.7607 87.61 57.8599 88.423004C 57.8804 88.593 57.9009 88.759995 57.9243 88.92L57.9243 88.92L84.4888 98.94701C 82.2383 94.819 80.5298 90.394 79.0703 86.043zM92.9067 55.977005C 92.9604 55.985992 93.0195 55.998 93.0825 56.014008C 93.1465 53.423996 93.0088 49.399002 92.9228 46.880997C 92.8779 45.572006 92.8364 44.345 92.8125 43.311996C 88.7324 41.677002 83.1269 41.893997 78.353 43.882996C 78.2983 46.056 78.2847 48.171005 78.271 50.225006C 78.2593 52.039993 78.2471 53.904007 78.2065 55.820007C 82.9853 55.072006 87.9219 55.123993 92.9067 55.977005zM91.6748 75.379C 91.7017 74.90199 91.7412 74.425995 91.7505 73.95C 91.7822 72.308 91.7065 70.42799 90.9058 68.937C 89.7827 66.84801 87.439 65.7 84.7178 64.520004C 82.7832 63.679993 80.7827 62.811996 78.7432 62.498993C 77.9868 62.382996 77.5942 62.474 77.479 62.595C 77.352 62.729004 77.2485 63.127 77.1728 63.418L77.1728 63.418L75.7593 68.854004C 75.791 68.854004 75.8237 68.84801 75.855 68.84801C 76.7964 68.84801 77.6582 69.13901 78.1103 69.291C 82.8032 70.871994 87.3569 72.929 91.6748 75.379zM79.5527 58.375L79.4878 59.893005C 81.7397 60.292007 83.8032 61.17 85.7959 62.035004C 87.3306 62.701004 89.2183 63.520996 90.8247 64.791L90.8247 64.791L90.9033 59.035004C 90.9062 58.817993 90.9717 58.621994 91.0649 58.440994C 87.2036 57.906006 83.29 57.884995 79.5527 58.375zM119.049 82.858C 114.524 80.145996 109.969 77.47099 105.558 74.880005C 101.611 72.562 97.5488 70.173996 93.4927 67.75101L93.4927 67.75101L93.4893 68.007996C 93.4893 68.024 93.4805 68.037994 93.4795 68.054C 94.1152 69.408005 94.3603 70.856995 94.4331 72.246L94.4331 72.246L115.754 84.77699C 116.399 85.157 116.614 85.98599 116.235 86.632C 115.856 87.274994 115.026 87.490005 114.382 87.11301L114.382 87.11301L94.3862 75.36099C 94.3135 76.757 94.1924 78.15401 93.978 79.532C 93.9678 79.599 93.9477 79.660995 93.9282 79.725006C 96.0806 80.965 98.0215 82.130005 99.894 83.257C 103.525 85.442 106.955 87.506 111.191 89.642C 112.053 90.076004 114.45 90.147995 115.544 90.18201C 116.554 90.207 117.464 89.884995 117.967 89.304C 118.266 88.96001 118.497 88.47 118.719 87.713C 119.207 86.047 119.32 84.34599 119.049 82.858zM117.079 78.52901L116.743 42.927994L112.781 44.268005L113.347 76.319C 114.588 77.052 115.832 77.787994 117.079 78.52901zM90.0889 102.735C 91.2163 104.252 92.9126 105.998 94.6265 105.729996C 96.0674 105.49899 97.0351 103.828995 97.2139 102.37399C 97.4409 100.53 96.8433 98.604004 96.2656 96.741L96.2656 96.741L90.6533 78.647C 90.5752 78.395996 90.5776 78.13901 90.6406 77.899994C 86.3848 75.459 81.8838 73.42 77.2451 71.856995C 75.9346 71.416 75.5059 71.562 75.3672 71.687C 75.2676 71.778 75.1821 71.976 75.1387 72.213C 75.001 72.968 75.2988 73.899994 75.9346 74.71001C 76.6103 75.569 77.5854 76.263 78.5288 76.934006C 78.8408 77.155 79.0259 77.48599 79.0786 77.837006C 79.272 77.99899 79.4238 78.214005 79.5039 78.47301C 82.1074 86.905 84.7993 95.625 90.0889 102.735zM147.536 87.093994C 147.004 85.45 146.409 83.60899 145.671 81.205C 145.612 81.015 145.597 80.813 145.625 80.617004C 145.775 79.559006 145.88 77.869 145.991 76.08099C 146.143 73.621 146.303 71.095 146.615 69.423996C 146.584 69.403 146.55 69.384995 146.518 69.36301C 145.285 68.55499 144.109 67.675 142.972 66.824005C 142.71 66.628006 142.52 66.43201 142.359 66.235C 142.181 67.078995 141.97 67.994 141.727 69.020004C 141.044 71.901 140.193 75.48599 140.644 76.869C 140.876 77.58 140.487 78.345 139.776 78.576996C 139.065 78.808 138.301 78.42 138.069 77.709C 137.382 75.603 138.212 72.102005 139.092 68.395004C 139.461 66.83501 140.009 64.52699 140.153 63.048996C 139.663 64.28999 139.064 65.453 138.484 66.578C 137.814 67.879 137.182 69.106 136.733 70.397995C 136.489 71.104996 135.72 71.478 135.01 71.23399C 134.304 70.989 133.93 70.218 134.175 69.51199C 134.467 68.66901 134.825 67.86099 135.205 67.075C 134.155 64.368 133.483 61.533997 133.223 58.643997C 133.17 58.061005 133.134 57.475998 133.098 56.89C 133.009 55.446 132.925 54.082993 132.593 52.789C 132.586 52.765 132.581 52.742004 132.574 52.720993C 132.325 53.125 132.145 53.647003 132.012 54.354996C 131.723 55.888 131.775 57.541 131.825 59.141006C 131.897 61.462997 131.973 63.864 132.298 66.16901C 132.855 70.114 134.179 74.022 135.46 77.802C 136.003 79.401 136.563 81.056 137.065 82.70599C 137.087 82.778 137.103 82.854004 137.112 82.929C 137.741 87.879 137.871 90.065994 138.007 92.382996C 138.114 94.199005 138.225 96.071 138.585 99.44299C 142.608 99.744995 146.676 98.39 150.427 96.91499C 149.332 92.651 148.562 90.26601 147.536 87.093994zM173.248 88.26401L152.406 93.80499C 152.592 94.48399 152.785 95.209 152.989 96C 153.004 95.99899 153.02 95.994995 153.035 95.994995C 153.064 95.994995 153.091 96.006 153.12 96.007996C 153.353 95.88901 153.598 95.80701 153.852 95.80701C 154.307 95.80701 154.76 95.996994 155.081 96.368C 156.004 97.434006 156.567 98.79401 156.669 100.198C 156.69 100.502 156.69 100.81 156.688 101.116C 156.687 101.25101 156.689 101.37601 156.691 101.50101L156.691 101.50101L180.376 95.701004L173.248 88.26401zM148.694 76.248C 148.59 77.937 148.49 79.53999 148.348 80.692C 149.04 82.944 149.605 84.69299 150.113 86.261C 150.675 87.998 151.161 89.502 151.665 91.2L151.665 91.2L171.107 86.03L160.312 74.765C 156.415 74.104004 152.607 72.785 149.123 70.90199C 148.932 72.399994 148.808 74.416 148.694 76.248zM148.345 62.938004L148.606 60.856003C 148.611 60.819 148.632 60.789 148.64 60.753006C 147.596 59.737 146.487 58.789993 145.325 57.921005C 145.472 59.423996 145.665 60.923996 145.952 62.395996C 145.956 62.416 145.955 62.436005 145.958 62.455994C 146.719 62.490005 147.52 62.649994 148.345 62.938004zM151.025 63.328003L150.924 64.138C 150.947 64.149 150.972 64.162 150.995 64.175C 151.398 64.39 151.791 64.599 152.182 64.787994C 151.812 64.28999 151.424 63.806 151.025 63.328003zM142.28 60.173996C 142.806 60.877 142.948 61.858 142.849 63.17C 142.879 63.151 142.913 63.128998 142.941 63.112C 143.058 63.046997 143.182 62.996994 143.303 62.940994C 143.301 62.932007 143.296 62.923004 143.294 62.912994C 142.889 60.834 142.613 58.703003 142.476 56.582C 142.463 56.39 142.493 56.205 142.554 56.035004C 141.654 55.462997 140.718 54.850006 139.864 54.128006C 140.002 55.849 140.19 57.565002 140.427 59.272003C 140.45 59.270996 140.475 59.270996 140.499 59.270996C 140.523 59.270996 140.547 59.270996 140.572 59.272003C 141.268 59.311005 141.874 59.630005 142.28 60.173996zM135.801 56.724C 135.835 57.283005 135.87 57.843002 135.92 58.399002C 136.081 60.186005 136.428 61.945007 136.921 63.664993C 137.19 63.11 137.438 62.563995 137.649 62.020996C 137.71 61.832993 137.812 61.53 137.964 61.197006C 137.407 57.627 137.055 53.987 136.918 50.376007C 136.906 50.043 136.895 49.686996 136.89 49.317C 136.872 49.376007 136.854 49.436005 136.835 49.496002C 136.768 49.716995 136.714 49.891006 136.681 49.987C 136.053 51.826996 135.956 53.891006 135.862 55.886C 135.855 56.029007 135.82 56.162994 135.772 56.289993C 135.781 56.434998 135.792 56.58 135.801 56.724zM192.397 88.395004C 186.671 85.272995 181.977 81.435 177.007 77.369995C 174.833 75.591995 172.584 73.753006 170.247 71.985C 170.092 71.868 169.964 71.718994 169.872 71.547L169.872 71.547L165.131 62.738007C 161.452 55.906998 157.165 50.106995 152.377 45.483C 153.947 47.392 156.262 49.992004 157.314 51.086C 157.315 51.087006 157.315 51.087997 157.316 51.089005C 157.322 51.095 157.327 51.100998 157.333 51.106003C 157.389 51.166 157.412 51.240005 157.455 51.307007C 157.508 51.389008 157.573 51.464996 157.605 51.554993C 157.636 51.634003 157.635 51.716995 157.648 51.798996C 157.664 51.889008 157.692 51.975998 157.689 52.065002C 157.687 52.147995 157.655 52.227005 157.638 52.308C 157.619 52.395996 157.613 52.485992 157.576 52.570007C 157.543 52.645996 157.48 52.707 157.434 52.776C 157.382 52.852005 157.347 52.936005 157.278 53.001007C 157.274 53.005005 157.27 53.005997 157.266 53.009995C 157.262 53.013 157.261 53.017 157.258 53.020004C 157.197 53.076004 157.121 53.100998 157.054 53.143997C 156.973 53.195007 156.898 53.259995 156.81 53.293C 156.727 53.322998 156.64 53.322998 156.553 53.337997C 156.468 53.352005 156.386 53.378998 156.3 53.377C 156.211 53.373993 156.126 53.341003 156.039 53.320007C 155.957 53.302002 155.873 53.298004 155.795 53.264008C 155.717 53.229004 155.654 53.166 155.583 53.117004C 155.51 53.065994 155.428 53.031006 155.363 52.964996C 155.348 52.947998 155.321 52.921005 155.304 52.901993C 153.446 50.897003 151.445 48.983 149.351 47.214996C 148.249 46.283997 146.953 45.248993 145.526 44.748C 144.907 44.53 144.582 44.550995 144.42 44.606995C 144.381 44.621002 144.34 44.654007 144.313 44.684006C 144.32 44.727005 144.307 44.767 144.31 44.809006C 148.639 47.035004 152.619 50.061005 155.895 53.641006C 156.399 54.192 156.361 55.048996 155.81 55.554C 155.26 56.059006 154.402 56.020996 153.896 55.468994C 150.465 51.718002 146.208 48.612 141.588 46.488007C 141.533 46.464005 141.483 46.442 141.437 46.423004C 141.542 46.545 141.667 46.671997 141.79 46.796997L141.79 46.796997L143.547 48.585007C 144.205 48.901 144.843 49.276 145.462 49.666C 148.6 51.642 151.573 53.912003 154.301 56.414993C 154.852 56.921005 154.889 57.776993 154.383 58.328995C 153.876 58.880997 153.02 58.916 152.469 58.410995C 149.862 56.018005 147.019 53.847 144.019 51.957C 142.752 51.160004 141.418 50.436996 140.153 50.416C 140.984 51.832 142.563 52.834 144.225 53.889008C 144.498 54.061996 144.77 54.233994 145.036 54.408005C 148.937 56.940994 152.397 60.304 155.041 64.131C 155.975 65.481995 155.917 66.903 154.895 67.666C 154.287 68.118 153.513 68.190994 152.589 67.884995C 151.552 67.541 150.621 67.045 149.722 66.563995C 149.108 66.23801 148.53 65.92999 147.938 65.67799C 147.425 65.46001 146.328 65.071 145.288 65.173004C 146.175 65.832 147.082 66.494 148.003 67.09801C 151.958 69.690994 156.52 71.44701 161.195 72.175C 161.3 72.190994 161.397 72.222 161.491 72.259C 161.508 72.26601 161.521 72.274 161.538 72.281006C 161.692 72.351 161.83 72.44501 161.946 72.562C 161.951 72.56799 161.959 72.569 161.965 72.575L161.965 72.575L185.069 96.684006C 185.078 96.69299 185.08 96.705 185.089 96.715C 186.153 96.418 187.192 95.897 188.116 95.162994C 189.774 93.84599 191.41 91.048996 192.718 88.493C 192.609 88.466 192.5 88.45 192.397 88.395004zM160.566 109.459C 160.544 109.961 160.523 110.435 160.591 110.821C 160.644 111.127 160.77 111.477005 160.903 111.847C 161.05 112.252 161.216 112.712006 161.322 113.215C 161.727 115.123 161.158 116.914 160.657 118.494C 160.52 118.92799 160.383 119.35899 160.269 119.791C 159.27 123.550995 160.091 127.595 161.128 131.357C 162.645 128.771 164.3 126.244 165.997 123.716C 168.532 118.013 168.483 111.455 168.441 105.664C 168.431 104.17799 168.434 102.772995 168.465 101.407L168.465 101.407L158.265 103.90401C 159.031 104.61099 159.855 105.41901 160.28 106.59599C 160.647 107.61 160.604 108.593 160.566 109.459zM154.426 192.5898L154.175 192.9258C 153.118 194.33841 152.024 195.7998 151.197 197.2197C 150.711 198.05319 150.252 198.8672 149.796 199.6753C 149.078 200.9473 148.336 202.2627 147.519 203.5986C 146.797 204.77881 145.983 206.5273 145.284 208.7344C 148.832 210.7988 151.262 213.6709 152.959 217.9219C 157.964 211.5835 168.586 208.291 175.049 206.8105C 175.274 206.7583 175.983 206.6709 176.941 206.6709C 178.002 206.6709 179.367 206.7847 180.726 207.1655C 181.455 206.89261 182.294 207.1743 182.697 207.8696C 182.726 207.918 182.759 207.9697 182.787 208.019C 183.121 208.2617 183.337 208.6128 183.417 208.998C 183.789 209.52539 184.201 210.0107 184.645 210.28711C 184.712 210.3291 185.319 210.6895 185.623 210.2974C 185.791 210.0811 186.07 209.4932 186.056 207.9897C 186.042 206.6436 185.854 205.50241 185.494 204.5972C 184.926 203.16211 183.842 202.0625 182.794 200.999C 182.164 200.3599 182.171 199.3311 182.811 198.7012C 182.972 198.54199 183.158 198.4248 183.356 198.34671C 180.196 193.6348 177.134 190.9331 172.043 188.20999C 170.52 187.396 168.207 186.1655 165.41 186.33841C 163.421 186.4614 160.549 187.1748 159.143 188.2549C 157.437 189.5645 155.673 190.9185 154.426 192.5898zM166.781 247.7427C 168.211 247.5547 169.222 247.3579 169.891 247.228C 170.268 247.1548 170.548 247.1021 170.739 247.07669C 170.907 247.0547 171.141 247.0425 171.447 247.03079C 172.075 247.0078 173.125 246.9687 174.742 246.6553C 180.663 245.5098 185.921 241.3726 189.168 235.3052C 193.101 227.95801 193.365 218.9248 189.922 210.46829C 189.852 210.4248 189.78 210.38089 189.717 210.3418C 189.447 210.1743 189.283 210.0742 189.123 210.0166C 188.948 210.93161 188.65 211.6982 188.189 212.2915C 186.965 213.86621 184.752 214.1821 182.927 213.0464C 181.924 212.4224 181.151 211.4839 180.516 210.5215C 178.609 209.76999 176.258 209.9014 175.776 209.978C 164.069 212.6606 156.148 217.1934 154.044 222.4141C 153.784 223.061 153.139 223.457 152.443 223.4292C 151.747 223.3887 151.154 222.9092 150.97 222.2368C 149.581 217.1743 147.675 214.144 144.429 212.0107C 143.467 216.5215 143.121 222.2588 144.473 228.686C 144.48 228.7222 144.479 228.7578 144.484 228.7939C 146.754 235.9839 155.792 249.1938 166.781 247.7427zM183.407 191.8755C 182.79 187.79489 182.7 183.9678 183.13 180.43161C 179.39 178.45801 176.011 177.70099 173.096 178.206C 169.874 178.763 166.974 180.856 164.429 183.1665C 164.694 183.1377 164.96 183.1099 165.21 183.09421C 165.462 183.0786 165.71 183.07129 165.954 183.07129C 169.325 183.07129 171.958 184.479 173.576 185.34369C 177.912 187.6631 180.907 189.9595 183.644 193.26709C 183.562 192.80371 183.478 192.34131 183.407 191.8755zM194.47 204.9614C 195.117 203.8115 195.449 202.33789 195.518 200.3247C 195.635 196.83499 194.975 193.2935 193.606 190.0835C 192.951 188.5469 192.146 187.0903 191.293 185.54831C 190.829 184.7104 190.366 183.8716 189.928 183.02051C 188.943 181.1094 187.812 178.626 187.415 175.85501C 186.013 180.3403 185.739 185.5615 186.62 191.3901C 187.427 196.73581 189.083 202.0303 190.696 207.1553C 190.765 207.1909 190.838 207.2314 190.909 207.2715C 191.06 207.2148 191.218 207.1729 191.387 207.1631C 192.544 207.0972 193.754 206.2334 194.47 204.9614zM272.384 75.96001L222.105 88.270996C 222.1 88.350006 222.096 88.42799 222.078 88.507C 221.108 92.895996 220.118 97.772995 219.451 103.687C 218.802 109.429 218.836 117.287 218.872 125.606C 218.89 129.723 218.908 133.979 218.839 138.021C 218.838 138.101 218.824 138.176 218.812 138.251L218.812 138.251L220.483 147.026C 221.801 153.942 223.44 162.548 220.363 170.20099C 216.494 179.825 206.666 184.9771 196.819 189.375C 198.215 192.8687 198.893 196.6758 198.766 200.4341C 198.68 202.9883 198.215 204.9336 197.303 206.5547C 196.355 208.2388 194.886 209.4893 193.253 210.0654C 196.716 219.1846 196.296 228.8745 192.034 236.8389C 188.323 243.7729 182.245 248.5142 175.359 249.8467C 173.496 250.207 172.289 250.252 171.568 250.2788C 171.394 250.2852 171.261 250.2871 171.164 250.2993C 171.016 250.3188 170.801 250.3623 170.511 250.4185C 169.803 250.5562 168.733 250.7642 167.205 250.9653C 159.419 251.9888 146.088 245.1348 141.328 229.5977C 141.288 229.46829 141.271 229.33841 141.264 229.209C 138.959 218.0552 141.343 207.4673 144.746 201.9028C 145.533 200.6152 146.229 199.3828 146.965 198.0781C 147.429 197.2568 147.895 196.4297 148.389 195.58301C 149.311 194.002 150.512 192.39551 151.572 190.9785L151.572 190.9785L151.821 190.64499C 152.942 189.14261 154.348 187.8994 155.729 186.7959C 152.735 185.4756 149.398 183.75241 147.296 180.68509C 145.575 178.172 144.976 175.139 144.494 172.702C 141.507 157.581 139.113 142.15 137.381 126.837006C 137.096 124.317 136.801 121.713 135.395 119.850006C 135.285 119.703 135.167 119.561005 135.05 119.41701C 134.637 118.912994 134.169 118.343 133.866 117.586C 133.22 115.977005 133.622 114.40401 133.977 113.018005C 134.248 111.95799 134.481 111.04201 134.18 110.45799C 134.098 110.298004 133.94 110.106 133.771 109.903L133.771 109.903L117.632 113.854996L117.902 258.1133C 117.904 259.0107 117.177 259.7397 116.28 259.7412C 116.279 259.7412 116.278 259.7412 116.277 259.7412C 115.381 259.7412 114.653 259.0156 114.652 258.1191L114.652 258.1191L114.381 113.213C 114.38 112.649994 114.665 112.15401 115.099 111.862C 115.26 111.715 115.456 111.600006 115.684 111.54401L115.684 111.54401L132.471 107.434006C 132.107 105.39101 133.053 103.037994 133.854 101.058C 134.172 100.270996 134.473 99.528 134.655 98.907C 134.734 98.64101 134.889 98.423996 135.071 98.239L135.071 98.239L124.916 100.808C 120.259 101.981995 115.264 101.589005 110.851 99.69299L110.851 99.69299L98.3525 94.326996L98.8525 95.938C 99.4844 97.976 100.2 100.284 99.9023 102.703995C 99.8267 103.319 99.6621 103.959 99.4141 104.58L99.4141 104.58L110.681 108.83299C 111.381 109.097 111.734 109.878006 111.47 110.578C 111.206 111.278 110.422 111.631 109.725 111.366L109.725 111.366L97.9043 106.90401C 97.1538 107.657 96.208 108.22 95.0547 108.40401C 92.6133 108.795 90.207 107.433 87.9155 104.352005C 87.5063 103.802 87.1162 103.239 86.7353 102.671005C 86.6797 102.657 86.6235 102.645996 86.5684 102.62601L86.5684 102.62601L59.8198 92.52901C 59.7578 93.741 58.7017 94.649 57.5537 94.957C 56.0874 95.34801 54.6416 95.087006 53.3652 94.858C 53.1045 94.812 52.8442 94.765 52.5859 94.724C 51.3472 94.528 50.0771 94.47 48.7324 94.406006C 46.0674 94.282 43.3115 94.15401 40.7676 92.895996C 39.6387 92.339005 38.9067 91.651 38.5303 90.79401C 38.2378 90.129 38.1997 89.44701 38.2017 88.735C 38.2036 88.298996 38.2051 87.957 38.2153 87.658005C 38.2524 86.561005 38.6978 85.56799 39.4009 84.82201L39.4009 84.82201L7.12598 72.64C 6.42578 72.37601 6.07275 71.595 6.33691 70.895004C 6.5415 70.353 7.05713 70.019 7.604 70.019C 7.76318 70.019 7.9248 70.047 8.08203 70.106L8.08203 70.106L42.9312 83.261C 42.9692 83.274994 43.002 83.297 43.0381 83.313C 43.0659 83.31 43.0947 83.308 43.1221 83.30299C 43.1177 83.062 43.1104 82.811005 43.1021 82.559006C 42.9907 82.558 42.8779 82.548996 42.7651 82.519C 41.4746 82.186005 40.4214 81.065994 39.9785 79.615005C 31.3955 75.229996 32.0254 61.423004 33.1914 53.492004C 33.2026 53.416 33.2207 53.339996 33.2451 53.266006C 35.4795 46.479004 43.0425 43.513 49.7134 43.513C 51.686 43.513 53.582 43.772003 55.2373 44.270004C 61.4961 46.345993 63.3638 52.248 63.7954 57.977997L63.7954 57.977997L75.5268 54.009995C 75.5439 52.720993 75.5542 51.449997 75.5625 50.207C 75.5742 48.421997 75.5947 46.574005 75.6333 44.690994L75.6333 44.690994L75.1997 44.641006C 74.7393 44.587006 74.3384 44.302002 74.1367 43.884995C 73.6001 42.772003 73.8677 38.141006 74.0078 36.199005C 74.0093 36.179993 74.4243 34.102005 75.5049 33.64C 78.3115 32.440002 82.2681 31.658005 86.3491 31.658005C 89.7378 31.658005 93.2129 32.197998 96.1836 33.487C 96.6641 33.695007 96.9809 34.162003 96.998 34.686005C 97.0239 35.479996 97.063 36.248 97.1011 36.990997C 97.2026 38.981995 97.2983 40.863007 97.1025 42.645996C 97.0283 43.322998 96.4639 43.839005 95.7842 43.852997L95.7842 43.852997L95.5361 43.856995C 95.5605 44.744995 95.5937 45.733 95.6299 46.787994C 95.6348 46.934006 95.6387 47.061996 95.6435 47.205L95.6435 47.205L167.23 22.98999C 169.723 22.147003 172.31 21.730011 174.887 21.730011C 179.018 21.730011 183.126 22.800995 186.783 24.897995L186.783 24.897995L248.622 60.365997C 250.488 61.436996 251.466 63.425003 251.173 65.556C 250.88 67.687 249.402 69.339005 247.314 69.866L247.314 69.866L190.542 84.147995C 190.947 84.40401 191.35 84.662 191.763 84.909C 191.894 84.597 192.117 84.32001 192.433 84.134995L192.433 84.134995L193.054 83.769C 193.265 83.645004 193.527 83.489 193.857 83.371994C 194.247 83.233 194.631 83.17999 194.997 83.17999C 195.854 83.17999 196.616 83.477005 197.134 83.67799C 197.422 83.78999 197.672 83.981995 197.854 84.231C 199.318 86.229004 201.166 87.892 203.123 89.653C 203.262 89.778 203.4 89.90401 203.54 90.02901L203.54 90.02901L271.739 73.328995C 271.848 73.30299 271.956 73.28999 272.062 73.28999C 272.672 73.28999 273.226 73.703995 273.377 74.32201C 273.555 75.048996 273.11 75.782 272.384 75.96001z" stroke="none"  fill="#030605" fill-rule="nonzero" />
					<path  d="M151.232 205.98239C 150.565 206.501 149.661 206.5391 148.985 206.0845C 148.309 205.6323 148.007 204.8081 148.219 204.0781C 148.335 203.2964 148.795 202.5947 149.464 202.2139C 149.81 202.0132 150.136 201.9585 150.384 201.9585C 150.456 201.9585 150.521 201.96289 150.579 201.9702C 151.482 202.0723 152.149 202.85501 152.166 203.8398C 152.17 204.2104 152.108 204.5737 151.983 204.9155C 151.822 205.3618 151.57 205.7207 151.232 205.98239z" stroke="none"  fill="#030605" fill-rule="nonzero" />
					<path  d="M164.283 201.0146C 164.571 200.8516 164.873 200.769 165.186 200.769C 165.252 200.769 165.318 200.77249 165.385 200.7798C 166.295 200.88379 166.961 201.6724 166.969 202.6401C 166.975 203.0132 166.913 203.3804 166.787 203.7256C 166.626 204.1719 166.374 204.53079 166.03 204.7974C 165.369 205.3062 164.471 205.34619 163.782 204.8906C 163.11 204.437 162.812 203.6147 163.022 202.8877C 163.139 202.106 163.602 201.4028 164.283 201.0146z" stroke="none"  fill="#030605" fill-rule="nonzero" />
					<path  d="M157.28 194.95999C 157.804 194.95999 158.265 195.3398 158.35 195.873C 158.443 196.4644 158.04 197.0195 157.449 197.1133L157.449 197.1133L156.971 197.1875C 156.376 197.28119 155.826 196.8696 155.737 196.27829C 155.647 195.687 156.055 195.1348 156.646 195.04489L156.646 195.04489L157.109 194.9736C 157.167 194.9644 157.224 194.95999 157.28 194.95999z" stroke="none"  fill="#030605" fill-rule="nonzero" />
					<path  d="M165.623 190.709C 166.276 191.0737 166.51 191.8989 166.145 192.5518C 165.78 193.2056 164.955 193.4385 164.303 193.0742C 162.82 192.2461 160.973 192.606 158.659 193.4014C 157.947 193.64499 157.181 193.26761 156.938 192.5605C 156.695 191.8535 157.071 191.08301 157.778 190.8398C 159.281 190.3232 160.835 189.8936 162.361 189.8936C 163.473 189.8936 164.57 190.1211 165.623 190.709z" stroke="none"  fill="#030605" fill-rule="nonzero" />
					<path  d="M156.787 239.2451C 157.644 239.2896 158.514 239.1362 159.304 238.8027C 159.508 238.71631 159.723 238.6748 159.936 238.6748C 160.399 238.6748 160.853 238.8735 161.169 239.2412C 162.027 240.2412 163.025 241.1079 164.137 241.8174C 164.894 242.3003 165.115 243.3047 164.633 244.0615C 164.15 244.8169 163.146 245.0405 162.389 244.5566C 161.323 243.8765 160.341 243.08011 159.458 242.1812C 158.536 242.4336 157.575 242.5425 156.621 242.4912C 155.725 242.4448 155.035 241.6812 155.081 240.7847C 155.128 239.8896 155.867 239.2007 156.787 239.2451z" stroke="none"  fill="#030605" fill-rule="nonzero" />
					<path  d="M197.305 110.2C 196.6 110.756 195.578 110.63699 195.021 109.933C 194.465 109.228 194.585 108.20599 195.289 107.649C 198.234 105.323 200.158 101.701004 200.437 97.96001C 200.501 97.104996 201.213 96.455 202.056 96.455C 202.097 96.455 202.137 96.45599 202.178 96.459C 203.073 96.526 203.745 97.306 203.679 98.2C 203.334 102.834 200.951 107.319 197.305 110.2z" stroke="none"  fill="#030605" fill-rule="nonzero" />
					<path  d="M198.636 112.183C 200.711 112.097 202.772 111.369 204.44 110.134995C 204.731 109.92 205.07 109.815994 205.406 109.815994C 205.903 109.815994 206.395 110.04401 206.714 110.475006C 207.247 111.196 207.096 112.214005 206.374 112.748C 204.188 114.365005 201.488 115.317 198.77 115.431C 197.841 115.465 197.116 114.770996 197.079 113.87399C 197.042 112.978 197.739 112.22 198.636 112.183z" stroke="none"  fill="#030605" fill-rule="nonzero" />
					<path  d="M152.574 116.188995C 148.255 115.075 144.145 113.315994 140.358 110.963C 139.596 110.489 139.362 109.487 139.835 108.726C 140.143 108.229004 140.674 107.95799 141.218 107.95799C 141.51 107.95799 141.807 108.037 142.073 108.203C 145.58 110.382 149.387 112.009995 153.387 113.043C 154.256 113.267 154.778 114.153 154.554 115.022C 154.33 115.89101 153.444 116.412994 152.574 116.188995z" stroke="none"  fill="#030605" fill-rule="nonzero" />
					<path  d="M141.669 120.22099C 141.684 119.332 142.408 118.621994 143.293 118.621994C 143.303 118.621994 143.312 118.621994 143.32 118.621994C 146.123 118.675 148.979 118.119995 151.565 117.03999C 151.77 116.955 151.982 116.914 152.19 116.914C 152.827 116.914 153.431 117.28999 153.691 117.914C 154.037 118.742004 153.645 119.694 152.817 120.03999C 149.819 121.291 146.523 121.925 143.268 121.871994C 142.37 121.856995 141.654 121.118 141.669 120.22099z" stroke="none"  fill="#030605" fill-rule="nonzero" />
					<path  d="M90.6426 97.334C 91.1851 98.399994 91.7847 99.468 92.6245 99.795C 92.7319 99.837006 92.811 99.850006 92.8218 99.87399C 92.8877 99.712006 92.9331 99.17999 92.6919 98.356995C 91.9517 95.83501 91.124 93.325 90.2329 90.84L90.2329 90.84L86.8447 89.384995C 88.0605 92.063995 89.3154 94.729004 90.6426 97.334zM88.2129 85.52901C 87.2993 85.681 86.3784 85.770996 85.4668 85.847L85.4668 85.847L88.918 87.328C 88.6841 86.729004 88.4551 86.125 88.2129 85.52901zM83.1675 83.313L84.2925 83.225006C 85.8574 83.104004 87.3359 82.990005 88.7378 82.66701C 88.8398 82.644 88.9419 82.632 89.043 82.632C 89.5796 82.632 90.0791 82.951996 90.2925 83.466C 92.2051 88.059006 93.8867 92.812 95.2905 97.593994C 95.9717 99.912994 95.4614 101.690994 93.9277 102.349C 93.249 102.64 92.4365 102.631 91.6401 102.31799C 89.9136 101.645996 88.9741 100.02699 88.229 98.563C 86.0083 94.205 83.9233 89.703995 82.0322 85.186005C 81.8652 84.785995 81.8994 84.33099 82.1235 83.961C 82.3481 83.591 82.7363 83.351 83.1675 83.313z" stroke="none"  fill="#030605" fill-rule="nonzero" />
					<path  d="M43.1929 87.685C 44.6265 87.600006 46.0674 87.55701 47.5093 87.55701C 49.4336 87.55701 51.3589 87.632996 53.2671 87.784C 54.0127 87.843 54.5693 88.494995 54.5103 89.241C 54.4512 89.98599 53.8071 90.535 53.0532 90.483C 49.8398 90.229004 46.5762 90.199005 43.353 90.388C 42.6177 90.438 41.9658 89.86301 41.9209 89.116C 41.877 88.369995 42.4463 87.729004 43.1929 87.685z" stroke="none"  fill="#030605" fill-rule="nonzero" />
					<path  d="M25.5454 194.51999L25.5454 194.5195C 26.4658 196.0698 28.0264 196.68991 29.2568 195.9946C 30.3608 195.3711 31.165 194.0127 31.4014 192.5596C 30.8613 192.7568 30.3379 192.9785 29.855 193.2505C 29.0742 193.69339 28.0825 193.4155 27.6416 192.6328C 27.2007 191.8511 27.4775 190.8599 28.2593 190.4194C 29.0669 189.9644 29.9302 189.5928 30.834 189.2993C 30.2139 188.1982 29.2173 187.3896 28.1528 187.2632C 26.9834 187.125 25.7832 187.8369 25.2837 188.95749C 24.479 190.7617 24.5791 192.8931 25.5454 194.51999zM47.4443 195.07129C 49.4604 195.2104 51.4131 196.1362 53.1357 196.9531C 53.6699 197.2065 54.1943 197.4556 54.7041 197.6724C 54.96 197.78079 55.2134 197.90039 55.4668 198.01999C 56.0557 198.29831 56.6113 198.561 57.0781 198.5898C 57.6265 198.6235 58.7969 199.0063 64.9048 201.1489C 67.1582 201.9395 69.4253 202.7349 70.8945 203.2178C 75.7436 204.8105 78.6289 204.9966 82.623 205.2544C 82.709 205.2598 82.7993 205.2661 82.8857 205.2715C 83.1611 205.2144 83.4512 205.2319 83.7314 205.3276C 84.2017 205.3594 84.6777 205.3936 85.1567 205.4331C 85.2661 205.41501 85.5581 205.269 85.751 205.1719C 86.0376 205.02829 86.3628 204.8652 86.7246 204.7495C 87.1138 204.6255 87.4263 204.3633 87.6826 204.022C 87.7256 203.9385 87.7739 203.8633 87.8296 203.7896C 88.5146 202.6836 88.7153 200.9409 88.7617 199.7822C 89.1406 190.3477 88.5649 180.7119 88.0083 171.394C 87.8559 168.843 87.7036 166.293 87.5693 163.744C 87.1885 156.496 86.5586 143.176 86.5127 133.535C 67.3013 125.67999 51.8394 120.481 42.585 118.746994C 42.2764 135.198 43.0825 155.039 45.0522 179.35501L45.0522 179.35501L45.0669 179.53601C 45.4014 183.65619 45.7134 187.582 44.3965 191.47409C 44.3882 191.5981 44.3691 191.7227 44.3311 191.84619C 44.2754 192.02539 44.186 192.1841 44.0806 192.3271C 43.9214 192.7227 43.7505 193.1182 43.5532 193.5137C 43.4561 193.709 43.3232 193.875 43.1689 194.0103C 44.5869 194.5903 46.1074 194.9785 47.4443 195.07129zM84.9971 213.1499C 85.4643 214.02591 86.0947 214.6006 86.8203 214.812C 87.4248 214.9897 88.0664 214.9014 88.6714 214.5596C 89.7236 213.9644 90.4966 212.7007 90.7725 211.3247C 90.3301 211.4424 89.8247 211.5581 89.1865 211.6665C 88.3042 211.81839 87.4629 211.22171 87.3125 210.3364C 87.1621 209.45169 87.7573 208.6128 88.6426 208.4624C 89.3789 208.3374 89.8892 208.20511 90.3574 208.0635C 90.1997 207.7578 90.0254 207.4834 89.8447 207.2583L89.8447 207.2583L89.2153 207.0625C 88.7163 207.4414 88.2007 207.6904 87.7124 207.84619C 87.5469 207.8989 87.3804 207.99069 87.208 208.0771C 86.6489 208.35791 85.8843 208.7354 84.9741 208.67331C 84.7617 208.6572 84.5635 208.644 84.3579 208.6294C 84.0561 210.09671 84.2734 211.79199 84.9971 213.1499zM37.4902 120.462006C 37.3057 120.595 37.1196 121.08 37.2827 122.631C 38.4116 133.357 38.4731 146.199 38.4468 151.223C 38.3804 163.817 39.1191 176.534 40.626 189.0513C 40.9624 189.1299 41.2993 189.2305 41.6362 189.32669C 42.355 186.3833 42.1094 183.2715 41.8276 179.798L41.8276 179.798L41.813 179.618C 39.8853 155.819 39.0659 136.268 39.3125 119.961C 38.9316 120.08 38.5845 120.158005 38.2861 120.22301C 37.9297 120.3 37.6226 120.366 37.4902 120.462006zM27.8589 183.9956C 28.084 183.9956 28.3105 184.00879 28.5366 184.0356C 30.9385 184.32181 33.0957 186.1689 34.1099 188.6104C 34.7378 188.5435 35.376 188.5054 36.0234 188.5054C 36.4438 188.5054 36.8691 188.5273 37.2954 188.5557C 35.8438 176.19 35.1318 163.639 35.1968 151.206C 35.251 140.702 34.8335 130.41 34.0503 122.97099C 33.9321 121.849 33.6563 119.22301 35.5864 117.826996C 36.27 117.33299 36.9751 117.181 37.5977 117.046005C 38.4219 116.867004 39.1343 116.713 40.1108 115.72301C 40.4185 115.41 40.8364 115.23801 41.2681 115.23801C 41.3511 115.23801 41.4351 115.244 41.5186 115.257996C 50.8218 116.70799 67.3394 122.172 88.0273 130.643L88.0273 130.643L88.7461 130.937C 89.3594 131.186 89.7602 131.781 89.7602 132.442C 89.7602 142.071 90.4214 156.08 90.8154 163.573C 90.9487 166.11499 91.1006 168.657 91.2524 171.2C 91.814 180.5981 92.3945 190.3159 92.0098 199.91211C 91.9399 201.6582 91.665 203.03369 91.2651 204.1201C 91.3823 204.2153 91.5019 204.29831 91.6167 204.4053L91.6167 204.4053L92.1396 204.5679C 92.2602 204.6055 92.3833 204.6401 92.5068 204.6753C 92.7124 204.7339 92.9194 204.793 93.124 204.8613C 94.3838 205.2822 95.2104 206.4673 95.1807 207.8096C 95.1606 208.6973 94.7593 209.4922 94.1221 210.0322C 94.206 213.0327 92.6875 216.0229 90.2705 217.38919C 88.9053 218.1606 87.3564 218.354 85.9111 217.9326C 84.3476 217.47751 83.0044 216.32181 82.1289 214.67819C 81.1196 212.78421 80.7715 210.501 81.0972 208.4102C 77.6089 208.17041 74.5439 207.8374 69.8799 206.3057C 68.3955 205.8179 66.105 205.0146 63.8286 204.21579C 61.1465 203.2749 57.4927 201.9932 56.7881 201.8276C 55.7368 201.7432 54.8569 201.32669 54.0776 200.9585C 53.8633 200.8569 53.6494 200.7554 53.4336 200.6636C 52.8843 200.4307 52.3188 200.1631 51.7432 199.8901C 50.2095 199.1626 48.623 198.4106 47.2207 198.3135C 44.7837 198.14551 41.8716 197.2119 39.6196 195.87741C 38.0137 194.9253 37.2681 193.5669 37.3613 191.8389C 36.4624 191.7666 35.5796 191.76419 34.7227 191.8394C 34.6763 194.7124 33.1729 197.5156 30.856 198.8242C 28.0679 200.3994 24.5825 199.26419 22.7505 196.1797C 22.7505 196.1792 22.7505 196.1792 22.7505 196.1792C 21.2544 193.6597 21.0879 190.3853 22.3154 187.63379C 23.3022 185.4209 25.5176 183.9956 27.8589 183.9956z" stroke="none"  fill="#030605" fill-rule="nonzero" />
					<path  d="M130.001 58.350006C 128.394 58.350998 126.841 57.231995 126.293 55.679993C 125.746 54.127 126.241 52.246002 127.477 51.188995C 126.474 50.322006 126.239 48.658005 126.96 47.533997C 127.682 46.410004 129.262 45.977005 130.453 46.533005C 130.453 45.541 131.205 44.671997 132.099 44.296997C 132.992 43.921005 133.997 43.953995 134.952 44.093002C 135.704 44.201004 136.462 44.377 137.111 44.78C 137.76 45.184006 138.291 45.849 138.418 46.677002C 140.504 46.740005 142.097 48.768005 142.591 50.850998C 142.8 51.727997 142.818 52.783005 142.235 53.283005C 143.109 54.587997 143.82 56.108 143.721 57.688995C 143.621 59.270996 142.478 60.862 140.94 60.977005C 140.208 61.03 139.495 60.761 138.782 60.537003C 138.449 61.225006 137.754 61.712006 137.01 61.779007C 136.266 61.848007 135.498 61.494003 135.006 60.940994C 134.137 61.714005 132.794 61.864 131.783 61.302994C 130.772 60.740997 130.16 59.505005 130.001 58.350006z" stroke="none"  fill="#FFFFFF" fill-rule="nonzero" />
					<path  d="M130.453 47.919006C 130.713 47.919006 130.971 47.845993 131.197 47.701996C 131.597 47.447998 131.839 47.007004 131.839 46.533005C 131.839 46.183 132.188 45.761993 132.635 45.574005C 133.139 45.360992 133.814 45.328003 134.753 45.464005C 135.259 45.537003 135.899 45.658997 136.379 45.957C 136.555 46.065994 136.969 46.373993 137.048 46.888C 137.15 47.548004 137.708 48.041 138.376 48.061996C 139.769 48.104004 140.893 49.695007 141.243 51.171005C 141.392 51.795 141.336 52.190994 141.286 52.285004C 140.753 52.742004 140.693 53.472 141.084 54.054993C 141.992 55.410004 142.402 56.571 142.338 57.602997C 142.274 58.608994 141.573 59.539993 140.837 59.595C 140.468 59.623 139.979 59.466003 139.467 59.300995L139.467 59.300995L139.197 59.214996C 138.54 59.011993 137.835 59.315002 137.536 59.933C 137.414 60.184006 137.146 60.376007 136.885 60.399002C 136.614 60.429 136.262 60.268997 136.041 60.020996C 135.533 59.449005 134.656 59.397995 134.085 59.905C 133.655 60.287003 132.954 60.367996 132.456 60.091003C 131.926 59.796997 131.492 59.022003 131.374 58.162003C 131.281 57.475998 130.694 56.964005 130.001 56.964005C 130.001 56.964005 130.001 56.964005 130 56.964005L130 56.964005L129.999 56.964005C 128.982 56.964005 127.951 56.214005 127.6 55.218994C 127.243 54.205994 127.577 52.927002 128.377 52.242004C 128.684 51.979004 128.861 51.597 128.862 51.192993C 128.863 50.789993 128.688 50.406006 128.383 50.142C 127.904 49.727997 127.779 48.822998 128.127 48.281998C 128.464 47.757004 129.292 47.522995 129.866 47.787994C 130.053 47.876007 130.253 47.919006 130.453 47.919006zM133.765 42.61C 133.072 42.61 132.304 42.707 131.561 43.020004C 130.642 43.405 129.909 44.089996 129.481 44.903C 128.021 44.854004 126.595 45.537003 125.794 46.785995C 124.967 48.074005 124.97 49.796997 125.685 51.125C 124.691 52.557007 124.396 54.466003 124.987 56.141006C 125.604 57.892 127.122 59.205994 128.876 59.606995C 129.237 60.716995 129.949 61.869003 131.11 62.515C 132.28 63.162994 133.716 63.186005 134.915 62.636993C 135.592 63.035995 136.374 63.233 137.137 63.158997C 137.957 63.085007 138.721 62.718994 139.303 62.149002C 139.834 62.296005 140.409 62.410004 141.042 62.358C 143.415 62.183 144.971 59.891006 145.104 57.776C 145.194 56.345 144.789 54.867004 143.869 53.281998C 144.16 52.533005 144.19 51.585007 143.938 50.529007C 143.426 48.365997 141.845 46.024994 139.476 45.432007C 139.138 44.696 138.573 44.058 137.842 43.604004C 136.925 43.033005 135.922 42.832993 135.15 42.722C 134.757 42.664 134.282 42.61 133.765 42.61z" stroke="none"  fill="#030605" fill-rule="nonzero" />
					<path  d="M139.743 85.22099C 138.135 85.222 136.583 84.104004 136.035 82.550995C 135.487 80.996994 135.982 79.117004 137.218 78.06C 136.215 77.192 135.981 75.52901 136.702 74.405C 137.423 73.281006 139.003 72.84801 140.195 73.40401C 140.195 72.412 140.947 71.543 141.84 71.16701C 142.733 70.79201 143.738 70.825 144.693 70.964005C 145.445 71.07201 146.203 71.246994 146.853 71.651C 147.502 72.05499 148.032 72.718994 148.159 73.548004C 150.245 73.61099 151.838 75.638 152.333 77.722C 152.541 78.599 152.56 79.65401 151.977 80.15401C 152.852 81.459 153.562 82.979004 153.462 84.561005C 153.362 86.142 152.22 87.733 150.682 87.847C 149.949 87.901 149.236 87.631 148.523 87.408005C 148.19 88.09599 147.495 88.58299 146.751 88.649994C 146.007 88.718994 145.239 88.365005 144.748 87.812C 143.878 88.58501 142.536 88.735 141.524 88.173996C 140.514 87.612 139.901 86.37601 139.743 85.22099z" stroke="none"  fill="#FFFFFF" fill-rule="nonzero" />
					<path  d="M140.195 74.78999C 140.455 74.78999 140.713 74.716995 140.939 74.573C 141.339 74.319 141.58 73.878006 141.58 73.40401C 141.58 73.054 141.931 72.632 142.378 72.444C 142.879 72.23399 143.553 72.199005 144.494 72.33501C 145.001 72.408005 145.642 72.53 146.12 72.828C 146.296 72.937 146.711 73.244995 146.789 73.757996C 146.891 74.418 147.449 74.912 148.117 74.933C 149.51 74.976 150.634 76.565994 150.984 78.04201C 151.133 78.666 151.077 79.062 151.027 79.156006C 150.494 79.61301 150.435 80.343 150.825 80.925995C 151.733 82.281006 152.144 83.442 152.079 84.474C 152.016 85.479996 151.315 86.41 150.58 86.465C 150.215 86.491 149.727 86.339005 149.217 86.175L149.217 86.175L148.937 86.086C 148.278 85.880005 147.575 86.187 147.276 86.804C 147.155 87.05499 146.888 87.246994 146.626 87.270996C 146.337 87.298996 146.002 87.13901 145.782 86.89101C 145.272 86.321 144.4 86.269 143.826 86.776C 143.396 87.159 142.694 87.239 142.197 86.962006C 141.668 86.66901 141.233 85.893005 141.116 85.032C 141.021 84.347 140.435 83.83501 139.743 83.83501C 139.742 83.83501 139.742 83.83501 139.742 83.83501L139.742 83.83501L139.741 83.83501C 138.724 83.83501 137.693 83.08501 137.342 82.09C 136.985 81.076996 137.319 79.797 138.119 79.112C 138.425 78.850006 138.603 78.466995 138.604 78.063C 138.604 77.659 138.43 77.274994 138.124 77.01199C 137.645 76.59801 137.521 75.694 137.868 75.15401C 138.206 74.627 139.036 74.393005 139.608 74.66C 139.795 74.746994 139.995 74.78999 140.195 74.78999zM143.505 69.481C 142.813 69.481 142.046 69.576996 141.304 69.89C 140.384 70.276 139.651 70.961 139.223 71.774C 137.792 71.726 136.337 72.408005 135.536 73.657C 134.709 74.94501 134.711 76.668 135.426 77.994995C 134.433 79.42799 134.138 81.337006 134.729 83.01199C 135.346 84.763 136.863 86.076996 138.617 86.479004C 138.979 87.588 139.69 88.740005 140.852 89.384995C 142.02 90.034 143.457 90.059006 144.655 89.507C 145.334 89.907 146.122 90.106 146.878 90.03C 147.698 89.95599 148.463 89.59 149.045 89.020004C 149.575 89.166 150.151 89.276 150.785 89.229004C 153.156 89.054 154.712 86.763 154.845 84.647C 154.936 83.216 154.53 81.73801 153.61 80.153C 153.901 79.405 153.932 78.457 153.682 77.40199C 153.167 75.237 151.586 72.895996 149.218 72.30299C 148.88 71.567 148.315 70.929 147.584 70.475006C 146.669 69.905 145.664 69.703995 144.891 69.593C 144.498 69.535 144.022 69.481 143.505 69.481z" stroke="none"  fill="#030605" fill-rule="nonzero" />
					<path  d="M152.698 53.673996C 151.849 53.558 151.066 53.020996 150.646 52.268997C 150.209 51.483994 150.186 50.455994 150.672 49.701004C 151.157 48.947006 152.166 48.546997 153.006 48.852997C 153.184 47.897995 154.056 47.121994 155.018 47.061005C 155.979 46.998993 156.94 47.658005 157.237 48.582C 157.286 48.735 157.32 48.897995 157.412 49.031006C 157.536 49.212006 157.745 49.309006 157.936 49.414993C 158.741 49.869003 159.373 50.699005 159.426 51.627C 159.479 52.556 158.848 53.524994 157.94 53.697006C 158.054 54.196 157.799 54.729004 157.402 55.048996C 157.006 55.367996 156.492 55.505005 155.986 55.554993C 155.372 55.614 154.73 55.554 154.187 55.263C 153.642 54.972 153.21 54.423004 152.698 53.673996z" stroke="none"  fill="#FFFFFF" fill-rule="nonzero" />
					<path  d="M152.698 53.673996L152.708 53.673996L152.698 53.673996zM153.006 50.238007C 153.244 50.238007 153.481 50.177002 153.693 50.056C 154.047 49.854004 154.294 49.507004 154.368 49.106003C 154.43 48.774002 154.774 48.464996 155.105 48.442993C 155.421 48.417007 155.814 48.684998 155.918 49.005997C 155.988 49.242996 156.073 49.531006 156.272 49.819C 156.564 50.244003 156.957 50.459 157.191 50.587997C 157.703 50.875 158.02 51.311005 158.042 51.705994C 158.06 52.007004 157.833 52.308 157.683 52.336C 157.312 52.406006 156.987 52.623 156.781 52.936996C 156.592 53.227005 156.518 53.574997 156.572 53.914C 156.445 54.035995 156.258 54.136 155.854 54.175003C 155.428 54.214996 155.081 54.169006 154.84 54.041C 154.545 53.884003 154.187 53.395996 153.843 52.893005C 153.621 52.567993 153.274 52.354004 152.886 52.300995C 152.469 52.244003 152.064 51.966003 151.856 51.593994C 151.653 51.229004 151.645 50.748993 151.837 50.451004C 151.983 50.223007 152.32 50.078003 152.532 50.154007C 152.686 50.211 152.846 50.238007 153.006 50.238007zM155.146 45.671005C 155.074 45.671005 155.001 45.673004 154.928 45.677994C 153.765 45.752 152.721 46.416 152.119 47.380005C 151.09 47.473007 150.093 48.041 149.507 48.951004C 148.759 50.112 148.731 51.679993 149.437 52.942993C 149.965 53.892 150.848 54.595 151.87 54.906006C 152.322 55.526 152.839 56.114 153.534 56.485C 154.27 56.878998 155.141 57.031006 156.122 56.933C 156.988 56.849 157.713 56.578003 158.271 56.128006C 158.763 55.731003 159.104 55.201004 159.259 54.632996C 160.245 53.998993 160.881 52.811996 160.81 51.548996C 160.733 50.207993 159.893 48.927994 158.615 48.207993C 158.612 48.205994 158.587 48.192 158.563 48.179L158.563 48.179L158.558 48.160995C 158.084 46.688004 156.672 45.671005 155.146 45.671005z" stroke="none"  fill="#030605" fill-rule="nonzero" />
					<path  d="M127.124 73.226C 126.275 73.108 125.493 72.57201 125.072 71.82001C 124.635 71.035995 124.612 70.007996 125.098 69.253006C 125.583 68.498 126.592 68.099 127.432 68.40401C 127.61 67.45 128.481 66.673996 129.443 66.612C 130.405 66.550995 131.367 67.21001 131.663 68.134C 131.712 68.287 131.747 68.45 131.838 68.58299C 131.962 68.763 132.171 68.85899 132.361 68.966995C 133.167 69.421005 133.799 70.25101 133.852 71.179C 133.904 72.106995 133.274 73.076996 132.367 73.24899C 132.48 73.746994 132.225 74.28 131.829 74.601C 131.432 74.92 130.918 75.056 130.412 75.104996C 129.798 75.166 129.157 75.104004 128.612 74.813C 128.067 74.522 127.636 73.975006 127.124 73.226z" stroke="none"  fill="#FFFFFF" fill-rule="nonzero" />
					<path  d="M127.124 73.226L127.134 73.226L127.124 73.226zM127.432 69.78999C 127.67 69.78999 127.907 69.729004 128.118 69.606995C 128.472 69.406006 128.719 69.059006 128.794 68.659C 128.856 68.326004 129.201 68.017 129.531 67.994995C 129.858 67.968 130.241 68.237 130.344 68.55701C 130.416 68.798004 130.5 69.08299 130.696 69.368C 130.99 69.79401 131.379 70.007996 131.612 70.136C 132.129 70.427 132.446 70.862 132.468 71.257996C 132.484 71.537994 132.275 71.854996 132.107 71.888C 131.738 71.95799 131.413 72.175995 131.207 72.490005C 131.018 72.77901 130.944 73.127 130.998 73.466C 130.873 73.588 130.685 73.687 130.276 73.727005C 129.856 73.768005 129.508 73.72099 129.266 73.591995C 128.971 73.435 128.612 72.946 128.268 72.44299C 128.047 72.121 127.701 71.906006 127.313 71.853C 126.895 71.795 126.49 71.517 126.282 71.145004C 126.079 70.781006 126.071 70.300995 126.263 70.003006C 126.41 69.774 126.746 69.631 126.958 69.70599C 127.111 69.763 127.271 69.78999 127.432 69.78999zM129.573 65.22301C 129.5 65.22301 129.428 65.225006 129.354 65.229004C 128.192 65.304 127.147 65.968 126.546 66.93201C 125.516 67.024 124.518 67.593 123.933 68.503006C 123.185 69.66499 123.157 71.231 123.862 72.494995C 124.392 73.442 125.274 74.145996 126.296 74.457C 126.748 75.076996 127.265 75.66499 127.959 76.035995C 128.698 76.42999 129.568 76.578 130.548 76.48399C 131.418 76.397995 132.141 76.128006 132.698 75.67999C 133.189 75.282 133.53 74.752 133.685 74.184006C 134.671 73.55 135.307 72.362 135.235 71.101C 135.159 69.759 134.318 68.479004 133.041 67.759995C 133.039 67.757996 133.013 67.744 132.989 67.729996L132.989 67.729996L132.982 67.71001C 132.511 66.240005 131.099 65.22301 129.573 65.22301z" stroke="none"  fill="#030605" fill-rule="nonzero" />
					<path  d="M166.654 63.36C 166.229 62.940994 165.812 62.494995 165.553 61.955C 165.293 61.416 165.205 60.765 165.446 60.216003C 165.856 59.281998 167.165 58.977997 168.043 59.487C 168.921 59.996994 169.334 61.115997 169.202 62.128998C 169.15 62.526 169.019 62.927994 168.742 63.216003C 168.465 63.505005 168.023 63.654007 166.654 63.36z" stroke="none"  fill="#FFFFFF" fill-rule="nonzero" />
					<path  d="M167.34 62.080994C 167.1 61.826004 166.916 61.593002 166.802 61.354004C 166.679 61.100006 166.671 60.873993 166.715 60.772995C 166.729 60.740997 166.79 60.692 166.891 60.660004C 167.045 60.608994 167.233 60.619003 167.347 60.686005C 167.684 60.880997 167.895 61.436996 167.828 61.949997C 167.818 62.024994 167.805 62.086 167.792 62.132996C 167.694 62.128998 167.549 62.115005 167.34 62.080994zM167.091 57.856995C 166.734 57.856995 166.374 57.912994 166.03 58.024994C 165.188 58.300003 164.513 58.895996 164.178 59.658005C 163.793 60.533997 163.839 61.591003 164.305 62.557007C 164.654 63.283005 165.173 63.847 165.683 64.34801C 165.87 64.532 166.106 64.66 166.363 64.715C 167.597 64.979996 168.859 65.09801 169.743 64.173996C 170.194 63.703995 170.477 63.074997 170.576 62.308C 170.79 60.666 170.052 59.050995 168.739 58.289C 168.248 58.003998 167.673 57.856995 167.091 57.856995z" stroke="none"  fill="#030605" fill-rule="nonzero" />
				</g>
			</g>
		</g>
	</g>
</g>
</svg>
