<?xml version="1.0" standalone="no"?>
<!DOCTYPE svg PUBLIC "-//W3C//DTD SVG 20010904//EN"
 "http://www.w3.org/TR/2001/REC-SVG-20010904/DTD/svg10.dtd">
<svg version="1.0" xmlns="http://www.w3.org/2000/svg"
 width="382.000000pt" height="400.000000pt" viewBox="0 0 382.000000 400.000000"
 preserveAspectRatio="xMidYMid meet">

<g transform="translate(0.000000,400.000000) scale(0.100000,-0.100000)"
fill="#000000" stroke="none">
<path d="M928 3836 c-111 -32 -215 -117 -273 -221 -50 -91 -73 -224 -55 -320
7 -42 10 -39 29 39 26 107 75 174 181 246 l61 41 21 -26 c40 -51 83 -87 135
-111 65 -30 68 -30 82 4 7 15 25 43 41 62 28 33 31 34 41 16 16 -26 58 -68 93
-91 94 -64 143 -91 183 -99 17 -4 36 -13 41 -19 9 -12 21 -72 27 -140 2 -21 5
-40 6 -42 2 -2 33 -1 69 2 l65 5 -1 92 c-2 113 -19 208 -47 259 -12 22 -28 51
-36 65 -23 43 -154 167 -197 186 -21 10 -57 27 -79 37 -53 26 -314 36 -387 15z"/>
<path d="M2270 3520 c-50 -11 -113 -42 -176 -87 -56 -40 -145 -244 -143 -327
0 -28 2 -26 13 14 16 57 52 119 93 162 85 87 102 93 134 42 28 -47 110 -147
161 -197 21 -21 38 -40 38 -42 0 -2 -14 -6 -31 -10 -29 -7 -48 -29 -35 -42 3
-3 17 -1 31 5 19 9 36 8 77 -5 29 -9 60 -22 68 -29 9 -7 61 -37 115 -65 109
-57 124 -70 125 -112 0 -26 2 -27 39 -21 48 8 74 -6 94 -49 25 -52 -4 -134
-49 -138 -8 -1 -18 -3 -24 -4 -5 -1 -19 -3 -30 -4 -11 0 -23 -9 -26 -18 -12
-38 -46 -103 -54 -103 -4 0 -10 -6 -13 -14 -9 -24 103 23 161 68 52 41 112
119 127 166 8 27 12 48 14 93 1 35 11 34 36 -3 42 -63 178 -142 268 -155 53
-8 115 7 145 35 27 26 21 40 -17 40 -23 0 -32 7 -44 33 -19 38 -49 124 -53
152 -2 11 -9 47 -14 80 -6 33 -14 69 -19 80 -5 11 -16 38 -25 60 -19 45 -92
114 -140 132 -51 19 -127 15 -156 -7 -36 -28 -45 -25 -59 20 -13 43 -83 120
-153 168 -39 26 -105 50 -223 81 -45 12 -202 13 -255 1z"/>
<path d="M840 3377 c-20 -7 -36 -20 -38 -31 -3 -16 0 -18 19 -11 13 4 43 8 66
9 47 1 59 8 41 23 -23 19 -52 22 -88 10z"/>
<path d="M1201 3371 c-8 -5 -11 -16 -8 -25 5 -13 11 -14 32 -4 20 9 34 9 59 0
41 -15 46 -15 46 1 0 29 -95 49 -129 28z"/>
<path d="M813 3223 c3 -15 -1 -37 -10 -50 -17 -25 -11 -53 11 -53 7 0 21 11
30 25 22 34 47 31 69 -6 14 -26 20 -29 32 -19 21 18 19 34 -11 69 -18 22 -35
31 -55 31 -19 0 -29 5 -29 15 0 9 -9 15 -21 15 -18 0 -20 -5 -16 -27z"/>
<path d="M1186 3228 c-3 -7 -5 -20 -5 -28 0 -8 -3 -27 -7 -42 -5 -24 -3 -28
15 -28 12 0 24 7 27 15 10 25 44 17 71 -16 23 -27 28 -29 41 -15 14 13 13 19
-9 50 -23 35 -72 62 -90 50 -5 -3 -12 2 -15 10 -7 19 -23 21 -28 4z"/>
<path d="M2038 3087 c-16 -6 -28 -17 -28 -24 0 -15 5 -16 47 -4 23 7 37 5 53
-6 17 -12 24 -13 33 -4 9 9 6 17 -13 31 -28 22 -51 23 -92 7z"/>
<path d="M1026 3023 c-11 -11 -6 -23 9 -23 8 0 15 4 15 9 0 13 -16 22 -24 14z"/>
<path d="M1640 2953 c-14 -7 -40 -13 -57 -13 -28 0 -33 -4 -33 -23 0 -36 -48
-123 -86 -157 -41 -36 -125 -80 -153 -80 -11 0 -28 -8 -38 -19 -17 -17 -42
-26 -103 -38 -14 -2 -32 -11 -41 -19 -24 -21 -31 -19 -151 42 -40 21 -75 18
-89 -8 -7 -13 -15 -25 -19 -28 -15 -11 -50 -98 -60 -150 -6 -30 -22 -102 -35
-160 -29 -132 -44 -207 -50 -245 -11 -79 -25 -146 -31 -157 -7 -10 -43 -217
-44 -246 0 -15 58 -42 76 -35 7 2 15 0 19 -6 3 -6 18 -11 32 -11 23 0 25 -3
19 -31 l-6 -31 98 4 c63 2 108 9 130 20 31 16 34 16 81 -8 50 -26 121 -36 261
-38 l65 -1 23 48 c21 45 25 47 55 43 18 -3 53 -8 78 -11 l46 -6 12 71 c6 39 9
75 7 79 -3 4 -8 65 -11 136 -4 72 -8 139 -9 150 -2 11 -6 49 -10 85 -4 36 -18
95 -31 131 -13 37 -21 69 -18 73 3 3 1 11 -4 18 -6 7 -13 28 -17 46 -3 19 -24
72 -45 118 l-40 85 25 9 c14 6 29 10 35 10 5 0 38 25 74 55 41 35 70 53 78 48
36 -22 65 -8 49 24 -6 10 -17 63 -27 118 -20 121 -22 125 -55 108z m-522 -584
l24 -29 -27 -70 c-34 -90 -49 -99 -60 -38 -3 12 -12 43 -21 70 l-16 50 27 28
c31 32 40 31 73 -11z"/>
<path d="M2034 2946 c-3 -8 -4 -20 -3 -27 1 -8 -3 -27 -9 -42 -7 -16 -10 -33
-6 -38 11 -18 35 -8 45 19 10 26 11 26 25 8 8 -11 14 -23 14 -28 0 -14 40 -8
46 7 7 18 -41 85 -60 85 -8 0 -16 7 -20 15 -7 19 -25 19 -32 1z"/>
<path d="M2326 2887 c-25 -61 -27 -74 -12 -86 12 -10 18 -7 31 18 8 17 21 31
28 31 18 0 37 -21 37 -41 0 -26 20 -34 38 -15 15 14 14 19 -1 51 -11 23 -28
40 -47 47 -17 5 -30 14 -30 19 0 23 -31 5 -44 -24z"/>
<path d="M984 2856 c-6 -16 17 -66 41 -86 9 -7 29 -13 45 -13 38 0 93 54 88
86 -3 20 -9 22 -86 25 -65 2 -84 0 -88 -12z"/>
<path d="M2146 2703 c-11 -11 -6 -23 9 -23 8 0 15 4 15 9 0 13 -16 22 -24 14z"/>
<path d="M2155 2550 c-10 -16 4 -31 43 -47 54 -22 165 8 135 38 -6 6 -21 3
-41 -6 -26 -14 -38 -14 -72 -4 -22 7 -40 16 -40 21 0 11 -17 10 -25 -2z"/>
<path d="M2600 2426 c-46 -25 -54 -33 -70 -78 -7 -20 -16 -28 -34 -28 -14 0
-41 -9 -60 -21 -31 -18 -40 -19 -71 -9 -28 9 -37 19 -42 41 -6 32 -39 41 -50
13 -3 -8 -16 -20 -29 -25 -20 -7 -24 -16 -24 -51 0 -24 -9 -75 -21 -113 -37
-125 -36 -328 1 -380 4 -5 11 -21 15 -35 4 -14 14 -40 23 -58 14 -31 14 -36
-3 -65 -19 -33 -110 -152 -167 -220 -27 -32 -30 -41 -20 -55 7 -9 16 -26 21
-37 5 -11 27 -40 50 -64 39 -43 42 -44 68 -30 16 7 31 15 36 17 4 2 4 -3 1
-11 -3 -10 5 -18 27 -26 43 -15 68 -14 118 4 40 14 45 13 99 -11 98 -43 224
-52 416 -28 87 11 101 18 104 49 2 15 -1 38 -6 49 -28 59 -10 98 54 115 32 8
41 32 26 65 -11 24 -35 104 -57 191 -18 67 -20 74 -27 95 -18 49 -58 189 -58
201 0 9 -3 19 -7 23 -5 4 -8 11 -9 14 -3 26 -35 127 -80 253 -25 70 -65 135
-116 187 -28 28 -54 52 -57 52 -4 0 -26 -11 -51 -24z m-165 -336 c17 -18 17
-21 1 -45 -22 -33 -41 -32 -56 4 -10 24 -9 33 2 45 18 21 32 20 53 -4z"/>
<path d="M552 1563 c-13 -3 -31 -17 -40 -33 -14 -24 -21 -27 -52 -23 -19 3
-42 7 -50 10 -36 14 -47 11 -60 -15 -7 -15 -18 -38 -25 -52 -7 -14 -24 -59
-39 -100 -15 -41 -31 -84 -36 -95 -5 -11 -14 -38 -21 -60 -6 -22 -15 -50 -20
-61 -18 -50 1 -66 132 -113 30 -11 86 -32 124 -46 39 -15 95 -33 125 -41 30
-8 67 -19 82 -23 23 -8 28 -5 36 18 22 57 22 59 -8 64 -15 4 -40 16 -55 29
l-26 23 19 55 c11 30 25 78 32 105 12 52 48 153 60 170 16 22 20 65 8 66 -92
5 -155 51 -142 103 6 27 4 28 -44 19z"/>
<path d="M855 1440 c-8 -13 4 -32 16 -25 12 8 12 35 0 35 -6 0 -13 -4 -16 -10z"/>
<path d="M1037 1433 c-3 -5 -7 -24 -8 -43 -3 -30 -1 -35 16 -32 29 5 30 10 9
34 -10 12 -14 18 -7 15 7 -5 9 0 6 13 -6 22 -9 24 -16 13z"/>
<path d="M1202 1396 c1 -12 0 -25 -4 -31 -9 -15 9 -55 26 -55 14 0 20 55 10
91 -7 24 -36 20 -32 -5z"/>
<path d="M1383 1388 c-7 -12 -5 -69 3 -77 9 -10 30 21 28 41 -1 13 -3 29 -3
36 -1 16 -18 16 -28 0z"/>
<path d="M1030 1329 c0 -5 6 -9 13 -9 8 0 7 -3 -3 -10 -10 -6 -16 -28 -17 -62
-3 -54 -5 -76 -18 -159 -6 -37 -4 -47 9 -52 21 -8 27 4 22 44 -2 19 1 37 7 41
8 5 8 13 0 31 -9 19 -8 29 2 44 18 26 23 69 8 66 -17 -4 -16 5 2 23 21 22 19
49 -5 51 -11 1 -20 -2 -20 -8z"/>
<path d="M3175 1293 c4 -43 2 -52 -26 -80 -16 -18 -35 -33 -40 -33 -6 0 -35
-7 -65 -16 -52 -15 -54 -16 -49 -46 3 -17 12 -40 20 -52 8 -11 15 -27 15 -34
0 -8 18 -59 40 -113 22 -55 40 -102 40 -104 0 -3 -18 -12 -40 -21 -22 -9 -40
-20 -40 -25 0 -10 48 -95 72 -129 l18 -24 42 23 c24 13 98 52 166 87 68 35
144 78 169 96 65 44 183 147 183 159 0 10 -32 58 -60 90 -8 9 -40 52 -70 95
-64 91 -146 174 -170 174 -10 0 -43 -11 -74 -25 l-57 -25 -27 25 c-41 38 -52
33 -47 -22z"/>
<path d="M840 1320 c-13 -8 -13 -13 -2 -31 13 -20 12 -21 -3 -15 -14 5 -17 2
-12 -21 3 -14 0 -34 -6 -43 -13 -22 -2 -50 20 -50 13 0 14 3 5 12 -14 14 -16
42 -3 34 5 -3 11 13 14 37 3 24 2 43 -4 46 -6 1 -3 12 7 22 18 20 9 25 -16 9z"/>
<path d="M1212 1282 c7 -9 18 -20 23 -24 6 -4 0 -8 -12 -8 -26 0 -31 -15 -8
-24 8 -3 15 -12 15 -21 0 -8 3 -15 8 -15 4 0 6 18 6 40 -2 57 -2 57 -25 63
-18 5 -18 3 -7 -11z"/>
<path d="M1390 1290 c0 -4 7 -11 16 -14 22 -8 24 -8 24 7 0 7 -9 13 -20 14
-11 1 -20 -2 -20 -7z"/>
<path d="M1394 1253 c3 -8 6 -20 6 -28 0 -7 9 -15 20 -18 15 -4 20 0 20 15 0
17 -2 18 -16 8 -12 -11 -15 -11 -12 1 2 8 10 17 18 20 10 4 5 8 -13 11 -22 4
-27 2 -23 -9z"/>
<path d="M1203 1172 c2 -10 9 -28 17 -42 8 -14 14 -28 15 -32 0 -3 4 -10 9
-15 5 -5 6 2 3 17 -4 14 -7 37 -7 51 0 18 -6 28 -20 32 -14 4 -19 1 -17 -11z"/>
<path d="M1422 1145 c1 -13 9 -27 16 -30 11 -4 12 -8 2 -20 -17 -20 -5 -70 13
-54 16 15 17 43 5 92 -10 42 -39 53 -36 12z"/>
<path d="M805 1150 c-3 -4 -8 -30 -11 -57 l-6 -48 27 29 c25 27 25 29 8 49
-10 11 -13 17 -6 14 6 -4 14 -3 17 2 3 5 -1 11 -9 15 -8 3 -17 1 -20 -4z"/>
<path d="M1206 1107 c3 -10 9 -15 12 -12 3 3 0 11 -7 18 -10 9 -11 8 -5 -6z"/>
<path d="M2500 1100 c0 -13 18 -22 24 -11 3 5 -1 11 -9 15 -8 3 -15 1 -15 -4z"/>
<path d="M2857 1104 c-8 -8 1 -24 14 -24 5 0 9 7 9 15 0 15 -12 20 -23 9z"/>
<path d="M2277 1093 c-4 -3 -7 -11 -7 -17 0 -6 5 -5 12 2 6 6 9 14 7 17 -3 3
-9 2 -12 -2z"/>
<path d="M2688 1075 c-11 -24 -10 -29 7 -41 10 -8 21 -11 24 -8 3 3 -1 9 -8
13 -11 7 -11 10 0 14 11 4 11 6 -1 6 -13 1 -13 2 0 11 11 7 12 12 3 21 -9 9
-15 6 -25 -16z"/>
<path d="M2241 1063 c0 -18 4 -33 9 -33 18 0 11 -29 -10 -42 -23 -15 -27 -33
-6 -25 8 3 17 3 19 -1 2 -4 2 -1 1 6 -2 6 1 12 7 12 6 0 7 5 4 10 -3 6 -1 10
4 10 6 0 11 14 11 31 0 23 -4 30 -14 26 -10 -4 -16 2 -19 16 -3 15 -5 12 -6
-10z"/>
<path d="M1211 1065 c-2 -63 33 -90 37 -29 2 29 0 35 -12 31 -8 -3 -17 -1 -20
6 -2 7 -5 3 -5 -8z"/>
<path d="M2877 1064 c-12 -13 -8 -36 6 -28 8 6 8 3 -1 -9 -8 -9 -11 -20 -8
-25 3 -5 8 -24 11 -43 10 -57 16 -69 33 -68 11 0 12 3 5 6 -16 6 -17 33 -2 33
7 0 9 10 4 28 -4 15 -8 32 -9 37 -7 30 -32 76 -39 69z"/>
<path d="M790 1030 c0 -5 5 -10 10 -10 6 0 10 5 10 10 0 6 -4 10 -10 10 -5 0
-10 -4 -10 -10z"/>
<path d="M1001 1014 c0 -11 3 -14 6 -6 3 7 2 16 -1 19 -3 4 -6 -2 -5 -13z"/>
<path d="M1459 1030 c0 -3 -2 -13 -4 -22 -4 -20 10 -24 21 -7 3 6 1 16 -5 22
-6 6 -11 9 -12 7z"/>
<path d="M2695 1000 c-8 -12 2 -30 17 -30 5 0 8 6 5 14 -3 8 -1 17 6 20 7 2 5
5 -5 5 -9 1 -20 -3 -23 -9z"/>
<path d="M2470 960 c0 -19 5 -30 14 -30 19 0 29 30 15 46 -18 22 -29 16 -29
-16z"/>
<path d="M2715 941 c3 -5 -1 -11 -7 -14 -10 -4 -11 -7 0 -18 10 -11 12 -10 12
3 0 9 5 18 12 20 7 3 5 7 -6 11 -9 4 -15 3 -11 -2z"/>
<path d="M2222 910 c-18 -29 -15 -36 8 -15 20 18 26 35 12 35 -4 0 -13 -9 -20
-20z"/>
<path d="M2472 869 c3 -23 28 -40 28 -19 0 6 -5 8 -12 4 -8 -5 -9 -2 -5 9 3 9
1 19 -4 23 -7 4 -9 -3 -7 -17z"/>
<path d="M2727 863 c-13 -12 -7 -43 8 -43 8 0 15 7 15 16 0 9 -5 12 -12 8 -8
-5 -9 -2 -5 9 7 18 5 21 -6 10z"/>
<path d="M2920 855 c-7 -8 -8 -15 -2 -15 5 0 15 7 22 15 7 8 8 15 2 15 -5 0
-15 -7 -22 -15z"/>
<path d="M1490 745 c-36 -29 -65 -58 -65 -63 0 -11 119 -112 133 -112 5 0 21
-9 35 -20 24 -19 25 -24 20 -95 -4 -63 -2 -75 11 -75 23 0 61 46 95 115 54
111 54 107 -29 180 -19 17 -52 52 -74 78 -21 26 -43 47 -50 46 -6 0 -40 -24
-76 -54z"/>
<path d="M650 731 c-5 -11 -11 -28 -13 -38 -2 -10 -7 -25 -10 -33 -3 -8 -15
-42 -26 -74 l-19 -59 -66 -17 c-37 -9 -71 -21 -77 -27 -23 -23 107 -74 205
-79 26 -2 50 -5 53 -8 11 -11 41 15 48 41 3 15 15 46 26 70 10 23 19 47 19 53
0 6 11 27 24 48 39 62 41 78 9 90 -16 6 -50 17 -78 23 -27 7 -58 16 -67 21
-13 6 -20 3 -28 -11z"/>
<path d="M3093 515 c-26 -28 -60 -58 -75 -68 -16 -9 -28 -21 -28 -25 0 -4 41
-39 91 -76 74 -56 89 -73 85 -90 -14 -56 -18 -124 -7 -130 34 -22 171 115 171
172 0 13 -16 40 -37 62 -21 21 -58 68 -83 105 -25 36 -50 74 -57 83 -10 15
-17 11 -60 -33z"/>
<path d="M2051 518 c-85 -219 -75 -204 -155 -216 -38 -6 -73 -15 -78 -20 -15
-15 11 -48 46 -60 17 -6 64 -23 104 -37 68 -25 75 -26 98 -11 13 9 24 21 24
27 0 16 74 145 116 202 20 27 34 50 32 51 -2 2 -30 15 -63 30 -33 15 -72 34
-88 43 -25 13 -28 13 -36 -9z"/>
</g>
</svg>
