<?xml version="1.0" encoding="UTF-8"?><svg id="b" xmlns="http://www.w3.org/2000/svg" width="290.357" height="352.882" viewBox="0 0 290.357 352.882"><defs><style>.f{fill:#fff;}.g{fill:#211715;}.h{fill:#79c6e0;}.i{fill:#645d5c;}</style></defs><g id="c"><g id="d"><path class="f" d="M256.447,350.398l-23.469.138c-.289-12.181-.289-20.32-.289-30.181,0-2.124-.088-20.85-.176-41.012.783-.078,1.287-.128,1.287-.128,8.389-.953,25.083-2.453,38.049-4.195l.822,7.715c2.562,23.75,5.089,48.614,7.008,67.526l-23.231.137Z"/><path class="f" d="M113.706,167.553c7.206,7.691,17.913,13.802,17.913,13.802,11.045,5.692,21.819,6.186,26.556,6.176,5.946-.012,16.094-.321,26.778-6.954,8.296-5.15,13.209-11.454,14.976-14.704,14.426,6.442,18.328,7.54,29.205,12.527,8.041,3.686,13.282,7.055,19.535,11.957,5.635,4.417,9.609,10.141,12.482,16.572,4.849,12.308,10.84,38.619,15.478,66.375.092.552-.279,1.076-.833,1.159-13.317,1.978-32.727,3.699-41.996,4.752,0,0-.501.042-1.287.108.088,20.169.176,38.907.176,41.032,0,9.861,0,18,.289,30.181l-152.586.028c.018-11.143.599-18.452.599-28.322,0-2.438-.041-17.504-.039-19.838l-42.379-49.634c2.704-14,4.97-22.493,6.593-28.444,4-14.667,11.778-33.333,21.259-38.519l47.281-18.255Z"/><path class="f" d="M96.648,210.993c-3.713,18.372-6.643,46.519-10.409,66.37-2.412,12.716-7.121,25.976-18.184,33.185-4.324,2.818-12.513,4.376-17.556,3.111-7.677-1.926-12.943-9.37-14.889-17.63-1.413-5.998-1.415-13.247-.754-20.511,2.061-6.43,3.873-12.082,3.873-12.082,7.252-21.037,19.095-46.519,28.576-67.852,0,0,5.55-14.363,22.272-8.12,11.111,4.148,7.07,23.527,7.07,23.527Z"/><path class="f" d="M208.826,87.55c1.651-1.49,4.098-2.211,6.387-1.869s4.372,1.722,5.419,3.603c.74,1.319.979,2.821,1.116,4.287.501,5.777-.638,11.663-3.256,16.927-1.275,2.565-2.937,5.02-5.248,6.888-1.775,1.416-3.557,2.22-6.136,1.435l-.806-.245c-.574,2.595-1.403,4.898-1.761,5.986-1.682,4.565-10.524,19.894-21.972,27.222.139,1.04.299,2.083.48,3.116.62,3.59.43,6.79,5.41,8.59.2.08,5.73,2.69,10,4.71-2.435,3.44-6.897,8.275-13.506,12.378-10.684,6.633-20.832,6.941-26.778,6.954-4.736.01-15.51-.484-26.556-6.176,0,0-10.707-6.111-17.913-13.802,4.275-1.973,8.626-4,8.797-4.063,4.99-1.8,4.79-5,5.42-8.59.19-1.06.35-2.08.49-3.089-4.496-2.901-8.689-6.761-12.481-11.299-5.941-7.11-9.484-14.735-11.546-21.236l-1.194.297c-2.915.785-5.141-.77-6.916-2.186-2.311-1.869-3.973-4.323-5.248-6.888-2.618-5.264-3.757-11.15-3.256-16.927.137-1.466.376-2.968,1.116-4.287,1.047-1.881,3.131-3.261,5.419-3.603s4.736.379,6.387,1.869c0,0-10.967-59.64,51.847-59.64,65.185,0,56.285,59.64,56.285,59.64Z"/><path class="i" d="M219.616,57.876c-2.292-17.909-10.807-30.416-20.132-38.74l-8.342-6.327c-9.878-6.381-21.352-10.384-35.769-10.384-15.124,0-27.965,4.506-38.242,12.057-11.933,8.768-25.445,24.387-26.526,49.667-.282,6.605.37,14.03,2.961,21.685.244-.065.491-.115.742-.152,2.288-.342,4.736.379,6.387,1.869l6.325-6.631c9.185-10.074,22.519-20.741,34.594-27.945,1.215-.725,2.673.257,2.751,1.761.184,3.526.461,9.093.998,9.078,5.931-.168,19.971-7.74,28.367-13.672,4.083,1.313,10.55,3.389,10.55,3.389,7.483,3.2,14.882,12.003,17.659,16.644,3.427,5.728,5.541,11.921,6.127,18.205,1.576-2.044,4.47-3.097,7.147-2.697,1.044.156,2.045.528,2.919,1.073,2.284-7.993,2.345-14.878,2.015-22.606-.092-2.161-.272-4.251-.531-6.273Z"/><path class="g" d="M130.408,183.427c18.259,9.298,42.537,9.275,59.318-3.202,4.389-3.264,8.387-7.122,11.41-11.706,1.706-2.586-2.449-4.993-4.145-2.423-5.313,8.056-14.374,14.363-23.696,17.11-7.35,2.166-15.41,2.424-22.989,1.437-6.064-.79-12.027-2.588-17.475-5.362-2.747-1.399-5.179,2.741-2.423,4.145h0Z"/><path class="g" d="M270.271,282.735c1.949,18.078,3.816,36.166,5.659,54.255.451,4.424.9,8.847,1.348,13.271.131,1.289,1.009,2.4,2.4,2.4,1.196,0,2.532-1.102,2.4-2.4-1.751-17.257-3.51-34.514-5.328-51.765-.554-5.255-1.113-10.508-1.68-15.762-.139-1.289-1.004-2.4-2.4-2.4-1.19,0-2.54,1.103-2.4,2.4h0Z"/><path class="g" d="M206.297,171.27c8.232,3.513,16.63,6.684,24.662,10.646,3.843,1.895,7.551,4.046,11.073,6.488,3.573,2.478,7.06,5.113,9.954,8.381,2.819,3.182,5.123,6.916,6.842,10.801,1.173,2.652,1.995,5.508,2.836,8.28,2.404,7.927,4.335,15.998,6.12,24.084,1.196,5.419,2.308,10.856,3.357,16.306.545,2.832,1.072,5.667,1.583,8.506.274,1.523.543,3.046.808,4.571.126.726.251,1.453.375,2.18.055.324.11.647.165.971l.082.486c.065.649.109.649.131-.002l.861-.861c-.447.33-1.793.305-2.417.392-.757.105-1.514.207-2.272.306-1.909.249-3.819.485-5.731.711-3.812.452-7.627.868-11.444,1.271-6.492.684-12.993,1.295-19.48,2.029-1.288.146-2.4.999-2.4,2.4,0,1.184,1.104,2.547,2.4,2.4,10.82-1.225,21.669-2.175,32.48-3.486,2.93-.355,5.858-.733,8.78-1.151,1.643-.235,3.202-.643,3.79-2.412.569-1.712-.265-4.038-.566-5.784-1.244-7.214-2.591-14.411-4.061-21.583-2.385-11.64-4.962-23.318-8.566-34.651-1.558-4.898-3.436-9.581-6.27-13.902-3.549-5.41-8.152-9.505-13.358-13.27-11.32-8.186-24.566-12.812-37.311-18.25-1.191-.508-2.572-.356-3.284.861-.59,1.009-.338,2.772.861,3.284h0Z"/><path class="h" d="M287.508,141.39c1.838-5.987-2.033-12.774-6.964-16.04-8.096-5.361-20.872-4.886-27.316,2.003-.306.327-.224.861.142,1.119,6.62,4.654,10.938,9.284,15.555,15.327,4.786,6.265,14.456,8.416,18.284-1.544.112-.291.211-.579.299-.865Z"/><path class="g" d="M210.523,89.247c2.166-1.85,5.848-1.64,7.65.641,1.086,1.375,1.189,3.342,1.261,5.018.083,1.932.01,3.894-.303,5.804-.63,3.846-1.937,7.605-4.016,10.913-1.546,2.46-4.106,5.783-7.37,4.885-2.983-.821-4.255,3.809-1.276,4.629,8.375,2.304,13.868-7.596,16.056-14.159,1.309-3.926,1.906-8.159,1.697-12.293-.203-4.028-1.274-7.861-4.942-10.05-3.894-2.324-8.769-1.67-12.152,1.22-.986.842-.866,2.528,0,3.394.977.977,2.405.844,3.394,0h0Z"/><path class="g" d="M204.503,114.053c-.079,2.38-.644,4.696-1.331,6.967-.256.847-.534,1.686-.819,2.524-.068.2-.139.398-.209.597-.028.079-.065.154-.092.232-.155.437.217-.482.028-.066-1.04,2.285-2.259,4.477-3.579,6.612-3.831,6.195-8.478,12.059-14.163,16.656-3.115,2.519-6.635,4.528-10.515,5.421-3.009.692-1.736,5.321,1.276,4.629,7.962-1.831,14.587-7.654,19.79-13.688,4.346-5.04,8.376-10.713,11.149-16.79,1.844-4.042,3.117-8.653,3.265-13.092.103-3.09-4.697-3.086-4.8,0h0Z"/><path class="g" d="M102.391,85.853c-3.112-2.658-7.362-3.404-11.137-1.73-3.849,1.707-5.466,5.253-5.862,9.248-.806,8.131,1.636,17.222,6.948,23.507,2.843,3.363,6.943,6.066,11.49,5.008,3.008-.699,1.734-5.329-1.276-4.629-3.171.737-6.254-2.778-7.814-5.114-2.199-3.296-3.584-7.106-4.277-10.994-.34-1.91-.449-3.861-.394-5.798.047-1.687.088-3.715,1.075-5.164,1.716-2.521,5.567-2.892,7.852-.94.985.841,2.427.967,3.394,0,.862-.862.99-2.549,0-3.394h0Z"/><path class="g" d="M99.596,108.512c2.229,17.991,12.336,35.611,27.749,45.464,4.446,2.842,9.445,4.912,14.679,5.687,1.281.19,2.579-.319,2.952-1.676.311-1.131-.386-2.761-1.676-2.952-8.837-1.308-16.397-6.351-22.501-12.684-6.412-6.652-11.21-14.709-14.033-23.506-.612-1.909-1.137-3.846-1.567-5.804-.186-.849-.355-1.702-.503-2.558-.071-.411-.137-.823-.2-1.236-.024-.157-.046-.314-.068-.471.058.419-.018-.147-.032-.263-.159-1.286-.989-2.4-2.4-2.4-1.173,0-2.56,1.105-2.4,2.4h0Z"/><path class="g" d="M172.755,47.9c-4.714,3.341-9.715,6.31-14.866,8.924-2.346,1.191-4.733,2.318-7.205,3.226-1.002.368-2.018.705-3.052.973-.462.119-.927.213-1.394.308-.108.02-.216.038-.325.054.256-.032.296-.039.122-.019-.286.079-.873-.099-.082.12l1.059.617c.274.246.451,1.065.364.438-.017-.12-.122-.669-.102-.535-.058-.387-.149-1.434-.198-2.067-.135-1.731-.156-3.475-.312-5.204-.203-2.254-1.73-4.312-4.15-4.392-2.019-.067-3.958,1.603-5.582,2.638-7.56,4.814-14.74,10.281-21.453,16.217-3.583,3.169-7.028,6.495-10.258,10.024-2.082,2.275,1.303,5.679,3.394,3.394,9.398-10.268,20.509-19.187,32.341-26.496.214-.132,1.787-.999,1.767-1.073.066.246-.891-.043-.767-.051-.187.011-.034-.746-.076.055-.077,1.483.16,3.065.27,4.545.149,2.013-.056,5.809,2.427,6.518.917.262,2.043-.009,2.947-.174,1.095-.201,2.17-.516,3.224-.87,2.57-.86,5.066-1.962,7.507-3.134,5.857-2.812,11.522-6.133,16.823-9.891,1.056-.749,1.556-2.095.861-3.284-.611-1.044-2.221-1.614-3.284-.861h0Z"/><path class="g" d="M183.068,55.602c5.878,2.577,10.793,7.516,14.613,12.577,4.222,5.594,7.064,12.416,7.9,19.385.154,1.287.993,2.4,2.4,2.4,1.177,0,2.555-1.104,2.4-2.4-.939-7.827-3.804-15.482-8.555-21.807-4.281-5.699-9.706-11.393-16.335-14.299-1.186-.52-2.576-.348-3.284.861-.595,1.018-.332,2.761.861,3.284h0Z"/><path class="g" d="M113.514,170.272c2.537-1.168,5.07-2.343,7.604-3.517.758-.351,1.518-.698,2.275-1.05.748-.348-.799.311.005.003.725-.278,1.457-.585,2.126-.984,2.053-1.224,3.442-3.124,4.053-5.428.585-2.21.832-4.591,1.149-6.849.18-1.282-.313-2.578-1.676-2.952-1.123-.309-2.771.384-2.952,1.676-.31,2.206-.569,4.514-1.107,6.681-.096.388-.22.766-.36,1.14.235-.629-.05.064-.123.194-.085.151-.183.292-.274.439-.153.212-.135.191.054-.063-.078.093-.159.184-.243.272-.177.185-.366.357-.564.519.412-.336-.137.075-.191.109-.259.164-.527.312-.802.448-.465.23-1.124.467-1.796.776-.733.336-1.464.676-2.196,1.015-2.468,1.143-4.935,2.287-7.406,3.425-1.177.542-1.47,2.243-.861,3.284.707,1.209,2.102,1.405,3.284.861h0Z"/><path class="g" d="M180.254,152.428c.193,1.414.447,2.818.656,4.23.139.94.264,1.888.524,2.805.652,2.304,2.103,4.197,4.201,5.375.282.158.573.297.868.429.271.115.541.229.812.343.349.144.331.13-.052-.041.153.076.311.143.466.215.732.341,1.463.686,2.193,1.03,2.443,1.15,4.884,2.304,7.325,3.459,1.171.554,2.59.326,3.284-.861.611-1.044.316-2.727-.861-3.284-2.311-1.093-4.622-2.185-6.934-3.275-.793-.374-1.586-.748-2.381-1.119-.195-.091-.389-.184-.585-.272-.474-.213-.833-.331-1.074-.444-.482-.226-.938-.488-1.374-.792.438.305-.19-.179-.27-.258-.097-.096-.584-.714-.219-.199-.236-.333-.421-.676-.607-1.037.304.588-.016-.069-.064-.218-.071-.218-.132-.438-.187-.661-.538-2.172-.79-4.489-1.092-6.701-.176-1.286-1.822-1.987-2.952-1.676-1.386.381-1.852,1.663-1.676,2.952h0Z"/><path class="g" d="M192.353,10.736c-19.022-12.22-43.86-14.123-64.606-5.12-16.749,7.268-30.235,22.005-36.072,39.278-4.264,12.618-4.797,26.825-1.045,39.626.867,2.958,5.5,1.699,4.629-1.276-5.676-19.369-.901-41.435,12.297-56.694,5.413-6.259,11.643-11.295,18.971-15.065,9.442-4.857,20.08-6.889,30.652-6.639,11.726.277,22.89,3.7,32.752,10.036,2.607,1.675,5.016-2.479,2.423-4.145h0Z"/><path class="g" d="M221.098,84.894c1.322-5.723,1.7-11.559,1.563-17.418-.127-5.41-.586-10.799-1.736-16.095-1.886-8.686-5.56-17.028-10.866-24.172-2.634-3.547-5.589-6.821-8.878-9.771-2.294-2.057-5.7,1.327-3.394,3.394,5.59,5.012,10.215,10.943,13.585,17.661,4.15,8.274,6.06,17.407,6.414,26.615.239,6.228.092,12.414-1.317,18.51-.694,3.006,3.932,4.289,4.629,1.276h0Z"/><path class="g" d="M103.704,165.421c-12.307,5.252-25.123,9.719-36.171,17.438-1.061.741-1.553,2.101-.861,3.284.614,1.05,2.216,1.607,3.284.861,11.045-7.717,23.865-12.187,36.171-17.438,1.192-.509,1.457-2.265.861-3.284-.722-1.234-2.087-1.372-3.284-.861h0Z"/><path class="g" d="M65.234,194.374c-7.951,17.883-16.179,35.658-23.389,53.859-1.909,4.818-3.737,9.668-5.43,14.567-1.011,2.926,3.624,4.183,4.629,1.276,6.218-17.994,14.066-35.399,21.84-52.76,2.167-4.838,4.34-9.674,6.494-14.518.526-1.184.344-2.579-.861-3.284-1.023-.598-2.754-.329-3.284.861h0Z"/><path class="g" d="M37,248.281c-2.681,12.617-5.397,25.586-4.926,38.554.235,6.475,1.403,12.988,4.725,18.64,3.217,5.473,8.469,9.971,14.917,10.83,6.174.823,13.378-.713,18.492-4.323,5.474-3.864,9.619-9.239,12.5-15.254s4.674-12.514,5.911-19.076c1.249-6.625,2.267-13.292,3.243-19.962,2.035-13.907,3.743-27.877,6.266-41.708.265-1.453.543-2.904.834-4.352.255-1.269-.365-2.592-1.676-2.952-1.183-.325-2.695.399-2.952,1.676-2.572,12.781-4.204,25.745-6.034,38.646-.95,6.698-1.915,13.395-3.022,20.069-1.021,6.154-2.086,12.325-3.994,18.277-1.835,5.723-4.464,11.368-8.473,15.906-1.973,2.233-4.265,4.332-6.89,5.775-2.479,1.363-5.387,2.121-8.18,2.481-2.723.35-5.49.316-8.093-.617-2.547-.913-4.716-2.671-6.475-4.69-3.797-4.361-5.528-10.201-6.07-15.861-1.188-12.4,1.233-25.028,3.754-37.121.255-1.221.514-2.441.773-3.662.64-3.013-3.986-4.301-4.629-1.276h0Z"/><path class="g" d="M65.214,183.735c-3.879,2.168-6.834,5.698-9.31,9.316-3.02,4.414-5.351,9.267-7.416,14.188-3.576,8.522-6.035,17.427-8.222,26.39-1.496,6.132-2.807,12.307-4.007,18.503-.246,1.271.358,2.59,1.676,2.952,1.176.323,2.705-.397,2.952-1.676,1.796-9.275,3.886-18.48,6.362-27.597,2.628-9.676,6.021-19.369,11.268-27.963,2.35-3.849,5.265-7.814,9.119-9.968,2.697-1.507.279-5.655-2.423-4.145h0Z"/><path class="g" d="M289.822,142.028c2.19-7.613-2.636-15.715-9.199-19.445-6.11-3.473-13.947-4.25-20.632-2.09-1.645.532-3.269,1.241-4.74,2.153-1.414.877-3.192,2.056-4.096,3.496-.621.989-.674,2.284-.078,3.304.579.99,1.793,1.595,2.689,2.262,1.599,1.191,3.128,2.478,4.592,3.83,2.915,2.691,5.534,5.677,7.974,8.801,1.894,2.425,3.938,4.578,6.789,5.877,2.923,1.332,6.3,1.8,9.346.573,3.805-1.533,6.117-4.97,7.354-8.761.961-2.943-3.673-4.205-4.629-1.276-.779,2.388-2.149,4.575-4.342,5.547.263-.117-.285.097-.367.123-.238.075-.479.137-.722.191-.503.113-.603.114-1.336.099-.676-.014-.573-.005-1.113-.117-.589-.122-1.173-.293-1.734-.513.221.087-.32-.143-.395-.18-.241-.117-.478-.242-.711-.374-.444-.251-1.022-.621-1.343-.864-.795-.602-1.676-1.517-2.363-2.376-2.179-2.727-4.316-5.453-6.761-7.954-1.341-1.372-2.745-2.681-4.21-3.92-.741-.627-1.499-1.233-2.266-1.828-.85-.659-1.957-1.264-2.684-2.049l.617,1.059.005.033-.328,1.211c.498-.87,1.833-1.625,2.671-2.135,1.092-.664,2.239-1.192,3.455-1.585,2.622-.847,5.342-1.132,8.088-.962,5.463.34,11.004,2.74,14.047,7.451,1.76,2.725,2.709,5.949,1.791,9.141-.855,2.974,3.775,4.244,4.629,1.276Z"/><path class="g" d="M.063,66.667c-.289,2.923.42,6.231,2.023,8.707.899,1.388,2.139,2.669,3.617,3.441,1.278.667,2.629.923,4.009,1.267,2.123.53,4.699.955,6.433,2.386,2.099,1.733,2.345,4.48,2.006,7.073-.168,1.287,1.224,2.4,2.4,2.4,1.437,0,2.231-1.109,2.4-2.4.42-3.211-.133-6.319-2.113-8.947-1.888-2.506-4.581-3.711-7.539-4.538-2.139-.598-4.784-.691-6.383-2.283-1.805-1.796-2.292-4.677-2.052-7.107.128-1.292-1.194-2.4-2.4-2.4-1.404,0-2.272,1.105-2.4,2.4H.063Z"/><path class="g" d="M13.892,54.034c-.289,2.923.42,6.231,2.023,8.707.899,1.388,2.139,2.669,3.617,3.441,1.278.667,2.629.923,4.009,1.267,2.123.53,4.699.955,6.433,2.386,2.099,1.733,2.345,4.48,2.006,7.073-.168,1.287,1.224,2.4,2.4,2.4,1.437,0,2.231-1.109,2.4-2.4.42-3.211-.133-6.319-2.113-8.947-1.888-2.506-4.581-3.711-7.539-4.538-2.139-.598-4.784-.691-6.383-2.283-1.805-1.796-2.292-4.677-2.052-7.107.128-1.292-1.194-2.4-2.4-2.4-1.404,0-2.272,1.105-2.4,2.4h0Z"/><path class="g" d="M28.379,40.799c-.289,2.923.42,6.231,2.023,8.707.899,1.388,2.139,2.669,3.617,3.441,1.278.667,2.629.923,4.009,1.267,2.123.53,4.699.955,6.433,2.386,2.099,1.733,2.345,4.48,2.006,7.073-.168,1.287,1.224,2.4,2.4,2.4,1.437,0,2.231-1.109,2.4-2.4.42-3.211-.133-6.319-2.113-8.947-1.888-2.506-4.581-3.711-7.539-4.538-2.139-.598-4.784-.691-6.383-2.283-1.805-1.796-2.292-4.677-2.052-7.107.128-1.292-1.194-2.4-2.4-2.4-1.404,0-2.272,1.105-2.4,2.4h0Z"/><path class="f" d="M63.518,166.487c7.357-12.845,14.713-25.691,22.07-38.536,2.537-4.429,5.088-8.881,8.306-12.843,4.529-5.577,10.347-10.101,16.868-13.115,1.608-.743,3.377-1.409,5.114-1.06,4.058.814,5.065,6.069,5.188,10.206.788,26.441,1.577,52.883,2.366,79.324.107,3.572-.225,7.924-3.423,9.519-1.938.967-4.248.501-6.402.719-6.185.626-10.993,6.876-17.203,6.586-4.017-.188-7.363-3.129-9.867-6.277s-4.597-6.726-7.822-9.129c-6.53-4.865-16.391-3.187-19.676-10.638-1.204-2.731,2.173-10.375,4.481-14.757Z"/><path class="g" d="M65.591,167.698c5.249-9.165,10.498-18.33,15.746-27.495,2.569-4.486,5.118-8.985,7.712-13.456,2.407-4.148,4.932-8.261,8.16-11.83,2.881-3.186,6.18-5.954,9.838-8.207,1.773-1.092,3.643-2.171,5.586-2.932,1.62-.634,3.179-.834,4.246.414,2.081,2.432,1.782,6.864,1.874,9.939.156,5.238.312,10.477.469,15.715.315,10.56.63,21.12.945,31.68.156,5.238.312,10.477.469,15.715.147,4.945.516,9.94.404,14.886-.034,1.513-.149,3.191-.92,4.532-.861,1.498-2.448,1.565-4.054,1.573-2.048.01-4.038.134-5.98.84-1.88.683-3.628,1.64-5.35,2.646-2.854,1.667-6.118,3.88-9.587,2.96-3.869-1.026-6.433-4.666-8.676-7.717-2.542-3.458-5.217-6.816-9.17-8.717-3.113-1.497-6.472-2.199-9.739-3.255-2.796-.904-4.938-2.202-6.299-4.607-.09-.159-.073-.307-.064-.185-.02-.271-.019-.543-.005-.814.031-.597.174-1.223.384-2.024.433-1.648,1.028-3.261,1.697-4.827.701-1.643,1.485-3.253,2.314-4.835,1.432-2.734-2.709-5.163-4.145-2.423-1.82,3.473-3.563,7.149-4.535,10.962-.414,1.624-.76,3.45-.355,5.113.412,1.692,1.584,3.338,2.825,4.53,5.337,5.128,13.878,3.927,19.21,9.038,3.367,3.228,5.458,7.546,8.926,10.686s7.899,4.912,12.578,3.639c3.94-1.072,7.06-3.803,10.775-5.355,4.037-1.686,9.042.266,12.309-3.332,2.957-3.257,2.714-7.997,2.592-12.09-.169-5.654-.337-11.308-.506-16.962-.337-11.308-.674-22.617-1.012-33.925-.169-5.654-.337-11.308-.506-16.962-.084-2.827-.169-5.654-.253-8.481-.062-2.063-.182-4.137-.663-6.152-.951-3.986-3.755-7.757-8.261-7.538-2.58.125-5.006,1.391-7.248,2.577-2.076,1.098-4.071,2.35-5.961,3.743-3.957,2.916-7.417,6.317-10.401,10.222-3.225,4.221-5.802,8.883-8.436,13.483-5.621,9.814-11.242,19.629-16.862,29.443l-4.216,7.361c-1.538,2.685,2.608,5.106,4.145,2.423Z"/><path class="g" d="M168.185,64.991c-.534,3.385-.382,7.309,2.23,9.868,2.649,2.595,7.201,2.81,10.192.669,1.984-1.42,3.253-3.498,3.294-5.977.021-1.256-1.119-2.457-2.4-2.4-1.318.059-2.378,1.054-2.4,2.4-.002.142-.044.319-.023.458,0-.002.099-.514.032-.268-.026.095-.039.193-.063.289-.036.14-.1.279-.129.419-.048.23.084-.223.106-.238-.049.032-.098.204-.127.259-.068.127-.141.252-.22.372-.032.049-.161.196-.165.237.002-.025.325-.359.15-.204-.097.086-.666.562-.674.66,0-.009.404-.286.196-.152-.062.039-.12.085-.181.126-.143.095-.291.184-.442.266-.13.071-.265.131-.398.198-.23.116.235-.099.23-.098-.088.008-.196.072-.281.1-.142.046-.286.088-.431.124-.088.022-.686.117-.27.07.405-.045-.109.005-.205.011-.176.01-.352.012-.528.005-.105-.004-.7-.075-.265-.007.415.064-.067-.016-.163-.036-.282-.058-.549-.146-.822-.235-.384-.125.496.258.058.016-.107-.059-.215-.114-.32-.178-.102-.062-.197-.139-.3-.199-.201-.116.261.209.25.194-.047-.058-.124-.104-.179-.155-.102-.093-.2-.19-.294-.291-.069-.074-.337-.411-.08-.074.258.339-.002-.013-.057-.096-.089-.135-.172-.274-.249-.416-.058-.108-.104-.225-.166-.331-.122-.209.122.307.117.286-.015-.06-.048-.119-.069-.177-.1-.288-.193-.575-.264-.871-.037-.153-.069-.307-.097-.461-.012-.067-.019-.137-.034-.203-.067-.295.047.53.029.224-.021-.36-.063-.717-.068-1.078-.005-.352.005-.704.029-1.056.014-.208.035-.414.055-.621.007-.072.047-.351-.004.004-.059.418.02-.114.027-.157.195-1.235-.315-2.642-1.676-2.952-1.15-.262-2.743.35-2.952,1.676h0Z"/><path class="g" d="M235.379,350.536c-.256-10.881-.256-21.759-.297-32.642-.024-6.371-.054-12.741-.083-19.112-.043-9.576-.086-19.153-.126-28.729-.039-9.115-.077-18.231-.107-27.346-.017-5.122-.062-10.246-.027-15.368.001-.18.002-.36.005-.541.052-3.09-4.748-3.091-4.8,0-.074,4.381,0,8.768.013,13.149.027,8.816.064,17.632.101,26.447.041,9.719.084,19.437.128,29.156.031,6.954.063,13.907.091,20.861.037,9.202.006,18.404.167,27.606.038,2.173.084,4.346.135,6.519.073,3.084,4.873,3.095,4.8,0h0Z"/><path class="g" d="M78.553,302.405c-.007,10.979.129,21.948-.234,32.923-.168,5.078-.314,10.155-.326,15.236-.007,3.089,4.793,3.093,4.8,0,.021-8.651.508-17.29.588-25.94.047-5.106-.005-10.214-.016-15.32-.005-2.3-.014-4.6-.012-6.9.002-3.089-4.798-3.094-4.8,0h0Z"/><g id="e"><path class="g" d="M154.431,106.437c.453,1.727.888,3.481,1.147,5.249l-.086-.638c.031.242.044.481.02.724l.086-.638c-.017.113-.042.218-.08.326l.242-.573c-.034.076-.069.141-.115.21l.375-.486c-.054.066-.105.116-.171.169l.486-.375c-.133.085-.273.154-.416.22l.573-.242c-.229.096-.456.165-.701.204l.638-.086c-.221.026-.437.024-.658-.001l.638.086c-.248-.035-.491-.095-.739-.128-.67-.09-1.239-.115-1.849.242-.498.291-.973.862-1.103,1.434-.14.614-.11,1.304.242,1.849.312.484.835,1.022,1.434,1.103.539.073,1.061.21,1.609.234.827.036,1.599-.214,2.338-.551.907-.414,1.613-1.213,1.854-2.19.204-.826.115-1.565-.025-2.392-.286-1.691-.676-3.367-1.111-5.025-.318-1.214-1.729-2.072-2.952-1.676-1.25.404-2.018,1.651-1.676,2.952h0Z"/><path class="g" d="M126.398,91.65c-.877,2.848-.305,9.401,5.091,9.958,7.132-.043,7.511-7.964,5.111-11.689-1.966-3.05-7.746-4.318-10.202,1.731Z"/><path class="g" d="M183.511,91.651c.877,2.848.306,9.401-5.09,9.958-7.132-.043-7.512-7.965-5.111-11.689,1.966-3.049,7.745-4.318,10.202,1.731Z"/><path class="g" d="M156.482,139.532c.918.021,1.541.172,2.617.327,1.487.215,2.998.429,4.505.356,2.956-.144,5.625-1.39,7.32-3.876,3.506-5.141.751-13.301-5.605-14.29-1.536-.239-3.177-.189-4.663.305-1.25.415-2.42,1.411-3.718,1.638-1.066.187-1.936-.401-2.854-.865-1.472-.743-2.985-1.192-4.641-1.225-3.281-.065-6.474,1.572-7.883,4.615-1.234,2.666-1.314,5.839-.22,8.567,1.285,3.208,3.954,5.447,7.459,5.67,1.56.099,3.174-.214,4.69-.557.61-.138,1.216-.296,1.824-.441.26-.062.519-.121.78-.176.151-.031.303-.059.456-.082-.3.04-.323.051-.068.035,3.08-.107,3.095-4.907,0-4.8-2.99.104-7.39,2.804-9.806.094-1.138-1.277-1.514-3.212-1.223-4.866.358-2.037,1.709-3.249,3.797-3.257,2.164-.008,3.743,1.59,5.815,1.98,1.275.24,2.582.169,3.81-.265,1.052-.371,1.966-1.017,2.996-1.421,1.543-.605,3.79-.422,4.852.975,1.016,1.336,1.155,3.552.547,5.085-1.646,4.15-7.604,1.748-10.787,1.675-3.09-.07-3.089,4.73,0,4.8Z"/></g></g></g></svg>