<?xml version="1.0" standalone="no"?>
<!DOCTYPE svg PUBLIC "-//W3C//DTD SVG 20010904//EN"
 "http://www.w3.org/TR/2001/REC-SVG-20010904/DTD/svg10.dtd">
<svg version="1.0" xmlns="http://www.w3.org/2000/svg"
 width="376.000000pt" height="400.000000pt" viewBox="0 0 376.000000 400.000000"
 preserveAspectRatio="xMidYMid meet">

<g transform="translate(0.000000,400.000000) scale(0.100000,-0.100000)"
fill="#000000" stroke="none">
<path d="M181 3913 c-1 -7 -8 -10 -16 -7 -11 5 -15 -1 -16 -22 0 -16 -3 -23
-6 -16 -9 24 -21 12 -14 -15 4 -16 4 -43 0 -61 -8 -37 -1 -75 12 -66 5 3 9 0
9 -5 0 -6 -7 -11 -16 -11 -11 0 -14 -6 -9 -22 4 -11 7 -43 7 -70 0 -44 2 -48
24 -48 13 0 24 -4 24 -8 0 -17 -13 -21 -31 -11 -18 9 -19 5 -19 -60 0 -43 5
-73 12 -77 8 -5 9 -2 5 9 -5 14 0 17 22 17 27 0 28 -2 18 -24 -7 -14 -14 -24
-17 -24 -31 2 -38 -5 -42 -44 -3 -24 -2 -47 1 -53 3 -5 4 -20 2 -33 -3 -26 13
-26 41 1 10 10 23 15 29 11 14 -8 6 -29 -12 -29 -8 -1 -13 -6 -12 -13 2 -6 -3
-9 -11 -6 -7 3 -19 -3 -27 -12 -12 -16 -12 -17 1 -10 8 4 7 1 -3 -7 -18 -15
-17 -17 12 -48 38 -39 38 -43 5 -35 -24 6 -25 6 -10 -9 16 -17 13 -40 -5 -29
-5 3 -8 -8 -7 -25 1 -17 6 -31 10 -31 4 0 8 -5 8 -11 0 -5 -4 -8 -9 -5 -5 3
-9 -17 -9 -44 -1 -28 -3 -54 -6 -59 -3 -5 1 -11 9 -15 8 -3 15 -10 15 -16 0
-6 -4 -9 -9 -6 -5 3 -11 -10 -13 -30 -2 -19 -1 -37 3 -39 5 -4 5 -35 -2 -72
-1 -4 -1 -21 0 -37 1 -24 3 -27 16 -16 8 7 15 8 15 2 0 -5 -6 -15 -14 -21 -7
-6 -14 -28 -14 -49 0 -20 -1 -41 -2 -47 -1 -5 -1 -26 0 -45 6 -97 4 -330 -2
-330 -18 0 6 -29 29 -35 18 -4 29 -1 39 12 7 10 13 14 13 8 0 -14 -21 -38 -47
-53 -16 -9 -22 -9 -22 0 0 6 -3 9 -6 6 -3 -4 0 -16 6 -28 9 -16 8 -25 -1 -36
-14 -17 -17 -255 -3 -241 3 3 18 -5 32 -18 15 -14 29 -20 32 -14 4 5 7 -4 7
-21 0 -26 -2 -29 -10 -14 -10 17 -11 17 -18 -1 -7 -20 -8 -20 -8 0 -1 18 -3
17 -14 -5 -8 -14 -19 -24 -25 -22 -18 3 -14 -18 4 -25 10 -3 12 -8 5 -12 -15
-10 -14 -261 2 -277 4 -4 2 -14 -5 -21 -9 -11 -9 -17 3 -24 8 -5 9 -9 3 -9 -6
0 -11 -7 -11 -15 0 -18 23 -20 33 -3 8 12 29 -27 25 -48 -1 -7 5 -14 14 -18 8
-3 15 -11 15 -17 0 -8 -4 -8 -13 -1 -10 8 -21 6 -45 -8 -35 -21 -37 -27 -21
-50 8 -11 12 -12 16 -2 8 19 26 14 18 -5 -5 -14 -4 -15 6 -6 8 8 18 9 29 3 27
-14 147 -6 167 12 10 9 29 19 42 23 l23 7 -25 26 c-15 14 -30 23 -34 18 -4 -4
-3 -10 3 -14 14 -10 11 -38 -5 -34 -7 1 -10 -1 -7 -6 8 -14 -28 -30 -49 -21
-11 4 -14 8 -6 8 7 1 11 7 8 15 -3 7 -1 18 4 23 6 6 4 14 -6 23 -13 11 -15 9
-15 -9 0 -12 -4 -19 -10 -16 -6 3 -10 -3 -10 -15 0 -12 -4 -18 -10 -15 -5 3
-9 20 -7 38 l3 32 72 1 c39 1 69 -2 66 -7 -5 -9 9 -13 35 -10 7 2 10 -2 7 -8
-4 -5 -2 -12 4 -16 5 -3 10 -11 10 -16 0 -6 -4 -7 -10 -4 -17 10 -11 -7 8 -22
9 -8 11 -12 4 -8 -6 3 -12 1 -12 -6 0 -9 27 -10 106 -5 59 4 111 9 116 12 5 3
15 0 23 -6 10 -9 15 -9 15 -1 0 7 8 8 27 0 14 -5 33 -7 41 -4 12 4 12 8 1 22
-11 13 -11 17 -1 20 6 3 12 11 12 19 0 8 5 14 10 14 11 0 14 -20 11 -57 -1
-20 3 -23 34 -23 21 0 35 5 35 13 0 8 3 8 8 1 13 -19 92 -17 109 3 8 10 12 13
9 7 -4 -7 6 -13 24 -16 16 -2 26 0 23 5 -3 5 3 4 14 -1 12 -7 121 -10 297 -9
l277 2 -3 35 c-2 22 -8 34 -16 32 -10 -2 -10 2 -2 17 6 13 7 34 2 58 -5 21 -7
64 -5 96 2 33 0 57 -4 54 -5 -3 -16 1 -26 8 -10 7 -14 16 -9 19 6 3 12 0 15
-8 9 -22 42 -12 45 14 2 13 11 34 19 47 8 13 12 23 9 23 -12 0 84 79 114 95
16 8 43 15 60 15 18 0 30 5 30 13 0 24 -11 26 -46 6 -39 -21 -44 -23 -44 -10
0 5 18 16 41 25 22 9 37 20 34 25 -3 5 -1 12 4 15 11 7 5 52 -10 75 -8 12 -8
10 -3 -8 6 -21 4 -23 -20 -19 -36 7 -41 -6 -11 -30 29 -23 32 -32 9 -32 -8 0
-13 4 -10 9 3 4 -5 13 -17 18 -20 9 -23 17 -19 49 5 40 42 84 72 84 9 0 17 7
17 15 0 9 -4 12 -9 7 -11 -11 -60 -3 -52 9 3 5 -1 9 -8 9 -7 0 -14 12 -15 28
-1 15 -3 44 -6 65 -3 29 -1 35 8 27 7 -6 21 -7 31 -3 17 6 17 5 5 -10 -9 -12
-10 -17 -2 -17 7 0 9 -4 6 -10 -3 -5 3 -10 14 -10 16 0 21 6 21 26 0 14 -4 22
-10 19 -6 -3 -7 1 -4 9 3 9 11 16 18 16 7 0 6 4 -3 9 -9 6 -10 11 -2 15 17 11
13 23 -11 31 -23 8 -23 8 -2 12 19 4 21 8 14 39 -5 20 -4 34 2 34 13 0 2 84
-12 88 -7 3 -4 10 7 18 17 13 17 15 1 28 -18 14 -25 32 -9 22 17 -11 18 18 1
34 -9 8 -11 12 -4 7 7 -4 14 -1 18 9 9 22 8 24 -9 24 -8 0 -15 7 -15 16 0 8 4
13 9 9 5 -3 9 8 9 24 -1 23 -8 33 -30 42 -27 11 -28 12 -11 29 10 10 21 16 26
13 4 -2 7 1 7 6 0 6 -7 11 -15 11 -8 0 -15 4 -15 9 0 5 -7 12 -16 15 -12 4
-15 2 -10 -9 3 -8 9 -23 13 -32 5 -13 3 -15 -11 -10 -11 5 -15 3 -10 -5 4 -7
3 -8 -4 -4 -13 8 -16 65 -4 81 4 6 20 11 37 13 16 2 33 8 36 14 4 7 8 7 10 -1
2 -6 3 13 3 42 -3 109 -4 113 -14 97 -8 -12 -10 -11 -10 7 0 15 5 21 13 17 19
-7 17 154 -2 165 -10 6 -9 10 4 15 10 3 13 11 8 18 -4 7 -6 21 -5 31 2 9 -2
17 -8 17 -7 0 -10 7 -6 18 4 12 0 10 -14 -7 -11 -13 -20 -19 -21 -15 0 5 -2
25 -4 46 -2 28 1 37 15 41 22 6 22 -25 0 -35 -10 -5 -6 -7 10 -5 14 1 24 8 22
15 -1 6 2 12 7 12 9 0 6 48 -3 57 -3 4 0 13 7 21 10 13 9 15 -6 9 -13 -5 -17
-3 -14 5 2 7 10 12 16 10 7 -1 10 1 7 6 -3 5 -8 24 -11 42 -3 18 -9 38 -13 44
-3 6 -5 19 -4 29 3 15 -3 19 -25 16 -15 -2 -25 33 -13 44 10 9 11 9 6 0 -6
-12 5 -18 27 -14 4 0 7 -3 7 -9 0 -5 5 -10 10 -10 6 0 10 9 10 20 0 11 -5 20
-11 20 -5 0 -7 5 -4 10 3 6 1 10 -5 10 -6 0 -9 4 -6 9 4 5 -4 7 -16 4 l-23 -6
23 22 c46 45 58 114 37 213 -5 21 -4 28 4 24 7 -5 10 2 9 18 -3 28 -19 39 -45
29 -16 -6 -16 -5 1 12 18 18 18 19 -3 27 -29 10 -27 23 4 23 14 0 25 -3 25 -7
0 -5 4 -8 8 -8 13 0 8 68 -6 82 -9 9 -49 13 -131 13 -98 0 -120 -3 -135 -18
-22 -21 -27 -22 -19 0 5 13 2 15 -11 10 -10 -4 -15 -3 -11 3 7 11 -58 7 -87
-5 -10 -4 -18 -3 -18 2 0 13 -192 13 -207 1 -9 -7 -13 -7 -13 0 0 6 -47 9
-132 7 -73 -2 -135 -4 -137 -4 -2 -1 4 -12 12 -25 15 -22 15 -25 0 -30 -20 -8
-1 -33 30 -39 12 -3 2 -4 -23 -3 -35 1 -46 5 -48 19 -3 12 4 20 17 24 26 7 26
18 3 41 -19 19 -86 23 -112 7 -7 -4 -15 -3 -19 2 -6 10 -141 13 -141 3 0 -3
-17 -4 -37 -2 -21 1 -84 5 -140 7 l-102 5 -3 -32 c-3 -34 -28 -53 -25 -19 1
12 5 21 9 21 14 0 9 18 -7 24 -8 3 -14 1 -12 -5 1 -6 -8 -15 -20 -20 -14 -5
-23 -5 -23 1 0 6 5 10 10 10 6 0 10 3 10 8 0 4 -27 8 -61 9 -60 2 -61 1 -55
-23 4 -13 4 -24 0 -24 -8 0 -30 23 -37 40 -3 9 -6 10 -6 3z m1244 -21 c20 -11
20 -11 -1 -12 -12 0 -27 6 -33 14 -15 18 3 17 34 -2z m-792 -18 c-6 -17 -23
-9 -23 11 0 8 6 12 14 9 8 -3 12 -12 9 -20z m647 16 c0 -5 -7 -10 -16 -10 -8
0 -12 5 -9 10 3 6 10 10 16 10 5 0 9 -4 9 -10z m-760 -4 c0 -3 -4 -8 -10 -11
-5 -3 -10 -1 -10 4 0 6 5 11 10 11 6 0 10 -2 10 -4z m570 0 c0 -3 -4 -8 -10
-11 -5 -3 -10 -1 -10 4 0 6 5 11 10 11 6 0 10 -2 10 -4z m392 -48 c-6 -24 -8
-21 -16 22 -6 31 -5 32 7 15 8 -10 12 -27 9 -37z m353 42 c3 -5 -1 -10 -10
-10 -9 0 -13 5 -10 10 3 6 8 10 10 10 2 0 7 -4 10 -10z m-1085 -4 c0 -3 -4 -8
-10 -11 -5 -3 -10 -1 -10 4 0 6 5 11 10 11 6 0 10 -2 10 -4z m656 -9 c11 -11
-19 -8 -36 3 -12 8 -10 9 7 7 12 -2 26 -6 29 -10z m238 -13 c6 -15 4 -15 -11
-3 -10 7 -20 15 -22 16 -2 2 3 3 11 3 9 0 19 -7 22 -16z m-574 -4 c0 -5 -4
-10 -10 -10 -5 0 -10 5 -10 10 0 6 5 10 10 10 6 0 10 -4 10 -10z m380 -5 c0
-12 -19 -12 -23 0 -4 9 -1 12 9 8 7 -3 14 -7 14 -8z m150 -9 c14 -18 13 -19
-7 -14 -13 4 -23 2 -23 -3 0 -15 -17 -10 -24 6 -4 10 2 19 17 24 12 5 22 8 22
7 1 0 7 -10 15 -20z m100 14 c0 -5 -5 -10 -11 -10 -5 0 -7 5 -4 10 3 6 8 10
11 10 2 0 4 -4 4 -10z m-1533 -22 c-3 -8 -6 -5 -6 6 -1 11 2 17 5 13 3 -3 4
-12 1 -19z m983 2 c0 -5 -5 -10 -11 -10 -5 0 -7 5 -4 10 3 6 8 10 11 10 2 0 4
-4 4 -10z m540 -10 c0 -5 -12 -10 -27 -9 l-28 1 25 8 c14 4 26 8 28 9 1 1 2
-3 2 -9z m-1483 -6 c-3 -3 -12 -4 -19 -1 -8 3 -5 6 6 6 11 1 17 -2 13 -5z
m707 -66 c-7 -11 -34 -10 -34 1 0 6 9 9 19 8 11 0 17 -5 15 -9z m46 -15 c1
-27 1 -27 15 -9 8 11 15 14 15 8 0 -7 7 -12 15 -12 8 0 15 7 15 15 0 8 5 15
11 15 5 0 7 -6 3 -12 -4 -7 2 -4 14 6 14 12 22 15 22 6 0 -8 8 -10 27 -5 23 5
25 4 14 -9 -8 -10 -9 -16 -3 -16 6 0 10 -9 9 -21 l-1 -21 -14 21 c-8 12 -18
21 -23 21 -5 0 -2 -11 7 -25 17 -25 12 -45 -11 -45 -7 0 -16 -6 -19 -12 -3 -9
-12 -4 -26 15 -23 29 -53 38 -44 12 4 -8 1 -15 -5 -15 -6 0 -11 6 -11 14 0 8
-7 16 -15 19 -8 4 -12 15 -10 26 2 11 -1 23 -6 26 -11 7 -2 25 12 25 5 0 9
-12 9 -27z m650 1 c0 -8 8 -14 17 -14 27 0 9 -10 -25 -14 -37 -4 -38 -3 -15
19 15 16 15 17 -8 13 -15 -2 -23 -9 -21 -18 2 -8 0 -12 -4 -7 -4 4 -9 15 -11
25 -2 15 4 17 32 14 21 -3 35 -10 35 -18z m220 11 c0 -9 -6 -12 -16 -8 -13 5
-13 7 -2 14 17 11 18 11 18 -6z m-1435 -4 c3 -6 -3 -9 -14 -8 -11 0 -17 5 -15
9 7 11 22 10 29 -1z m878 -12 c-4 -16 -8 -17 -14 -7 -13 19 -11 28 5 28 9 0
12 -7 9 -21z m188 4 c13 -16 12 -17 -3 -4 -10 7 -18 15 -18 17 0 8 8 3 21 -13z
m254 8 c3 -5 -3 -11 -12 -13 -27 -5 -73 3 -73 13 0 12 77 12 85 0z m-355 -26
c0 -8 -4 -15 -10 -15 -5 0 -7 7 -4 15 4 8 8 15 10 15 2 0 4 -7 4 -15z m450 5
c0 -5 -2 -10 -4 -10 -3 0 -8 5 -11 10 -3 6 -1 10 4 10 6 0 11 -4 11 -10z
m-950 -15 c0 -8 -7 -15 -16 -15 -14 0 -14 3 -4 15 7 8 14 15 16 15 2 0 4 -7 4
-15z m578 2 c14 4 14 3 2 -5 -16 -12 -30 -7 -29 11 0 9 2 9 5 0 3 -7 13 -9 22
-6z m279 -9 c-3 -8 -6 -5 -6 6 -1 11 2 17 5 13 3 -3 4 -12 1 -19z m-807 2 c0
-5 -5 -10 -11 -10 -5 0 -7 5 -4 10 3 6 8 10 11 10 2 0 4 -4 4 -10z m338 -2
c-2 -7 2 -12 8 -11 19 4 4 -36 -17 -48 -13 -6 -19 -6 -19 1 0 5 5 10 10 10 6
0 10 5 10 11 0 5 -4 7 -10 4 -5 -3 -10 -1 -10 4 0 6 6 11 13 12 8 0 8 2 -2 6
-11 5 -11 7 0 14 18 11 19 11 17 -3z m602 2 c0 -5 -4 -10 -10 -10 -5 0 -10 5
-10 10 0 6 5 10 10 10 6 0 10 -4 10 -10z m-698 -17 c7 -38 -4 -73 -23 -73 -11
0 -19 5 -19 10 0 6 -10 10 -22 10 -19 0 -17 4 15 26 21 14 35 29 32 35 -4 5
-2 9 4 9 5 0 11 -8 13 -17z m-612 -7 c0 -3 -4 -8 -10 -11 -5 -3 -10 -1 -10 4
0 6 5 11 10 11 6 0 10 -2 10 -4z m416 -21 c18 -18 32 -24 46 -19 19 6 19 5 -1
-15 -23 -23 -40 -27 -42 -11 -1 6 -3 15 -4 20 -1 6 -3 13 -4 18 -1 4 -6 0 -11
-8 -8 -12 -10 -10 -10 9 0 19 -3 21 -15 11 -15 -13 -39 -5 -30 11 11 17 46 9
71 -16z m494 4 c0 -5 -4 -9 -10 -9 -5 0 -10 7 -10 16 0 8 5 12 10 9 6 -3 10
-10 10 -16z m24 -5 c3 -8 2 -12 -4 -9 -6 3 -10 10 -10 16 0 14 7 11 14 -7z
m203 -6 c-3 -8 -6 -5 -6 6 -1 11 2 17 5 13 3 -3 4 -12 1 -19z m-957 -8 c27
-27 26 -42 -3 -29 -12 6 -23 19 -23 30 0 24 1 24 26 -1z m-500 3 c0 -10 -20
-40 -20 -31 0 3 -3 13 -6 22 -4 11 -1 16 10 16 9 0 16 -3 16 -7z m127 -14
c-14 -22 -53 -25 -60 -5 -7 17 1 21 42 22 26 1 28 -1 18 -17z m973 9 c0 -4 -4
-8 -9 -8 -6 0 -12 4 -15 8 -3 5 1 9 9 9 8 0 15 -4 15 -9z m265 -7 c-3 -6 -14
-11 -23 -11 -15 1 -15 2 2 15 21 16 32 13 21 -4z m-1001 -13 c8 -12 13 -25 10
-30 -3 -4 1 -5 9 -2 8 3 18 1 22 -5 4 -7 -1 -10 -12 -7 -10 2 -37 7 -60 11
-48 8 -58 21 -16 20 30 0 43 21 16 28 -16 4 -16 5 -1 6 9 0 24 -9 32 -21z m36
-13 c0 -5 -5 -3 -10 5 -5 8 -10 20 -10 25 0 6 5 3 10 -5 5 -8 10 -19 10 -25z
m-230 5 c0 -5 -5 -10 -11 -10 -5 0 -7 5 -4 10 3 6 8 10 11 10 2 0 4 -4 4 -10z
m-196 -21 c-6 -11 -24 -2 -24 11 0 5 7 7 15 4 8 -4 12 -10 9 -15z m534 -71
c-7 -4 -18 -8 -25 -8 -6 0 -14 -6 -16 -12 -5 -13 -11 41 -9 75 1 9 -3 17 -8
17 -6 0 -10 5 -10 12 0 6 18 -8 40 -32 29 -32 37 -46 28 -52z m212 76 c0 -2
-7 -4 -15 -4 -8 0 -15 4 -15 10 0 5 7 7 15 4 8 -4 15 -8 15 -10z m473 -4 c6
-22 -9 -26 -33 -10 -13 9 -13 11 0 20 22 14 27 12 33 -10z m199 2 c-7 -2 -10
-8 -6 -13 3 -5 0 -9 -5 -9 -6 0 -11 2 -11 4 0 2 -3 11 -6 19 -4 12 0 14 17 10
13 -4 18 -8 11 -11z m-526 -4 c4 -7 4 -10 -1 -6 -4 4 -16 3 -26 -3 -15 -7 -17
-6 -13 6 7 18 30 20 40 3z m208 -4 c3 -8 2 -12 -4 -9 -6 3 -10 10 -10 16 0 14
7 11 14 -7z m-447 -14 c15 -18 17 -54 3 -45 -6 3 -17 20 -25 36 -12 22 -12 29
-3 27 7 -2 18 -10 25 -18z m143 6 c0 -24 -17 -28 -23 -6 -3 13 0 20 9 20 8 0
14 -6 14 -14z m152 7 c-6 -2 -10 -9 -6 -14 12 -20 12 -48 1 -43 -7 2 -31 -14
-55 -37 l-41 -42 -11 27 c-14 39 -13 46 11 46 11 0 17 4 14 10 -4 6 -4 18 -1
26 5 13 9 12 28 -5 12 -12 24 -18 27 -15 3 3 0 8 -6 12 -14 9 -5 26 17 35 19
7 40 7 22 0z m-936 -29 c-4 -9 -9 -15 -11 -12 -3 3 -3 13 1 22 4 9 9 15 11 12
3 -3 3 -13 -1 -22z m1054 -9 c0 -8 -2 -15 -4 -15 -2 0 -6 7 -10 15 -3 8 -1 15
4 15 6 0 10 -7 10 -15z m-905 -3 c5 -1 4 -7 -3 -14 -7 -7 -12 -19 -12 -27 0
-12 3 -12 12 -3 7 7 16 12 22 12 14 0 -26 -29 -41 -30 -7 0 -10 7 -6 15 3 9 2
15 -3 14 -21 -4 -35 2 -29 11 3 6 1 10 -5 10 -6 0 -9 4 -6 9 5 7 36 8 71 3z
m625 -14 c0 -6 -6 -5 -15 2 -8 7 -15 14 -15 16 0 2 7 1 15 -2 8 -4 15 -11 15
-16z m253 -3 c-3 -9 -8 -14 -10 -11 -3 3 -2 9 2 15 9 16 15 13 8 -4z m-308 -5
c3 -5 -1 -10 -10 -10 -9 0 -13 5 -10 10 3 6 8 10 10 10 2 0 7 -4 10 -10z m-82
-24 c7 4 9 4 5 -1 -4 -4 -3 -14 3 -22 8 -8 8 -13 1 -13 -6 0 -19 -3 -29 -7
-16 -6 -16 -5 -4 10 7 10 9 17 3 17 -6 0 -9 8 -7 18 5 27 7 28 12 9 3 -10 10
-14 16 -11z m972 14 c3 -5 1 -10 -4 -10 -6 0 -11 5 -11 10 0 6 2 10 4 10 3 0
8 -4 11 -10z m-828 -14 c0 -8 -6 -12 -13 -9 -7 2 -22 -5 -34 -17 -24 -24 -45
-15 -34 13 5 14 17 18 70 26 6 0 11 -5 11 -13z m-250 -31 c-3 -20 -6 -38 -9
-40 -10 -10 -48 9 -48 24 0 14 -2 14 -11 1 -9 -12 -10 -12 -5 3 3 10 6 21 6
25 0 3 11 -5 25 -18 14 -13 28 -20 32 -17 3 4 1 7 -5 7 -7 0 -12 11 -12 25 0
16 6 25 15 25 12 0 15 -9 12 -35z m366 -10 c-3 -9 -8 -14 -10 -11 -3 3 -2 9 2
15 9 16 15 13 8 -4z m207 -5 c-8 -5 -17 -7 -19 -4 -3 3 1 9 9 14 8 5 17 7 19
4 3 -3 -1 -9 -9 -14z m320 10 c12 -7 8 -11 -17 -16 -18 -4 -31 -10 -28 -14 2
-4 15 -5 28 -3 17 3 26 -1 31 -14 6 -14 5 -16 -5 -5 -21 20 -33 14 -14 -8 10
-11 24 -20 32 -20 23 0 14 -18 -13 -24 -28 -8 -94 10 -94 25 0 5 5 9 10 9 7 0
7 8 -1 22 -9 17 -9 23 0 26 7 2 17 10 24 18 14 16 27 17 47 4z m-1090 -15 c-7
-8 -19 -15 -27 -15 -13 0 -13 3 -3 15 7 8 19 15 27 15 13 0 13 -3 3 -15z m90
5 c0 -5 -5 -10 -11 -10 -5 0 -7 5 -4 10 3 6 8 10 11 10 2 0 4 -4 4 -10z m350
-11 c0 -5 -7 -9 -15 -9 -9 0 -12 6 -9 15 6 15 24 11 24 -6z m390 17 c0 -3 -4
-8 -10 -11 -5 -3 -10 -1 -10 4 0 6 5 11 10 11 6 0 10 -2 10 -4z m80 -5 c0 -5
-7 -14 -15 -21 -16 -14 -18 -10 -9 14 6 17 24 22 24 7z m-1134 -15 c8 -8 14
-19 14 -25 0 -15 27 -14 33 2 4 7 6 8 6 1 1 -7 -10 -19 -24 -28 -24 -16 -25
-16 -25 9 0 14 -7 28 -15 31 -8 4 -15 10 -15 15 0 13 9 11 26 -5z m1404 4 c0
-5 -2 -10 -4 -10 -3 0 -8 5 -11 10 -3 6 -1 10 4 10 6 0 11 -4 11 -10z m-754
-20 c9 0 12 -4 9 -10 -3 -5 -1 -10 4 -10 6 0 11 7 11 15 0 17 9 19 29 6 11 -7
10 -11 -4 -19 -15 -8 -17 -18 -13 -58 5 -39 3 -44 -5 -26 -5 12 -14 22 -19 22
-5 0 -4 8 1 18 9 16 6 19 -19 19 -16 0 -27 -4 -24 -9 5 -8 -10 -12 -34 -9 -8
1 -19 -4 -25 -11 -7 -7 -11 -12 -10 -10 3 7 -22 30 -28 26 -3 -2 -6 6 -5 18 0
12 7 23 14 26 7 2 11 -2 10 -9 -2 -7 5 -15 14 -17 13 -2 16 1 11 13 -5 15 -3
16 14 7 24 -13 34 -7 26 16 -5 12 -2 14 11 9 10 -4 24 -7 32 -7z m274 6 c0 -3
-4 -8 -10 -11 -5 -3 -10 -1 -10 4 0 6 5 11 10 11 6 0 10 -2 10 -4z m167 -23
c-3 -3 -11 -2 -17 2 -9 6 -9 10 1 16 14 8 27 -7 16 -18z m-827 -5 c0 -13 -23
-5 -28 10 -2 7 2 10 12 6 9 -3 16 -11 16 -16z m37 -3 c0 -8 -4 -12 -9 -9 -4 3
-8 9 -8 15 0 5 4 9 8 9 5 0 9 -7 9 -15z m470 9 c-3 -3 -12 -4 -19 -1 -8 3 -5
6 6 6 11 1 17 -2 13 -5z m178 -14 c-3 -5 -12 -10 -18 -10 -7 0 -6 4 3 10 19
12 23 12 15 0z m455 -36 c0 -7 -8 -11 -17 -10 -10 0 -18 -4 -18 -11 0 -17 -12
-26 -25 -18 -8 5 -6 11 5 19 9 6 17 21 17 33 2 17 5 19 20 9 10 -6 18 -16 18
-22z m-1410 17 c0 -6 -4 -13 -10 -16 -5 -3 -10 1 -10 9 0 9 5 16 10 16 6 0 10
-4 10 -9z m440 -29 c0 -15 -2 -15 -10 -2 -13 20 -13 33 0 25 6 -3 10 -14 10
-23z m-217 -13 c-8 -16 -17 -28 -19 -26 -7 6 18 57 27 57 4 0 1 -14 -8 -31z
m720 11 c-3 -12 -8 -19 -11 -16 -5 6 5 36 12 36 2 0 2 -9 -1 -20z m122 11 c3
-6 -4 -15 -15 -21 -20 -11 -21 -10 -10 9 12 23 16 25 25 12z m-1175 -34 c0
-15 -3 -18 -11 -10 -6 6 -19 9 -28 7 -9 -3 -6 1 7 8 12 8 19 18 15 23 -4 4 -2
5 5 1 6 -4 12 -17 12 -29z m533 -10 c9 -11 17 -22 17 -25 0 -3 -8 2 -17 10
-10 8 -33 15 -51 16 -19 2 -41 9 -50 18 -14 14 -11 15 34 8 29 -4 56 -15 67
-27z m91 25 c3 -5 -1 -9 -9 -9 -8 0 -12 4 -9 9 3 4 7 8 9 8 2 0 6 -4 9 -8z
m1021 -2 c3 -5 -3 -10 -14 -10 -13 0 -21 -7 -22 -17 0 -12 -2 -13 -6 -5 -5 13
14 42 28 42 4 0 11 -4 14 -10z m-1268 -11 c-9 -6 -15 -14 -12 -20 4 -5 1 -9
-4 -9 -6 0 -11 4 -11 8 0 12 22 32 35 32 5 0 2 -5 -8 -11z m401 -14 c-3 -3 -9
2 -12 12 -6 14 -5 15 5 6 7 -7 10 -15 7 -18z m-96 8 c-12 -2 -20 -9 -17 -14 4
-5 1 -9 -4 -9 -12 0 -14 13 -4 23 3 4 16 6 27 6 19 -2 19 -2 -2 -6z m68 -3 c0
-5 -4 -10 -10 -10 -5 0 -10 5 -10 10 0 6 5 10 10 10 6 0 10 -4 10 -10z m-338
-23 c-24 -11 -38 -5 -28 11 3 6 16 8 28 4 l22 -5 -22 -10z m522 3 c-21 -8 -37
-3 -29 10 3 4 15 6 27 2 21 -5 21 -6 2 -12z m706 -24 c0 -3 -4 -8 -10 -11 -5
-3 -10 -1 -10 4 0 6 5 11 10 11 6 0 10 -2 10 -4z m-1554 -39 c8 3 14 0 14 -7
0 -6 -4 -9 -9 -6 -5 3 -14 -1 -21 -9 -11 -13 -10 -14 4 -9 9 3 16 1 16 -5 0
-6 -9 -11 -20 -11 -14 0 -20 7 -20 23 0 25 12 45 18 28 2 -5 10 -7 18 -4z
m1474 -11 c0 -9 -9 -12 -25 -8 -14 2 -22 8 -19 13 3 5 10 7 15 4 5 -4 9 -1 9
5 0 6 5 8 10 5 6 -3 10 -12 10 -19z m-1425 4 c3 -5 -1 -10 -10 -10 -9 0 -13 5
-10 10 3 6 8 10 10 10 2 0 7 -4 10 -10z m55 -5 c0 -2 -7 -5 -15 -9 -9 -3 -15
0 -15 9 0 9 6 12 15 9 8 -4 15 -7 15 -9z m977 1 c-3 -8 -3 -17 1 -20 3 -4 7
-13 8 -21 2 -11 -8 -15 -37 -15 -41 0 -49 9 -24 30 12 10 15 9 15 -4 0 -14 2
-15 14 -4 8 7 14 15 14 18 -1 16 3 30 8 30 3 0 4 -6 1 -14z m168 4 c3 -5 1
-10 -4 -10 -6 0 -11 5 -11 10 0 6 2 10 4 10 3 0 8 -4 11 -10z m148 3 c6 16 38
-24 32 -40 -2 -6 1 -13 7 -15 6 -2 -5 -4 -25 -4 -20 0 -33 4 -31 8 3 4 11 8
19 8 8 0 16 4 19 9 3 4 -18 6 -47 4 -33 -2 -47 0 -38 6 7 5 11 13 7 19 -4 7 3
8 23 2 21 -6 31 -5 34 3z m153 -2 c-3 -5 1 -12 10 -15 20 -8 12 -19 -16 -23
-15 -2 -20 3 -20 22 0 16 6 25 16 25 8 0 13 -4 10 -9z m-546 -11 c0 -5 -2 -10
-4 -10 -3 0 -8 5 -11 10 -3 6 -1 10 4 10 6 0 11 -4 11 -10z m299 7 c-2 -1 -12
-9 -22 -16 -15 -12 -17 -12 -11 3 3 9 13 16 22 16 8 0 13 -1 11 -3z m-935 -29
c-4 -6 1 -6 14 1 27 14 32 14 26 -3 -7 -19 -43 -27 -59 -13 -8 8 -9 15 -1 23
13 14 29 7 20 -8z m249 8 c4 -10 0 -12 -15 -8 -15 4 -17 7 -6 13 17 11 15 11
21 -5z m547 -17 c0 -11 -4 -17 -10 -14 -5 3 -10 13 -10 21 0 8 5 14 10 14 6 0
10 -9 10 -21z m-167 -5 c-1 -5 -11 -10 -23 -12 -14 -2 -18 1 -14 11 6 16 40
17 37 1z m477 6 c0 -5 -2 -10 -4 -10 -3 0 -8 5 -11 10 -3 6 -1 10 4 10 6 0 11
-4 11 -10z m-1295 -10 c3 -5 1 -10 -4 -10 -6 0 -11 5 -11 10 0 6 2 10 4 10 3
0 8 -4 11 -10z m430 0 c3 -5 -1 -10 -9 -10 -9 0 -16 5 -16 10 0 6 4 10 9 10 6
0 13 -4 16 -10z m525 -6 c0 -2 -7 -4 -15 -4 -8 0 -15 4 -15 10 0 5 7 7 15 4 8
-4 15 -8 15 -10z m140 6 c21 -7 20 -8 -12 -7 -21 1 -38 5 -38 10 0 9 17 8 50
-3z m-1363 -52 c-3 -8 -6 -5 -6 6 -1 11 2 17 5 13 3 -3 4 -12 1 -19z m537 -22
c-3 -8 -14 -11 -32 -8 l-27 6 25 7 c37 11 40 10 34 -5z m269 1 c20 4 20 3 4
-7 -10 -7 -27 -10 -37 -7 -11 3 -26 -3 -36 -14 -18 -20 -39 -16 -30 7 4 9 -2
14 -17 15 -21 1 -20 1 3 8 14 4 40 4 58 0 18 -4 42 -5 55 -2z m646 -16 c0 -12
-2 -12 -6 -2 -5 11 -7 11 -14 0 -8 -12 -11 -12 -18 1 -6 8 -13 11 -18 7 -4 -5
-3 -11 3 -15 28 -19 16 -72 -17 -72 -17 0 -9 17 13 27 15 6 18 12 10 17 -7 4
-12 2 -12 -3 0 -6 -9 -11 -20 -11 -21 0 -27 15 -9 25 5 4 8 12 6 18 -5 16 33
34 61 29 12 -3 22 -11 21 -21z m-1074 -1 c0 -11 -9 -14 -33 -12 -19 1 -31 -2
-28 -7 4 -5 2 -12 -4 -16 -11 -7 -12 0 -4 33 5 19 12 23 38 20 20 -2 31 -9 31
-18z m515 10 c0 -5 -4 -10 -10 -10 -5 0 -10 5 -10 10 0 6 5 10 10 10 6 0 10
-4 10 -10z m267 4 c-11 -11 -97 -15 -97 -4 0 5 23 10 52 10 28 0 48 -3 45 -6z
m363 -9 c0 -8 -5 -15 -11 -15 -5 0 -8 4 -4 9 3 5 -3 12 -12 14 -14 4 -13 5 5
6 13 1 22 -5 22 -14z m-1330 -11 c0 -2 -7 -4 -15 -4 -8 0 -15 4 -15 10 0 5 7
7 15 4 8 -4 15 -8 15 -10z m267 0 c-3 -3 -12 -4 -19 -1 -8 3 -5 6 6 6 11 1 17
-2 13 -5z m679 -21 c-6 -15 7 -10 36 14 15 13 16 13 11 -6 -6 -25 24 -41 39
-20 6 10 7 6 2 -11 -9 -35 -12 -36 -28 -14 -8 10 -18 15 -22 11 -5 -4 -2 -12
6 -17 8 -6 12 -10 9 -10 -4 0 -3 -16 1 -35 6 -28 5 -35 -7 -35 -9 0 -13 8 -11
22 2 11 -2 23 -8 25 -7 2 -10 -6 -7 -22 3 -15 1 -25 -6 -25 -12 0 -14 11 -11
47 1 16 -6 24 -24 29 -14 3 -26 11 -26 16 0 6 -6 5 -15 -2 -12 -10 -15 -10
-15 3 0 25 11 47 21 41 5 -3 7 -10 4 -15 -4 -5 -1 -9 4 -9 6 0 11 5 11 11 0 5
5 7 12 3 7 -5 9 -2 5 9 -4 11 -2 14 9 10 8 -3 13 -12 10 -20z m-1049 -5 c-3
-8 -6 -5 -6 6 -1 11 2 17 5 13 3 -3 4 -12 1 -19z m603 17 c0 0 -9 -8 -20 -18
-19 -16 -20 -16 -20 2 0 14 6 19 20 18 11 -1 20 -2 20 -2z m798 -37 c-2 -24
-9 -49 -16 -56 -7 -8 -9 -19 -5 -25 3 -7 -5 -1 -19 11 -21 19 -25 29 -19 50 5
15 6 34 4 42 -3 11 -1 10 10 -2 20 -25 41 -23 34 2 -3 11 -1 20 4 20 6 0 9
-19 7 -42z m-1528 16 c0 -8 -4 -12 -10 -9 -5 3 -10 10 -10 16 0 5 5 9 10 9 6
0 10 -7 10 -16z m189 -9 c0 -11 -3 -14 -6 -7 -2 6 -11 12 -19 12 -8 0 -14 4
-14 8 0 4 9 8 20 8 14 0 20 -7 19 -21z m128 3 c-3 -8 -6 -5 -6 6 -1 11 2 17 5
13 3 -3 4 -12 1 -19z m-87 -20 c0 -5 -7 -8 -15 -8 -15 0 -20 21 -8 33 7 7 23
-11 23 -25z m-190 18 c0 -3 -4 -8 -10 -11 -5 -3 -10 -1 -10 4 0 6 5 11 10 11
6 0 10 -2 10 -4z m100 -10 c0 -3 -4 -8 -10 -11 -5 -3 -10 -1 -10 4 0 6 5 11
10 11 6 0 10 -2 10 -4z m907 -18 c-3 -8 -6 -5 -6 6 -1 11 2 17 5 13 3 -3 4
-12 1 -19z m-699 0 c7 -7 12 -9 12 -5 0 4 9 3 19 -3 19 -9 23 -49 5 -41 -5 1
-8 7 -6 12 1 6 -7 5 -18 -1 -17 -9 -20 -8 -17 12 2 20 -2 23 -28 20 -23 -2
-27 -1 -15 7 20 14 33 14 48 -1z m-130 -12 c3 -3 -4 -9 -14 -13 -10 -3 -22
-11 -25 -16 -3 -5 -9 -1 -12 8 -4 9 -3 13 3 10 6 -3 10 -2 10 4 0 5 -6 12 -12
15 -7 3 0 3 16 1 16 -2 31 -6 34 -9z m1080 -4 c2 -7 -3 -12 -12 -12 -9 0 -16
7 -16 16 0 17 22 14 28 -4z m-44 -16 c-3 -8 -1 -17 5 -21 13 -8 14 -25 2 -25
-12 0 -24 37 -16 50 9 15 15 12 9 -4z m163 -8 c-3 -8 -6 -5 -6 6 -1 11 2 17 5
13 3 -3 4 -12 1 -19z m253 12 c0 -5 -5 -10 -11 -10 -5 0 -7 5 -4 10 3 6 8 10
11 10 2 0 4 -4 4 -10z m-1660 -25 c-7 -9 -15 -13 -17 -11 -6 6 20 36 26 30 2
-2 -2 -10 -9 -19z m430 10 c0 -1 -6 -8 -14 -15 -12 -9 -15 -8 -13 8 0 12 6 18
14 15 7 -3 13 -6 13 -8z m656 0 c-8 -8 -20 -15 -26 -15 -6 0 -8 -4 -5 -10 4
-6 -5 -9 -19 -8 -15 1 -26 3 -26 5 0 12 49 43 68 43 21 0 22 -2 8 -15z m-951
-4 c3 -5 1 -12 -5 -16 -5 -3 -10 1 -10 9 0 18 6 21 15 7z m675 -36 c0 -5 -5
-3 -10 5 -5 8 -10 20 -10 25 0 6 5 3 10 -5 5 -8 10 -19 10 -25z m634 20 c-10
-8 -23 -15 -28 -15 -6 0 -1 7 10 15 10 8 23 15 28 15 6 0 1 -7 -10 -15z m92
-23 c-10 -11 -16 -12 -16 -4 0 7 6 12 13 13 8 0 8 2 -2 6 -11 5 -11 7 0 14 21
12 24 -10 5 -29z m-836 9 c0 -6 -4 -13 -10 -16 -5 -3 -10 1 -10 9 0 9 5 16 10
16 6 0 10 -4 10 -9z m-680 -30 c0 -3 -5 -13 -11 -21 -9 -13 -10 -13 -6 1 4 13
1 15 -16 11 -19 -5 -20 -3 -9 11 12 14 42 14 42 -2z m740 -2 c0 -5 -4 -9 -10
-9 -5 0 -10 7 -10 16 0 8 5 12 10 9 6 -3 10 -10 10 -16z m278 -3 c3 -12 -1
-17 -10 -14 -7 3 -15 13 -16 22 -3 12 1 17 10 14 7 -3 15 -13 16 -22z m376 3
c-6 -11 -24 -2 -24 11 0 5 7 7 15 4 8 -4 12 -10 9 -15z m86 11 c0 -5 -4 -10
-10 -10 -5 0 -10 5 -10 10 0 6 5 10 10 10 6 0 10 -4 10 -10z m-802 -30 c-7
-10 -14 -18 -15 -16 -6 6 9 36 18 36 5 0 4 -9 -3 -20z m162 10 c0 -5 -5 -10
-11 -10 -5 0 -7 5 -4 10 3 6 8 10 11 10 2 0 4 -4 4 -10z m-260 -10 c0 -5 -4
-10 -10 -10 -5 0 -10 5 -10 10 0 6 5 10 10 10 6 0 10 -4 10 -10z m474 -5 c-4
-8 -11 -15 -16 -15 -6 0 -5 6 2 15 7 8 14 15 16 15 2 0 1 -7 -2 -15z m-346
-40 c-9 -9 -30 14 -23 25 6 9 10 8 17 -4 6 -10 8 -19 6 -21z m96 24 c-3 -6 0
-15 7 -20 10 -6 8 -9 -8 -9 -13 0 -23 2 -23 4 0 14 14 36 22 36 5 0 6 -5 2
-11z m126 7 c0 -3 -4 -8 -10 -11 -5 -3 -10 -1 -10 4 0 6 5 11 10 11 6 0 10 -2
10 -4z m546 -19 c15 -9 19 -17 14 -31 -6 -17 -7 -18 -13 -3 -3 9 -13 17 -22
17 -8 0 -15 7 -15 15 0 18 8 18 36 2z m44 -42 c-7 -9 -15 -13 -17 -11 -6 6 20
36 26 30 2 -2 -2 -10 -9 -19z m-810 -4 c0 -12 -20 -25 -27 -18 -7 7 6 27 18
27 5 0 9 -4 9 -9z m505 -1 c-3 -5 -12 -10 -18 -10 -7 0 -6 4 3 10 19 12 23 12
15 0z m-365 -5 c0 -2 -9 -9 -20 -15 -15 -8 -25 -8 -38 0 -13 9 -13 10 -1 7 9
-3 22 -1 30 4 15 10 29 12 29 4z m790 -26 c0 -5 -6 -9 -13 -9 -7 0 -13 9 -13
19 0 15 3 17 13 9 7 -6 13 -14 13 -19z m-1255 1 c-10 -11 -25 -20 -34 -19 -11
0 -9 4 7 11 12 6 22 15 22 20 0 4 5 8 12 8 6 0 3 -9 -7 -20z m1078 -16 c3 -17
0 -24 -11 -24 -8 0 -13 3 -9 6 3 3 2 17 -3 30 -7 18 -6 22 4 18 8 -3 16 -16
19 -30z m-1280 11 c4 -8 2 -17 -3 -20 -6 -4 -10 3 -10 14 0 25 6 27 13 6z
m720 -16 c-17 -17 -37 -1 -22 17 8 10 15 12 23 4 7 -7 7 -13 -1 -21z m-433 17
c0 -2 -7 -7 -16 -10 -8 -3 -12 -2 -9 4 6 10 25 14 25 6z m61 -19 c-10 -9 -11
-8 -5 6 3 10 9 15 12 12 3 -3 0 -11 -7 -18z m639 -7 c0 -5 -7 -7 -15 -4 -8 4
-12 10 -9 15 6 11 24 2 24 -11z m-683 4 c-3 -3 -12 -4 -19 -1 -8 3 -5 6 6 6
11 1 17 -2 13 -5z m873 -14 c0 -5 -7 -7 -15 -4 -8 4 -12 10 -9 15 6 11 24 2
24 -11z m27 -2 c-3 -8 -6 -5 -6 6 -1 11 2 17 5 13 3 -3 4 -12 1 -19z m28 -8
c1 -11 -2 -20 -7 -20 -4 0 -8 12 -8 27 0 30 13 24 15 -7z m-495 5 c0 -9 -6
-12 -16 -8 -13 5 -13 7 -2 14 17 11 18 11 18 -6z m-170 -15 c0 -5 -7 -7 -15
-4 -8 4 -12 10 -9 15 6 11 24 2 24 -11z m480 0 c0 -5 -5 -10 -11 -10 -5 0 -7
5 -4 10 3 6 8 10 11 10 2 0 4 -4 4 -10z m300 -2 c0 -6 -3 -8 -7 -5 -3 4 -12 2
-20 -5 -11 -8 -12 -7 -7 6 7 18 34 22 34 4z m-1090 -8 c-20 -13 -33 -13 -25 0
3 6 14 10 23 10 15 0 15 -2 2 -10z m95 0 c3 -5 17 -10 31 -10 20 0 24 -5 24
-30 0 -31 -6 -36 -29 -21 -9 6 -10 11 -2 15 18 12 1 27 -21 20 -15 -4 -18 -3
-13 6 5 9 2 10 -14 5 -16 -5 -20 -3 -15 9 7 18 30 21 39 6z m-365 -42 c0 -5
-4 -8 -10 -8 -5 0 -10 5 -10 10 0 6 -3 9 -7 9 -21 -3 -33 2 -33 16 0 12 5 11
30 -3 16 -9 30 -20 30 -24z m30 30 c0 -4 -4 -8 -9 -8 -6 0 -12 4 -15 8 -3 5 1
9 9 9 8 0 15 -4 15 -9z m1450 2 c0 -5 -8 -10 -17 -10 -15 0 -16 2 -3 10 19 12
20 12 20 0z m-164 -15 c9 -8 11 -15 5 -15 -5 0 -12 4 -15 9 -3 4 -18 7 -33 5
-24 -4 -25 -3 -8 5 28 13 34 13 51 -4z m-1006 -5 c0 -5 -5 -10 -11 -10 -5 0
-7 5 -4 10 3 6 8 10 11 10 2 0 4 -4 4 -10z m190 -12 c0 -19 -2 -20 -10 -8 -13
19 -13 30 0 30 6 0 10 -10 10 -22z m81 2 c5 0 9 -4 9 -9 0 -13 -28 -7 -43 9
-10 10 -9 12 6 6 10 -3 23 -6 28 -6z m614 -11 c-4 -5 -14 -8 -23 -8 -15 1 -15
2 1 6 9 2 14 9 11 15 -4 7 -2 8 5 4 6 -4 9 -12 6 -17z m165 11 c0 -5 -4 -10
-10 -10 -5 0 -10 5 -10 10 0 6 5 10 10 10 6 0 10 -4 10 -10z m-1255 -10 c3 -5
1 -10 -4 -10 -6 0 -11 5 -11 10 0 6 2 10 4 10 3 0 8 -4 11 -10z m567 -12 c-7
-7 -12 -8 -12 -2 0 14 12 26 19 19 2 -3 -1 -11 -7 -17z m73 12 c-3 -5 -13 -10
-21 -10 -8 0 -12 5 -9 10 3 6 13 10 21 10 8 0 12 -4 9 -10z m-485 -80 c0 -4
-8 -7 -17 -6 -11 0 -17 -6 -17 -16 2 -17 0 -17 -27 -1 -25 15 -27 18 -12 24
27 9 73 9 73 -1z m30 6 c0 -3 -4 -8 -10 -11 -5 -3 -10 -1 -10 4 0 6 5 11 10
11 6 0 10 -2 10 -4z m275 -7 c-4 -6 -13 -8 -21 -5 -17 6 -18 -8 -4 -35 9 -16
7 -19 -14 -19 -14 0 -28 5 -31 10 -3 6 1 10 10 10 9 0 13 5 10 10 -4 6 -1 17
5 25 14 17 55 21 45 4z m315 7 c0 -3 -4 -8 -10 -11 -5 -3 -10 -1 -10 4 0 6 5
11 10 11 6 0 10 -2 10 -4z m472 -18 c-7 -7 -12 -8 -12 -2 0 14 12 26 19 19 2
-3 -1 -11 -7 -17z m-1512 -4 c0 -8 -4 -12 -10 -9 -5 3 -10 10 -10 16 0 5 5 9
10 9 6 0 10 -7 10 -16z m313 -9 c-5 -13 -23 -22 -23 -11 0 15 14 35 21 31 4
-3 6 -12 2 -20z m-156 -17 c-3 -8 -6 -5 -6 6 -1 11 2 17 5 13 3 -3 4 -12 1
-19z m33 12 c0 -5 -2 -10 -4 -10 -3 0 -8 5 -11 10 -3 6 -1 10 4 10 6 0 11 -4
11 -10z m78 -9 c-7 -11 -16 -17 -20 -14 -10 5 10 33 23 33 5 0 4 -9 -3 -19z
m582 -11 c0 -5 -5 -10 -11 -10 -5 0 -7 5 -4 10 3 6 8 10 11 10 2 0 4 -4 4 -10z
m545 0 c3 -6 -4 -10 -17 -10 -18 0 -20 2 -8 10 19 12 18 12 25 0z m-1395 -16
c0 -2 -7 -4 -15 -4 -8 0 -15 4 -15 10 0 5 7 7 15 4 8 -4 15 -8 15 -10z m583 9
c-7 -2 -21 -2 -30 0 -10 3 -4 5 12 5 17 0 24 -2 18 -5z m327 3 c0 -2 -11 -6
-25 -8 -13 -3 -22 -1 -19 3 5 9 44 13 44 5z m253 -3 c-7 -2 -21 -2 -30 0 -10
3 -4 5 12 5 17 0 24 -2 18 -5z m274 1 c-3 -3 -12 -4 -19 -1 -8 3 -5 6 6 6 11
1 17 -2 13 -5z m93 2 c0 -2 -15 -6 -34 -8 -19 -2 -32 0 -30 4 5 8 64 12 64 4z
m71 -21 c5 4 6 -1 3 -9 -4 -10 -1 -16 7 -16 10 0 10 -3 2 -11 -6 -6 -9 -17 -7
-24 3 -7 1 -16 -5 -20 -12 -7 -14 4 -11 48 1 15 -4 27 -10 27 -6 0 -8 5 -4 12
6 9 9 9 12 0 2 -7 8 -10 13 -7z m-1603 -65 c1 -16 -1 -30 -6 -30 -4 0 -7 12
-7 28 1 15 -6 36 -14 47 -16 19 -15 19 4 3 12 -10 22 -31 23 -48z m306 14 c4
-9 4 -19 1 -22 -3 -3 -5 0 -5 6 0 7 -7 12 -15 12 -8 0 -12 -6 -9 -13 3 -8 -2
-14 -11 -14 -18 0 -20 33 -2 40 23 10 35 7 41 -9z m46 11 c0 -2 -7 -8 -15 -15
-12 -10 -15 -10 -15 2 0 8 7 15 15 15 8 0 15 -1 15 -2z m385 -5 c3 -5 2 -10
-4 -10 -5 0 -13 5 -16 10 -3 6 -2 10 4 10 5 0 13 -4 16 -10z m260 -1 c11 -16
1 -19 -13 -3 -7 8 -8 14 -3 14 5 0 13 -5 16 -11z m238 -36 c-6 -15 -23 -17
-23 -3 0 6 5 10 11 10 5 0 7 5 4 11 -4 6 -14 8 -24 5 -11 -4 -10 -2 4 9 18 14
20 14 26 -2 3 -10 4 -24 2 -30z m139 26 c-14 -13 -18 -13 -20 -2 -2 7 -8 10
-14 7 -6 -4 -9 -3 -5 2 3 5 16 9 30 9 23 0 24 -1 9 -16z m-492 1 c0 -5 -4 -10
-10 -10 -5 0 -10 5 -10 10 0 6 5 10 10 10 6 0 10 -4 10 -10z m170 -4 c0 -7 -9
-16 -19 -19 -17 -4 -18 -2 -8 14 14 22 27 25 27 5z m450 -7 c0 -5 -5 -9 -11
-9 -5 0 -7 -5 -3 -12 4 -7 3 -8 -4 -4 -6 4 -24 0 -39 -7 -31 -16 -50 -6 -50
26 0 22 15 22 19 0 3 -15 5 -15 18 -1 27 26 70 31 70 7z m-1533 -25 c-9 -9
-28 6 -21 18 4 6 10 6 17 -1 6 -6 8 -13 4 -17z m423 18 c0 -5 -7 -9 -15 -9 -8
0 -12 4 -9 9 3 4 9 8 15 8 5 0 9 -4 9 -8z m1127 -14 c-3 -8 -6 -5 -6 6 -1 11
2 17 5 13 3 -3 4 -12 1 -19z m-957 2 c8 -5 11 -10 5 -10 -5 0 -17 5 -25 10 -8
5 -10 10 -5 10 6 0 17 -5 25 -10z m204 -5 c-4 -8 -8 -15 -10 -15 -2 0 -4 7 -4
15 0 8 4 15 10 15 5 0 7 -7 4 -15z m-589 -5 c-3 -5 -2 -10 4 -10 5 0 9 -9 8
-19 0 -11 -6 -17 -14 -14 -14 5 -18 35 -6 46 10 10 15 8 8 -3z m555 -13 c11
-5 9 -6 -4 -4 -11 1 -21 9 -23 17 -3 10 -2 11 4 4 4 -6 15 -14 23 -17z m341
-12 c5 4 9 -5 9 -19 0 -14 5 -26 10 -26 6 0 10 -5 10 -10 0 -7 -6 -7 -20 0
-18 10 -24 7 -21 -12 0 -5 -2 -8 -6 -7 -5 1 -19 -2 -32 -7 -23 -7 -24 -8 -5
-15 18 -7 17 -8 -3 -8 -13 -1 -23 4 -23 10 0 5 -4 8 -8 5 -5 -3 -9 13 -9 35 0
22 4 40 11 40 6 1 22 2 36 3 14 1 25 7 26 14 3 24 6 27 11 9 2 -9 9 -15 14
-12z m280 9 c12 -14 11 -16 -5 -13 -11 2 -21 10 -24 17 -5 17 13 15 29 -4z
m-1351 2 c0 -2 3 -13 7 -23 7 -17 6 -17 -12 1 -11 11 -21 14 -23 8 -2 -6 -10
-8 -18 -5 -25 9 -15 23 16 23 17 0 30 -2 30 -4z m440 -17 c15 -27 8 -33 -39
-34 -27 -1 -37 3 -34 11 3 7 11 10 19 7 8 -3 22 -2 32 2 16 6 16 7 -2 21 -17
12 -17 14 -3 14 9 0 21 -9 27 -21z m147 4 c2 -6 -7 -10 -21 -9 -18 1 -22 4
-14 14 12 14 30 12 35 -5z m86 4 c3 -8 2 -20 -3 -26 -5 -9 -7 -4 -7 13 0 29 2
32 10 13z m569 -8 c-19 -18 -34 -16 -26 4 2 7 13 13 24 13 18 0 18 -1 2 -17z
m-1135 -21 c-8 -5 -5 -10 11 -14 12 -4 22 -10 22 -15 0 -16 -16 -10 -38 14
-17 18 -19 26 -10 35 9 9 14 9 19 0 5 -7 3 -16 -4 -20z m758 22 c3 -6 -1 -7
-9 -4 -18 7 -21 14 -7 14 6 0 13 -4 16 -10z m588 -7 c-12 -36 -43 -59 -43 -33
0 6 7 10 15 10 8 0 14 3 14 8 -3 18 2 32 11 32 5 0 7 -8 3 -17z m-1454 -34 c8
-15 9 -19 1 -14 -7 4 -16 1 -21 -6 -7 -11 -9 -10 -9 4 0 9 -5 16 -11 15 -6 -2
-13 2 -15 7 -8 21 41 15 55 -6z m555 -10 c25 -29 25 -32 10 -44 -10 -6 -14
-17 -10 -24 5 -7 2 -10 -6 -9 -8 2 -12 -5 -10 -21 2 -15 0 -21 -7 -17 -6 4
-11 14 -11 22 0 19 -16 18 -24 -3 -4 -10 2 -25 15 -39 20 -21 20 -24 6 -30 -9
-3 -15 -10 -12 -14 3 -5 -9 -5 -27 1 -18 5 -40 6 -49 4 -10 -3 -20 -1 -24 5
-4 6 4 10 19 10 45 0 56 10 56 51 0 29 4 39 16 39 10 0 14 7 12 23 -2 16 -10
22 -30 22 -15 1 -24 -3 -22 -7 3 -4 1 -8 -5 -8 -19 0 -23 21 -6 40 15 16 19
17 43 4 15 -8 33 -14 40 -14 18 0 15 17 -5 29 -10 6 -13 11 -6 11 6 0 23 -14
37 -31z m246 21 c0 -5 -5 -10 -11 -10 -5 0 -7 5 -4 10 3 6 8 10 11 10 2 0 4
-4 4 -10z m60 0 c0 -5 -5 -10 -11 -10 -5 0 -7 5 -4 10 3 6 8 10 11 10 2 0 4
-4 4 -10z m328 5 c-9 -9 -68 -13 -62 -4 3 5 19 9 36 9 17 0 29 -2 26 -5z m192
-5 c0 -5 -2 -10 -4 -10 -3 0 -8 5 -11 10 -3 6 -1 10 4 10 6 0 11 -4 11 -10z
m-667 -25 c4 -8 2 -17 -2 -20 -5 -2 -11 4 -14 15 -6 23 8 27 16 5z m-30 -9 c3
-8 3 -16 0 -19 -7 -8 -32 16 -26 26 7 11 20 8 26 -7z m497 5 c0 -6 -4 -13 -10
-16 -5 -3 -10 1 -10 9 0 9 5 16 10 16 6 0 10 -4 10 -9z m336 -18 c-10 -10 -19
5 -10 18 6 11 8 11 12 0 2 -7 1 -15 -2 -18z m120 12 c-3 -8 2 -19 12 -24 16
-10 16 -10 0 -11 -9 0 -19 -6 -21 -12 -3 -7 -6 -3 -6 10 -1 23 -15 30 -26 12
-4 -6 -11 -8 -16 -4 -16 9 1 24 27 24 14 0 22 4 19 10 -3 6 -1 10 5 10 7 0 10
-7 6 -15z m-1678 -20 c-3 -3 -9 2 -12 12 -6 14 -5 15 5 6 7 -7 10 -15 7 -18z
m206 1 c-5 -14 -9 -15 -15 -5 -5 8 -3 17 4 21 15 9 19 4 11 -16z m1216 -19 c0
-19 -1 -20 -20 -2 -11 10 -20 21 -20 26 0 4 9 5 20 2 12 -3 20 -14 20 -26z
m-1265 5 c-3 -3 -11 0 -18 7 -9 10 -8 11 6 5 10 -3 15 -9 12 -12z m675 8 c0
-5 -5 -10 -11 -10 -5 0 -7 5 -4 10 3 6 8 10 11 10 2 0 4 -4 4 -10z m-197 -44
c-3 -4 -9 -2 -14 5 -13 22 -11 31 5 17 8 -7 12 -17 9 -22z m-467 -7 c-6 -31
-6 -32 29 -26 30 5 35 3 35 -14 0 -10 -4 -19 -10 -19 -5 0 -10 -5 -10 -11 0
-5 4 -7 10 -4 6 4 7 -1 3 -11 -4 -12 -8 -14 -11 -6 -3 10 -7 10 -18 1 -8 -6
-11 -15 -8 -20 3 -5 -2 -9 -10 -9 -9 0 -16 -6 -17 -12 0 -9 -2 -9 -6 1 -5 11
-7 11 -14 0 -6 -9 -9 -10 -9 -2 0 6 4 14 9 17 5 3 7 14 4 24 -3 12 1 19 11 19
12 0 14 -6 10 -20 -4 -13 -2 -17 5 -13 16 10 14 32 -5 51 -12 12 -20 13 -29 5
-11 -9 -12 -7 -8 10 3 12 12 24 19 27 8 3 11 9 8 14 -3 5 -2 14 1 19 12 20 17
10 11 -21z m1296 19 c18 4 19 3 9 -17 -10 -17 -16 -19 -31 -11 -13 7 -17 16
-13 27 4 9 8 12 10 6 2 -6 13 -8 25 -5z m55 0 c-2 -7 0 -23 4 -35 6 -17 5 -23
-5 -23 -15 0 -26 21 -26 51 0 11 7 19 16 19 9 0 14 -6 11 -12z m-581 -48 c-1
-27 -5 -50 -10 -50 -4 0 -6 6 -3 14 3 8 -1 17 -9 20 -19 7 -18 31 2 50 8 9 17
16 18 16 2 0 2 -22 2 -50z m-126 30 c0 -5 -5 -10 -11 -10 -5 0 -7 5 -4 10 3 6
8 10 11 10 2 0 4 -4 4 -10z m-769 -18 c-7 -2 -18 1 -23 6 -8 8 -4 9 13 5 13
-4 18 -8 10 -11z m994 8 c3 -5 2 -10 -4 -10 -5 0 -13 5 -16 10 -3 6 -2 10 4
10 5 0 13 -4 16 -10z m-301 -15 c-7 -17 -34 -21 -34 -4 0 5 4 8 9 4 5 -3 12
-1 16 5 9 15 15 12 9 -5z m426 -10 c0 -8 -4 -15 -10 -15 -5 0 -7 7 -4 15 4 8
8 15 10 15 2 0 4 -7 4 -15z m490 0 c0 -2 -6 -5 -13 -8 -8 -3 -14 1 -14 8 0 7
6 11 14 8 7 -3 13 -6 13 -8z m-530 -5 c-13 -8 -13 -11 -1 -19 7 -5 10 -14 7
-20 -12 -19 -26 -12 -26 12 0 26 7 37 24 37 6 0 4 -5 -4 -10z m-44 -7 c-11
-11 -48 -14 -41 -3 3 5 16 10 27 10 12 0 18 -3 14 -7z m465 -12 c-17 -13 -20
-20 -12 -26 7 -4 10 -13 7 -21 -3 -7 2 -20 10 -29 14 -13 13 -15 -6 -15 -12 0
-18 5 -15 10 4 6 -7 10 -24 10 -25 0 -31 4 -31 21 0 12 5 19 13 16 6 -2 11
-10 10 -16 -2 -6 4 -11 12 -11 8 0 15 7 15 15 0 8 -4 15 -10 15 -18 0 -10 15
18 32 36 23 43 22 13 -1z m-1531 1 c0 -5 -7 -9 -15 -9 -8 0 -15 4 -15 9 0 4 7
8 15 8 8 0 15 -4 15 -8z m785 -64 c3 -12 10 -25 16 -29 7 -4 3 -10 -12 -14
-13 -4 -28 -13 -32 -19 -6 -7 -7 -5 -4 6 7 22 -3 30 -20 16 -14 -11 -28 -4
-28 15 -1 7 3 15 8 18 5 4 4 15 -2 27 -8 16 -7 21 4 26 8 3 15 1 15 -4 0 -6 5
-10 10 -10 6 0 10 8 10 17 0 14 3 13 16 -5 8 -12 17 -32 19 -44z m-459 40
c-12 -7 -21 -7 -28 0 -6 6 0 10 18 10 23 0 24 -2 10 -10z m94 3 c0 -17 -18
-21 -24 -6 -3 9 0 15 9 15 8 0 15 -4 15 -9z m192 -17 c-3 -17 -1 -25 5 -21 6
4 13 -4 15 -16 4 -21 1 -23 -31 -22 -20 1 -41 -2 -46 -6 -7 -5 -12 3 -13 22
-3 35 1 36 28 7 14 -16 23 -19 31 -11 8 8 5 13 -11 18 -21 7 -23 32 -2 28 6
-2 9 4 6 12 -4 9 0 15 9 15 10 0 13 -8 9 -26z m778 18 c0 -14 -11 -21 -26 -15
-8 3 -11 9 -8 14 7 11 34 12 34 1z m-575 -22 c10 -11 16 -20 13 -20 -3 0 -13
9 -23 20 -10 11 -16 20 -13 20 3 0 13 -9 23 -20z m205 0 c-28 -8 -35 -6 -26 8
3 6 16 7 29 4 22 -6 22 -6 -3 -12z m530 -10 c0 -5 -5 -10 -11 -10 -5 0 -7 5
-4 10 3 6 8 10 11 10 2 0 4 -4 4 -10z m-1025 -21 c5 -6 4 -9 -4 -9 -7 0 -10
-3 -7 -8 5 -9 -58 -7 -73 3 -6 3 -11 -1 -11 -9 0 -13 -28 -36 -43 -36 -2 0 -2
12 1 26 2 14 8 21 11 16 4 -7 15 -1 26 14 17 20 26 23 55 18 19 -3 39 -10 45
-15z m857 -4 c-5 -30 -18 -33 -25 -6 -5 22 0 31 18 31 8 0 10 -10 7 -25z
m-1075 8 c-4 -3 1 -12 11 -19 16 -12 16 -13 -3 -14 -11 0 -27 5 -35 10 -13 9
-13 11 0 20 17 11 37 14 27 3z m33 3 c0 -3 -4 -8 -10 -11 -5 -3 -10 -1 -10 4
0 6 5 11 10 11 6 0 10 -2 10 -4z m800 -5 c0 -5 -7 -12 -16 -15 -14 -5 -15 -4
-4 9 14 17 20 19 20 6z m-769 -24 c-13 -13 -26 -3 -16 12 3 6 11 8 17 5 6 -4
6 -10 -1 -17z m1299 13 c0 -5 -7 -10 -16 -10 -8 0 -12 5 -9 10 3 6 10 10 16
10 5 0 9 -4 9 -10z m-242 -6 c-4 -3 0 -17 7 -31 17 -32 12 -41 -32 -60 -40
-16 -38 -17 -48 16 -6 19 -4 23 8 18 11 -4 14 -2 10 9 -6 17 24 52 46 53 8 1
12 -2 9 -5z m-1222 -16 c3 -4 -1 -5 -10 -4 -8 1 -18 5 -22 8 -3 4 1 5 10 4 8
-1 18 -5 22 -8z m300 -44 c-3 -8 -1 -14 4 -14 6 0 10 5 10 10 0 6 5 10 10 10
6 0 10 -6 10 -14 0 -10 10 -14 35 -13 19 1 35 6 35 10 0 5 7 1 16 -8 9 -9 13
-19 10 -23 -4 -3 -11 0 -15 7 -5 7 -11 9 -14 4 -6 -9 -79 -8 -104 2 -8 3 -20
2 -26 -2 -23 -15 -58 -10 -68 9 -10 18 -7 19 28 14 21 -3 30 -3 21 0 -27 8
-23 33 4 26 15 -4 19 -2 13 7 -6 10 -3 11 15 1 12 -7 19 -17 16 -26z m-291 16
c9 -15 -5 -51 -17 -44 -6 4 -5 10 3 16 11 7 11 11 2 15 -15 6 -17 23 -4 23 6
0 13 -5 16 -10z m515 6 c0 -3 -4 -8 -10 -11 -5 -3 -10 -1 -10 4 0 6 5 11 10
11 6 0 10 -2 10 -4z m190 -6 c0 -5 -5 -10 -11 -10 -5 0 -7 5 -4 10 3 6 8 10
11 10 2 0 4 -4 4 -10z m628 -22 c2 -20 -2 -28 -19 -33 -14 -5 -25 -3 -27 4 -2
6 -13 11 -25 11 -16 0 -18 -3 -8 -9 8 -5 9 -11 3 -15 -6 -3 -13 3 -17 14 -8
25 17 54 33 38 14 -14 46 -2 36 13 -4 7 -1 10 7 7 8 -2 15 -16 17 -30z m-1258
12 c0 -5 -5 -10 -11 -10 -5 0 -7 5 -4 10 3 6 8 10 11 10 2 0 4 -4 4 -10z m30
0 c0 -5 -2 -10 -4 -10 -3 0 -8 5 -11 10 -3 6 -1 10 4 10 6 0 11 -4 11 -10z
m317 -12 c-3 -8 -6 -5 -6 6 -1 11 2 17 5 13 3 -3 4 -12 1 -19z m-311 -13 c-24
-18 -42 -19 -52 -3 -4 6 -3 8 4 5 5 -4 21 -3 34 2 33 14 36 13 14 -4z m504 -5
c0 -5 -2 -10 -4 -10 -3 0 -8 5 -11 10 -3 6 -1 10 4 10 6 0 11 -4 11 -10z
m-680 -10 c13 -9 13 -10 0 -10 -8 0 -22 5 -30 10 -13 9 -13 10 0 10 8 0 22 -5
30 -10z m963 3 c-7 -2 -19 -2 -25 0 -7 3 -2 5 12 5 14 0 19 -2 13 -5z m-547
-66 c50 -2 68 -6 71 -17 3 -9 1 -11 -4 -4 -10 12 -52 13 -72 0 -10 -6 -12 -6
-7 2 4 7 3 12 -3 12 -5 0 -11 -6 -14 -12 -3 -10 -9 -10 -26 0 -11 7 -21 8 -21
3 0 -5 7 -12 16 -15 14 -5 14 -8 -1 -22 -15 -15 -17 -15 -30 2 -10 14 -10 21
-2 26 6 4 8 10 4 14 -4 4 -15 0 -24 -9 -15 -15 -15 -17 0 -23 27 -10 20 -24
-13 -24 -16 0 -30 5 -30 10 0 6 -7 10 -16 10 -8 0 -12 -4 -9 -10 3 -5 -3 -10
-13 -10 -17 0 -16 4 12 34 29 32 72 48 103 38 6 -2 42 -4 79 -5z m-342 -14 c5
-11 2 -14 -10 -9 -8 3 -24 6 -35 6 -31 0 -22 17 10 18 18 0 32 -5 35 -15z
m166 13 c0 -8 -51 -13 -56 -5 -3 5 9 9 25 9 17 0 31 -2 31 -4z m384 -11 c-4
-8 -10 -12 -15 -9 -14 8 -10 24 6 24 9 0 12 -6 9 -15z m52 0 c4 -8 10 -12 15
-9 5 3 7 10 4 15 -4 5 3 9 14 9 11 0 23 -5 26 -10 5 -8 11 -7 21 1 8 6 17 9
21 6 3 -4 -2 -9 -11 -13 -9 -3 -13 -11 -9 -18 4 -6 -1 -5 -10 2 -13 12 -18 11
-28 -6 -15 -23 -46 -18 -54 9 -4 11 -11 16 -17 13 -7 -4 -8 -2 -4 4 10 17 26
15 32 -3z m294 8 c-8 -3 -20 -10 -26 -14 -7 -5 -11 -3 -11 6 0 10 10 15 26 14
16 0 20 -3 11 -6z m153 0 c-7 -2 -19 -2 -25 0 -7 3 -2 5 12 5 14 0 19 -2 13
-5z m141 1 c9 -3 13 -11 9 -17 -3 -6 -1 -7 5 -3 6 3 15 -1 20 -10 6 -11 23
-16 55 -16 25 -1 44 -5 41 -10 -3 -4 -30 -8 -60 -8 -31 0 -53 4 -49 9 3 5 -3
12 -14 16 -11 3 -22 12 -25 20 -3 8 -10 15 -16 15 -6 0 -8 -5 -4 -12 4 -7 3
-8 -4 -4 -31 19 3 35 42 20z m106 -8 c0 -7 -9 -16 -20 -19 -12 -3 -20 0 -20 8
0 8 -8 11 -20 8 -11 -3 -20 0 -20 6 0 6 17 11 40 11 27 0 40 -4 40 -14z
m-1339 -35 c7 11 12 11 26 -3 16 -17 15 -18 -33 -18 -43 0 -50 3 -51 20 -1 11
2 18 8 15 5 -4 9 0 9 7 0 7 7 2 16 -11 13 -18 18 -20 25 -10z m143 14 c-4 -8
-11 -12 -16 -9 -6 4 -5 10 3 15 19 12 19 11 13 -6z m913 9 c-3 -3 -12 -4 -19
-1 -8 3 -5 6 6 6 11 1 17 -2 13 -5z m-607 -29 c7 -8 8 -15 2 -15 -5 0 -15 7
-22 15 -7 8 -8 15 -2 15 5 0 15 -7 22 -15z m581 0 c0 -15 -42 -18 -55 -5 -8 9
-4 10 18 4 22 -5 27 -4 21 6 -5 8 -3 11 4 9 7 -3 12 -9 12 -14z m-1192 -22 c0
-16 -3 -22 -6 -13 -3 8 -10 21 -16 28 -7 8 -5 12 7 12 11 0 16 -8 15 -27z
m1096 17 c3 -5 -1 -10 -9 -10 -9 0 -16 5 -16 10 0 6 4 10 9 10 6 0 13 -4 16
-10z m295 0 c0 -5 -5 -10 -11 -10 -5 0 -7 5 -4 10 3 6 8 10 11 10 2 0 4 -4 4
-10z m-833 -6 c-3 -3 -12 -4 -19 -1 -8 3 -5 6 6 6 11 1 17 -2 13 -5z m-408
-63 c16 -10 3 -62 -18 -69 -9 -3 -11 2 -7 15 4 12 1 25 -9 33 -27 22 3 41 34
21z m64 -13 c3 -10 2 -18 -2 -18 -3 0 -11 8 -18 18 -9 15 -8 19 2 19 8 0 16
-9 18 -19z m847 13 c0 -5 -8 -15 -17 -22 -16 -12 -17 -12 -6 2 7 9 10 19 6 22
-3 4 -1 7 5 7 7 0 12 -4 12 -9z m459 -150 c-8 -2 -7 -6 2 -12 10 -6 8 -9 -9
-9 -13 0 -21 4 -18 9 3 5 -1 12 -10 15 -9 3 -12 11 -8 18 5 8 2 9 -9 5 -31
-12 -18 8 18 27 27 15 32 22 24 33 -6 7 -23 13 -38 12 l-26 -1 25 -8 c14 -4
19 -8 13 -9 -7 -1 -12 -6 -10 -12 1 -7 -11 -15 -26 -20 -25 -7 -27 -6 -15 9
11 13 11 15 -3 10 -13 -5 -16 0 -13 28 3 38 -5 41 -41 18 -28 -18 -32 -34 -9
-34 8 0 12 -5 9 -10 -10 -16 -35 8 -35 34 0 22 5 24 68 28 15 1 30 7 35 13 4
6 10 1 13 -12 4 -13 13 -23 21 -23 9 0 13 6 10 14 -8 20 4 28 20 15 10 -9 13
-7 15 7 1 11 4 -17 5 -61 3 -54 0 -81 -8 -84z m-1123 133 c-18 -17 -26 -18
-26 -1 0 7 9 13 20 14 18 2 18 0 6 -13z m349 6 c3 -6 -1 -7 -9 -4 -18 7 -21
14 -7 14 6 0 13 -4 16 -10z m247 -15 c-2 -14 -9 -25 -14 -25 -6 0 -7 7 -4 16
3 9 6 20 6 25 0 5 4 9 9 9 4 0 6 -11 3 -25z m-642 -5 c8 -5 11 -10 5 -10 -5 0
-17 5 -25 10 -8 5 -10 10 -5 10 6 0 17 -5 25 -10z m470 -6 c0 -2 -7 -4 -15 -4
-8 0 -15 4 -15 10 0 5 7 7 15 4 8 -4 15 -8 15 -10z m84 0 c5 -14 4 -15 -9 -4
-17 14 -19 20 -6 20 5 0 12 -7 15 -16z m346 -6 c0 -4 -9 -8 -20 -8 -11 0 -20
4 -20 9 0 6 9 9 20 8 11 -1 20 -5 20 -9z m-836 -4 c9 -3 13 -10 10 -15 -8 -14
-21 -11 -28 6 -6 17 -4 18 18 9z m694 -4 c12 0 22 -6 22 -14 0 -8 6 -17 13
-20 6 -3 0 -3 -16 1 -21 4 -26 2 -22 -9 4 -9 0 -15 -10 -15 -9 0 -14 6 -11 12
6 16 -31 38 -40 24 -4 -8 -9 -7 -15 2 -10 17 10 31 36 24 11 -2 30 -5 43 -5z
m-251 -6 c-3 -3 -12 -4 -19 -1 -8 3 -5 6 6 6 11 1 17 -2 13 -5z m320 0 c-3 -3
-12 -4 -19 -1 -8 3 -5 6 6 6 11 1 17 -2 13 -5z m68 -14 c-28 -12 -37 -12 -30
0 3 6 16 10 28 9 21 0 21 -1 2 -9z m-358 -59 c-6 -9 -18 -22 -25 -30 -12 -12
-13 -11 -11 5 1 10 -1 27 -6 37 -4 10 -2 23 5 32 11 13 15 12 31 -6 16 -18 17
-25 6 -38z m-867 28 c0 -14 -17 -10 -23 5 -4 10 -1 13 9 9 7 -3 14 -9 14 -14z
m150 0 c0 -5 -4 -9 -10 -9 -5 0 -10 7 -10 16 0 8 5 12 10 9 6 -3 10 -10 10
-16z m560 11 c0 -5 -5 -10 -11 -10 -5 0 -7 5 -4 10 3 6 8 10 11 10 2 0 4 -4 4
-10z m-395 -20 c-3 -5 -12 -10 -18 -10 -7 0 -6 4 3 10 19 12 23 12 15 0z m895
-5 c0 -1 -11 -5 -24 -7 -16 -3 -23 -1 -19 7 3 10 43 10 43 0z m155 -6 c-10
-15 -25 -10 -19 6 4 8 10 12 15 9 5 -3 7 -10 4 -15z m-1226 -25 c4 3 8 -1 8
-9 0 -8 -4 -15 -8 -15 -8 0 -19 27 -18 43 1 7 3 4 6 -6 2 -9 8 -15 12 -13z
m-189 6 c0 -5 -5 -10 -11 -10 -5 0 -7 5 -4 10 3 6 8 10 11 10 2 0 4 -4 4 -10z
m1310 -15 c0 -8 -4 -15 -10 -15 -5 0 -7 7 -4 15 4 8 8 15 10 15 2 0 4 -7 4
-15z m-225 -5 c3 -5 -1 -10 -10 -10 -9 0 -13 5 -10 10 3 6 8 10 10 10 2 0 7
-4 10 -10z m-335 -10 c0 -5 -2 -10 -4 -10 -3 0 -8 5 -11 10 -3 6 -1 10 4 10 6
0 11 -4 11 -10z m180 -48 c-1 -25 -2 -26 -15 -9 -7 11 -11 25 -8 33 8 22 23 6
23 -24z m-273 -7 c0 -8 -4 -15 -9 -15 -10 0 -11 14 -1 23 9 10 10 9 10 -8z
m-396 -29 c-9 -11 -9 -15 1 -20 7 -3 1 -4 -14 -1 -16 3 -32 -1 -42 -10 -17
-17 -32 -19 -41 -5 -11 18 20 38 48 33 16 -3 27 -1 27 6 0 6 7 11 16 11 13 0
14 -3 5 -14z m599 10 c0 -3 -4 -8 -10 -11 -5 -3 -10 -1 -10 4 0 6 5 11 10 11
6 0 10 -2 10 -4z m80 -30 c0 -8 -11 -13 -26 -13 -18 0 -22 2 -13 8 11 6 9 9
-5 15 -13 5 -15 9 -5 15 16 10 49 -7 49 -25z m-300 20 c0 -11 -19 -15 -25 -6
-3 5 1 10 9 10 9 0 16 -2 16 -4z m840 -17 c0 -5 -4 -9 -10 -9 -5 0 -10 7 -10
16 0 8 5 12 10 9 6 -3 10 -10 10 -16z m-60 -14 c0 -8 -4 -15 -10 -15 -5 0 -7
7 -4 15 4 8 8 15 10 15 2 0 4 -7 4 -15z m-946 -13 c2 -4 -4 -8 -14 -8 -10 0
-16 4 -14 8 3 4 9 8 14 8 5 0 11 -4 14 -8z m644 -17 c3 -3 2 -8 -1 -12 -4 -4
-13 -1 -19 5 -7 7 -20 12 -30 12 -10 0 -18 4 -18 9 0 9 57 -2 68 -14z m-1069
-17 c-9 -16 -13 -17 -26 -7 -10 9 -11 15 -4 17 6 2 9 7 6 12 -3 4 4 6 15 3 16
-4 18 -9 9 -25z m801 13 c0 -6 -4 -12 -8 -15 -5 -3 -9 1 -9 9 0 8 4 15 9 15 4
0 8 -4 8 -9z m183 -11 c-5 -19 -23 -29 -23 -12 0 7 20 32 26 32 1 0 0 -9 -3
-20z m257 0 c0 -5 -4 -10 -9 -10 -6 0 -13 5 -16 10 -3 6 1 10 9 10 9 0 16 -4
16 -10z m-495 -19 c3 -5 1 -12 -4 -15 -5 -3 -11 1 -15 9 -6 16 9 21 19 6z
m-351 -17 c8 -22 8 -24 -7 -18 -8 3 -14 11 -14 19 0 20 13 19 21 -1z m826 -4
c0 -13 -5 -18 -15 -14 -10 4 -15 0 -15 -10 0 -12 6 -15 25 -10 23 6 25 3 25
-28 0 -36 1 -35 -52 -29 -4 1 -5 8 -2 16 4 8 1 22 -6 30 -12 15 -3 37 25 57
14 11 15 10 15 -12z m-1040 6 c0 -3 -4 -8 -10 -11 -5 -3 -10 -1 -10 4 0 6 5
11 10 11 6 0 10 -2 10 -4z m-223 -28 c-3 -8 -6 -5 -6 6 -1 11 2 17 5 13 3 -3
4 -12 1 -19z m1416 15 c-7 -2 -19 -2 -25 0 -7 3 -2 5 12 5 14 0 19 -2 13 -5z
m-588 -13 c3 -5 1 -10 -4 -10 -6 0 -11 5 -11 10 0 6 2 10 4 10 3 0 8 -4 11
-10z m185 0 c0 -5 -2 -10 -4 -10 -3 0 -8 5 -11 10 -3 6 -1 10 4 10 6 0 11 -4
11 -10z m76 -5 c-3 -20 -16 -31 -16 -13 0 13 8 28 16 28 1 0 1 -7 0 -15z m104
5 c0 -5 -2 -10 -4 -10 -3 0 -8 5 -11 10 -3 6 -1 10 4 10 6 0 11 -4 11 -10z
m-980 -4 c0 -2 -7 -6 -15 -10 -8 -3 -15 -1 -15 4 0 6 7 10 15 10 8 0 15 -2 15
-4z m540 -10 c0 -8 -7 -16 -15 -20 -13 -4 -14 -2 -5 14 13 23 20 26 20 6z
m104 -3 c-5 -16 -3 -15 10 1 9 11 19 16 23 13 8 -8 -26 -36 -44 -37 -15 0 -15
2 -7 24 8 22 25 20 18 -1z m-580 -14 c-3 -5 -10 -7 -15 -3 -5 3 -7 10 -3 15 3
5 10 7 15 3 5 -3 7 -10 3 -15z m866 17 c0 -2 -8 -10 -17 -17 -16 -13 -17 -12
-4 4 13 16 21 21 21 13z m-560 -10 c0 -2 -9 -6 -20 -9 -11 -3 -18 -1 -14 4 5
9 34 13 34 5z m-523 -21 c0 -8 -4 -12 -9 -9 -4 3 -8 9 -8 15 0 5 4 9 8 9 5 0
9 -7 9 -15z m93 11 c0 -2 -7 -7 -16 -10 -8 -3 -12 -2 -9 4 6 10 25 14 25 6z
m1237 -17 c49 -27 48 -26 18 -26 -14 0 -25 3 -25 8 0 5 -6 6 -14 3 -8 -3 -16
3 -19 15 -6 26 -6 26 40 0z m-1127 -19 c0 -5 -4 -10 -10 -10 -5 0 -10 5 -10
10 0 6 5 10 10 10 6 0 10 -4 10 -10z m157 4 c-3 -3 -12 -4 -19 -1 -8 3 -5 6 6
6 11 1 17 -2 13 -5z m197 -72 c2 -4 -4 -9 -15 -9 -11 -1 -17 2 -14 8 7 11 22
12 29 1z m136 2 c0 -8 -19 -13 -24 -6 -3 5 1 9 9 9 8 0 15 -2 15 -3z m170 -16
c0 -6 -7 -7 -16 -4 -9 3 -18 6 -20 6 -3 0 -3 4 1 10 7 11 35 2 35 -12z m470
12 c-20 -13 -33 -13 -25 0 3 6 14 10 23 10 15 0 15 -2 2 -10z m-587 -27 c-7
-3 -9 -11 -6 -20 4 -11 2 -14 -5 -9 -7 4 -12 1 -12 -8 0 -13 -4 -12 -20 4 -12
12 -25 18 -30 15 -6 -4 -10 -2 -10 4 0 19 23 24 36 7 7 -10 15 -13 18 -7 4 5
2 12 -4 16 -20 13 1 25 23 13 13 -6 17 -13 10 -15z m67 -2 c-1 -14 -2 -14 -14
1 -7 10 -17 14 -21 10 -5 -4 -5 -2 -1 5 9 16 36 5 36 -16z m-495 9 c-3 -5 0
-10 8 -10 10 0 13 -7 10 -20 -6 -23 -21 -35 -31 -25 -3 3 -1 10 7 14 10 6 9
11 -3 23 -15 15 -12 28 6 28 5 0 6 -4 3 -10z m145 -44 c-8 -8 -10 -7 -5 7 4
10 2 17 -4 17 -6 0 -11 -4 -11 -9 0 -8 -26 -18 -66 -27 -7 -1 -9 6 -6 19 5 20
6 20 13 1 7 -17 8 -16 8 5 1 13 4 22 7 18 3 -3 20 1 37 8 30 13 32 12 35 -7 2
-11 -1 -25 -8 -32z m917 29 c0 -8 -4 -15 -8 -15 -4 0 -9 7 -13 15 -3 9 0 15 8
15 7 0 13 -7 13 -15z m-187 -11 c0 -2 -9 -4 -21 -4 -11 0 -18 4 -14 10 5 8 35
3 35 -6z m17 -16 c-3 -7 -5 -2 -5 12 0 14 2 19 5 13 2 -7 2 -19 0 -25z m127
-1 c7 -5 3 -7 -9 -5 -11 1 -26 -1 -32 -5 -9 -6 -13 -2 -13 12 0 21 32 34 39
16 2 -5 9 -14 15 -18z m-1369 13 c3 -5 2 -10 -4 -10 -5 0 -13 5 -16 10 -3 6
-2 10 4 10 5 0 13 -4 16 -10z m885 -6 c0 -2 -7 -4 -15 -4 -8 0 -15 4 -15 10 0
5 7 7 15 4 8 -4 15 -8 15 -10z m550 -24 c-20 -13 -33 -13 -25 0 3 6 14 10 23
10 15 0 15 -2 2 -10z"/>
<path d="M1017 3713 c-13 -12 -7 -33 8 -33 8 0 15 -4 15 -10 0 -14 27 -13 36
2 4 6 3 8 -4 4 -13 -8 -44 22 -37 35 7 10 -8 12 -18 2z"/>
<path d="M1120 3550 c0 -5 5 -10 11 -10 5 0 7 5 4 10 -3 6 -8 10 -11 10 -2 0
-4 -4 -4 -10z"/>
<path d="M1580 3400 c16 -30 65 -53 54 -26 -3 9 -12 12 -21 9 -12 -5 -14 -3
-8 6 4 8 2 17 -6 22 -23 14 -30 10 -19 -11z"/>
<path d="M1200 2331 c0 -12 26 -32 33 -25 3 4 0 13 -8 20 -16 16 -25 18 -25 5z"/>
<path d="M675 2160 l-20 -9 20 0 c11 0 27 4 35 9 13 9 13 10 0 9 -8 0 -24 -4
-35 -9z"/>
<path d="M914 2113 c0 -10 -5 -17 -11 -15 -7 1 -13 -2 -13 -8 0 -13 6 -13 30
0 11 6 17 17 14 25 -8 21 -22 19 -20 -2z"/>
<path d="M580 1905 c0 -8 4 -15 9 -15 5 0 11 7 15 15 3 9 0 15 -9 15 -8 0 -15
-7 -15 -15z"/>
<path d="M1695 1690 c-3 -5 -1 -10 4 -10 6 0 11 5 11 10 0 6 -2 10 -4 10 -3 0
-8 -4 -11 -10z"/>
<path d="M1040 1695 c0 -8 7 -15 16 -15 14 0 14 3 4 15 -7 8 -14 15 -16 15 -2
0 -4 -7 -4 -15z"/>
<path d="M1420 1360 c0 -5 5 -10 10 -10 6 0 10 5 10 10 0 6 -4 10 -10 10 -5 0
-10 -4 -10 -10z"/>
<path d="M3046 2781 c-3 -22 -10 -51 -16 -65 -9 -24 -11 -25 -42 -12 -31 13
-117 28 -233 41 -27 3 -62 8 -77 11 -35 7 -36 -5 -2 -67 31 -56 25 -73 -31
-83 -19 -4 -40 -12 -47 -19 -7 -7 -33 -27 -58 -44 -132 -91 -203 -220 -216
-393 l-6 -85 28 35 c59 72 109 122 151 150 24 17 47 30 50 30 4 0 26 9 50 21
23 11 46 18 51 15 5 -3 9 -21 10 -41 2 -46 29 -107 81 -181 23 -32 50 -71 59
-86 9 -16 21 -28 25 -28 5 0 27 16 50 35 22 19 44 35 48 35 8 0 31 -37 35 -55
10 -49 82 -145 109 -145 8 0 22 11 33 25 11 14 24 25 30 25 6 0 12 6 15 13 3
7 17 -1 38 -24 42 -44 192 -166 227 -184 17 -10 31 -11 43 -4 26 13 60 11 94
-7 28 -14 30 -14 45 7 25 33 58 145 69 237 17 138 -9 271 -78 393 -27 48 -166
195 -241 253 -14 11 -71 61 -128 110 -57 50 -116 99 -131 109 l-28 17 -7 -39z"/>
<path d="M1827 2644 c-7 -8 12 -28 35 -36 17 -7 19 7 5 30 -9 13 -30 16 -40 6z"/>
<path d="M1850 2560 c-9 -6 -10 -10 -3 -10 6 0 15 5 18 10 8 12 4 12 -15 0z"/>
<path d="M138 2133 c7 -3 16 -2 19 1 4 3 -2 6 -13 5 -11 0 -14 -3 -6 -6z"/>
<path d="M1800 2022 c0 -7 4 -12 8 -12 13 0 11 -34 -2 -42 -8 -6 -8 -8 0 -8 7
0 22 9 35 20 16 12 19 19 10 20 -8 0 -23 7 -33 17 -11 9 -18 11 -18 5z"/>
<path d="M1840 1949 c0 -5 5 -7 10 -4 6 3 10 8 10 11 0 2 -4 4 -10 4 -5 0 -10
-5 -10 -11z"/>
<path d="M1840 1886 c0 -2 7 -9 15 -16 12 -10 15 -10 15 4 0 9 -7 16 -15 16
-8 0 -15 -2 -15 -4z"/>
<path d="M2601 1876 c-15 -18 -7 -62 23 -129 24 -53 29 -58 54 -55 20 2 27 8
25 23 -2 24 -48 153 -57 162 -12 12 -35 11 -45 -1z"/>
<path d="M1820 1860 c-8 -5 -11 -13 -6 -17 5 -4 11 -2 13 5 3 6 10 9 15 6 7
-4 8 -2 4 4 -9 14 -7 14 -26 2z"/>
<path d="M130 1786 c0 -10 8 -16 22 -16 12 0 19 1 17 3 -2 1 -12 9 -21 16 -15
12 -18 11 -18 -3z"/>
<path d="M2217 1738 c-56 -87 -72 -101 -103 -93 -16 4 -42 9 -58 12 l-28 5 36
-48 c20 -26 36 -58 36 -71 0 -13 4 -21 10 -18 37 23 290 -157 290 -206 0 -11
-4 -19 -8 -19 -5 0 -15 -12 -23 -27 -7 -16 -47 -83 -87 -151 l-73 -123 38 -35
c21 -19 47 -42 58 -52 61 -55 213 -139 338 -186 l66 -25 18 22 c47 58 144 89
307 97 4 0 7 53 6 118 -4 177 -3 190 19 202 11 5 80 12 153 16 73 3 139 7 147
10 11 3 12 26 8 115 -3 61 -8 113 -11 116 -2 3 -12 -7 -22 -22 -28 -42 -133
-117 -192 -137 -62 -20 -203 -24 -263 -8 -26 7 -45 7 -65 -1 -40 -15 -118 -12
-153 6 -16 8 -44 32 -63 54 -18 21 -68 62 -110 91 -42 28 -97 75 -123 103 -50
56 -104 163 -106 212 -1 17 -4 43 -8 58 l-6 29 -28 -44z"/>
<path d="M2492 1708 c-20 -20 -14 -41 20 -73 l32 -30 -50 -5 c-47 -5 -49 -6
-49 -35 0 -30 1 -30 67 -39 87 -11 114 -4 121 31 6 33 -7 56 -67 118 -45 48
-55 52 -74 33z"/>
<path d="M3029 1646 c-4 -4 -73 -12 -131 -15 -20 -1 -33 -37 -19 -54 14 -18
132 -12 171 8 23 12 30 22 28 38 -3 20 -36 36 -49 23z"/>
<path d="M2847 1462 c-10 -10 -17 -24 -17 -30 0 -6 26 -39 58 -73 48 -50 63
-60 80 -55 28 9 29 47 2 71 -30 27 -25 34 28 37 42 3 47 6 50 29 4 33 -14 39
-114 39 -56 0 -74 -4 -87 -18z"/>
<path d="M2657 1364 c-9 -10 2 -24 19 -24 8 0 14 7 14 15 0 15 -21 21 -33 9z"/>
<path d="M340 1220 c0 -5 5 -10 10 -10 6 0 10 5 10 10 0 6 -4 10 -10 10 -5 0
-10 -4 -10 -10z"/>
<path d="M795 1210 c-3 -5 1 -10 10 -10 9 0 13 5 10 10 -3 6 -8 10 -10 10 -2
0 -7 -4 -10 -10z"/>
<path d="M425 1200 c-3 -5 -1 -10 4 -10 6 0 11 5 11 10 0 6 -2 10 -4 10 -3 0
-8 -4 -11 -10z"/>
<path d="M1318 838 c-11 -37 -16 -43 -38 -40 -14 2 -43 12 -65 22 -71 32 -83
30 -99 -21 -4 -15 -14 -13 -86 12 -124 44 -127 43 -126 -51 l1 -55 45 -7 c51
-9 59 -10 153 -31 64 -14 68 -14 77 4 6 10 10 28 10 40 0 17 4 20 23 16 177
-41 197 -42 197 -10 0 38 13 43 68 29 29 -8 53 -14 55 -14 1 1 25 -4 54 -11
29 -7 57 -11 63 -9 11 3 -113 88 -130 88 -4 0 -47 18 -94 40 -47 22 -87 40
-90 40 -2 0 -10 -19 -18 -42z"/>
<path d="M1492 524 c-148 -29 -155 -31 -147 -57 19 -60 18 -64 -16 -81 -17 -9
-37 -16 -44 -16 -6 0 -23 -6 -39 -12 -24 -12 -27 -17 -22 -49 6 -35 5 -36 -37
-49 -47 -14 -106 -41 -113 -52 -5 -7 15 -48 27 -58 4 -3 9 -15 13 -27 10 -31
24 -29 98 14 34 20 80 45 101 55 27 14 36 23 29 31 -5 7 -12 25 -14 40 -5 28
-2 30 74 65 75 33 79 37 74 61 -4 14 -8 32 -9 39 -2 14 18 27 116 73 110 52
88 58 -91 23z"/>
</g>
</svg>
