<?xml version="1.0" encoding="UTF-8"?><svg id="b" xmlns="http://www.w3.org/2000/svg" width="285.228" height="424.688" viewBox="0 0 285.228 424.688"><defs><style>.i{fill:#f3736f;}.j{fill:#211715;}.k{fill:#fff;}.l{fill:#5394cf;}.m{fill:#211715;}.n{fill:#201614;}.o{fill:#645d5c;}</style></defs><g id="c"><g id="d"><path class="k" d="M132.757,391.864c1.017-1.568,1.762-3.311,2.195-5.129,0,0,.021-.118.052-.315,4.838.574,11.817,1.143,17.106,1.32-.123,1.287-.228,2.398-.228,2.398-3.038,1.868-6.151,3.779-9.644,4.494-3.423.701-7.203.012-9.649-2.513.057-.085.114-.17.169-.256Z"/><path class="k" d="M216.541,391.131c-.938-1.542-1.633-3.232-2.051-4.988,0,0-.047-.199-.129-.552-4.373,1.466-10.54,2.795-16.755,3.577.073.576.122.97.122.97,3.038,1.868,6.151,3.779,9.644,4.494,3.47.71,7.307-.007,9.745-2.615-.202-.289-.394-.585-.577-.886Z"/><path class="k" d="M267.371,291.419c-1.329-.467-2.643-.977-3.94-1.527.21,2.84-2.053,4.983-4.836,5.408-1.837.229-4.445-1.843-5.278-3.499-1.35-2.685-1.811-4.055-2.383-5.207-.617-1.243-2.369-5.421-3.102-6.598l-4.202-6.449c4.025-2.598,7.166-4.902,10.726-7.575,1.861,1.994,2.038,2.913,4.474,5.016,4.639,3.672,9.633,6.895,14.889,9.61,3.842,1.985,8.198,5.02,9.325,8.408.288.865.26,1.865-.178,2.664-.388.707-1.099,1.182-1.84,1.501-2.574,1.109-5.536.597-8.25-.104-1.824-.472-3.629-1.021-5.406-1.646Z"/><path class="k" d="M197.769,131.868c.89-.804,2.211-1.192,3.445-1.008s2.358.929,2.923,1.943c.399.711.528,1.522.602,2.312.27,3.116-.344,6.291-1.756,9.13-.688,1.383-1.584,2.707-2.831,3.715-.957.764-1.919,1.197-3.309.774,0,0-.182-.055-.497-.15-.305,1.2-.707,2.246-.887,2.757-.986,2.498-6.536,11.401-13.495,14.571.068.543.158,1.172.307,1.998.36,2.12.96,4.52,3.78,6.08.19.06,3.87,1.81,4.16,1.93,0,0-5.511,15.398-20.844,15.398s-19.331-16.107-19.331-16.107c.98-.46,1.94-.91,2.04-.94.98-.54,1.69-1.18,2.21-1.88,1-1.31,1.33-2.82,1.57-4.2.164-.909.256-1.577.327-2.16-3.105-1.514-5.977-3.824-8.516-6.66-3.119-3.484-5.013-7.214-6.138-10.429l-.734.198c-1.572.423-2.773-.415-3.73-1.179-1.247-1.008-2.143-2.332-2.831-3.715-1.412-2.839-2.026-6.014-1.756-9.13.074-.79.203-1.601.602-2.312.565-1.014,1.689-1.759,2.923-1.943s2.554.204,3.445,1.008c0,0,1.252-23.216,29.03-23.216s29.292,23.216,29.292,23.216Z"/><path class="o" d="M211.204,417.106c1.034.979,2.112,1.898,3.338,2.605,4.086,2.355,8.944,3.409,13.631,2.797,2.05-.267,4.102-.85,5.793-2.039s2.987-3.047,3.161-5.107c.247-2.929-1.53-5.703-3.614-7.777-5.345-5.32-11.012-10.543-15.733-16.366-2.367,3.258-6.607,4.191-10.406,3.414-3.494-.715-6.607-2.626-9.644-4.494-2.907-1.787-3.344,6.603-3.413,8.422-.109,2.88-.581,6.685,1.704,8.815,1.642,1.53,5.161,3.318,7.307,3.975,3.507,1.072,5.316,3.331,7.876,5.755Z"/><path class="o" d="M138.407,417.106c-1.034.979-2.112,1.898-3.338,2.605-4.086,2.355-8.944,3.409-13.631,2.797-2.05-.267-4.102-.85-5.793-2.039s-2.987-3.047-3.161-5.107c-.247-2.929,1.53-5.703,3.614-7.777,5.345-5.32,11.012-10.543,15.733-16.366,2.367,3.258,6.607,4.191,10.406,3.414,3.494-.715,6.607-2.626,9.644-4.494,2.907-1.787,3.344,6.603,3.413,8.422.109,2.88.581,6.685-1.704,8.815-1.642,1.53-5.161,3.318-7.307,3.975-3.507,1.072-5.316,3.331-7.876,5.755Z"/><path class="l" d="M165.633,332.727c-3.558,21.887-7.487,46.28-8.918,55.045-6.444.222-21.778-1.111-26.2-2.01-.109-16.528,4.126-83.25,5.015-107.546,0,0,.003-.441.003-1.093,6.408.05,30.239.029,35.354.029,4.552,0,28.176.022,33.937-.031,3.425,32.053,10.596,79.986,13.005,107.095-4.957,2.409-15.833,4.79-25.556,5.481-4.148-18.963-16.922-76.295-20.477-91.703h-.444c-1.206,7.077-3.383,20.364-5.719,34.732Z"/><path class="k" d="M242.491,237.67c-6.793-12.192-13.245-24.31-18.493-33.184-4.132-6.988-8.023-12.691-12.67-17.398-1.576-1.649-4.093-3.627-5.569-4.802-.689-.46-1.394-.899-2.114-1.32-3.738-2.183-8.589-4.093-13.115-5.417-2.307,3.137-9.292,7.333-20.79,7.333-10.961,0-19.779-6.513-22.21-9.056l-.223-.201c-1.862.254-3.818.311-5.58.078-2.482-.35-4.154-.809-7.096-2.196-4.05-1.909-10.875-6.273-18.465-12.31-15.403-12.253-27.931-22.803-34.943-28.652-.429-.357-1.03-.396-1.398.023-2.392,2.72-9.216,9.86-11.903,14.106-.208.328-.21.783.054,1.068,7.36,7.982,21.841,22.218,32.757,32.005,8.14,7.298,14.942,12.883,26.357,22.747,1.611,1.389,2.441,2.165,3.275,3.943,1.118,2.386,1.167,6.389,1.278,8.5.222,5.333.679,35.017.579,40.436-.054,2.939-.003,22.058.393,23.121.049.078.953.581,1.385.605,1.444.079,31.111.052,36.889.052,5.062,0,33.704.027,35.148-.052.432-.024.895-.093,1.22-.4,1.053,1.005.263-14.07.15-18.066-.083-2.952-.561-21.234-.846-33.115.418.48.675.772.675.772,5.481,8.593,24.394,37.306,32.146,46.888.547.676,1.287,1.314,2.157,1.337.754.021,1.384-.51,2.018-.919,5.013-3.232,8.65-6.004,13.408-9.586.416-.314.526-.893.245-1.332-4.87-7.61-9.879-16.328-14.716-25.008Z"/><path class="n" d="M209.789,418.52c3.251,3.044,7.248,5.048,11.654,5.788,4.224.709,9.045.535,12.837-1.668,3.83-2.225,5.858-6.643,4.324-10.917-1.499-4.176-5.237-7.092-8.308-10.104-3.86-3.786-7.681-7.619-11.103-11.813-.903-1.107-2.445-.511-3.141.405-2.923,3.845-8.508,2.89-12.263,1.078-1.209-.583-2.374-1.254-3.525-1.945-.907-.545-1.802-1.258-2.876-1.406-1.593-.219-2.865.811-3.548,2.176-1.27,2.538-1.402,5.66-1.525,8.447-.099,2.242-.302,4.559.294,6.755.622,2.291,2.145,3.801,4.084,5.06,2.217,1.438,4.604,2.206,7.006,3.225,2.445,1.037,4.211,3.127,6.089,4.92,1.862,1.778,4.695-1.047,2.828-2.828-1.661-1.586-3.233-3.28-5.148-4.571-1.836-1.237-3.985-1.692-5.956-2.64-1.556-.748-3.821-1.711-4.692-3.308-.925-1.695-.631-3.94-.543-5.789.119-2.484.045-5.074,1.059-7.362-.115.259.2-.27.223-.366-.03.123-.13.134-.195.14-.159.014-.484.03-.63.065-.2.047-.181-.308-.016.005.233.44,1.453.89,1.911,1.162,2.244,1.333,4.605,2.57,7.132,3.272,5.072,1.409,10.481.222,13.744-4.07l-3.141.405c2.537,3.11,5.293,6.026,8.125,8.866,2.785,2.793,5.848,5.411,8.439,8.385,2.108,2.418,3.226,5.776.666,8.296-2.482,2.443-6.647,2.701-9.918,2.415-4.136-.362-8.039-2.077-11.06-4.905-1.878-1.758-4.712,1.064-2.828,2.828Z"/><path class="n" d="M136.993,415.691c-2.72,2.547-6.011,4.074-9.678,4.724-3.324.589-7.401.438-10.318-1.444-1.212-.782-2.253-2.039-2.49-3.495-.266-1.629.478-3.222,1.364-4.538,1.028-1.528,2.476-2.77,3.783-4.053,1.438-1.411,2.882-2.817,4.313-4.236,3.234-3.206,6.398-6.485,9.279-10.016l-3.141-.405c2.872,3.779,7.356,5.158,11.97,4.455,2.522-.384,4.927-1.449,7.155-2.657,1.116-.605,2.197-1.268,3.282-1.927.681-.414.548-.247-.017-.229-.058.002-.542-.169-.306-.092-.033-.011-.08-.052-.079-.051.056.198.27.529.441,1.121.201.695.337,1.411.445,2.126.143.944.24,2.253.29,3.359.083,1.822.347,3.791-.06,5.588-.443,1.951-1.953,2.843-3.605,3.768-2.148,1.203-4.57,1.736-6.695,2.946-2.277,1.296-4.057,3.266-5.932,5.057-1.866,1.781.966,4.607,2.828,2.828,1.673-1.597,3.233-3.399,5.285-4.524.916-.502,1.916-.752,2.882-1.133,1.193-.471,2.361-1.009,3.485-1.627,1.904-1.049,3.928-2.332,4.923-4.34,1.02-2.059,1.072-4.406.977-6.656-.123-2.935-.146-6.075-1.097-8.882-.482-1.423-1.284-2.944-2.852-3.366-2.075-.558-4.156,1.439-5.821,2.365-4.065,2.262-10.588,4.4-14.044-.147-.696-.915-2.238-1.511-3.141-.405-2.979,3.652-6.261,7.033-9.61,10.344-1.707,1.688-3.43,3.359-5.138,5.046-1.51,1.491-3.005,3.038-3.978,4.949-2.048,4.019-1.365,8.622,2.228,11.509,3.338,2.682,8.074,3.331,12.229,2.925,5.153-.503,9.89-2.514,13.674-6.058,1.883-1.763-.95-4.588-2.828-2.828Z"/><path class="n" d="M212.562,386.675c.472,1.961,1.268,3.869,2.326,5.586.268.435.699.782,1.195.919.479.132,1.116.072,1.541-.202.893-.576,1.305-1.783.718-2.736-.478-.776-.895-1.587-1.25-2.427l.202.478c-.362-.87-.654-1.765-.875-2.682-.245-1.018-1.456-1.722-2.46-1.397-1.059.343-1.659,1.37-1.397,2.46h0Z"/><path class="n" d="M133.023,386.204c-.209.87-.487,1.72-.83,2.546l.202-.478c-.337.798-.732,1.567-1.187,2.304-.55.892-.222,2.24.718,2.736.977.516,2.15.235,2.736-.718,1.008-1.637,1.769-3.458,2.218-5.327.124-.515.069-1.079-.202-1.541-.243-.415-.718-.811-1.195-.919-.512-.117-1.087-.091-1.541.202-.43.277-.796.684-.919,1.195h0Z"/><path class="m" d="M202.937,278.216c1.534,14.126,3.372,28.219,5.206,42.309,1.885,14.486,3.814,28.967,5.531,43.473.797,6.73,1.552,13.467,2.154,20.217l.991-1.727c-3.286,1.569-6.972,2.419-10.513,3.183-4.625.998-9.314,1.678-14.033,2.025l1.929,1.468c-2.556-11.684-5.155-23.359-7.754-35.035-3.065-13.772-6.138-27.543-9.238-41.307-1.153-5.122-2.306-10.245-3.486-15.361-.196-.85-1.078-1.468-1.929-1.468h-.444c-.804,0-1.783.616-1.929,1.468-1.929,11.327-3.757,22.672-5.602,34.013-2.21,13.591-4.407,27.184-6.605,40.777-.808,4.996-1.614,9.992-2.43,14.987l1.929-1.468c-4.559.143-9.15-.209-13.691-.571-4.055-.323-8.141-.604-11.977-1.367l1.468,1.929c-.072-12.266.781-24.571,1.402-36.815.84-16.551,1.774-33.097,2.629-49.647.363-7.026.726-14.053.984-21.083.095-2.574-3.905-2.571-4,0-.519,14.128-1.355,28.246-2.114,42.362-.862,16.025-1.758,32.051-2.428,48.085-.238,5.693-.506,11.399-.472,17.098.005.825.613,1.758,1.468,1.929,4.168.829,8.477,1.14,12.706,1.483,4.651.378,9.356.745,14.026.598.802-.025,1.786-.597,1.929-1.468,1.721-10.541,3.416-21.087,5.122-31.631,2.235-13.814,4.472-27.628,6.738-41.437.914-5.572,1.829-11.143,2.777-16.709l-1.929,1.468h.444l-1.929-1.468c2.496,10.819,4.906,21.659,7.33,32.495,3.133,14.003,6.253,28.01,9.356,42.019,1.269,5.728,2.537,11.457,3.791,17.188.175.801,1.095,1.53,1.929,1.468,5.069-.373,10.127-1.095,15.096-2.168,3.904-.843,7.851-1.859,11.469-3.587.58-.277,1.048-1.086.991-1.727-1.15-12.889-2.787-25.735-4.427-38.57-1.896-14.843-3.885-29.674-5.749-44.52-.958-7.63-1.885-15.265-2.716-22.91-.117-1.074-.836-2-2-2-.991,0-2.117.919-2,2h0Z"/><path class="o" d="M136.173,119.762c1.107-11.383,7.552-18.535,13.277-22.641,5.195-3.726,11.685-5.949,19.329-5.949,3.872,0,7.744.578,11.41,1.871,1.658.585,3.268,1.31,4.813,2.158,2.12,1.163,4.459,2.74,5.511,3.655.66.573,1.628,1.515,2.266,2.159,1.583,1.6,2.996,3.376,4.188,5.298,2.845,4.586,4.315,9.905,4.552,15.312.153,3.502-.129,6.483-.595,9.208-.89-.074-1.804.145-2.55.598l-1.239.728c-.705.414-1.886.754-2.674.535-.52-.144-.933-.558-1.195-1.03-.296-.533-.427-1.141-.573-1.73-.661-4.477-2.603-8.834-5.636-12.659-.461-1.337-1.184-2.648-2.324-3.497-.921-.686-2.15-1.02-3.251-.749-1.932.945-3.951,1.773-6.033,2.488-1.516.52-3.522.906-4.63-.059-1.049-.914-.622-2.571-1.87-3.315-.845-.503-2.043-.322-3.053-.069-10.678,2.671-17.11,9.159-21.073,17.393,0,0-1.064,2.181-2.466,2.505-.963.222-2.909-.105-2.909-.105-.693-.625-1.645-.999-2.616-1.04.197,1.917-.97-5.079-.79-9.203.028-.633.072-1.254.131-1.863Z"/><path class="n" d="M179.96,165.901c.336,2.608.682,5.323,2.338,7.468.467.604.979,1.104,1.582,1.571.323.25.653.495,1.011.694.203.113.419.214.639.29.109.038-.617-.273-.343-.144.662.312,1.328.614,1.99.925.672.316,1.339.653,2.023.943.517.219.975.358,1.541.202.464-.128.967-.486,1.195-.919.453-.857.311-2.3-.718-2.736-.748-.317-1.477-.687-2.212-1.032-.454-.213-.909-.427-1.364-.637-.145-.067-.29-.134-.436-.199-.163-.072-.539-.25-.573-.243-.156.031.432.237.205.054-.142-.115-.327-.212-.482-.31-.182-.133-.172-.122.03.033-.078-.063-.156-.127-.231-.193-.213-.186-.704-.54-.787-.818.173.227.196.255.069.082-.051-.072-.1-.145-.148-.219-.094-.145-.182-.295-.264-.447-.033-.061-.172-.441-.226-.456.117.286.136.329.055.131-.03-.077-.06-.155-.088-.233-.219-.607-.367-1.236-.486-1.869-.073-.389-.141-.78-.204-1.171-.034-.206-.065-.413-.095-.62-.014-.094-.027-.188-.04-.282.041.308.047.353.019.137-.133-1.034-.824-2.053-2-2-.969.043-2.143.889-2,2h0Z"/><path class="n" d="M151.044,176.939c.527-.247,1.053-.496,1.583-.739.091-.042.182-.081.273-.124.294-.138-.448.181-.293.124.36-.132.69-.311,1.009-.521,1.094-.719,2.008-1.622,2.71-2.729,1.267-1.998,1.545-4.473,1.84-6.768.06-.47-.267-1.096-.586-1.414-.347-.347-.916-.608-1.414-.586-.517.023-1.054.193-1.414.586-.384.418-.514.856-.586,1.414-.007.053-.057.438-.009.076.047-.357-.004.02-.015.098-.033.227-.068.454-.106.68-.079.48-.162.961-.262,1.437-.098.467-.215.93-.37,1.382-.006.018-.152.413-.153.413-.019-.011.175-.371.024-.069-.125.25-.252.496-.402.732-.07.11-.145.216-.219.324-.231.335.173-.195.024-.03-.146.161-.284.326-.44.478-.08.079-.163.155-.247.23-.048.042-.363.288-.122.11.252-.187-.133.09-.148.101-.104.071-.21.139-.317.205-.18.111-.436.155.115.004-.188.051-.365.151-.544.229-.142.062-.282.126-.422.191-.51.235-1.018.474-1.527.713-.95.446-1.266,1.885-.718,2.736.63.978,1.72,1.194,2.736.718h0Z"/><path class="n" d="M199.183,133.283c.95-.794,2.644-.556,3.226.531.375.699.37,1.622.387,2.395.02.966-.031,1.939-.205,2.891-.35,1.913-1.008,3.76-2.046,5.409-.434.689-.968,1.375-1.608,1.884-.573.456-.883.595-1.563.414-2.49-.664-3.552,3.193-1.063,3.857,3.162.843,5.64-1.188,7.364-3.648,1.701-2.426,2.633-5.395,2.989-8.312.338-2.768.328-6.271-1.911-8.284-2.431-2.185-5.961-2.002-8.397.035-.829.693-.716,2.112,0,2.828.821.821,1.997.695,2.828,0h0Z"/><path class="n" d="M194.732,146.052c-.06,1.387-.485,2.732-.943,4.034-.085.242-.181.481-.26.725-.107.333.222-.41.039-.098-.156.266-.272.563-.417.837-.9,1.696-1.995,3.331-3.158,4.837-2.831,3.667-6.596,7.478-11.292,8.507-2.513.551-1.45,4.408,1.063,3.857,5.557-1.218,10.008-5.587,13.371-9.941,2.876-3.723,5.386-7.922,5.596-12.758.112-2.574-3.889-2.568-4,0h0Z"/><path class="n" d="M140.861,130.454c-2.435-2.036-5.968-2.218-8.397-.035-2.3,2.067-2.246,5.686-1.881,8.512.38,2.935,1.373,5.913,3.13,8.322,1.782,2.444,4.437,4.515,7.614,3.815,1.055-.233,1.672-1.458,1.397-2.46-.299-1.088-1.402-1.63-2.46-1.397-1.344.296-2.781-1.476-3.433-2.457-1.103-1.66-1.8-3.55-2.176-5.501-.181-.938-.247-1.891-.238-2.845.008-.831-.017-1.843.39-2.594.587-1.084,2.273-1.328,3.226-.531.828.692,2.017.812,2.828,0,.712-.712.832-2.132,0-2.828h0Z"/><path class="n" d="M138.505,145.498c1.151,5.598,3.831,10.849,7.607,15.129,3.998,4.533,9.348,8.282,15.44,9.149,1.068.152,2.148-.262,2.46-1.397.258-.938-.321-2.307-1.397-2.46-10.486-1.493-18.22-11.602-20.253-21.485-.518-2.52-4.375-1.453-3.857,1.063h0Z"/><path class="n" d="M202.889,131.148c1.457-8.956.56-18.445-4.436-26.227-4.669-7.273-12.247-12.596-20.63-14.672-8.467-2.097-17.81-1.203-25.581,2.814-5.802,2.999-10.857,7.844-14.05,13.543-2.162,3.858-3.435,8.095-3.946,12.477-.468,4.015-.079,8.091.564,12.067.173,1.067,1.5,1.661,2.46,1.397,1.135-.312,1.57-1.39,1.397-2.46-1.042-6.436-.906-13.112,1.81-19.147,2.352-5.226,6.263-9.685,11.048-12.823,13.04-8.551,31.508-5.742,41.508,6.143,6.006,7.138,7.461,16.829,5.998,25.825-.173,1.065.277,2.152,1.397,2.46.955.262,2.286-.325,2.46-1.397h0Z"/><path class="n" d="M189.998,177.478c3.846,1.138,7.635,2.533,11.186,4.41,2.998,1.584,5.657,3.629,8.097,5.982,5.35,5.159,9.399,11.536,13.152,17.899,7.103,12.043,13.562,24.459,20.42,36.641,2.088,3.709,4.204,7.404,6.37,11.068,1.051,1.777,2.113,3.547,3.191,5.308,1.03,1.682,2.393,3.378,3.188,5.178l-.273-1.009.24-.383c-.251.189-.502.378-.753.567-.367.276-.733.552-1.1.828-.707.531-1.414,1.062-2.124,1.589-1.493,1.109-2.995,2.204-4.519,3.27-1.491,1.043-3.009,2.043-4.529,3.043-.244.161-.801.658-1.041.595-.442-.116-.887-.918-1.172-1.278-.99-1.248-2.13-2.776-3.224-4.271-1.322-1.805-2.621-3.627-3.91-5.456-5.984-8.494-11.768-17.131-17.485-25.806-2.27-3.445-4.533-6.896-6.753-10.374-1.381-2.164-4.844-.16-3.454,2.019,5.224,8.184,10.611,16.268,16.055,24.306,3.188,4.707,6.404,9.395,9.705,14.024,1.354,1.899,2.722,3.788,4.126,5.65,1.348,1.787,2.917,4.582,5.246,5.118,2.058.474,3.703-.918,5.311-1.98,1.654-1.093,3.284-2.223,4.894-3.381,1.584-1.141,3.15-2.307,4.711-3.48,1.463-1.099,3.791-2.21,3.807-4.31.013-1.674-1.586-3.396-2.434-4.76-.969-1.559-1.923-3.127-2.867-4.701-1.954-3.259-3.863-6.546-5.745-9.847-7.137-12.521-13.814-25.3-21.024-37.779-3.705-6.413-7.61-12.787-12.545-18.343-2.262-2.547-4.785-4.75-7.459-6.853-3.044-2.395-6.849-3.986-10.433-5.377-1.903-.738-3.837-1.386-5.793-1.965-2.473-.732-3.53,3.127-1.063,3.857h0Z"/><path class="n" d="M183.06,109.979c-1.743.954-3.53,1.834-5.373,2.577-1.458.588-3.43,1.645-5.059,1.495-.604-.055-.467-.008-.658-.558-.266-.767-.465-1.513-.983-2.159-1.292-1.613-3.364-1.661-5.237-1.278-6.364,1.301-12.482,4.875-16.832,9.672-2.363,2.606-4.286,5.572-5.823,8.73-1.121,2.306,2.327,4.336,3.454,2.019,2.544-5.232,6.168-9.838,11.177-12.901,2.75-1.681,5.907-3.058,9.087-3.664.271-.052.631-.149.912-.099.262.047.137-.006.171.031.175.189.227.765.306.997.135.392.285.801.499,1.158.888,1.482,2.612,2.119,4.279,2.046,2.078-.092,4.08-.941,5.98-1.717,2.093-.855,4.136-1.81,6.119-2.896,2.259-1.237.242-4.692-2.019-3.454h0Z"/><path class="n" d="M185.41,118.402c.6.744,1.32,1.764,1.909,2.719.597.969,1.136,1.973,1.609,3.008.349.763.748,1.828,1.056,2.852.327,1.087.575,2.194.754,3.315.165,1.036,1.511,1.704,2.46,1.397,1.125-.364,1.574-1.35,1.397-2.46-.808-5.064-3.156-9.694-6.356-13.66-.66-.818-2.151-.738-2.828,0-.797.868-.704,1.956,0,2.828h0Z"/><path class="n" d="M138.438,133.595c.672.458,1.67.58,2.452.631.674.044,1.402-.074,2.032-.318.836-.324,1.571-.759,2.213-1.396.584-.58,1.068-1.287,1.414-2.034.231-.5.353-.991.202-1.541-.128-.464-.486-.967-.919-1.195-.464-.245-1.026-.368-1.541-.202-.468.152-.98.454-1.195.919-.192.414-.419.805-.695,1.169l.313-.405c-.233.296-.492.563-.788.797l.405-.313c-.275.21-.568.384-.887.52l.478-.202c-.287.116-.582.197-.889.243l.532-.071c-.342.046-.673.038-1.014-.006l.532.071c-.316-.045-.634-.106-.93-.228l.478.202c-.06-.028-.117-.057-.172-.095-.411-.28-1.075-.33-1.541-.202s-.967.486-1.195.919c-.245.464-.368,1.026-.202,1.541s.47.889.919,1.195h0Z"/><path class="n" d="M190.701,130.034c.047,1.617.797,3.121,2.246,3.912,1.867,1.019,4.033.594,5.832-.352.928-.488,1.285-1.857.718-2.736-.609-.944-1.744-1.239-2.736-.718-.169.089-.341.172-.516.248l.478-.202c-.44.185-.893.323-1.365.394l.532-.071c-.346.045-.69.053-1.036.007l.532.071c-.221-.035-.434-.091-.643-.174l.478.202c-.221-.096-.429-.214-.621-.36l.405.313c-.147-.116-.278-.247-.395-.394l.313.405c-.115-.152-.208-.314-.284-.488l.202.478c-.087-.214-.144-.433-.179-.662l.071.532c-.017-.135-.027-.269-.031-.405-.015-.522-.213-1.041-.586-1.414-.347-.347-.916-.608-1.414-.586-1.058.047-2.032.88-2,2h0Z"/><path class="n" d="M181.656,115.305c.131.042.26.089.387.142l-.478-.202c.625.27,1.193.65,1.732,1.063l-.405-.313c.918.712,1.757,1.528,2.518,2.406.321.371.938.586,1.414.586.491,0,1.076-.218,1.414-.586.35-.381.61-.882.586-1.414-.025-.552-.223-.996-.586-1.414-.673-.776-1.408-1.504-2.203-2.155-1.008-.825-2.061-1.573-3.317-1.97-.998-.316-2.227.371-2.46,1.397-.248,1.091.329,2.122,1.397,2.46h0Z"/><path class="j" d="M253.325,267.805c.895,1.031,1.659,2.171,2.592,3.169,1.363,1.458,3.015,2.632,4.62,3.808,3.181,2.331,6.512,4.458,9.966,6.363,3.118,1.72,6.39,3.241,8.893,5.85.732.762,2.112,2.238,1.82,3.417-.348,1.406-2.924,1.436-4.04,1.395-2.23-.08-4.463-.788-6.584-1.434-2.251-.686-4.46-1.496-6.629-2.409-1.195-.502-2.577.754-2.532,1.929.065,1.69-1.335,3.467-3.174,3.436-.951-.016-2.024-1.01-2.607-1.664-.797-.893-1.233-2.129-1.717-3.209-1.408-3.137-2.605-6.519-4.372-9.47-1.322-2.206-4.781-.197-3.454,2.019,1.151,1.922,1.921,4.08,2.867,6.105,1.026,2.196,1.783,4.737,3.26,6.667,1.881,2.458,4.965,4.243,8.071,3.157,3.048-1.065,5.254-3.727,5.127-7.042l-2.532,1.929c4.224,1.776,8.801,3.468,13.39,3.923,4.156.412,9.833-1.492,8.82-6.698-.731-3.757-4.435-6.57-7.46-8.5-3.76-2.4-7.818-4.272-11.547-6.744-2.059-1.365-4.16-2.773-6.036-4.386-1.521-1.308-2.608-2.936-3.912-4.438-1.691-1.947-4.51.892-2.828,2.828h0Z"/><path class="n" d="M125.674,201.91c1.428,1.236,2.683,2.447,3.22,4.315.561,1.954.621,4.007.714,6.025.085,1.833.126,3.667.167,5.502.139,6.149.235,12.298.319,18.448.135,9.86.049,19.717.155,29.576.029,2.73.059,5.461.166,8.189.029.741.055,1.485.139,2.222.175,1.548,1.196,2.398,2.702,2.806,1.21.328,2.692.136,3.925.141,2.48.011,4.961.015,7.441.018,9.875.012,19.749-.003,29.624.002,10.395.005,20.799.129,31.193-.039.991-.016,1.99-.095,2.827-.687l-2.424-.313c1.089.875,2.642.824,3.378-.494.409-.733.445-1.644.502-2.459.17-2.417.072-4.863.008-7.282-.1-3.766-.279-7.529-.379-11.294-.261-9.768-.511-19.537-.748-29.306-.094-3.884-.216-7.77-.257-11.655-.027-2.572-4.027-2.579-4,0,.085,8.05.364,16.101.569,24.148.191,7.522.34,15.047.629,22.567.109,2.846.215,5.694.246,8.542.013,1.221.02,2.444-.034,3.664-.01.232-.022.465-.039.696-.009.118-.072.707-.026.376.05-.36-.062.157-.046.216.005.018-.043.109-.032.121-.173-.184,1.346-1.162,1.211-1.134h1.063l.784.466c-.649-.522-1.656-.857-2.424-.313-.318.225-.831.142-1.227.146-.82.009-1.64.012-2.46.016-2.617.011-5.235.015-7.852.017-6.112.006-12.225.005-18.337.002-9.886-.004-19.773.008-29.659,0-2.976-.003-5.953-.006-8.929-.018-.919-.004-1.838-.007-2.757-.017-.261-.003-.527-.022-.788-.011-.063.003-.133.001-.196-.006.643.068-.421-.354-.013-.021l.514.883c-.15-.465.023.589-.015-.033-.021-.352-.052-.703-.071-1.055-.055-1.057-.083-2.115-.109-3.173-.069-2.847-.099-5.696-.12-8.544-.029-3.982.007-7.962.008-11.943.002-11.188-.207-22.383-.461-33.568-.049-2.17-.103-4.34-.217-6.508-.116-2.2-.255-4.545-1.016-6.631-.82-2.248-2.255-3.884-4.038-5.427-1.938-1.677-4.779,1.14-2.828,2.828h0Z"/><path class="j" d="M146.116,175.242c4.169,4.299,10.261,7.262,16.002,8.683,7.652,1.895,16.414,1.082,23.559-2.285,2.534-1.194,4.886-2.828,6.58-5.08.65-.864.139-2.236-.718-2.736-1.023-.599-2.085-.148-2.736.718.243-.323-.066.075-.161.178-.143.158-.288.314-.439.465-.336.335-.692.654-1.066.947-.624.488-1.814,1.214-2.718,1.68-2.723,1.405-5.758,2.211-8.776,2.671-7.249,1.103-14.407-.147-20.792-3.749-2.191-1.236-4.188-2.547-5.907-4.319-1.795-1.851-4.622.979-2.828,2.828h0Z"/><g id="e"><path class="k" d="M5.257,26.237c-.792.73-2.703,2.545-3.199,5.598-.582,3.581,1.208,6.258,1.609,6.827,1.367,1.94,3.097,2.798,3.785,3.129,3.035,1.46,5.93.997,7.159.705,1.172-.278,4.524-1.075,6.398-4.27,1.991-3.393.824-6.949.537-7.824-.282-.86-1.537-4.299-5.148-6.03-.514-.246-2.533-1.157-5.224-.88-3.243.334-5.291,2.168-5.917,2.746Z"/><path class="k" d="M13.922,43.32c-.093-.183-.203-.398-.324-.634.405-.058.747-.129,1.012-.192.889-.211,3.035-.721,4.836-2.353l.612,1.184c5.185,8.933,32.369,57.245,37.218,66.003l.258.371c-.706,0-1.543.135-2.836.559-1.315.431-2.482,1.441-3.29,2.468-.299-.478-.545-.867-.545-.867-5.043-8.206-31.96-57.49-36.624-65.916,0,0-.124-.242-.318-.622Z"/><path class="i" d="M90.223,44.791c-.106-.531-.212-1.054-.315-1.561-7.241,3.61-40.486,21.148-42.388,22.837,1.708,4.543,7.848,17.088,9.58,19.696,12.97-5.211,41.763-20.999,44.013-24.102-2.456-1.915-7.934-6.296-9.052-7.32-.272-1.403-1.065-5.68-1.837-9.549Z"/><path class="i" d="M49.059,65.062c1.868-1.117,5.198-2.968,9.197-5.143,2.15-1.169,4.809-.86,6.643.76,1.103.974,1.803,1.689,1.803,1.689.692.572,2.26,2.086,3.496,4.796.754,1.653,1.216,3.418,1.595,5.195,0,0,.188.769.449,1.948.511,2.31-.613,4.684-2.731,5.739-4.702,2.341-9.079,4.378-12.411,5.717-1.732-2.608-7.872-15.152-9.58-19.696.197-.175.732-.521,1.54-1.004Z"/><path class="k" d="M51.508,74.984c-.481-1.007-.953-2.011-1.398-2.977l.058-.045c1.446-1.123,2.987-2.208,4.761-2.646,3.051-.753,6.343.592,8.571,2.819.488.488.932,1.012,1.337,1.566,2.46,3.356,1.067,8.157-2.718,9.886-1.839.84-3.534,1.577-5.021,2.174-.984-1.481-3.389-6.168-5.592-10.778Z"/><path class="l" d="M84.677,3.953c-.135-.678-.27-1.346-.403-1.994-9.247,4.611-51.702,27.007-54.132,29.164,2.181,5.802,10.023,21.822,12.234,25.152,16.563-6.655,53.334-26.817,56.207-30.78-3.136-2.446-10.132-8.04-11.56-9.349-.347-1.792-1.36-7.254-2.346-12.194Z"/><path class="l" d="M31.587,30.157c2.288-1.399,6.91-3.972,12.536-7.029,2.649-1.44,5.906-1.168,8.279.692.926.726,1.538,1.205,1.538,1.205.979.809,3.197,2.951,4.946,6.785,1.066,2.339,1.72,4.835,2.256,7.35l.403,2.156c.609,3.254-1.02,6.522-3.986,7.992-5.751,2.85-11.084,5.322-15.181,6.968-2.211-3.33-10.053-19.35-12.234-25.152.207-.184.703-.514,1.444-.967Z"/><path class="k" d="M35.473,43.027c-.637-1.324-1.265-2.649-1.86-3.927.383-.343.623-.561.623-.561.067-.052.102-.079.102-.079,1.848-1.435,3.816-2.821,6.083-3.381,3.899-.962,8.105.756,10.952,3.603.844.844,1.585,1.773,2.24,2.764,2.618,3.955,1.077,9.312-3.222,11.315-2.97,1.383-5.691,2.583-8.015,3.516-1.22-1.837-4.153-7.535-6.904-13.25Z"/><path class="j" d="M30.457,37.588c-2.078,3.081-4.102,6.211-5.98,9.419-.602,1.027-.098,2.711,1.195,2.938,4.087.717,8.096,1.794,12.175,2.535,1.026.186,2.206-.28,2.46-1.397.223-.979-.296-2.26-1.397-2.46-4.08-.741-8.089-1.818-12.175-2.535l1.195,2.938c1.878-3.208,3.902-6.337,5.98-9.419.586-.87.195-2.254-.718-2.736-1.01-.534-2.111-.21-2.736.718h0Z"/><path class="j" d="M18.333,42.335c4.572,7.88,9.015,15.836,13.493,23.77,5.941,10.527,11.87,21.06,17.783,31.602,1.986,3.541,3.975,7.079,5.942,10.631,1.247,2.252,4.703.237,3.454-2.019-4.378-7.904-8.824-15.77-13.253-23.645-5.936-10.553-11.88-21.103-17.85-31.637-2.029-3.579-4.05-7.162-6.114-10.72-1.291-2.226-4.749-.214-3.454,2.019h0Z"/><path class="j" d="M52.592,108.85c-4.699-7.661-8.92-15.643-13.274-23.502-5.868-10.593-11.698-21.206-17.526-31.821-1.939-3.532-3.873-7.068-5.824-10.594-1.247-2.253-4.702-.237-3.454,2.019,4.357,7.874,8.666,15.775,13.003,23.66,5.836,10.61,11.672,21.219,17.602,31.777,1.971,3.51,3.914,7.048,6.019,10.48,1.344,2.191,4.805.184,3.454-2.019h0Z"/><path class="j" d="M3.842,24.823C-.082,28.455-1.198,34.081,1.416,38.83c2.556,4.644,8.088,6.631,13.141,5.715s9.148-4.593,9.561-9.909c.312-4.017-1.622-8.304-4.784-10.763-4.657-3.622-11.228-2.963-15.492.95-1.901,1.744.934,4.567,2.828,2.828.185-.17.374-.336.569-.495.429-.349-.346.232.172-.125.176-.121.352-.241.533-.353.869-.539,1.788-.906,2.793-1.109s2.082-.184,3.079.036c.448.099.873.248,1.31.383.091.028.39.16-.03-.023.192.083.38.173.565.27,1.648.857,2.742,2.117,3.54,3.695.064.127.123.255.185.383.229.474-.14-.381.026.056.071.187.141.375.204.565.213.637.394,1.298.481,1.965.242,1.845-.289,4.054-1.738,5.518-1.184,1.196-2.403,1.673-3.88,2.052-3.062.785-7.036.064-9.13-2.878-1.038-1.458-1.571-3.177-1.377-5.074.21-2.053,1.293-3.566,2.697-4.865,1.893-1.752-.941-4.576-2.828-2.828Z"/><path class="j" d="M86.606,3.422c-.133-.665-.267-1.329-.403-1.994-.274-1.343-1.862-1.732-2.938-1.195-7.295,3.641-14.494,7.481-21.7,11.293-8.669,4.585-17.337,9.181-25.896,13.969-2.298,1.286-4.934,2.474-6.941,4.215-.492.426-.747,1.33-.514,1.946,1.79,4.724,4.028,9.3,6.238,13.838,1.927,3.957,3.776,8.104,6.198,11.792.442.673,1.423,1.256,2.259.919,8.934-3.601,17.558-8.014,26.075-12.498,8.345-4.393,16.678-8.912,24.626-13.997,2.297-1.47,5.041-2.981,6.702-5.204.472-.632.324-1.927-.313-2.424-3.891-3.038-7.901-6.031-11.56-9.349l.514.883c-.785-4.064-1.538-8.135-2.346-12.194-.502-2.522-4.359-1.455-3.857,1.063.615,3.089,1.206,6.183,1.792,9.277.18.952.27,1.989.554,2.917.252.822,1.019,1.332,1.649,1.86,3.415,2.862,6.914,5.63,10.426,8.372l-.313-2.424c.511-.684-.193.152-.395.334-.161.145-.331.281-.497.421-.093.079-.191.152-.287.229.469-.374-.032.023-.128.094-1.12.822-2.27,1.6-3.437,2.355-3.376,2.185-6.849,4.222-10.34,6.22-8.829,5.052-17.827,9.828-26.964,14.298-4.265,2.087-8.713,4.196-12.964,5.91l2.259.919c-2.364-3.601-4.174-7.645-6.059-11.506-2.115-4.332-4.325-8.816-5.974-13.168l-.514,1.946c.28-.243-.513.326-.113.088.137-.081.266-.182.399-.269.385-.253.78-.491,1.175-.728,1.214-.729,2.446-1.429,3.68-2.124,3.776-2.128,7.586-4.197,11.401-6.257,8.983-4.851,18.005-9.628,27.057-14.349,3.366-1.756,6.731-3.516,10.128-5.212l-2.938-1.195c.136.664.27,1.329.403,1.994.505,2.522,4.361,1.455,3.857-1.063Z"/><path class="j" d="M44.675,30.132c-.513.109-2.592.551-3.616,2.536-.758,1.471-.732,3.39.318,4.883,1.097,1.56,3.067,2.306,4.973,1.88.597-.075,2.09-.351,3.075-1.563,1.767-2.174.89-6.115-1.432-7.417-1.326-.743-2.781-.433-3.317-.319Z"/><path class="j" d="M52.525,26.439c.569.474,1.095.997,1.587,1.55.186.209.365.423.542.639.022.026.243.307.126.155-.139-.18.162.22.188.256.398.548.768,1.116,1.111,1.7,1.624,2.764,2.466,5.839,3.135,8.952.227,1.056,1.461,1.671,2.46,1.397,1.092-.3,1.625-1.401,1.397-2.46-1.183-5.504-3.25-11.298-7.716-15.017-.829-.691-2.016-.813-2.828,0-.711.711-.834,2.134,0,2.828h0Z"/><path class="j" d="M65.565,25.635l5.052-2.918c.434-.251.786-.713.919-1.195.132-.479.072-1.116-.202-1.541-.589-.914-1.767-1.278-2.736-.718l-5.052,2.918c-.434.251-.786.713-.919,1.195-.132.479-.072,1.116.202,1.541.589.914,1.767,1.278,2.736.718h0Z"/><path class="j" d="M69.44,31.966c1.727-1.276,3.721-2.105,5.609-3.105.926-.49,1.286-1.855.718-2.736-.607-.942-1.746-1.242-2.736-.718-1.888.999-3.883,1.828-5.609,3.105-.433.32-.771.656-.919,1.195-.132.479-.072,1.116.202,1.541.275.427.685.803,1.195.919.492.112,1.117.112,1.541-.202h0Z"/><path class="j" d="M92.152,44.259c-.104-.521-.209-1.041-.315-1.561-.274-1.343-1.862-1.732-2.938-1.195-12.587,6.283-25.04,12.937-37.315,19.807-1.824,1.021-3.882,1.967-5.478,3.343-.492.424-.747,1.332-.514,1.946,1.413,3.723,3.171,7.33,4.913,10.907,1.514,3.11,2.97,6.364,4.869,9.266.441.673,1.424,1.256,2.259.919,7.002-2.825,13.763-6.274,20.44-9.787,6.588-3.467,13.17-7.031,19.441-11.052,1.852-1.188,3.985-2.398,5.328-4.182.475-.631.322-1.928-.313-2.424-3.047-2.38-6.183-4.726-9.052-7.32l.514.883c-.614-3.183-1.205-6.37-1.837-9.549-.502-2.522-4.358-1.455-3.857,1.063.484,2.434.95,4.871,1.412,7.309.139.732.207,1.527.426,2.239.224.729.82,1.158,1.375,1.625,2.681,2.251,5.432,4.424,8.191,6.578l-.313-2.424c.496-.659-.045-.005-.226.159-.133.121-.274.233-.411.349-.395.334.234-.158-.206.161-.885.642-1.785,1.26-2.703,1.854-2.665,1.725-5.407,3.333-8.162,4.909-6.896,3.944-13.924,7.674-21.061,11.166-3.305,1.617-6.795,3.272-10.048,4.584l2.259.919c-1.841-2.813-3.257-5.964-4.729-8.978-1.648-3.374-3.368-6.862-4.65-10.24l-.514,1.946c.231-.199-.55.348-.139.111.101-.058.197-.133.294-.197.306-.201.621-.39.935-.578.962-.578,1.939-1.131,2.917-1.682,2.954-1.664,5.933-3.281,8.916-4.892,7.026-3.794,14.083-7.53,21.163-11.222,2.625-1.369,5.249-2.742,7.898-4.064l-2.938-1.195c.106.52.211,1.041.315,1.561.505,2.522,4.361,1.455,3.857-1.063Z"/><path class="j" d="M58.899,65.29c-.402.085-2.03.432-2.831,1.986-.594,1.152-.574,2.654.249,3.824.859,1.222,2.402,1.806,3.894,1.472.468-.059,1.636-.275,2.408-1.224,1.383-1.702.697-4.789-1.122-5.808-1.038-.582-2.177-.339-2.598-.25Z"/><path class="j" d="M46.306,70.548c-1.835,2.721-3.622,5.484-5.281,8.317-.602,1.027-.098,2.711,1.195,2.938,3.609.633,7.149,1.584,10.752,2.239,1.026.186,2.206-.28,2.46-1.397.223-.979-.296-2.26-1.397-2.46-3.603-.654-7.143-1.605-10.752-2.239l1.195,2.938c1.658-2.833,3.446-5.596,5.281-8.317.586-.87.195-2.254-.718-2.736-1.01-.534-2.111-.21-2.736.718h0Z"/><path class="j" d="M65.288,63.783c.402.335.774.705,1.121,1.096.131.148.257.299.383.452.038.046.216.284.043.05-.191-.258.047.067.087.121.281.387.543.789.785,1.202.264.45.506.913.725,1.386.055.119.173.385.062.123.049.115.095.232.14.348.114.291.22.585.319.881.379,1.128.661,2.286.911,3.449.22,1.024,1.473,1.716,2.46,1.397,1.079-.349,1.633-1.363,1.397-2.46-.855-3.98-2.376-8.184-5.605-10.873-.803-.669-2.052-.845-2.828,0-.678.739-.858,2.113,0,2.828h0Z"/><path class="j" d="M75.548,62.053c1.319-.762,2.637-1.523,3.956-2.285.434-.251.786-.713.919-1.195.132-.479.072-1.116-.202-1.541-.275-.427-.685-.803-1.195-.919-.527-.12-1.065-.073-1.541.202-1.319.762-2.637,1.523-3.956,2.285-.434.251-.786.713-.919,1.195-.132.479-.072,1.116.202,1.541.275.427.685.803,1.195.919.527.12,1.065.073,1.541-.202h0Z"/><path class="j" d="M78.582,67.01c1.352-.999,2.914-1.649,4.392-2.431.433-.229.791-.731.919-1.195.132-.479.072-1.116-.202-1.541-.607-.942-1.746-1.242-2.736-.718-1.478.783-3.04,1.432-4.392,2.431-.433.32-.771.656-.919,1.195-.132.479-.072,1.116.202,1.541.275.427.685.803,1.195.919.492.112,1.117.112,1.541-.202h0Z"/></g><g id="f"><path class="k" d="M62.968,108.026l-.332.623c-.864-.349-1.827-.553-2.633-.651-1.852-.224-2.52-.651-5.303.261-1.376.45-2.589,1.535-3.399,2.61-.903,1.198-3.771,6.959-3.663,8.879.285,5.062,2.271,7.519,5.249,11.456,4.632,6.124,10.113,9.647,12.818,10.2.987.72,1.973,1.445,2.959,2.169,2.149-3.036,5.755-7.046,8.455-10.014-1.223-1.27-2.439-2.536-2.439-2.536.604-.908.882-1.86.93-2.632.105-1.697-.694-3.329-2.254-4.003.954-.822,1.174-2.418.852-3.696-.419-1.663-1.56-2.613-2.627-2.781.284-.492.452-.784.452-.784,2.069-3.609,1.536-7.707-1.621-11.35-.469-.541-2.076-1.27-2.791-1.264-1.871.016-2.987.859-3.884,2.075l-.768,1.438Z"/><path class="j" d="M69.677,141.852c-.964-.704-1.916-1.603-2.96-2.18-.507-.28-1.295-.406-1.74-.595-1.245-.528-2.65-1.444-3.813-2.311-3.404-2.537-6.153-5.863-8.587-9.312-1.028-1.456-1.952-2.975-2.444-4.7-.241-.847-.405-1.711-.468-2.589-.057-.794-.053-.734.204-1.601.439-1.482,1.089-2.899,1.783-4.277.583-1.159,1.143-2.287,2.094-3.152,1.344-1.223,3.31-1.578,4.884-1.332,1.062.166,2.147.266,3.16.652.404.154.82.344,1.133.648.41.397.412.28.14.602-1.275,1.506-.082,3.812,1.946,3.343.902-.209,2.175-.586,3.041-.088.385.221.723.678.889,1.084.234.574.172.441-.306.871-.803.723-.735,2.093,0,2.828.832.832,1.984.679,2.828,0-.318.256-.156-.013-.026.191.128.202.438.373.59.633.404.692.523,1.808-.082,2.408-.86.853-.764,2.569.405,3.141,2.371,1.161,1.014,3.982-.69,5.086-2.152,1.395-.15,4.86,2.019,3.454,2.044-1.325,3.564-3.293,3.873-5.754.317-2.523-.853-5.099-3.183-6.24l.405,3.141c2.077-2.06,2.006-5.598.292-7.86-1.59-2.098-4.324-2.724-6.43-1.029l2.828,2.828c2.32-2.087,1.794-5.123-.174-7.258-1.932-2.096-4.804-1.882-7.342-1.295l1.946,3.343c2.016-2.381,1.542-5.267-1.07-7.006-1.899-1.264-4.409-1.585-6.639-1.794-2.466-.231-5.102.725-6.966,2.307-1.434,1.218-2.328,2.825-3.149,4.485-.872,1.763-1.774,3.637-2.217,5.563-.487,2.118-.036,4.515.681,6.536.786,2.217,2.047,4.147,3.446,6.02,1.703,2.281,3.447,4.518,5.505,6.496,1.847,1.775,3.893,3.431,6.126,4.698.851.483,1.749.912,2.674,1.235,1.262.441,2.277,1.43,3.375,2.232.873.638,2.23.148,2.736-.718.592-1.013.157-2.097-.718-2.736h0Z"/><path class="j" d="M65.463,107.597c-.263.35.037-.037.102-.11.107-.121.219-.237.336-.348.131-.123.366-.286.086-.094.156-.106.315-.199.477-.296.071-.039.144-.076.219-.109-.198.082-.228.098-.089.048.16-.031.353-.082.505-.138.142-.026.117-.027-.075-.003.097-.012.195-.02.292-.024.098-.006.62.012.27-.025-.36-.038.133.05.212.073.088.026.637.237.222.059.309.132.586.308.881.466.327.176-.168-.258.022.015.106.152.254.288.372.432.18.222.367.49.599.854.226.355.435.721.622,1.098,0,0,.262.575.131.262.076.182.144.37.207.557.124.367.225.741.303,1.119.021.103.094.576.049.216.023.186.038.373.048.56.02.375-.005.742-.015,1.116-.013.473.06-.219-.02.208-.035.184-.068.368-.111.551-.095.401-.219.794-.367,1.179-.051.13-.046.12.015-.03-.04.09-.081.178-.125.266-.101.209-.211.413-.325.616-.512.913-.249,2.226.718,2.736.944.499,2.19.257,2.736-.718,1.066-1.901,1.676-4.108,1.466-6.298-.215-2.245-1.042-4.361-2.375-6.181-.674-.92-1.328-1.715-2.349-2.256-.876-.464-1.875-.872-2.882-.888-2.39-.038-4.23,1.232-5.611,3.066-.632.839-.162,2.272.718,2.736,1.052.556,2.062.178,2.736-.718h0Z"/><path class="j" d="M71.682,123.4c-1.377.607-2.646,1.463-3.873,2.325-1.346.946-2.655,1.95-3.928,2.992-.373.306-.586.952-.586,1.414,0,.491.218,1.076.586,1.414.381.35.882.61,1.414.586.559-.025.983-.232,1.414-.586.257-.21.516-.419.776-.625.131-.103.262-.206.393-.309.262-.205-.311.238-.117.09.07-.054.141-.108.211-.162.64-.488,1.289-.965,1.948-1.427,1.198-.838,2.438-1.668,3.78-2.26.429-.189.801-.765.919-1.195.132-.479.072-1.116-.202-1.541-.275-.427-.685-.803-1.195-.919-.557-.127-1.022-.027-1.541.202h0Z"/><path class="j" d="M69.159,116.87c-3.611,1.614-7.019,3.672-10.36,5.777-.884.557-1.316,1.808-.718,2.736.571.886,1.79,1.314,2.736.718,3.341-2.105,6.749-4.164,10.36-5.777.958-.428,1.259-1.897.718-2.736-.639-.991-1.711-1.176-2.736-.718h0Z"/><path class="j" d="M63.944,111.189c-3.223,1.262-6.246,2.888-9.104,4.839-.863.589-1.331,1.785-.718,2.736.553.858,1.812,1.348,2.736.718,1.365-.932,2.768-1.808,4.222-2.595.67-.363,1.35-.706,2.04-1.03.365-.171.734-.334,1.103-.496.205-.088.185-.079-.06.025.093-.039.186-.077.28-.115.187-.076.375-.151.563-.224.501-.196.914-.439,1.195-.919.251-.429.357-1.061.202-1.541-.305-.943-1.417-1.805-2.46-1.397h0Z"/></g><path class="j" d="M128.503,199.082c-8.066-6.967-16.259-13.79-24.237-20.857-8.173-7.241-16.074-14.793-23.811-22.497-2.008-1.999-4.002-4.011-5.977-6.042-.912-.938-1.819-1.88-2.721-2.829-.412-.434-.823-.868-1.232-1.305-.13-.139-.26-.278-.39-.417-.126-.136-.253-.271-.379-.407-.276-.329-.26-.257.048.214l-.273,1.009c.552-1.26,1.602-2.408,2.46-3.473,1.137-1.412,2.322-2.786,3.522-4.145,1.1-1.245,2.215-2.476,3.334-3.704.847-.93,1.656-2.053,2.636-2.841l-.883.514c-.622.208-.786-.466-.253.111.16.173.381.318.562.469.327.273.654.547.981.82.86.719,1.72,1.438,2.581,2.156,1.927,1.609,3.855,3.217,5.787,4.82,4.69,3.894,9.398,7.766,14.131,11.608,5.506,4.469,10.98,9.015,16.732,13.167,4.323,3.12,8.833,6.219,13.744,8.347,6.095,2.642,13.17,2.769,19.259-.032.981-.451,1.225-1.869.718-2.736-.589-1.007-1.751-1.171-2.736-.718-5.622,2.586-12.095,1.718-17.441-1.012-5.666-2.893-10.933-6.705-15.934-10.61-10.813-8.443-21.354-17.247-31.882-26.041-.876-.731-1.751-1.463-2.627-2.195-.907-.758-1.865-1.822-3.04-2.106-2.468-.596-4.461,2.673-5.891,4.248-1.979,2.179-3.945,4.373-5.807,6.654-1.444,1.769-4.777,4.9-3.311,7.379.62,1.048,1.709,1.949,2.544,2.829.971,1.024,1.949,2.04,2.932,3.052,2.157,2.219,4.337,4.415,6.533,6.596,4.859,4.826,9.789,9.582,14.799,14.252,9.153,8.533,18.74,16.566,28.235,24.711,1.488,1.277,2.974,2.556,4.458,3.838,1.939,1.675,4.781-1.142,2.828-2.828h0Z"/><g id="g"><path class="l" d="M141.257,109.091c9.223,1.373,13.879,1.683,23.606,2.777l3.697.34,3.214-.436c5.632-.961,16.275-3.592,22.563-5.115,0,0,3.594-.895,7.177-1.788-4.386-4.4-9.048-8.796-10.623-10.231-7.747-7.055-18.063-16.931-20.14-18.754l-4.427-3.518c-2.459,2.498-23.158,24.888-32.093,35.657,3.653.555,7.026,1.068,7.026,1.068Z"/><path class="k" d="M154.256,104.48c5.044-6.084,12.149-14.329,12.797-14.37.803-.052,13.13,12.241,18.378,16.979l1.32,1.405c-5.38,1.287-11.266,2.645-14.977,3.278l-3.214.436-3.697-.34c-6.305-.709-10.48-1.089-15.149-1.643l.469-.725c.906-1.163,2.372-2.968,4.073-5.02Z"/><path class="k" d="M133.77,119.584c9.394,1.381,26.561,3.541,35.899,3.319,17.012-2.249,32-6.756,39.612-9.655-1.619-2.068-4.621-5.225-7.765-8.379-3.583.893-7.178,1.788-7.178,1.788-6.288,1.523-16.931,4.154-22.563,5.115l-3.214.436-3.697-.34c-9.727-1.094-14.383-1.404-23.606-2.777l-7.027-1.068c-1.59,1.915-2.807,3.463-3.484,4.467l-2.365,6.245c1.128.199,3.009.499,5.389.849Z"/><path class="j" d="M132.473,113.499c.258-.38.53-.749.804-1.117.082-.11.166-.218.248-.327-.323.424-.012.015.046-.059.233-.295.466-.591.702-.884.991-1.233,2.007-2.446,3.031-3.652,2.66-3.132,5.377-6.216,8.109-9.285,5.688-6.391,11.449-12.718,17.262-18.996,1.675-1.81,3.335-3.64,5.063-5.4,1.805-1.838-1.021-4.669-2.828-2.828-4.161,4.236-8.116,8.692-12.117,13.078-5.988,6.565-11.958,13.156-17.73,19.913-2.082,2.438-4.24,4.881-6.044,7.537-1.45,2.135,2.014,4.139,3.454,2.019h0Z"/><path class="j" d="M169.336,77.298c5.537,4.884,10.783,10.114,16.199,15.131,4.953,4.588,9.898,9.166,14.663,13.952,2.646,2.658,5.341,5.332,7.668,8.281l.883-3.343c-11.493,4.361-23.665,7.241-35.797,9.109-2.658.409-5.142.526-7.823.429-2.52-.09-5.036-.261-7.549-.468-5.474-.45-10.933-1.074-16.379-1.78-4.103-.532-8.211-1.089-12.288-1.803-1.063-.186-2.155.285-2.46,1.397-.265.965.327,2.273,1.397,2.46,9.051,1.585,18.232,2.683,27.38,3.521,2.7.247,5.405.459,8.113.595,2.423.122,4.929.314,7.339-.013,7.299-.989,14.539-2.413,21.68-4.22,5.897-1.492,11.76-3.212,17.451-5.371,1.5-.569,1.855-2.11.883-3.343-4.316-5.471-9.601-10.287-14.633-15.085-5.477-5.222-11.096-10.296-16.61-15.481-2.418-2.274-4.798-4.602-7.288-6.798-1.924-1.697-4.764,1.122-2.828,2.828h0Z"/><path class="j" d="M172.306,113.7c7.593-1.31,15.079-3.302,22.563-5.115,2.501-.606,1.442-4.464-1.063-3.857-7.484,1.813-14.97,3.805-22.563,5.115-1.065.184-1.663,1.492-1.397,2.46.309,1.126,1.392,1.581,2.46,1.397h0Z"/><path class="j" d="M140.726,111.02c8.02,1.188,16.083,1.945,24.138,2.848,1.075.121,2-1.005,2-2,0-1.181-.922-1.879-2-2-7.698-.863-15.409-1.569-23.074-2.705-1.067-.158-2.15.266-2.46,1.397-.259.943.322,2.301,1.397,2.46h0Z"/><path class="l" d="M160.097,94.294c-2.189-4.713-4.552-9.165-7.115-13.866-.77-1.413-1.712-2.894-3.221-3.456-.957-.356-2.013-.279-3.031-.197-4.937.398-9.873.797-14.81,1.195,6.309,6.761,16.852,14.804,23.568,21.16"/><path class="j" d="M161.824,93.284c-1.454-3.119-3.007-6.189-4.618-9.229-1.374-2.594-2.627-5.933-4.93-7.861-2.669-2.233-6.318-1.358-9.495-1.101-3.62.292-7.241.584-10.861.876-1.713.138-2.656,2.092-1.414,3.414,7.236,7.709,15.89,13.921,23.568,21.16,1.872,1.765,4.706-1.058,2.828-2.828-7.679-7.239-16.332-13.452-23.568-21.16l-1.414,3.414c3.291-.266,6.582-.531,9.873-.797,1.563-.126,3.126-.254,4.69-.378,1.297-.103,2.538-.304,3.502.725.846.903,1.379,2.116,1.964,3.193.756,1.394,1.506,2.791,2.244,4.195,1.455,2.767,2.856,5.561,4.178,8.395.456.979,1.866,1.227,2.736.718,1.004-.587,1.176-1.754.718-2.736h0Z"/><path class="l" d="M173.529,93.55c1.655-4.926,6.924-17.632,8.361-18.357.912-.46,1.97-.5,2.991-.53,4.951-.149,9.901-.298,14.852-.447-5.524,7.416-11.21,13.498-17.184,20.557"/><path class="j" d="M175.457,94.082c1.684-4.975,3.718-9.92,6.077-14.613.435-.865.914-1.688,1.41-2.517.255-.427.006.017-.008-.007-.162-.256.931-.194-.089.007.859-.169,1.635-.276,2.53-.304,4.785-.149,9.571-.288,14.357-.432l-1.727-3.009c-5.25,7.023-11.207,13.469-16.871,20.152-1.655,1.953,1.161,4.796,2.828,2.828,5.888-6.946,12.039-13.661,17.497-20.962.92-1.231-.325-3.052-1.727-3.009-5.093.153-10.202.199-15.291.462-1.565.081-3.327.269-4.407,1.528-.667.779-1.159,1.706-1.631,2.61-2.692,5.156-4.94,10.694-6.804,16.202-.827,2.444,3.035,3.493,3.857,1.063h0Z"/><path class="j" d="M151.598,110.914c4.425-5.669,9.109-11.192,13.944-16.515.774-.852,1.568-1.675,2.385-2.484.2-.199.522-.271-.039.009.105-.053.225-.096-.122.033-.597.222-1.041-.007-1.582-.073.036.004.311.185.308.2-.027.118-.188-.151-.108-.085.12.097.24.194.358.292,2.667,2.219,5.134,4.699,7.64,7.094,3.195,3.055,6.356,6.152,9.634,9.118,1.905,1.723,4.742-1.097,2.828-2.828-5.846-5.289-11.212-11.168-17.274-16.213-.882-.734-1.853-1.628-3.105-1.264-.972.282-1.753,1.239-2.427,1.944-2.556,2.673-4.947,5.513-7.34,8.33-2.688,3.164-5.374,6.341-7.929,9.614-.664.851-.83,1.999,0,2.828.691.691,2.16.856,2.828,0h0Z"/></g><g id="h"><path class="j" d="M164.326,154.684c3.716-.027,7.416-.366,11.127-.5l-2-2c.022.309.004.609.002.917.003-.403-.018.101-.038.191-.032.149-.072.296-.116.442s-.094.29-.149.433c.102-.268.003-.019-.062.108-.155.302-.334.585-.53.861-.607.856-.18,2.262.718,2.736,1.029.543,2.089.196,2.736-.718,1.008-1.422,1.565-3.225,1.439-4.971-.076-1.048-.855-2.041-2-2-3.712.134-7.411.473-11.127.5-1.046.008-2.049.914-2,2,.048,1.077.879,2.008,2,2h0Z"/><path class="n" d="M167.455,141.145c-.235.895-.445,1.798-.599,2.71-.101.596-.16,1.07-.014,1.665.168.682.664,1.287,1.294,1.589.517.248,1.063.433,1.647.408.36-.016.702-.104,1.055-.152.458-.062.974-.541,1.195-.919.251-.429.357-1.061.202-1.541-.157-.484-.457-.951-.919-1.195l-.478-.202c-.354-.095-.709-.095-1.063,0-.134.018-.265.051-.399.069l.532-.071c-.119.014-.236.015-.355,0l.532.071c-.132-.021-.255-.059-.378-.11l.478.202c-.077-.036-.153-.073-.224-.119l.405.313c-.036-.029-.063-.056-.092-.091l.313.405c-.025-.037-.044-.072-.062-.113l.202.478c-.02-.058-.034-.115-.043-.176l.071.532c-.013-.131-.006-.26.011-.391l-.071.532c.14-.953.374-1.899.619-2.831.133-.506.064-1.088-.202-1.541-.243-.415-.718-.811-1.195-.919-.512-.117-1.087-.091-1.541.202-.435.281-.785.683-.919,1.195h0Z"/><path class="n" d="M184.202,134.623c.462,1.502.161,4.957-2.684,5.251-3.761-.023-3.961-4.2-2.695-6.163,1.036-1.608,4.084-2.277,5.379.913Z"/><path class="n" d="M154.212,134.623c-.462,1.502-.161,4.957,2.684,5.251,3.761-.022,3.961-4.199,2.695-6.163-1.036-1.608-4.084-2.277-5.379.913Z"/></g></g></g></svg>