<?xml version="1.0" standalone="no"?>
<!DOCTYPE svg PUBLIC "-//W3C//DTD SVG 20010904//EN"
 "http://www.w3.org/TR/2001/REC-SVG-20010904/DTD/svg10.dtd">
<svg version="1.0" xmlns="http://www.w3.org/2000/svg"
 width="900.000000pt" height="900.000000pt" viewBox="0 0 900.000000 900.000000"
 preserveAspectRatio="xMidYMid meet">

<g transform="translate(0.000000,900.000000) scale(0.100000,-0.100000)"
fill="#000000" stroke="none">
<path d="M5155 8989 c-121 -17 -240 -42 -251 -53 -13 -12 -43 -164 -73 -366
-25 -169 -43 -220 -135 -389 -41 -75 -77 -146 -81 -159 -3 -12 -11 -19 -17
-16 -6 4 -101 6 -212 5 -190 -2 -208 -4 -343 -36 -171 -41 -220 -63 -288 -129
-44 -43 -56 -64 -79 -134 l-28 -83 -31 48 c-54 86 -115 226 -141 325 -31 120
-47 287 -33 363 12 71 5 96 -40 146 -42 46 -96 76 -198 109 -38 12 -145 60
-237 105 -165 82 -232 105 -308 105 -39 0 -41 -2 -97 -87 -125 -195 -183 -327
-183 -422 l0 -58 -313 -6 c-311 -6 -480 -19 -506 -40 -11 -9 -12 -64 -8 -302
6 -328 9 -352 79 -490 60 -120 90 -213 138 -435 70 -317 67 -292 75 -775 4
-247 10 -477 13 -510 l7 -59 45 -9 c81 -15 240 -11 310 8 225 62 374 219 435
459 39 155 47 286 43 767 l-3 447 55 -25 c130 -57 207 -127 264 -241 19 -38
46 -83 61 -100 l26 -31 -16 -168 c-9 -92 -20 -202 -26 -243 -6 -41 -14 -367
-19 -725 -5 -357 -11 -760 -15 -895 -8 -284 -10 -292 -112 -420 -84 -106 -139
-188 -170 -256 -26 -56 -27 -68 -31 -248 -4 -190 10 -544 29 -731 19 -188 63
-364 119 -475 35 -69 96 -140 120 -140 10 0 28 -12 39 -26 40 -51 61 -56 295
-65 121 -5 222 -11 224 -14 3 -2 -36 -66 -85 -142 -200 -306 -277 -449 -328
-602 -27 -81 -28 -90 -22 -230 4 -95 14 -179 28 -241 12 -52 22 -107 22 -122
0 -16 3 -28 7 -28 3 0 27 -19 51 -43 53 -50 115 -82 213 -107 l71 -19 -55 -1
c-70 0 -149 -36 -181 -81 -20 -28 -25 -49 -27 -114 -4 -107 20 -159 91 -194
48 -24 51 -24 340 -22 327 1 551 14 676 37 122 22 132 30 155 108 23 81 18
151 -13 195 l-22 31 287 0 287 0 -5 -95 c-5 -95 -5 -96 29 -153 62 -103 -5
-93 594 -90 l528 3 36 35 c47 45 72 94 81 158 10 79 -10 144 -63 198 -34 36
-42 49 -33 59 9 11 3 14 -32 17 l-43 3 75 25 74 25 10 45 c15 64 12 704 -3
815 -14 109 -41 167 -119 258 -32 37 -72 94 -90 126 l-32 59 128 -6 c86 -3
147 -1 183 8 148 35 426 203 527 320 43 50 99 166 117 241 27 117 37 368 33
869 -5 538 -4 533 -75 674 -60 120 -119 200 -208 280 -46 43 -122 128 -168
189 -104 139 -147 179 -251 228 -92 44 -179 65 -317 75 l-97 7 -5 156 c-4 134
-8 166 -30 228 -35 99 -44 150 -67 371 -28 276 -39 311 -200 652 -138 292
-155 341 -226 635 l-66 270 7 185 c4 102 10 260 14 352 l6 167 42 -19 c54 -24
133 -97 174 -161 17 -27 49 -100 71 -162 46 -131 64 -164 151 -274 93 -118
102 -135 156 -300 27 -81 65 -193 86 -248 20 -55 61 -194 90 -310 29 -115 60
-226 69 -246 l15 -37 84 -7 c133 -11 376 32 409 73 18 21 25 2070 8 2102 -6
12 -26 28 -43 35 -30 13 -31 14 -7 15 21 0 17 4 -23 26 -47 25 -52 25 -222 22
-153 -3 -175 -1 -192 15 -11 9 -24 17 -30 17 -6 0 -13 18 -17 40 -3 22 -8 40
-10 40 -3 0 -125 11 -272 25 -276 26 -601 32 -729 14z m769 -58 c104 -11 192
-23 197 -28 9 -9 24 -91 48 -263 13 -98 20 -126 33 -128 13 -3 17 12 22 95 3
54 8 117 12 139 l6 42 126 7 c142 7 186 -1 267 -51 l47 -29 -6 -920 c-4 -506
-9 -968 -13 -1027 l-6 -107 -46 -15 c-107 -34 -256 -51 -335 -39 -49 8 -49 8
-68 63 -11 30 -39 136 -63 235 -24 99 -66 239 -93 310 -27 72 -61 172 -76 224
-36 124 -69 188 -158 302 -99 126 -104 135 -138 240 -63 192 -148 306 -271
364 -35 17 -68 36 -72 43 -6 9 -18 11 -34 7 -13 -3 -63 2 -109 11 -50 10 -89
13 -94 8 -13 -14 -58 -206 -75 -319 -22 -146 -16 -467 9 -492 3 -3 46 -8 96
-11 l90 -5 20 -63 c10 -35 22 -87 26 -115 10 -73 52 -80 55 -9 0 14 22 -60 48
-165 51 -203 76 -267 220 -573 134 -282 156 -353 181 -600 24 -238 30 -273 66
-372 23 -65 27 -95 31 -226 l5 -151 -233 -5 c-129 -3 -242 -9 -251 -13 -17 -7
-18 13 -18 336 0 336 -15 585 -39 675 -18 68 -72 146 -118 172 -97 53 -338 74
-443 38 -96 -33 -130 -56 -165 -110 -52 -82 -70 -142 -70 -228 0 -43 0 -78 -1
-78 -1 0 -17 33 -37 73 -48 95 -115 178 -179 222 -60 40 -243 115 -282 115
-14 0 -26 5 -26 10 0 17 -95 11 -166 -11 -60 -19 -77 -30 -135 -89 -72 -72
-118 -154 -145 -255 -13 -49 -16 -118 -16 -390 1 -421 9 -464 116 -624 20 -29
36 -56 36 -60 0 -4 14 -17 30 -29 17 -13 30 -26 30 -30 0 -4 -37 -20 -83 -35
-139 -48 -275 -121 -376 -200 -99 -78 -179 -130 -220 -142 l-24 -7 7 243 c4
134 12 532 16 884 7 538 11 668 28 815 11 96 23 220 27 274 7 88 12 109 52
192 24 52 51 128 60 170 27 134 5 167 -205 299 -137 87 -121 70 -287 309 -95
137 -95 137 -95 -189 l0 -274 -47 14 c-66 20 -95 19 -91 -2 2 -12 25 -24 71
-37 l69 -19 -5 -521 c-5 -571 -8 -605 -67 -768 -38 -103 -90 -179 -163 -239
-133 -107 -306 -153 -478 -125 l-46 7 -6 52 c-4 29 -9 252 -13 497 -6 488 -1
437 -83 815 -43 196 -65 263 -127 393 -30 61 -59 131 -65 155 -6 23 -13 166
-16 318 l-5 276 43 7 c98 15 316 25 517 26 l212 0 -5 -22 c-3 -13 -14 -81 -25
-152 -15 -93 -32 -157 -60 -228 -43 -105 -50 -148 -25 -148 9 0 18 8 22 18 3
9 23 60 43 112 28 71 44 137 64 259 14 90 30 169 35 175 5 6 11 45 13 86 3 64
10 89 51 173 26 55 75 144 109 198 53 83 67 99 89 99 48 0 134 -32 283 -107
82 -41 188 -87 237 -103 100 -33 153 -64 193 -111 25 -30 27 -36 19 -83 -18
-113 5 -314 53 -467 58 -189 256 -494 230 -356 -7 36 29 155 63 211 28 44 94
95 154 118 27 10 106 32 174 48 116 28 138 30 324 30 126 0 199 -4 199 -10 0
-5 7 -10 15 -10 9 0 26 24 40 57 14 31 54 109 90 172 79 144 100 208 125 374
11 73 30 182 41 244 l21 111 87 16 c47 9 113 20 146 25 96 15 547 5 759 -18z
m-661 -582 l40 -11 -7 -191 c-3 -106 -9 -284 -13 -397 -5 -154 -9 -198 -16
-175 -16 51 -25 55 -101 55 -115 0 -111 -8 -111 232 1 182 3 216 28 329 39
186 38 183 94 175 25 -3 64 -11 86 -17z m-2483 -628 c94 -139 115 -159 246
-237 53 -32 117 -77 143 -100 44 -40 46 -44 45 -92 -2 -59 -32 -151 -78 -241
l-33 -64 -20 29 c-11 16 -35 57 -52 91 -50 101 -151 184 -280 233 l-61 22 0
239 c0 132 2 239 5 239 2 0 40 -54 85 -119z m2220 -1231 c144 -18 207 -44 245
-102 43 -64 55 -113 70 -278 16 -180 30 -820 18 -820 -4 0 -57 -4 -118 -10
-60 -5 -220 -14 -355 -20 -135 -5 -268 -13 -296 -16 l-51 -6 20 99 c18 84 21
138 21 368 1 149 -2 291 -6 317 -6 34 -4 51 6 61 16 16 24 47 35 150 16 144
81 216 229 251 72 18 80 18 182 6z m-942 -26 c100 -33 213 -86 257 -120 89
-68 179 -234 196 -364 16 -115 6 -520 -15 -620 -9 -41 -16 -87 -16 -102 0 -22
-5 -28 -22 -28 -81 0 -425 -92 -546 -146 -34 -15 -59 -21 -66 -15 -6 5 -25 12
-43 16 -38 8 -87 59 -136 143 -66 112 -69 129 -77 437 -13 448 4 547 119 693
49 62 105 101 169 118 69 19 95 17 180 -12z m2105 -1218 c81 -18 197 -72 251
-117 21 -18 75 -82 121 -143 46 -61 130 -156 187 -211 145 -141 221 -274 254
-443 17 -89 20 -904 4 -1127 -18 -243 -63 -360 -185 -473 -92 -86 -305 -214
-411 -249 -74 -24 -87 -25 -223 -19 -91 3 -147 10 -152 17 -3 6 -16 8 -27 5
-28 -9 -245 27 -411 68 -75 19 -218 51 -319 70 -101 20 -196 43 -212 51 -31
16 -70 65 -70 88 0 8 -7 31 -15 52 -13 31 -16 93 -15 386 0 212 -4 357 -10
369 -12 23 11 92 73 215 25 50 55 114 68 144 40 96 125 135 419 193 182 36
233 54 316 114 117 83 132 160 89 454 -14 102 -30 188 -33 192 -4 4 -63 22
-132 40 l-125 32 -470 4 c-519 3 -921 -9 -1002 -32 -91 -25 -146 -59 -236
-147 -118 -118 -132 -149 -131 -299 1 -173 42 -303 106 -336 22 -11 72 -19
158 -24 143 -8 198 -27 331 -117 102 -69 181 -107 267 -128 88 -21 92 -26 174
-209 l60 -131 -2 -205 c-1 -194 -22 -595 -31 -604 -4 -4 -104 -57 -231 -124
-46 -24 -52 -24 -440 -34 -410 -11 -606 -5 -943 28 -142 14 -164 19 -199 42
-135 92 -217 336 -246 732 -17 233 -24 666 -12 743 13 80 64 170 180 317 41
52 84 114 95 137 12 25 28 43 38 43 34 0 157 72 247 144 111 89 222 148 397
210 72 26 180 67 242 91 124 49 283 94 446 124 103 20 186 27 652 52 116 6
266 17 335 24 173 18 678 12 773 -9z m-568 -585 c81 -10 174 -39 211 -65 18
-14 17 -16 -20 -31 -87 -37 -168 -46 -491 -55 -196 -5 -321 -5 -323 1 -2 5
-170 9 -411 9 l-407 0 -27 28 c-24 25 -27 34 -21 70 6 38 9 41 43 45 79 8
1371 6 1446 -2z m-679 -1936 c-3 -8 -1 -15 4 -15 6 0 41 -21 79 -46 67 -44 77
-48 263 -84 106 -21 257 -54 334 -74 78 -19 201 -43 273 -53 l131 -18 35 -65
c18 -36 50 -86 70 -110 139 -174 141 -182 156 -445 11 -182 6 -564 -7 -633 -6
-31 -10 -33 -118 -68 -61 -19 -137 -38 -168 -41 -32 -3 -58 -9 -58 -14 0 -7
-129 -39 -245 -59 -146 -25 -414 -32 -1162 -27 -722 4 -776 5 -902 25 -211 34
-286 60 -362 129 -46 42 -71 111 -94 268 -46 311 -5 430 330 953 l110 172 185
-6 c102 -3 251 -9 331 -14 115 -8 164 -7 235 5 49 8 121 15 159 15 63 0 76 4
122 33 29 18 71 40 95 47 53 18 144 74 161 100 6 11 17 20 24 20 7 0 13 5 13
10 0 6 3 10 6 10 3 0 4 -7 0 -15z m1251 -1716 c92 -69 119 -140 89 -241 -21
-74 -68 -118 -136 -129 -28 -4 -184 -8 -346 -9 l-294 0 -55 27 c-50 25 -55 30
-55 60 0 46 19 131 42 184 l19 46 101 7 c55 3 147 16 205 27 l105 21 34 -33
c90 -87 97 -194 22 -301 -15 -22 -3 -36 20 -22 34 20 62 94 62 162 0 68 -18
114 -66 171 -14 18 -25 33 -23 35 12 10 131 34 173 35 43 1 56 -4 103 -40z
m-2654 -86 c-104 -97 -102 -208 4 -289 l42 -32 -29 -5 c-48 -10 -180 9 -208
30 -41 31 -62 81 -62 149 0 111 59 164 195 175 44 3 84 7 89 7 5 1 -9 -15 -31
-35z m280 27 c198 -13 251 -31 261 -88 15 -93 -6 -167 -67 -230 l-31 -32 -151
0 c-147 0 -153 1 -211 29 -99 49 -141 109 -122 180 8 29 28 52 123 141 13 12
12 12 198 0z m1580 -60 c-15 -39 -26 -90 -30 -143 -5 -82 -5 -82 23 -99 28
-17 27 -17 -98 -18 l-127 0 -24 33 c-43 57 -50 80 -55 179 l-5 97 164 4 c90 1
167 4 170 5 4 1 -4 -25 -18 -58z m-961 28 c42 -19 68 -61 68 -110 -1 -43 -34
-139 -52 -149 -27 -15 -183 -39 -296 -46 l-116 -6 22 31 c46 64 62 147 45 245
-4 26 -13 42 -27 48 -13 6 40 8 149 6 128 -3 179 -7 207 -19z"/>
<path d="M4791 7396 c-105 -124 -191 -228 -191 -231 0 -7 54 -55 76 -68 9 -5
72 63 203 217 105 124 191 228 191 231 0 7 -54 55 -76 68 -9 5 -72 -62 -203
-217z"/>
<path d="M3767 6975 c-15 -25 -27 -49 -27 -53 0 -4 115 -80 256 -170 233 -148
257 -161 269 -146 21 29 48 84 44 88 -6 6 -509 326 -512 326 -1 0 -14 -20 -30
-45z"/>
<path d="M4847 5772 c-23 -26 -22 -94 1 -115 26 -23 94 -22 115 1 23 26 22 94
-1 115 -26 23 -94 22 -115 -1z"/>
<path d="M3997 5732 c-23 -26 -22 -94 1 -115 26 -23 94 -22 115 1 23 26 22 94
-1 115 -26 23 -94 22 -115 -1z"/>
<path d="M4295 2228 c-71 -4 -135 -10 -141 -12 -13 -5 -32 -105 -40 -218 l-7
-88 -78 0 c-79 0 -107 -15 -46 -24 17 -3 156 -7 307 -9 151 -3 323 -10 383
-17 l107 -13 0 -96 c-1 -114 -21 -239 -47 -284 -10 -17 -36 -41 -58 -52 -38
-19 -59 -20 -400 -19 -378 1 -498 10 -595 45 -91 33 -90 33 -90 15 0 -43 198
-86 396 -86 l110 0 19 -77 c9 -43 23 -81 29 -85 16 -11 866 -9 966 2 47 5 114
18 150 28 36 11 101 25 145 32 97 15 130 31 225 110 41 34 94 75 119 92 66 44
101 79 101 100 0 25 -7 23 -55 -19 -23 -21 -71 -59 -106 -86 -35 -26 -92 -69
-126 -96 -49 -39 -76 -52 -133 -65 -88 -20 -214 -23 -296 -6 l-61 12 -11 63
c-7 34 -12 86 -12 116 l0 53 118 116 c65 63 204 198 310 298 176 169 213 212
180 212 -7 0 -78 -66 -158 -146 l-145 -145 -6 133 c-4 79 -12 149 -21 173
l-15 40 -204 6 c-291 9 -662 8 -814 -3z m724 -25 l271 -6 15 -51 c8 -28 15
-104 17 -168 l2 -118 -137 -131 c-76 -72 -144 -144 -152 -160 -18 -34 -19
-129 -1 -219 l12 -65 79 -15 c76 -15 78 -17 45 -24 -19 -4 -253 -10 -520 -13
l-486 -5 -15 65 -16 65 256 4 c250 3 257 4 306 28 36 18 55 36 68 63 28 56 46
178 47 308 l0 115 -177 17 c-98 10 -250 17 -337 17 l-159 0 7 83 c3 45 11 107
17 139 l11 56 107 7 c58 3 117 7 131 9 51 6 344 6 609 -1z"/>
</g>
</svg>
